<?xml version="1.0" encoding="UTF-8" standalone="no"?>
<!-- Created with Inkscape (http://www.inkscape.org/) -->

<svg
   xmlns:dc="http://purl.org/dc/elements/1.1/"
   xmlns:cc="http://creativecommons.org/ns#"
   xmlns:rdf="http://www.w3.org/1999/02/22-rdf-syntax-ns#"
   xmlns:svg="http://www.w3.org/2000/svg"
   xmlns="http://www.w3.org/2000/svg"
   xmlns:sodipodi="http://sodipodi.sourceforge.net/DTD/sodipodi-0.dtd"
   xmlns:inkscape="http://www.inkscape.org/namespaces/inkscape"
   width="200"
   height="200"
   viewBox="0 0 200 200"
   id="svg2"
   version="1.1"
   inkscape:version="0.91 r13725"
   sodipodi:docname="alexandriasymbol.svg">
  <defs
     id="defs4" />
  <sodipodi:namedview
     id="base"
     pagecolor="#ffffff"
     bordercolor="#666666"
     borderopacity="1.0"
     inkscape:pageopacity="0.0"
     inkscape:pageshadow="2"
     inkscape:zoom="1.4"
     inkscape:cx="183.0762"
     inkscape:cy="154.93508"
     inkscape:document-units="px"
     inkscape:current-layer="layer1"
     showgrid="false"
     units="px"
     showguides="true"
     inkscape:guide-bbox="true"
     inkscape:snap-center="true"
     inkscape:snap-object-midpoints="true"
     inkscape:snap-smooth-nodes="true"
     inkscape:object-nodes="true"
     inkscape:snap-intersection-paths="true"
     inkscape:object-paths="true"
     inkscape:snap-bbox="true"
     inkscape:bbox-paths="true"
     inkscape:bbox-nodes="true"
     inkscape:snap-bbox-edge-midpoints="true"
     inkscape:snap-bbox-midpoints="true"
     inkscape:window-width="1366"
     inkscape:window-height="720"
     inkscape:window-x="0"
     inkscape:window-y="23"
     inkscape:window-maximized="1"
     inkscape:snap-nodes="false">
    <sodipodi:guide
       position="0,-12.626907"
       orientation="1,0"
       id="guide3336" />
    <sodipodi:guide
       position="244.45692,200.0102"
       orientation="0,1"
       id="guide3338" />
    <sodipodi:guide
       position="200.0102,58.083771"
       orientation="1,0"
       id="guide3340" />
    <sodipodi:guide
       position="-15.657364,0"
       orientation="0,1"
       id="guide3342" />
    <sodipodi:guide
       position="100.0051,185.36299"
       orientation="1,0"
       id="guide3350" />
    <sodipodi:guide
       position="86.368043,150.00765"
       orientation="0,1"
       id="guide3354" />
    <sodipodi:guide
       position="0,50.002551"
       orientation="0,1"
       id="guide3356" />
  </sodipodi:namedview>
  <metadata
     id="metadata7">
    <rdf:RDF>
      <cc:Work
         rdf:about="">
        <dc:format>image/svg+xml</dc:format>
        <dc:type
           rdf:resource="http://purl.org/dc/dcmitype/StillImage" />
        <dc:title></dc:title>
      </cc:Work>
    </rdf:RDF>
  </metadata>
  <g
     inkscape:label="Layer 1"
     inkscape:groupmode="layer"
     id="layer1"
     transform="translate(0,-852.36216)">
    <rect
       style="fill:none;fill-opacity:1;stroke:none;stroke-width:0.5;stroke-opacity:1"
       id="rect3344"
       width="200.01019"
       height="200.01019"
       x="0"
       y="852.35199" />
    <circle
       style="fill:none;fill-opacity:1;stroke:#ffffff;stroke-width:9.79554081;stroke-opacity:1"
       id="path3348"
       cx="100.0051"
       cy="952.35706"
       r="95.107292" />
    <circle
       style="fill:none;fill-opacity:1;stroke:#ffffff;stroke-width:9.51024437;stroke-opacity:1"
       id="path3775"
       cx="100.0051"
       cy="952.35706"
       r="95.107292" />
    <path
       style="fill:#00ffff"
       d="m 66.768865,1026.5831 c -0.405783,-0.6565 0.217881,-5.8659 4.71215,-39.35996 5.961926,-44.43201 8.396505,-62.958 8.396505,-63.89346 0,-0.60983 -0.616757,-1.01415 -1.54702,-1.01415 -2.030968,0 -3.161302,-1.20249 -3.161302,-3.36308 0,-3.14613 0.812838,-3.35885 13.082409,-3.42375 8.61859,-0.0456 10.90317,-0.22315 9.194425,-0.71458 -3.438137,-0.9888 -5.401884,-2.52479 -6.845382,-5.35427 -2.988635,-5.85821 -0.474384,-12.96079 5.420032,-15.31121 1.238625,-0.49391 -0.908834,-0.68161 -8.157552,-0.71302 -10.518458,-0.0456 -12.206701,-0.54573 -10.788292,-3.19606 0.623106,-1.16428 19.615717,-12.0903 22.183905,-12.7619 1.265017,-0.33081 21.492847,10.40754 22.979917,12.19935 0.43864,0.52852 0.60077,1.58083 0.36031,2.33846 -0.41394,1.30423 -0.9626,1.37891 -10.31299,1.40384 -8.82003,0.0236 -9.66006,0.12261 -7.85792,0.92701 4.59478,2.05092 7.45482,7.44086 6.40894,12.07813 -0.96546,4.28069 -3.49188,6.78713 -8.7631,8.69377 -0.55491,0.20071 4.05028,0.38883 10.23375,0.41804 10.397,0.0491 11.29505,0.15097 11.93896,1.35411 1.47882,2.76322 -0.0183,5.42516 -3.05116,5.42516 -0.89842,0 -1.6335,0.15369 -1.6335,0.34153 0,0.18784 0.59347,4.65234 1.31881,9.92111 0.72535,5.26876 2.70374,20.1733 4.39642,33.12119 1.69269,12.94788 4.15712,31.6415 5.47652,41.54144 1.31939,9.8999 2.22594,18.4506 2.01455,19.0015 -0.33308,0.8679 -4.73349,1.0016 -32.987711,1.0016 -20.617036,0 -32.753476,-0.243 -33.011674,-0.6608 z M 24.498686,917.83141 c -0.246629,-0.24662 -0.448414,-6.46102 -0.448414,-13.80976 0,-10.78221 0.180356,-13.43057 0.93434,-13.7199 0.513886,-0.19719 5.735079,0.25904 11.60265,1.01386 5.867572,0.75482 19.118028,2.44382 29.445457,3.75334 10.327436,1.30952 19.180763,2.71592 19.674061,3.12531 0.985707,0.81806 1.276614,10.37539 0.359722,11.81807 -0.325567,0.51226 -9.835382,1.95466 -25.71732,3.90067 -13.860398,1.69833 -27.168128,3.36964 -29.572736,3.71402 -5.304718,0.75974 -5.709244,0.77291 -6.27776,0.20439 z M 163.61839,916.9214 c -4.80922,-0.65846 -17.67302,-2.32047 -28.58624,-3.69337 -10.91321,-1.37289 -20.11246,-2.74799 -20.44277,-3.05577 -0.80251,-0.74778 -0.77257,-11.30318 0.0344,-12.1101 0.54494,-0.54494 15.58164,-2.61484 51.28271,-7.0594 4.58789,-0.57116 8.75601,-0.87946 9.26247,-0.68511 0.74596,0.28625 0.88627,2.94334 0.73873,13.98962 l -0.18215,13.63625 -1.68155,0.0875 c -0.92484,0.0481 -5.61635,-0.45121 -10.42557,-1.10965 z"
       id="path4119"
       inkscape:connector-curvature="0" />
  </g>
</svg>
