<?xml version="1.0" encoding="UTF-8" standalone="no"?>
<!-- Created with Inkscape (http://www.inkscape.org/) -->

<svg
   xmlns:dc="http://purl.org/dc/elements/1.1/"
   xmlns:cc="http://creativecommons.org/ns#"
   xmlns:rdf="http://www.w3.org/1999/02/22-rdf-syntax-ns#"
   xmlns:svg="http://www.w3.org/2000/svg"
   xmlns="http://www.w3.org/2000/svg"
   xmlns:sodipodi="http://sodipodi.sourceforge.net/DTD/sodipodi-0.dtd"
   xmlns:inkscape="http://www.inkscape.org/namespaces/inkscape"
   width="200"
   height="200"
   viewBox="0 0 200 200"
   id="svg2"
   version="1.1"
   inkscape:version="0.91 r13725"
   sodipodi:docname="archimedessymbol.svg">
  <defs
     id="defs4" />
  <sodipodi:namedview
     id="base"
     pagecolor="#ffffff"
     bordercolor="#666666"
     borderopacity="1.0"
     inkscape:pageopacity="0.0"
     inkscape:pageshadow="2"
     inkscape:zoom="1.4"
     inkscape:cx="170.5762"
     inkscape:cy="154.93508"
     inkscape:document-units="px"
     inkscape:current-layer="layer1"
     showgrid="false"
     units="px"
     showguides="true"
     inkscape:guide-bbox="true"
     inkscape:snap-center="true"
     inkscape:snap-object-midpoints="true"
     inkscape:snap-smooth-nodes="true"
     inkscape:object-nodes="true"
     inkscape:snap-intersection-paths="true"
     inkscape:object-paths="true"
     inkscape:snap-bbox="true"
     inkscape:bbox-paths="true"
     inkscape:bbox-nodes="true"
     inkscape:snap-bbox-edge-midpoints="true"
     inkscape:snap-bbox-midpoints="true"
     inkscape:window-width="1366"
     inkscape:window-height="720"
     inkscape:window-x="0"
     inkscape:window-y="23"
     inkscape:window-maximized="1"
     inkscape:snap-nodes="false">
    <sodipodi:guide
       position="0,-12.626907"
       orientation="1,0"
       id="guide3336" />
    <sodipodi:guide
       position="244.45692,200.0102"
       orientation="0,1"
       id="guide3338" />
    <sodipodi:guide
       position="200.0102,58.083771"
       orientation="1,0"
       id="guide3340" />
    <sodipodi:guide
       position="-15.657364,0"
       orientation="0,1"
       id="guide3342" />
    <sodipodi:guide
       position="100.0051,185.36299"
       orientation="1,0"
       id="guide3350" />
    <sodipodi:guide
       position="86.368043,150.00765"
       orientation="0,1"
       id="guide3354" />
    <sodipodi:guide
       position="0,50.002551"
       orientation="0,1"
       id="guide3356" />
  </sodipodi:namedview>
  <metadata
     id="metadata7">
    <rdf:RDF>
      <cc:Work
         rdf:about="">
        <dc:format>image/svg+xml</dc:format>
        <dc:type
           rdf:resource="http://purl.org/dc/dcmitype/StillImage" />
        <dc:title />
      </cc:Work>
    </rdf:RDF>
  </metadata>
  <g
     inkscape:label="Layer 1"
     inkscape:groupmode="layer"
     id="layer1"
     transform="translate(0,-852.36216)">
    <rect
       style="fill:none;fill-opacity:1;stroke:none;stroke-width:0.5;stroke-opacity:1"
       id="rect3344"
       width="200.01019"
       height="200.01019"
       x="0"
       y="852.35199" />
    <circle
       style="fill:none;fill-opacity:1;stroke:#ffffff;stroke-width:9.79554081;stroke-opacity:1"
       id="path3348"
       cx="100.0051"
       cy="952.35706"
       r="95.107292" />
    <circle
       style="fill:none;fill-opacity:1;stroke:#ffffff;stroke-width:9.51024437;stroke-opacity:1"
       id="path3775"
       cx="100.0051"
       cy="952.35706"
       r="95.107292" />
    <path
       id="path4060"
       style="fill:#00ffff"
       d="m 107.62746,891.22934 c 0.31589,-4.97193 -0.0932,-6.27313 -2.89013,-9.19249 l -3.25811,-3.40075 -2.744575,2.57844 c -2.18072,2.04865 -2.744545,3.83562 -2.744545,8.69818 0,3.36599 0.380988,6.50089 0.846639,6.96661 0.465663,0.46561 3.001273,0.68803 5.634711,0.49419 l 4.78804,-0.35231 0.36797,-5.79187 z m -16.349918,33.74705 c -3.091678,-7.46389 2.210305,-15.49955 10.226768,-15.49955 2.2044,0 5.04698,0.64888 6.31688,1.44189 2.10127,1.31223 2.14291,1.62528 0.46314,3.48141 -1.49356,1.65043 -2.38894,1.79206 -4.69266,0.74235 -4.18696,-1.90761 -8.047683,1.80203 -7.215054,6.93281 0.54927,3.38484 -0.790138,6.38155 -2.852363,6.38155 -0.442792,0 -1.453822,-1.56621 -2.246711,-3.48046 z m 16.909738,11.344 c 6.28064,-2.67619 9.42243,-7.01881 10.08779,-13.94331 1.05265,-10.95515 -5.85162,-18.83612 -16.49373,-18.8271 -13.435546,0.0119 -21.27187,12.92692 -15.058728,24.81909 4.416221,8.45274 12.90649,11.59785 21.464668,7.95132 z m 21.08775,20.57077 c 5.33362,-2.72102 5.62611,-0.96371 -2.70596,-16.25674 l -4.67562,-8.58193 -3.99723,4.23836 -3.99725,4.23835 4.98402,9.36213 c 2.7412,5.14916 5.13873,9.37245 5.32783,9.38514 0.1891,0.0131 2.46799,-1.06075 5.06421,-2.38531 z m -45.867905,-7.23554 5.463775,-9.64374 -3.977273,-4.4023 -3.977285,-4.40241 -6.105015,10.4447 c -3.357753,5.74454 -6.105003,10.89275 -6.105003,11.44044 0,0.72824 7.670178,5.95604 9.066953,6.17977 0.09348,0.0154 2.628766,-4.31238 5.633848,-9.61646 z m 15.137542,8.45821 c -0.395045,-5.70101 -0.291094,-5.93197 2.669083,-5.93197 2.9053,0 3.08011,0.33666 3.08011,5.93125 0,4.86873 0.37188,5.92616 2.07594,5.90291 2.68614,-0.0368 10.9861,-1.96206 11.74977,-2.72577 0.32396,-0.32385 -1.58024,-4.54144 -4.23155,-9.37233 l -4.82057,-8.78324 -7.75928,-0.0735 -7.759279,-0.0736 -4.880899,8.45192 c -2.684497,4.64856 -5.081969,8.8187 -5.327724,9.26698 -0.485367,0.88554 7.862765,3.00418 12.649832,3.21047 2.836456,0.12219 2.947714,-0.1306 2.554567,-5.8042 z M 72.36478,968.59388 c 1.341069,-2.62874 2.267613,-4.89815 2.058987,-5.04335 -0.208625,-0.14508 -2.348799,-1.39076 -4.755951,-2.76823 l -4.376636,-2.50442 -2.934001,4.95912 c -2.620262,4.42887 -2.723074,5.03943 -0.961492,5.70895 1.084874,0.41223 2.978023,1.86764 4.20699,3.2342 2.723157,3.0279 3.634364,2.54462 6.762103,-3.58627 z M 60.62797,999.0627 c 5.148564,-2.0963 7.895826,-11.33982 5.251377,-17.66882 -3.401372,-8.14065 -13.0768,-11.27413 -20.616787,-6.67694 -8.281808,5.0494 -9.512175,16.13574 -2.516085,22.67106 4.748241,4.4355 9.912998,4.9192 17.881495,1.6747 z m -5.852119,9.1695 c 0.874836,-1.1067 0.389482,-1.4829 -1.913232,-1.4829 -2.896338,0 -2.998865,0.1901 -1.67291,3.1002 0.894623,1.9635 1.596112,2.5071 1.913232,1.4828 0.275377,-0.8896 1.028183,-2.2846 1.67291,-3.1001 z m 104.524969,0.4648 2.21881,-4.157 -12.30194,-22.61374 c -6.76606,-12.4376 -12.56885,-22.61397 -12.89506,-22.6142 -0.32622,-3.6e-4 -2.54476,1.19775 -4.93009,2.66242 l -4.33694,2.66301 13.82191,25.11115 c 8.66027,15.73356 14.2668,24.73656 15.01321,24.10836 0.65521,-0.5516 2.18976,-2.8735 3.4101,-5.16 z M 138.1269,996.0327 c -12.74636,-23.2395 -16.71236,-29.5634 -18.23959,-29.08321 -1.776,0.55837 -14.1406,3.02613 -15.16224,3.02613 -0.23716,0 -0.43121,3.24001 -0.43121,7.19995 0,6.7882 -0.15267,7.17836 -2.66906,6.82094 -2.364433,-0.33571 -2.709691,-1.15754 -3.024842,-7.19995 -0.195672,-3.75152 -0.729485,-6.83019 -1.186251,-6.84158 -0.456777,-0.0119 -4.530362,-0.8044 -9.05242,-1.76229 -4.522059,-0.95802 -8.298333,-1.61603 -8.391727,-1.4623 -7.405656,12.19158 -7.704484,12.94152 -7.704484,19.33636 0,7.26852 -1.727715,11.48365 -6.532623,15.93765 -1.759613,1.6311 -5.286075,7.1026 -7.836585,12.159 -2.550498,5.0564 -4.892275,9.1936 -5.203927,9.1936 -0.311652,0 -2.653429,-4.1372 -5.203927,-9.1936 -2.55051,-5.0564 -6.076972,-10.5279 -7.836585,-12.159 -4.695975,-4.3531 -6.806374,-9.17827 -6.806374,-15.5622 0,-9.74244 5.895416,-16.60917 16.605433,-19.34134 4.362152,-1.11282 5.641891,-2.16479 8.124049,-6.67847 l 2.946278,-5.35758 -4.603055,-4.83884 c -2.531672,-2.66135 -6.282561,-7.5684 -8.335309,-10.90449 l -3.732252,-6.06565 2.584792,-1.38341 c 1.758889,-0.94129 2.717653,-0.98471 3.000585,-0.13594 0.884884,2.65471 7.410081,11.70698 10.726328,14.88044 l 3.48187,3.33206 7.685528,-13.41519 c 5.359291,-9.35465 7.755481,-14.80702 7.916681,-18.01393 0.285863,-5.68688 2.828342,-10.75739 7.561814,-15.0808 3.461882,-3.16195 3.609226,-3.68497 3.374456,-11.97959 l -0.245483,-8.67327 5.989759,-5.88416 5.989761,-5.88416 5.34066,5.24145 5.34066,5.24145 0,9.31966 c 0,8.99261 0.13079,9.42962 3.72756,12.4561 4.61574,3.88391 8.07447,11.25823 8.1089,17.28901 0.0187,3.27512 1.92604,8.05002 6.75249,16.90407 3.69954,6.7869 7.10134,12.33974 7.55955,12.33974 1.56787,0 10.65002,-10.64767 12.63794,-14.81639 2.20475,-4.62341 2.58592,-4.80977 5.48277,-2.68081 1.84581,1.35648 1.61001,2.10607 -2.76842,8.79997 -2.63235,4.02435 -6.6377,8.94278 -8.90079,10.92975 l -4.1147,3.61285 13.04111,23.82477 c 7.17262,13.10368 13.04112,24.3962 13.04112,25.0944 0,1.656 -11.04358,21.0791 -12.0098,21.1224 -0.40723,0.018 -8.07002,-13.3305 -17.02844,-29.6636 z"
       inkscape:connector-curvature="0" />
  </g>
</svg>
