<?xml version="1.0" encoding="UTF-8" standalone="no"?>
<!-- Created with Inkscape (http://www.inkscape.org/) -->

<svg
   xmlns:dc="http://purl.org/dc/elements/1.1/"
   xmlns:cc="http://creativecommons.org/ns#"
   xmlns:rdf="http://www.w3.org/1999/02/22-rdf-syntax-ns#"
   xmlns:svg="http://www.w3.org/2000/svg"
   xmlns="http://www.w3.org/2000/svg"
   xmlns:sodipodi="http://sodipodi.sourceforge.net/DTD/sodipodi-0.dtd"
   xmlns:inkscape="http://www.inkscape.org/namespaces/inkscape"
   width="200"
   height="200"
   viewBox="0 0 200 200"
   id="svg2"
   version="1.1"
   inkscape:version="0.91 r13725"
   sodipodi:docname="callimachussymbol.svg">
  <defs
     id="defs4" />
  <sodipodi:namedview
     id="base"
     pagecolor="#ffffff"
     bordercolor="#666666"
     borderopacity="1.0"
     inkscape:pageopacity="0.0"
     inkscape:pageshadow="2"
     inkscape:zoom="2.8"
     inkscape:cx="236.99449"
     inkscape:cy="154.32989"
     inkscape:document-units="px"
     inkscape:current-layer="layer1"
     showgrid="false"
     units="px"
     showguides="true"
     inkscape:guide-bbox="true"
     inkscape:snap-center="true"
     inkscape:snap-object-midpoints="true"
     inkscape:snap-smooth-nodes="true"
     inkscape:object-nodes="true"
     inkscape:snap-intersection-paths="true"
     inkscape:object-paths="true"
     inkscape:snap-bbox="true"
     inkscape:bbox-paths="true"
     inkscape:bbox-nodes="true"
     inkscape:snap-bbox-edge-midpoints="true"
     inkscape:snap-bbox-midpoints="true"
     inkscape:window-width="1366"
     inkscape:window-height="720"
     inkscape:window-x="0"
     inkscape:window-y="23"
     inkscape:window-maximized="1">
    <sodipodi:guide
       position="0,-12.626907"
       orientation="1,0"
       id="guide3336" />
    <sodipodi:guide
       position="244.45692,200.0102"
       orientation="0,1"
       id="guide3338" />
    <sodipodi:guide
       position="200.0102,58.083771"
       orientation="1,0"
       id="guide3340" />
    <sodipodi:guide
       position="-15.657364,0"
       orientation="0,1"
       id="guide3342" />
    <sodipodi:guide
       position="100.0051,185.36299"
       orientation="1,0"
       id="guide3350" />
    <sodipodi:guide
       position="86.368043,150.00765"
       orientation="0,1"
       id="guide3354" />
    <sodipodi:guide
       position="0,50.002551"
       orientation="0,1"
       id="guide3356" />
  </sodipodi:namedview>
  <metadata
     id="metadata7">
    <rdf:RDF>
      <cc:Work
         rdf:about="">
        <dc:format>image/svg+xml</dc:format>
        <dc:type
           rdf:resource="http://purl.org/dc/dcmitype/StillImage" />
        <dc:title></dc:title>
      </cc:Work>
    </rdf:RDF>
  </metadata>
  <g
     inkscape:label="Layer 1"
     inkscape:groupmode="layer"
     id="layer1"
     transform="translate(0,-852.36216)">
    <rect
       style="fill:none;fill-opacity:1;stroke:none;stroke-width:0.5;stroke-opacity:1"
       id="rect3344"
       width="200.01019"
       height="200.01019"
       x="0"
       y="852.35199" />
    <circle
       style="fill:none;fill-opacity:1;stroke:#ffffff;stroke-width:9.79554081;stroke-opacity:1"
       id="path3348"
       cx="100.0051"
       cy="952.35706"
       r="95.107292" />
    <circle
       style="fill:none;fill-opacity:1;stroke:#ffffff;stroke-width:9.51024437;stroke-opacity:1"
       id="path3775"
       cx="100.0051"
       cy="952.35706"
       r="95.107292" />
    <path
       style="fill:#00ffff"
       d="m 90.859768,1035.8064 c -36.385953,-4.2472 -65.813879,-31.213 -73.246357,-67.11795 -1.801806,-8.70418 -1.801806,-24.08394 0,-32.78812 5.878916,-28.39999 25.647578,-51.68779 52.658472,-62.03251 10.128637,-3.87914 18.148823,-5.3116 29.738057,-5.3116 11.58925,0 19.60945,1.43246 29.73808,5.3116 22.61023,8.65934 40.02918,26.07829 48.68852,48.68851 3.87906,10.12863 5.3116,18.14883 5.3116,29.73806 0,11.58923 -1.43254,19.60942 -5.3116,29.73806 -12.05962,31.48865 -40.89082,52.36295 -74.61403,54.02195 -4.193828,0.2063 -10.027062,0.095 -12.962742,-0.248 z m 25.162992,-5.8724 c 17.22375,-3.317 34.42905,-13.7695 45.59515,-27.6997 l 5.19151,-6.47657 -33.15168,-0.19863 c -18.23347,-0.10919 -48.293275,-0.10919 -66.799534,0 l -33.647757,0.19863 5.191495,6.47657 c 6.931666,8.6476 16.066854,15.8875 26.532339,21.0279 16.458695,8.0841 32.724984,10.2083 51.088477,6.6718 z M 65.31554,963.22374 c 0,-15.16763 -0.131884,-27.43458 -0.29308,-27.25989 -0.161188,0.17477 -6.722333,11.46951 -14.580325,25.09945 -7.857984,13.62994 -14.959843,25.8969 -15.78191,27.2599 l -1.494665,2.47819 16.07499,0 16.07499,0 0,-27.57765 z m 14.869028,25.8642 c -2.921146,-2.12637 -6.454126,-5.6594 -8.580481,-8.58051 l -1.665149,-2.28756 -0.02417,6.29075 -0.02417,6.29077 6.290743,-0.0244 6.290742,-0.0244 -2.287542,-1.66518 z m 32.750242,-1.207 c 6.1676,-2.88612 11.61927,-8.21602 14.57859,-14.25278 2.05939,-4.20114 2.23462,-5.21597 2.23462,-12.94611 0,-7.50421 -0.21526,-8.84692 -2.04361,-12.74779 -2.85364,-6.08837 -8.20817,-11.54218 -14.25437,-14.51873 -4.69694,-2.31233 -5.53722,-2.47154 -13.04281,-2.47154 -7.384949,0 -8.41628,0.18705 -12.978777,2.35358 -24.810765,11.78153 -22.391665,47.39248 3.812572,56.12397 6.373551,2.12376 15.203315,1.49674 21.693785,-1.5406 z m 17.32028,-2.92722 -0.25544,-5.85115 -3.13035,3.66213 c -1.72168,2.01418 -4.489,4.64645 -6.14968,5.8494 l -3.0194,2.18729 6.40512,0 6.40519,0 -0.25544,-5.85118 z m 35.1073,3.36948 c -0.82054,-1.363 -7.59754,-13.11526 -15.06011,-26.11612 -7.4625,-13.00087 -13.85336,-23.96392 -14.20183,-24.36234 -0.34847,-0.39841 -0.63357,11.35384 -0.63357,26.11612 l 0,26.84053 15.69368,0 15.69377,0 -1.49194,-2.47819 z M 52.352798,948.67603 c 12.371794,-21.4769 27.223825,-47.25651 33.004514,-57.28815 l 10.510337,-18.23919 -5.172737,0.45446 c -8.182601,0.71882 -16.696797,3.27156 -25.760629,7.7235 -16.023406,7.87022 -28.021858,19.86869 -35.892118,35.89208 -2.26588,4.61322 -4.822773,11.13271 -5.681974,14.48778 -3.219473,12.57157 -3.375636,26.90844 -0.430455,39.52027 1.284433,5.50016 5.579973,16.53368 6.428163,16.51134 0.275397,-0.008 10.623105,-17.58519 22.994899,-39.06209 z M 173.5184,982.09262 c 6.27938,-15.08361 7.43497,-33.61988 3.14133,-50.38611 -2.25987,-8.82428 -8.83411,-21.67386 -15.01757,-29.352 -12.59254,-15.63673 -33.44052,-27.09305 -52.32196,-28.75182 l -5.1775,-0.45484 11.1771,19.36664 c 6.14747,10.65164 12.93804,22.40176 15.09023,26.11124 2.1522,3.70955 4.94247,8.56555 6.20062,10.7911 11.74623,20.7779 33.65456,58.2959 34.05137,58.3129 0.27534,0.0114 1.56079,-2.52484 2.85638,-5.63711 z m -94.330552,-49.26118 3.131821,-2.26871 -6.214522,0 -6.214521,0 0,6.16859 0,6.16859 3.0827,-3.89988 c 1.695481,-2.14495 4.492017,-4.92081 6.214522,-6.16859 z m 51.073952,3.83316 -0.24865,-6.10187 -5.82264,0 -5.82263,0 2.63997,2.25659 c 1.45206,1.24107 2.82687,2.27046 3.05524,2.28754 0.22838,0.0168 1.72359,1.74662 3.32274,3.84353 1.59907,2.09691 2.95634,3.81341 3.01605,3.81433 0.0595,7.6e-4 0,-2.74406 -0.14008,-6.10012 z m -1.40158,-11.63009 c -0.32803,-0.52423 -6.8415,-11.76179 -14.47427,-24.97235 -7.6328,-13.21056 -14.102,-24.0192 -14.37601,-24.0192 -0.274011,0 -6.743212,10.80864 -14.376003,24.0192 -7.632783,13.21056 -14.146218,24.44812 -14.474297,24.97235 -0.473346,0.75633 5.483065,0.95314 28.8503,0.95314 23.3672,0 29.32365,-0.19681 28.85028,-0.95314 z"
       id="path4028"
       inkscape:connector-curvature="0" />
  </g>
</svg>
