<?xml version="1.0" encoding="UTF-8" standalone="no"?>
<!-- Created with Inkscape (http://www.inkscape.org/) -->

<svg
   xmlns:dc="http://purl.org/dc/elements/1.1/"
   xmlns:cc="http://creativecommons.org/ns#"
   xmlns:rdf="http://www.w3.org/1999/02/22-rdf-syntax-ns#"
   xmlns:svg="http://www.w3.org/2000/svg"
   xmlns="http://www.w3.org/2000/svg"
   xmlns:sodipodi="http://sodipodi.sourceforge.net/DTD/sodipodi-0.dtd"
   xmlns:inkscape="http://www.inkscape.org/namespaces/inkscape"
   width="200"
   height="200"
   viewBox="0 0 200 200"
   id="svg4881"
   version="1.1"
   inkscape:version="0.91 r13725"
   sodipodi:docname="glyph-square.svg">
  <defs
     id="defs4883" />
  <sodipodi:namedview
     id="base"
     pagecolor="#ffffff"
     bordercolor="#666666"
     borderopacity="1.0"
     inkscape:pageopacity="0.0"
     inkscape:pageshadow="2"
     inkscape:zoom="1.979899"
     inkscape:cx="-46.993067"
     inkscape:cy="101.4288"
     inkscape:document-units="px"
     inkscape:current-layer="layer1"
     showgrid="false"
     units="px"
     inkscape:snap-bbox="true"
     inkscape:bbox-paths="true"
     inkscape:bbox-nodes="true"
     inkscape:snap-bbox-edge-midpoints="true"
     inkscape:snap-bbox-midpoints="true"
     inkscape:snap-object-midpoints="true"
     inkscape:snap-center="true"
     showguides="true"
     inkscape:guide-bbox="true"
     inkscape:window-width="1366"
     inkscape:window-height="720"
     inkscape:window-x="0"
     inkscape:window-y="23"
     inkscape:window-maximized="1"
     inkscape:object-paths="true"
     inkscape:snap-intersection-paths="true"
     inkscape:object-nodes="true"
     inkscape:snap-smooth-nodes="true">
    <sodipodi:guide
       position="0,200"
       orientation="1,0"
       id="guide5611"
       inkscape:label=""
       inkscape:color="rgb(0,0,255)" />
    <sodipodi:guide
       position="0,200.0102"
       orientation="0,1"
       id="guide5613" />
    <sodipodi:guide
       position="200,200.0102"
       orientation="1,0"
       id="guide5615" />
    <sodipodi:guide
       position="0,0"
       orientation="0,1"
       id="guide5617"
       inkscape:label=""
       inkscape:color="rgb(0,0,255)" />
  </sodipodi:namedview>
  <metadata
     id="metadata4886">
    <rdf:RDF>
      <cc:Work
         rdf:about="">
        <dc:format>image/svg+xml</dc:format>
        <dc:type
           rdf:resource="http://purl.org/dc/dcmitype/StillImage" />
        <dc:title></dc:title>
      </cc:Work>
    </rdf:RDF>
  </metadata>
  <g
     inkscape:label="Layer 1"
     inkscape:groupmode="layer"
     id="layer1"
     transform="translate(0,-852.36216)">
    <rect
       style="fill:none;fill-opacity:1;stroke:none;stroke-width:1.32005489;stroke-opacity:1"
       id="rect5619"
       width="198.67995"
       height="198.69017"
       x="0.66002744"
       y="853.01196" />
    <rect
       style="fill:none;fill-opacity:1;stroke:none;stroke-width:0.5;stroke-opacity:1"
       id="rect15428"
       width="199.33997"
       height="199.3502"
       x="0.66002744"
       y="853.01196" />
    <g
       id="g17082"
       transform="matrix(0.81761295,0,0,0.81761295,198.80033,173.42776)"
       style="fill:#00ffff;stroke:#00ffff">
      <path
         d="m -237.83988,871.68767 35.9999,0 0,-36.0006 c -18.0001,0 -35.9999,18.0001 -35.9999,36.0006 z m -4.5001,4.4994 45,0 0,-45 c -27.0006,0 -45,18 -45,45 z"
         style="fill:#00ffff;fill-rule:evenodd;stroke:#00ffff;stroke-width:0;stroke-dasharray:none"
         id="path7489"
         inkscape:connector-curvature="0" />
      <g
         style="fill:#00ffff;stroke:#00ffff"
         transform="translate(-368.33998,660.18707)"
         id="Layer1001-7">
        <path
           d="m 364.4999,211.5006 -35.9999,0 0,-36.0006 c 18.0001,0 35.9999,18.0001 35.9999,36.0006 z M 369,216 l -45,0 0,-45 c 27.0006,0 45,18 45,45 z"
           style="fill:#00ffff;fill-rule:evenodd;stroke:#00ffff;stroke-width:0;stroke-dasharray:none"
           id="path7494"
           inkscape:connector-curvature="0" />
      </g>
      <g
         style="fill:#00ffff;stroke:#00ffff"
         transform="translate(-368.33998,660.18707)"
         id="Layer1002-0">
        <path
           d="m 364.4999,373.4994 -35.9999,0 0,36.0006 c 18.0001,0 35.9999,-18.0001 35.9999,-36.0006 z M 369,369 l -45,0 0,45 c 27.0006,0 45,-18 45,-45 z"
           style="fill:#00ffff;fill-rule:evenodd;stroke:#00ffff;stroke-width:0;stroke-dasharray:none"
           id="path7499"
           inkscape:connector-curvature="0" />
      </g>
      <path
         inkscape:connector-curvature="0"
         id="path7501"
         style="fill:#00ffff;fill-rule:evenodd;stroke:#00ffff;stroke-width:0;stroke-dasharray:none"
         d="m -48.839978,979.68711 -45,0 0,44.99999 c 27.0006,0 45,-18 45,-44.99999 z" />
      <path
         inkscape:connector-curvature="0"
         id="path7503"
         style="fill:#00ffff;fill-rule:evenodd;stroke:#00ffff;stroke-width:0;stroke-dasharray:none"
         d="m -48.839978,925.68707 -45,0 0,-45 c 27.0006,0 45,18 45,45 z" />
      <path
         inkscape:connector-curvature="0"
         id="path7505"
         style="fill:#00ffff;fill-rule:evenodd;stroke:#00ffff;stroke-width:0;stroke-dasharray:none"
         d="m -192.83997,925.68707 45,0 0,-45 c -27.0006,0 -45,18 -45,45 z" />
      <path
         inkscape:connector-curvature="0"
         id="path7507"
         style="fill:#00ffff;fill-rule:evenodd;stroke:#00ffff;stroke-width:0;stroke-dasharray:none"
         d="m -192.83997,979.68711 45,0 0,44.99999 c -27.0006,0 -45,-18 -45,-44.99999 z" />
      <g
         style="fill:#00ffff;stroke:#00ffff"
         transform="translate(-368.33998,660.18707)"
         id="Layer1003-8">
        <path
           d="m 130.5001,373.4994 35.9999,0 0,36.0006 c -18.0001,0 -35.9999,-18.0001 -35.9999,-36.0006 z M 126,369 l 45,0 0,45 c -27.0006,0 -45,-18 -45,-45 z"
           style="fill:#00ffff;fill-rule:evenodd;stroke:#00ffff;stroke-width:0;stroke-dasharray:none"
           id="path7512"
           inkscape:connector-curvature="0" />
      </g>
      <g
         style="fill:#00ffff;stroke:#00ffff"
         transform="translate(-368.33998,660.18707)"
         id="Layer1004-7">
        <path
           inkscape:connector-curvature="0"
           id="path7515"
           style="fill:#00ffff;fill-rule:evenodd;stroke:#00ffff;stroke-width:0;stroke-dasharray:none"
           d="m 175.5,171 0,9 27,0 0,-9 -27,0 z" />
        <path
           inkscape:connector-curvature="0"
           id="path7517"
           style="fill:#00ffff;fill-rule:evenodd;stroke:#00ffff;stroke-width:0;stroke-dasharray:none"
           d="m 211.5,171 0,9 9,0 0,-9 -9,0 z" />
        <path
           inkscape:connector-curvature="0"
           id="path7519"
           style="fill:#00ffff;fill-rule:evenodd;stroke:#00ffff;stroke-width:0;stroke-dasharray:none"
           d="m 175.5,189 0,9 45,0 0,-9 -45,0 z" />
        <path
           inkscape:connector-curvature="0"
           id="path7521"
           style="fill:#00ffff;fill-rule:evenodd;stroke:#00ffff;stroke-width:0;stroke-dasharray:none"
           d="m 175.5,207 0,9 45,0 0,-9 -45,0 z" />
      </g>
      <g
         style="fill:#00ffff;stroke:#00ffff"
         transform="translate(-368.33998,660.18707)"
         id="Layer1005-3">
        <path
           inkscape:connector-curvature="0"
           id="path7524"
           style="fill:#00ffff;fill-rule:evenodd;stroke:#00ffff;stroke-width:0;stroke-dasharray:none"
           d="m 319.5,369 0,9 -27,0 0,-9 27,0 z" />
        <path
           inkscape:connector-curvature="0"
           id="path7526"
           style="fill:#00ffff;fill-rule:evenodd;stroke:#00ffff;stroke-width:0;stroke-dasharray:none"
           d="m 283.5,369 0,9 -9,0 0,-9 9,0 z" />
        <path
           inkscape:connector-curvature="0"
           id="path7528"
           style="fill:#00ffff;fill-rule:evenodd;stroke:#00ffff;stroke-width:0;stroke-dasharray:none"
           d="m 319.5,387 0,9 -45,0 0,-9 45,0 z" />
        <path
           inkscape:connector-curvature="0"
           id="path7530"
           style="fill:#00ffff;fill-rule:evenodd;stroke:#00ffff;stroke-width:0;stroke-dasharray:none"
           d="m 319.5,405 0,9 -45,0 0,-9 45,0 z" />
      </g>
      <g
         style="fill:#00ffff;stroke:#00ffff"
         transform="translate(-368.33998,660.18707)"
         id="Layer1006-2">
        <path
           inkscape:connector-curvature="0"
           id="path7533"
           style="fill:#00ffff;fill-rule:evenodd;stroke:#00ffff;stroke-width:0;stroke-dasharray:none"
           d="m 126,364.5 9,0 0,-27 -9,0 0,27 z" />
        <path
           inkscape:connector-curvature="0"
           id="path7535"
           style="fill:#00ffff;fill-rule:evenodd;stroke:#00ffff;stroke-width:0;stroke-dasharray:none"
           d="m 126,328.5 9,0 0,-9 -9,0 0,9 z" />
        <path
           inkscape:connector-curvature="0"
           id="path7537"
           style="fill:#00ffff;fill-rule:evenodd;stroke:#00ffff;stroke-width:0;stroke-dasharray:none"
           d="m 144,364.5 9,0 0,-45 -9,0 0,45 z" />
        <path
           inkscape:connector-curvature="0"
           id="path7539"
           style="fill:#00ffff;fill-rule:evenodd;stroke:#00ffff;stroke-width:0;stroke-dasharray:none"
           d="m 162,364.5 9,0 0,-45 -9,0 0,45 z" />
      </g>
      <g
         style="fill:#00ffff;stroke:#00ffff"
         transform="translate(-368.33998,660.18707)"
         id="Layer1007-8">
        <path
           inkscape:connector-curvature="0"
           id="path7542"
           style="fill:#00ffff;fill-rule:evenodd;stroke:#00ffff;stroke-width:0;stroke-dasharray:none"
           d="m 369,220.5 -9,0 0,27 9,0 0,-27 z" />
        <path
           inkscape:connector-curvature="0"
           id="path7544"
           style="fill:#00ffff;fill-rule:evenodd;stroke:#00ffff;stroke-width:0;stroke-dasharray:none"
           d="m 369,256.5 -9,0 0,9 9,0 0,-9 z" />
        <path
           inkscape:connector-curvature="0"
           id="path7546"
           style="fill:#00ffff;fill-rule:evenodd;stroke:#00ffff;stroke-width:0;stroke-dasharray:none"
           d="m 351,220.5 -9,0 0,45 9,0 0,-45 z" />
        <path
           inkscape:connector-curvature="0"
           id="path7548"
           style="fill:#00ffff;fill-rule:evenodd;stroke:#00ffff;stroke-width:0;stroke-dasharray:none"
           d="m 333,220.5 -9,0 0,45 9,0 0,-45 z" />
      </g>
      <g
         style="fill:#00ffff;stroke:#00ffff"
         transform="translate(-368.33998,660.18707)"
         id="Layer1008-8">
        <path
           inkscape:connector-curvature="0"
           id="path7551"
           style="fill:#00ffff;fill-rule:evenodd;stroke:#00ffff;stroke-width:0;stroke-dasharray:none"
           d="m 225,189 0,9 27,0 0,-9 -27,0 z" />
        <path
           inkscape:connector-curvature="0"
           id="path7553"
           style="fill:#00ffff;fill-rule:evenodd;stroke:#00ffff;stroke-width:0;stroke-dasharray:none"
           d="m 261,189 0,9 9,0 0,-9 -9,0 z" />
        <path
           inkscape:connector-curvature="0"
           id="path7555"
           style="fill:#00ffff;fill-rule:evenodd;stroke:#00ffff;stroke-width:0;stroke-dasharray:none"
           d="m 225,171 0,9 45,0 0,-9 -45,0 z" />
        <path
           inkscape:connector-curvature="0"
           id="path7557"
           style="fill:#00ffff;fill-rule:evenodd;stroke:#00ffff;stroke-width:0;stroke-dasharray:none"
           d="m 225,207 0,9 45,0 0,-9 -45,0 z" />
      </g>
      <g
         style="fill:#00ffff;stroke:#00ffff"
         transform="translate(-368.33998,660.18707)"
         id="Layer1009-9">
        <path
           inkscape:connector-curvature="0"
           id="path7560"
           style="fill:#00ffff;fill-rule:evenodd;stroke:#00ffff;stroke-width:0;stroke-dasharray:none"
           d="m 270,387 0,9 -27,0 0,-9 27,0 z" />
        <path
           inkscape:connector-curvature="0"
           id="path7562"
           style="fill:#00ffff;fill-rule:evenodd;stroke:#00ffff;stroke-width:0;stroke-dasharray:none"
           d="m 234,387 0,9 -9,0 0,-9 9,0 z" />
        <path
           inkscape:connector-curvature="0"
           id="path7564"
           style="fill:#00ffff;fill-rule:evenodd;stroke:#00ffff;stroke-width:0;stroke-dasharray:none"
           d="m 270,369 0,9 -45,0 0,-9 45,0 z" />
        <path
           inkscape:connector-curvature="0"
           id="path7566"
           style="fill:#00ffff;fill-rule:evenodd;stroke:#00ffff;stroke-width:0;stroke-dasharray:none"
           d="m 270,405 0,9 -45,0 0,-9 45,0 z" />
      </g>
      <g
         style="fill:#00ffff;stroke:#00ffff"
         transform="translate(-368.33998,660.18707)"
         id="Layer1010-5">
        <path
           inkscape:connector-curvature="0"
           id="path7569"
           style="fill:#00ffff;fill-rule:evenodd;stroke:#00ffff;stroke-width:0;stroke-dasharray:none"
           d="m 144,315 9,0 0,-27 -9,0 0,27 z" />
        <path
           inkscape:connector-curvature="0"
           id="path7571"
           style="fill:#00ffff;fill-rule:evenodd;stroke:#00ffff;stroke-width:0;stroke-dasharray:none"
           d="m 144,279 9,0 0,-9 -9,0 0,9 z" />
        <path
           inkscape:connector-curvature="0"
           id="path7573"
           style="fill:#00ffff;fill-rule:evenodd;stroke:#00ffff;stroke-width:0;stroke-dasharray:none"
           d="m 126,315 9,0 0,-45 -9,0 0,45 z" />
        <path
           inkscape:connector-curvature="0"
           id="path7575"
           style="fill:#00ffff;fill-rule:evenodd;stroke:#00ffff;stroke-width:0;stroke-dasharray:none"
           d="m 162,315 9,0 0,-45 -9,0 0,45 z" />
      </g>
      <g
         style="fill:#00ffff;stroke:#00ffff"
         transform="translate(-368.33998,660.18707)"
         id="Layer1011-0">
        <path
           inkscape:connector-curvature="0"
           id="path7578"
           style="fill:#00ffff;fill-rule:evenodd;stroke:#00ffff;stroke-width:0;stroke-dasharray:none"
           d="m 351,270 -9,0 0,27 9,0 0,-27 z" />
        <path
           inkscape:connector-curvature="0"
           id="path7580"
           style="fill:#00ffff;fill-rule:evenodd;stroke:#00ffff;stroke-width:0;stroke-dasharray:none"
           d="m 351,306 -9,0 0,9 9,0 0,-9 z" />
        <path
           inkscape:connector-curvature="0"
           id="path7582"
           style="fill:#00ffff;fill-rule:evenodd;stroke:#00ffff;stroke-width:0;stroke-dasharray:none"
           d="m 369,270 -9,0 0,45 9,0 0,-45 z" />
        <path
           inkscape:connector-curvature="0"
           id="path7584"
           style="fill:#00ffff;fill-rule:evenodd;stroke:#00ffff;stroke-width:0;stroke-dasharray:none"
           d="m 333,270 -9,0 0,45 9,0 0,-45 z" />
      </g>
      <g
         style="fill:#00ffff;stroke:#00ffff"
         transform="translate(-368.33998,660.18707)"
         id="Layer1012-5">
        <path
           inkscape:connector-curvature="0"
           id="path7587"
           style="fill:#00ffff;fill-rule:evenodd;stroke:#00ffff;stroke-width:0;stroke-dasharray:none"
           d="m 274.5,216 0,-9 27,0 0,9 -27,0 z" />
        <path
           inkscape:connector-curvature="0"
           id="path7589"
           style="fill:#00ffff;fill-rule:evenodd;stroke:#00ffff;stroke-width:0;stroke-dasharray:none"
           d="m 310.5,216 0,-9 9,0 0,9 -9,0 z" />
        <path
           inkscape:connector-curvature="0"
           id="path7591"
           style="fill:#00ffff;fill-rule:evenodd;stroke:#00ffff;stroke-width:0;stroke-dasharray:none"
           d="m 274.5,198 0,-9 45,0 0,9 -45,0 z" />
        <path
           inkscape:connector-curvature="0"
           id="path7593"
           style="fill:#00ffff;fill-rule:evenodd;stroke:#00ffff;stroke-width:0;stroke-dasharray:none"
           d="m 274.5,180 0,-9 45,0 0,9 -45,0 z" />
      </g>
      <g
         style="fill:#00ffff;stroke:#00ffff"
         transform="translate(-368.33998,660.18707)"
         id="Layer1013-2">
        <path
           inkscape:connector-curvature="0"
           id="path7596"
           style="fill:#00ffff;fill-rule:evenodd;stroke:#00ffff;stroke-width:0;stroke-dasharray:none"
           d="m 220.5,414 0,-9 -27,0 0,9 27,0 z" />
        <path
           inkscape:connector-curvature="0"
           id="path7598"
           style="fill:#00ffff;fill-rule:evenodd;stroke:#00ffff;stroke-width:0;stroke-dasharray:none"
           d="m 184.5,414 0,-9 -9,0 0,9 9,0 z" />
        <path
           inkscape:connector-curvature="0"
           id="path7600"
           style="fill:#00ffff;fill-rule:evenodd;stroke:#00ffff;stroke-width:0;stroke-dasharray:none"
           d="m 220.5,396 0,-9 -45,0 0,9 45,0 z" />
        <path
           inkscape:connector-curvature="0"
           id="path7602"
           style="fill:#00ffff;fill-rule:evenodd;stroke:#00ffff;stroke-width:0;stroke-dasharray:none"
           d="m 220.5,378 0,-9 -45,0 0,9 45,0 z" />
      </g>
      <g
         style="fill:#00ffff;stroke:#00ffff"
         transform="translate(-368.33998,660.18707)"
         id="Layer1014-4">
        <path
           inkscape:connector-curvature="0"
           id="path7605"
           style="fill:#00ffff;fill-rule:evenodd;stroke:#00ffff;stroke-width:0;stroke-dasharray:none"
           d="m 171,265.5 -9,0 0,-27 9,0 0,27 z" />
        <path
           inkscape:connector-curvature="0"
           id="path7607"
           style="fill:#00ffff;fill-rule:evenodd;stroke:#00ffff;stroke-width:0;stroke-dasharray:none"
           d="m 171,229.5 -9,0 0,-9 9,0 0,9 z" />
        <path
           inkscape:connector-curvature="0"
           id="path7609"
           style="fill:#00ffff;fill-rule:evenodd;stroke:#00ffff;stroke-width:0;stroke-dasharray:none"
           d="m 153,265.5 -9,0 0,-45 9,0 0,45 z" />
        <path
           inkscape:connector-curvature="0"
           id="path7611"
           style="fill:#00ffff;fill-rule:evenodd;stroke:#00ffff;stroke-width:0;stroke-dasharray:none"
           d="m 135,265.5 -9,0 0,-45 9,0 0,45 z" />
      </g>
      <g
         style="fill:#00ffff;stroke:#00ffff"
         transform="translate(-368.33998,660.18707)"
         id="Layer1015-9">
        <path
           inkscape:connector-curvature="0"
           id="path7614"
           style="fill:#00ffff;fill-rule:evenodd;stroke:#00ffff;stroke-width:0;stroke-dasharray:none"
           d="m 324,319.5 9,0 0,27 -9,0 0,-27 z" />
        <path
           inkscape:connector-curvature="0"
           id="path7616"
           style="fill:#00ffff;fill-rule:evenodd;stroke:#00ffff;stroke-width:0;stroke-dasharray:none"
           d="m 324,355.5 9,0 0,9 -9,0 0,-9 z" />
        <path
           inkscape:connector-curvature="0"
           id="path7618"
           style="fill:#00ffff;fill-rule:evenodd;stroke:#00ffff;stroke-width:0;stroke-dasharray:none"
           d="m 342,319.5 9,0 0,45 -9,0 0,-45 z" />
        <path
           inkscape:connector-curvature="0"
           id="path7620"
           style="fill:#00ffff;fill-rule:evenodd;stroke:#00ffff;stroke-width:0;stroke-dasharray:none"
           d="m 360,319.5 9,0 0,45 -9,0 0,-45 z" />
      </g>
      <path
         inkscape:connector-curvature="0"
         id="path7622"
         style="fill:#00ffff;fill-rule:evenodd;stroke:#00ffff;stroke-width:0.21600001;stroke-linecap:butt;stroke-linejoin:miter;stroke-dasharray:none"
         d="m -120.83998,930.18707 a 22.5,22.5 0 0 1 22.500002,22.5 22.5,22.5 0 1 1 -22.500002,-22.5 z" />
      <path
         d="m -161.33998,975.18707 0,-45 c -13.5,0 -22.5,11.8933 -22.5,22.5 0,10.6067 9,22.5 22.5,22.5 z"
         style="fill:#00ffff;fill-rule:evenodd;stroke:#00ffff;stroke-width:0.21600001;stroke-linecap:butt;stroke-linejoin:miter;stroke-dasharray:none"
         id="path7627"
         inkscape:connector-curvature="0" />
      <path
         d="m -80.33998,975.18707 0,-45 c 13.5,0 22.5,11.8933 22.5,22.5 0,10.6067 -9,22.5 -22.5,22.5 z"
         style="fill:#00ffff;fill-rule:evenodd;stroke:#00ffff;stroke-width:0.21600001;stroke-linecap:butt;stroke-linejoin:miter;stroke-dasharray:none"
         id="path7632"
         inkscape:connector-curvature="0" />
      <path
         d="m -143.33998,912.18707 45,0 c 0,-13.5 -11.8933,-22.5 -22.5,-22.5 -10.6067,0 -22.5,9 -22.5,22.5 z"
         style="fill:#00ffff;fill-rule:evenodd;stroke:#00ffff;stroke-width:0.21600001;stroke-linecap:butt;stroke-linejoin:miter;stroke-dasharray:none"
         id="path7637"
         inkscape:connector-curvature="0" />
      <path
         d="m -143.33998,993.18707 45,0 c 0,13.50003 -11.8933,22.50003 -22.5,22.50003 -10.6067,0 -22.5,-9 -22.5,-22.50003 z"
         style="fill:#00ffff;fill-rule:evenodd;stroke:#00ffff;stroke-width:0.21600001;stroke-linecap:butt;stroke-linejoin:miter;stroke-dasharray:none"
         id="path7642"
         inkscape:connector-curvature="0" />
    </g>
    <g
       style="fill:#00ffff;stroke:#00ffff"
       transform="matrix(0.81761295,0,0,0.81761295,198.80033,173.42776)"
       id="g17162">
      <path
         inkscape:connector-curvature="0"
         id="path17164"
         style="fill:#00ffff;fill-rule:evenodd;stroke:#00ffff;stroke-width:0;stroke-dasharray:none"
         d="m -237.83988,871.68767 35.9999,0 0,-36.0006 c -18.0001,0 -35.9999,18.0001 -35.9999,36.0006 z m -4.5001,4.4994 45,0 0,-45 c -27.0006,0 -45,18 -45,45 z" />
      <g
         id="g17166"
         transform="translate(-368.33998,660.18707)"
         style="fill:#00ffff;stroke:#00ffff">
        <path
           inkscape:connector-curvature="0"
           id="path17168"
           style="fill:#00ffff;fill-rule:evenodd;stroke:#00ffff;stroke-width:0;stroke-dasharray:none"
           d="m 364.4999,211.5006 -35.9999,0 0,-36.0006 c 18.0001,0 35.9999,18.0001 35.9999,36.0006 z M 369,216 l -45,0 0,-45 c 27.0006,0 45,18 45,45 z" />
      </g>
      <g
         id="g17170"
         transform="translate(-368.33998,660.18707)"
         style="fill:#00ffff;stroke:#00ffff">
        <path
           inkscape:connector-curvature="0"
           id="path17172"
           style="fill:#00ffff;fill-rule:evenodd;stroke:#00ffff;stroke-width:0;stroke-dasharray:none"
           d="m 364.4999,373.4994 -35.9999,0 0,36.0006 c 18.0001,0 35.9999,-18.0001 35.9999,-36.0006 z M 369,369 l -45,0 0,45 c 27.0006,0 45,-18 45,-45 z" />
      </g>
      <path
         d="m -48.839978,979.68711 -45,0 0,44.99999 c 27.0006,0 45,-18 45,-44.99999 z"
         style="fill:#00ffff;fill-rule:evenodd;stroke:#00ffff;stroke-width:0;stroke-dasharray:none"
         id="path17174"
         inkscape:connector-curvature="0" />
      <path
         d="m -48.839978,925.68707 -45,0 0,-45 c 27.0006,0 45,18 45,45 z"
         style="fill:#00ffff;fill-rule:evenodd;stroke:#00ffff;stroke-width:0;stroke-dasharray:none"
         id="path17176"
         inkscape:connector-curvature="0" />
      <path
         d="m -192.83997,925.68707 45,0 0,-45 c -27.0006,0 -45,18 -45,45 z"
         style="fill:#00ffff;fill-rule:evenodd;stroke:#00ffff;stroke-width:0;stroke-dasharray:none"
         id="path17178"
         inkscape:connector-curvature="0" />
      <path
         d="m -192.83997,979.68711 45,0 0,44.99999 c -27.0006,0 -45,-18 -45,-44.99999 z"
         style="fill:#00ffff;fill-rule:evenodd;stroke:#00ffff;stroke-width:0;stroke-dasharray:none"
         id="path17180"
         inkscape:connector-curvature="0" />
      <g
         id="g17182"
         transform="translate(-368.33998,660.18707)"
         style="fill:#00ffff;stroke:#00ffff">
        <path
           inkscape:connector-curvature="0"
           id="path17184"
           style="fill:#00ffff;fill-rule:evenodd;stroke:#00ffff;stroke-width:0;stroke-dasharray:none"
           d="m 130.5001,373.4994 35.9999,0 0,36.0006 c -18.0001,0 -35.9999,-18.0001 -35.9999,-36.0006 z M 126,369 l 45,0 0,45 c -27.0006,0 -45,-18 -45,-45 z" />
      </g>
      <g
         id="g17186"
         transform="translate(-368.33998,660.18707)"
         style="fill:#00ffff;stroke:#00ffff">
        <path
           d="m 175.5,171 0,9 27,0 0,-9 -27,0 z"
           style="fill:#00ffff;fill-rule:evenodd;stroke:#00ffff;stroke-width:0;stroke-dasharray:none"
           id="path17188"
           inkscape:connector-curvature="0" />
        <path
           d="m 211.5,171 0,9 9,0 0,-9 -9,0 z"
           style="fill:#00ffff;fill-rule:evenodd;stroke:#00ffff;stroke-width:0;stroke-dasharray:none"
           id="path17190"
           inkscape:connector-curvature="0" />
        <path
           d="m 175.5,189 0,9 45,0 0,-9 -45,0 z"
           style="fill:#00ffff;fill-rule:evenodd;stroke:#00ffff;stroke-width:0;stroke-dasharray:none"
           id="path17192"
           inkscape:connector-curvature="0" />
        <path
           d="m 175.5,207 0,9 45,0 0,-9 -45,0 z"
           style="fill:#00ffff;fill-rule:evenodd;stroke:#00ffff;stroke-width:0;stroke-dasharray:none"
           id="path17194"
           inkscape:connector-curvature="0" />
      </g>
      <g
         id="g17196"
         transform="translate(-368.33998,660.18707)"
         style="fill:#00ffff;stroke:#00ffff">
        <path
           d="m 319.5,369 0,9 -27,0 0,-9 27,0 z"
           style="fill:#00ffff;fill-rule:evenodd;stroke:#00ffff;stroke-width:0;stroke-dasharray:none"
           id="path17198"
           inkscape:connector-curvature="0" />
        <path
           d="m 283.5,369 0,9 -9,0 0,-9 9,0 z"
           style="fill:#00ffff;fill-rule:evenodd;stroke:#00ffff;stroke-width:0;stroke-dasharray:none"
           id="path17200"
           inkscape:connector-curvature="0" />
        <path
           d="m 319.5,387 0,9 -45,0 0,-9 45,0 z"
           style="fill:#00ffff;fill-rule:evenodd;stroke:#00ffff;stroke-width:0;stroke-dasharray:none"
           id="path17202"
           inkscape:connector-curvature="0" />
        <path
           d="m 319.5,405 0,9 -45,0 0,-9 45,0 z"
           style="fill:#00ffff;fill-rule:evenodd;stroke:#00ffff;stroke-width:0;stroke-dasharray:none"
           id="path17204"
           inkscape:connector-curvature="0" />
      </g>
      <g
         id="g17206"
         transform="translate(-368.33998,660.18707)"
         style="fill:#00ffff;stroke:#00ffff">
        <path
           d="m 126,364.5 9,0 0,-27 -9,0 0,27 z"
           style="fill:#00ffff;fill-rule:evenodd;stroke:#00ffff;stroke-width:0;stroke-dasharray:none"
           id="path17208"
           inkscape:connector-curvature="0" />
        <path
           d="m 126,328.5 9,0 0,-9 -9,0 0,9 z"
           style="fill:#00ffff;fill-rule:evenodd;stroke:#00ffff;stroke-width:0;stroke-dasharray:none"
           id="path17210"
           inkscape:connector-curvature="0" />
        <path
           d="m 144,364.5 9,0 0,-45 -9,0 0,45 z"
           style="fill:#00ffff;fill-rule:evenodd;stroke:#00ffff;stroke-width:0;stroke-dasharray:none"
           id="path17212"
           inkscape:connector-curvature="0" />
        <path
           d="m 162,364.5 9,0 0,-45 -9,0 0,45 z"
           style="fill:#00ffff;fill-rule:evenodd;stroke:#00ffff;stroke-width:0;stroke-dasharray:none"
           id="path17214"
           inkscape:connector-curvature="0" />
      </g>
      <g
         id="g17216"
         transform="translate(-368.33998,660.18707)"
         style="fill:#00ffff;stroke:#00ffff">
        <path
           d="m 369,220.5 -9,0 0,27 9,0 0,-27 z"
           style="fill:#00ffff;fill-rule:evenodd;stroke:#00ffff;stroke-width:0;stroke-dasharray:none"
           id="path17218"
           inkscape:connector-curvature="0" />
        <path
           d="m 369,256.5 -9,0 0,9 9,0 0,-9 z"
           style="fill:#00ffff;fill-rule:evenodd;stroke:#00ffff;stroke-width:0;stroke-dasharray:none"
           id="path17220"
           inkscape:connector-curvature="0" />
        <path
           d="m 351,220.5 -9,0 0,45 9,0 0,-45 z"
           style="fill:#00ffff;fill-rule:evenodd;stroke:#00ffff;stroke-width:0;stroke-dasharray:none"
           id="path17222"
           inkscape:connector-curvature="0" />
        <path
           d="m 333,220.5 -9,0 0,45 9,0 0,-45 z"
           style="fill:#00ffff;fill-rule:evenodd;stroke:#00ffff;stroke-width:0;stroke-dasharray:none"
           id="path17224"
           inkscape:connector-curvature="0" />
      </g>
      <g
         id="g17226"
         transform="translate(-368.33998,660.18707)"
         style="fill:#00ffff;stroke:#00ffff">
        <path
           d="m 225,189 0,9 27,0 0,-9 -27,0 z"
           style="fill:#00ffff;fill-rule:evenodd;stroke:#00ffff;stroke-width:0;stroke-dasharray:none"
           id="path17228"
           inkscape:connector-curvature="0" />
        <path
           d="m 261,189 0,9 9,0 0,-9 -9,0 z"
           style="fill:#00ffff;fill-rule:evenodd;stroke:#00ffff;stroke-width:0;stroke-dasharray:none"
           id="path17230"
           inkscape:connector-curvature="0" />
        <path
           d="m 225,171 0,9 45,0 0,-9 -45,0 z"
           style="fill:#00ffff;fill-rule:evenodd;stroke:#00ffff;stroke-width:0;stroke-dasharray:none"
           id="path17232"
           inkscape:connector-curvature="0" />
        <path
           d="m 225,207 0,9 45,0 0,-9 -45,0 z"
           style="fill:#00ffff;fill-rule:evenodd;stroke:#00ffff;stroke-width:0;stroke-dasharray:none"
           id="path17234"
           inkscape:connector-curvature="0" />
      </g>
      <g
         id="g17236"
         transform="translate(-368.33998,660.18707)"
         style="fill:#00ffff;stroke:#00ffff">
        <path
           d="m 270,387 0,9 -27,0 0,-9 27,0 z"
           style="fill:#00ffff;fill-rule:evenodd;stroke:#00ffff;stroke-width:0;stroke-dasharray:none"
           id="path17238"
           inkscape:connector-curvature="0" />
        <path
           d="m 234,387 0,9 -9,0 0,-9 9,0 z"
           style="fill:#00ffff;fill-rule:evenodd;stroke:#00ffff;stroke-width:0;stroke-dasharray:none"
           id="path17240"
           inkscape:connector-curvature="0" />
        <path
           d="m 270,369 0,9 -45,0 0,-9 45,0 z"
           style="fill:#00ffff;fill-rule:evenodd;stroke:#00ffff;stroke-width:0;stroke-dasharray:none"
           id="path17242"
           inkscape:connector-curvature="0" />
        <path
           d="m 270,405 0,9 -45,0 0,-9 45,0 z"
           style="fill:#00ffff;fill-rule:evenodd;stroke:#00ffff;stroke-width:0;stroke-dasharray:none"
           id="path17244"
           inkscape:connector-curvature="0" />
      </g>
      <g
         id="g17246"
         transform="translate(-368.33998,660.18707)"
         style="fill:#00ffff;stroke:#00ffff">
        <path
           d="m 144,315 9,0 0,-27 -9,0 0,27 z"
           style="fill:#00ffff;fill-rule:evenodd;stroke:#00ffff;stroke-width:0;stroke-dasharray:none"
           id="path17248"
           inkscape:connector-curvature="0" />
        <path
           d="m 144,279 9,0 0,-9 -9,0 0,9 z"
           style="fill:#00ffff;fill-rule:evenodd;stroke:#00ffff;stroke-width:0;stroke-dasharray:none"
           id="path17250"
           inkscape:connector-curvature="0" />
        <path
           d="m 126,315 9,0 0,-45 -9,0 0,45 z"
           style="fill:#00ffff;fill-rule:evenodd;stroke:#00ffff;stroke-width:0;stroke-dasharray:none"
           id="path17252"
           inkscape:connector-curvature="0" />
        <path
           d="m 162,315 9,0 0,-45 -9,0 0,45 z"
           style="fill:#00ffff;fill-rule:evenodd;stroke:#00ffff;stroke-width:0;stroke-dasharray:none"
           id="path17254"
           inkscape:connector-curvature="0" />
      </g>
      <g
         id="g17256"
         transform="translate(-368.33998,660.18707)"
         style="fill:#00ffff;stroke:#00ffff">
        <path
           d="m 351,270 -9,0 0,27 9,0 0,-27 z"
           style="fill:#00ffff;fill-rule:evenodd;stroke:#00ffff;stroke-width:0;stroke-dasharray:none"
           id="path17258"
           inkscape:connector-curvature="0" />
        <path
           d="m 351,306 -9,0 0,9 9,0 0,-9 z"
           style="fill:#00ffff;fill-rule:evenodd;stroke:#00ffff;stroke-width:0;stroke-dasharray:none"
           id="path17260"
           inkscape:connector-curvature="0" />
        <path
           d="m 369,270 -9,0 0,45 9,0 0,-45 z"
           style="fill:#00ffff;fill-rule:evenodd;stroke:#00ffff;stroke-width:0;stroke-dasharray:none"
           id="path17262"
           inkscape:connector-curvature="0" />
        <path
           d="m 333,270 -9,0 0,45 9,0 0,-45 z"
           style="fill:#00ffff;fill-rule:evenodd;stroke:#00ffff;stroke-width:0;stroke-dasharray:none"
           id="path17264"
           inkscape:connector-curvature="0" />
      </g>
      <g
         id="g17266"
         transform="translate(-368.33998,660.18707)"
         style="fill:#00ffff;stroke:#00ffff">
        <path
           d="m 274.5,216 0,-9 27,0 0,9 -27,0 z"
           style="fill:#00ffff;fill-rule:evenodd;stroke:#00ffff;stroke-width:0;stroke-dasharray:none"
           id="path17268"
           inkscape:connector-curvature="0" />
        <path
           d="m 310.5,216 0,-9 9,0 0,9 -9,0 z"
           style="fill:#00ffff;fill-rule:evenodd;stroke:#00ffff;stroke-width:0;stroke-dasharray:none"
           id="path17270"
           inkscape:connector-curvature="0" />
        <path
           d="m 274.5,198 0,-9 45,0 0,9 -45,0 z"
           style="fill:#00ffff;fill-rule:evenodd;stroke:#00ffff;stroke-width:0;stroke-dasharray:none"
           id="path17272"
           inkscape:connector-curvature="0" />
        <path
           d="m 274.5,180 0,-9 45,0 0,9 -45,0 z"
           style="fill:#00ffff;fill-rule:evenodd;stroke:#00ffff;stroke-width:0;stroke-dasharray:none"
           id="path17274"
           inkscape:connector-curvature="0" />
      </g>
      <g
         id="g17276"
         transform="translate(-368.33998,660.18707)"
         style="fill:#00ffff;stroke:#00ffff">
        <path
           d="m 220.5,414 0,-9 -27,0 0,9 27,0 z"
           style="fill:#00ffff;fill-rule:evenodd;stroke:#00ffff;stroke-width:0;stroke-dasharray:none"
           id="path17278"
           inkscape:connector-curvature="0" />
        <path
           d="m 184.5,414 0,-9 -9,0 0,9 9,0 z"
           style="fill:#00ffff;fill-rule:evenodd;stroke:#00ffff;stroke-width:0;stroke-dasharray:none"
           id="path17280"
           inkscape:connector-curvature="0" />
        <path
           d="m 220.5,396 0,-9 -45,0 0,9 45,0 z"
           style="fill:#00ffff;fill-rule:evenodd;stroke:#00ffff;stroke-width:0;stroke-dasharray:none"
           id="path17282"
           inkscape:connector-curvature="0" />
        <path
           d="m 220.5,378 0,-9 -45,0 0,9 45,0 z"
           style="fill:#00ffff;fill-rule:evenodd;stroke:#00ffff;stroke-width:0;stroke-dasharray:none"
           id="path17284"
           inkscape:connector-curvature="0" />
      </g>
      <g
         id="g17286"
         transform="translate(-368.33998,660.18707)"
         style="fill:#00ffff;stroke:#00ffff">
        <path
           d="m 171,265.5 -9,0 0,-27 9,0 0,27 z"
           style="fill:#00ffff;fill-rule:evenodd;stroke:#00ffff;stroke-width:0;stroke-dasharray:none"
           id="path17288"
           inkscape:connector-curvature="0" />
        <path
           d="m 171,229.5 -9,0 0,-9 9,0 0,9 z"
           style="fill:#00ffff;fill-rule:evenodd;stroke:#00ffff;stroke-width:0;stroke-dasharray:none"
           id="path17290"
           inkscape:connector-curvature="0" />
        <path
           d="m 153,265.5 -9,0 0,-45 9,0 0,45 z"
           style="fill:#00ffff;fill-rule:evenodd;stroke:#00ffff;stroke-width:0;stroke-dasharray:none"
           id="path17292"
           inkscape:connector-curvature="0" />
        <path
           d="m 135,265.5 -9,0 0,-45 9,0 0,45 z"
           style="fill:#00ffff;fill-rule:evenodd;stroke:#00ffff;stroke-width:0;stroke-dasharray:none"
           id="path17294"
           inkscape:connector-curvature="0" />
      </g>
      <g
         id="g17296"
         transform="translate(-368.33998,660.18707)"
         style="fill:#00ffff;stroke:#00ffff">
        <path
           d="m 324,319.5 9,0 0,27 -9,0 0,-27 z"
           style="fill:#00ffff;fill-rule:evenodd;stroke:#00ffff;stroke-width:0;stroke-dasharray:none"
           id="path17298"
           inkscape:connector-curvature="0" />
        <path
           d="m 324,355.5 9,0 0,9 -9,0 0,-9 z"
           style="fill:#00ffff;fill-rule:evenodd;stroke:#00ffff;stroke-width:0;stroke-dasharray:none"
           id="path17300"
           inkscape:connector-curvature="0" />
        <path
           d="m 342,319.5 9,0 0,45 -9,0 0,-45 z"
           style="fill:#00ffff;fill-rule:evenodd;stroke:#00ffff;stroke-width:0;stroke-dasharray:none"
           id="path17302"
           inkscape:connector-curvature="0" />
        <path
           d="m 360,319.5 9,0 0,45 -9,0 0,-45 z"
           style="fill:#00ffff;fill-rule:evenodd;stroke:#00ffff;stroke-width:0;stroke-dasharray:none"
           id="path17304"
           inkscape:connector-curvature="0" />
      </g>
      <path
         d="m -120.83998,930.18707 a 22.5,22.5 0 0 1 22.500002,22.5 22.5,22.5 0 1 1 -22.500002,-22.5 z"
         style="fill:#00ffff;fill-rule:evenodd;stroke:#00ffff;stroke-width:0.21600001;stroke-linecap:butt;stroke-linejoin:miter;stroke-dasharray:none"
         id="path17306"
         inkscape:connector-curvature="0" />
      <path
         inkscape:connector-curvature="0"
         id="path17308"
         style="fill:#00ffff;fill-rule:evenodd;stroke:#00ffff;stroke-width:0.21600001;stroke-linecap:butt;stroke-linejoin:miter;stroke-dasharray:none"
         d="m -161.33998,975.18707 0,-45 c -13.5,0 -22.5,11.8933 -22.5,22.5 0,10.6067 9,22.5 22.5,22.5 z" />
      <path
         inkscape:connector-curvature="0"
         id="path17310"
         style="fill:#00ffff;fill-rule:evenodd;stroke:#00ffff;stroke-width:0.21600001;stroke-linecap:butt;stroke-linejoin:miter;stroke-dasharray:none"
         d="m -80.33998,975.18707 0,-45 c 13.5,0 22.5,11.8933 22.5,22.5 0,10.6067 -9,22.5 -22.5,22.5 z" />
      <path
         inkscape:connector-curvature="0"
         id="path17312"
         style="fill:#00ffff;fill-rule:evenodd;stroke:#00ffff;stroke-width:0.21600001;stroke-linecap:butt;stroke-linejoin:miter;stroke-dasharray:none"
         d="m -143.33998,912.18707 45,0 c 0,-13.5 -11.8933,-22.5 -22.5,-22.5 -10.6067,0 -22.5,9 -22.5,22.5 z" />
      <path
         inkscape:connector-curvature="0"
         id="path17314"
         style="fill:#00ffff;fill-rule:evenodd;stroke:#00ffff;stroke-width:0.21600001;stroke-linecap:butt;stroke-linejoin:miter;stroke-dasharray:none"
         d="m -143.33998,993.18707 45,0 c 0,13.50003 -11.8933,22.50003 -22.5,22.50003 -10.6067,0 -22.5,-9 -22.5,-22.50003 z" />
    </g>
  </g>
</svg>
