<?xml version="1.0" encoding="UTF-8" standalone="no"?>
<!-- Created with Inkscape (http://www.inkscape.org/) -->

<svg
   xmlns:dc="http://purl.org/dc/elements/1.1/"
   xmlns:cc="http://creativecommons.org/ns#"
   xmlns:rdf="http://www.w3.org/1999/02/22-rdf-syntax-ns#"
   xmlns:svg="http://www.w3.org/2000/svg"
   xmlns="http://www.w3.org/2000/svg"
   xmlns:sodipodi="http://sodipodi.sourceforge.net/DTD/sodipodi-0.dtd"
   xmlns:inkscape="http://www.inkscape.org/namespaces/inkscape"
   width="200"
   height="200"
   viewBox="0 0 200 200"
   id="svg2"
   version="1.1"
   inkscape:version="0.91 r13725"
   sodipodi:docname="miner.svg">
  <defs
     id="defs4" />
  <sodipodi:namedview
     id="base"
     pagecolor="#ffffff"
     bordercolor="#666666"
     borderopacity="1.0"
     inkscape:pageopacity="0.0"
     inkscape:pageshadow="2"
     inkscape:zoom="1.979899"
     inkscape:cx="34.957581"
     inkscape:cy="105.97954"
     inkscape:document-units="px"
     inkscape:current-layer="layer1"
     showgrid="false"
     units="px"
     showguides="true"
     inkscape:guide-bbox="true"
     inkscape:snap-center="true"
     inkscape:snap-object-midpoints="true"
     inkscape:snap-smooth-nodes="true"
     inkscape:object-nodes="true"
     inkscape:snap-intersection-paths="true"
     inkscape:object-paths="true"
     inkscape:snap-bbox="true"
     inkscape:bbox-paths="true"
     inkscape:bbox-nodes="true"
     inkscape:snap-bbox-edge-midpoints="true"
     inkscape:snap-bbox-midpoints="true"
     inkscape:window-width="1366"
     inkscape:window-height="720"
     inkscape:window-x="0"
     inkscape:window-y="23"
     inkscape:window-maximized="1">
    <sodipodi:guide
       position="0,-12.626907"
       orientation="1,0"
       id="guide3336" />
    <sodipodi:guide
       position="244.45692,200.0102"
       orientation="0,1"
       id="guide3338" />
    <sodipodi:guide
       position="200.0102,58.083771"
       orientation="1,0"
       id="guide3340" />
    <sodipodi:guide
       position="-15.657364,0"
       orientation="0,1"
       id="guide3342" />
    <sodipodi:guide
       position="100.0051,185.36299"
       orientation="1,0"
       id="guide3350" />
    <sodipodi:guide
       position="86.368043,150.00765"
       orientation="0,1"
       id="guide3354" />
    <sodipodi:guide
       position="0,50.002551"
       orientation="0,1"
       id="guide3356" />
  </sodipodi:namedview>
  <metadata
     id="metadata7">
    <rdf:RDF>
      <cc:Work
         rdf:about="">
        <dc:format>image/svg+xml</dc:format>
        <dc:type
           rdf:resource="http://purl.org/dc/dcmitype/StillImage" />
        <dc:title></dc:title>
      </cc:Work>
    </rdf:RDF>
  </metadata>
  <g
     inkscape:label="Layer 1"
     inkscape:groupmode="layer"
     id="layer1"
     transform="translate(0,-852.36216)">
    <rect
       style="fill:none;fill-opacity:1;stroke:none;stroke-width:0.5;stroke-opacity:1"
       id="rect3344"
       width="200.01019"
       height="200.01019"
       x="0"
       y="852.35199" />
    <circle
       style="fill:none;fill-opacity:1;stroke:#ffffff;stroke-width:9.79554081;stroke-opacity:1"
       id="path3348"
       cx="100.0051"
       cy="952.35706"
       r="95.107292" />
    <circle
       style="fill:none;fill-opacity:1;stroke:#ffffff;stroke-width:9.51024437;stroke-opacity:1"
       id="path3775"
       cx="100.0051"
       cy="952.35706"
       r="95.107292" />
    <path
       style="fill:#00ffff"
       d="m 94.810557,1018.9221 c -0.92876,-0.3748 -1.25,-4.7234 -1.25,-16.9211 l 0,-16.41669 12.500003,0 12.5,0 0,16.39299 c 0,14.0259 -0.22842,16.4808 -1.58179,17.0001 -1.8744,0.7193 -20.362913,0.6732 -22.168213,-0.055 z m 31.321433,-0.9091 c -1.32807,-1.3281 -1.57143,-4.8 -1.57143,-22.41833 0,-11.46573 0.27314,-21.55859 0.60699,-22.42857 0.50435,-1.31431 2.53355,-1.58179 12,-1.58179 l 11.39301,0 0,23.39301 c 0,20.40898 -0.20178,23.47048 -1.58179,24.00008 -0.86998,0.3338 -5.56284,0.607 -10.42857,0.607 -6.7092,0 -9.22648,-0.3797 -10.41821,-1.5714 z m -104.511817,-0.8568 c -1.33815,-1.6123 -0.35803,-3.94 5.54439,-13.167 5.49022,-8.58263 5.4404,-9.67654 -1.06206,-23.31689 -5.46279,-11.45941 -5.6972,-12.28055 -5.64816,-19.78508 0.0977,-14.9467 7.3077,-36.43774 14.70683,-43.83687 2.73381,-2.73381 4.26571,-3.46605 7.25121,-3.46605 5.94823,0 13.297074,2.62371 19.212474,6.85931 2.98963,2.14067 9.88407,6.6945 15.32097,10.11962 l 9.88526,6.22749 15.879193,-15.85321 c 18.0312,-18.0017 17.50177,-15.66366 5.10028,-22.52361 -6.79831,-3.76052 -7.25,-4.2228 -7.25,-7.41999 0,-1.87528 0.23996,-3.40961 0.53324,-3.40961 1.25565,0 11.4134,5.53328 16.59331,9.03895 4.12339,2.79064 5.92314,3.51136 6.73675,2.69775 1.65921,-1.65921 6.38439,2.99828 5.19609,5.12165 -0.61734,1.10313 -0.14643,2.43793 1.58676,4.49771 2.85248,3.38997 6.7772,10.93608 7.71446,14.83266 1.06841,4.44182 -1.13172,4.18403 -3.44285,-0.4034 -2.68754,-5.3346 -8.6543,-12.78643 -10.23471,-12.78203 -0.65068,0.002 -7.82055,7.18124 -15.93305,15.95428 -10.553853,11.41318 -14.750003,16.64038 -14.750003,18.37427 0,3.37443 -2.28404,4.98432 -5.93414,4.18262 -1.65883,-0.36433 -7.18976,-3.63656 -12.29096,-7.2716 -12.17789,-8.67779 -19.74116,-13.24286 -21.94039,-13.24286 -0.98073,0 -2.41727,1.2375 -3.19231,2.75 -1.488434,2.90469 -5.169364,16.99617 -6.205954,23.75785 -0.7611,4.96461 0.47466,6.43921 13.261314,15.82435 11.01874,8.08754 12.20755,10.1844 15.75729,27.79344 3.64112,18.06245 3.36762,19.87445 -2.99986,19.87445 -4.74039,0 -6.2511,-2.5448 -8.3576,-14.0783 -1.0469,-5.73202 -2.35849,-11.58707 -2.91465,-13.01131 -1.93034,-4.94326 -17.797754,-16.6288 -19.825844,-14.60071 -0.41236,0.41236 0.46364,4.47565 1.94667,9.02954 1.48304,4.55388 2.69643,9.09 2.69643,10.08026 0,2.93385 -5.75973,12.86232 -10.38314,17.89822 -3.56533,3.8834 -4.9022,4.6823 -7.83538,4.6823 -1.94512,0 -4.06996,-0.6427 -4.72186,-1.4282 z m 133.940387,-29.57189 0,-31 11.39301,0 c 9.46645,0 11.49565,0.26748 12,1.58179 0.33385,0.86998 0.60699,14.10818 0.60699,29.41821 0,15.30999 -0.27314,28.54829 -0.60699,29.41829 -0.50435,1.3143 -2.53355,1.5818 -12,1.5818 l -11.39301,0 0,-31.00009 z M 52.948677,911.60424 c -2.808994,-1.13496 -6.100114,-5.43213 -6.880054,-8.98321 -0.97612,-4.44423 1.09578,-10.26042 5.004704,-14.0491 2.81761,-2.73093 4.35964,-3.44217 7.46295,-3.44217 12.27422,0 14.24459,18.47153 2.71995,25.49855 -3.45849,2.10878 -5.04308,2.29493 -8.30755,0.97593 z"
       id="path3830"
       inkscape:connector-curvature="0" />
  </g>
</svg>
