<?xml version="1.0" encoding="UTF-8" standalone="no"?>
<!-- Created with Inkscape (http://www.inkscape.org/) -->

<svg
   xmlns:dc="http://purl.org/dc/elements/1.1/"
   xmlns:cc="http://creativecommons.org/ns#"
   xmlns:rdf="http://www.w3.org/1999/02/22-rdf-syntax-ns#"
   xmlns:svg="http://www.w3.org/2000/svg"
   xmlns="http://www.w3.org/2000/svg"
   xmlns:sodipodi="http://sodipodi.sourceforge.net/DTD/sodipodi-0.dtd"
   xmlns:inkscape="http://www.inkscape.org/namespaces/inkscape"
   width="200"
   height="200"
   viewBox="0 0 200 200"
   id="svg2"
   version="1.1"
   inkscape:version="0.91 r13725"
   sodipodi:docname="musaeumsymbol.svg">
  <defs
     id="defs4" />
  <sodipodi:namedview
     id="base"
     pagecolor="#ffffff"
     bordercolor="#666666"
     borderopacity="1.0"
     inkscape:pageopacity="0.0"
     inkscape:pageshadow="2"
     inkscape:zoom="1.979899"
     inkscape:cx="76.165102"
     inkscape:cy="86.151992"
     inkscape:document-units="px"
     inkscape:current-layer="layer1"
     showgrid="false"
     units="px"
     showguides="true"
     inkscape:guide-bbox="true"
     inkscape:snap-center="true"
     inkscape:snap-object-midpoints="true"
     inkscape:snap-smooth-nodes="true"
     inkscape:object-nodes="true"
     inkscape:snap-intersection-paths="true"
     inkscape:object-paths="true"
     inkscape:snap-bbox="true"
     inkscape:bbox-paths="true"
     inkscape:bbox-nodes="true"
     inkscape:snap-bbox-edge-midpoints="true"
     inkscape:snap-bbox-midpoints="true"
     inkscape:window-width="1366"
     inkscape:window-height="720"
     inkscape:window-x="0"
     inkscape:window-y="23"
     inkscape:window-maximized="1"
     inkscape:snap-nodes="false">
    <sodipodi:guide
       position="0,-12.626907"
       orientation="1,0"
       id="guide3336" />
    <sodipodi:guide
       position="244.45692,200.0102"
       orientation="0,1"
       id="guide3338" />
    <sodipodi:guide
       position="200.0102,58.083771"
       orientation="1,0"
       id="guide3340" />
    <sodipodi:guide
       position="-15.657364,0"
       orientation="0,1"
       id="guide3342" />
    <sodipodi:guide
       position="100.0051,185.36299"
       orientation="1,0"
       id="guide3350" />
    <sodipodi:guide
       position="86.368043,150.00765"
       orientation="0,1"
       id="guide3354" />
    <sodipodi:guide
       position="0,50.002551"
       orientation="0,1"
       id="guide3356" />
  </sodipodi:namedview>
  <metadata
     id="metadata7">
    <rdf:RDF>
      <cc:Work
         rdf:about="">
        <dc:format>image/svg+xml</dc:format>
        <dc:type
           rdf:resource="http://purl.org/dc/dcmitype/StillImage" />
        <dc:title />
      </cc:Work>
    </rdf:RDF>
  </metadata>
  <g
     inkscape:label="Layer 1"
     inkscape:groupmode="layer"
     id="layer1"
     transform="translate(0,-852.36216)">
    <rect
       style="fill:none;fill-opacity:1;stroke:none;stroke-width:0.5;stroke-opacity:1"
       id="rect3344"
       width="200.01019"
       height="200.01019"
       x="0"
       y="852.35199" />
    <circle
       style="fill:none;fill-opacity:1;stroke:#ffffff;stroke-width:9.79554081;stroke-opacity:1"
       id="path3348"
       cx="100.0051"
       cy="952.35706"
       r="95.107292" />
    <circle
       style="fill:none;fill-opacity:1;stroke:#ffffff;stroke-width:9.51024437;stroke-opacity:1"
       id="path3775"
       cx="100.0051"
       cy="952.35706"
       r="95.107292" />
    <path
       style="fill:#00ffff"
       d="m 33.893024,1005.8699 c -0.0069,-0.2424 0.842917,-3.944 1.887526,-8.2259 l 1.899296,-7.7852 62.325254,0 62.32525,0 1.8993,7.7852 c 1.0446,4.2819 1.894,7.9835 1.88752,8.2259 -0.007,0.2423 -29.75689,0.4406 -66.11207,0.4406 -36.355175,0 -66.105616,-0.1983 -66.112076,-0.4406 z m 8.237569,-48.92899 0,-24.69212 -2.056449,-4.08358 c -1.131054,-2.24596 -2.056462,-4.22238 -2.056462,-4.39202 0,-0.16964 5.552434,-0.30844 12.338734,-0.30844 8.062175,0 12.338723,0.20945 12.338723,0.60431 0,0.33237 -0.793206,2.17564 -1.762681,4.09615 l -1.76267,3.49185 0,24.98798 0,24.98799 -8.519603,0 -8.519592,0 0,-24.69212 z m 32.903268,0 0,-24.69212 -2.05645,-4.08358 c -1.131053,-2.24596 -2.056449,-4.22238 -2.056449,-4.39202 0,-0.16964 5.687946,-0.30844 12.639882,-0.30844 l 12.639894,0 -2.063842,4.09824 -2.06384,4.09824 0,24.9859 0,24.9859 -8.519591,0 -8.519604,0 0,-24.69212 z m 32.903279,-0.29378 0,-24.9859 -2.06383,-4.09824 -2.06385,-4.09824 12.63989,0 c 6.95194,0 12.63988,0.1388 12.63988,0.30844 0,0.16964 -0.92539,2.14606 -2.05644,4.39202 l -2.05646,4.08358 0,24.69212 0,24.69212 -8.5196,0 -8.51959,0 0,-24.9859 z m 32.90327,-0.003 0,-24.98799 -1.76267,-3.49158 c -0.96948,-1.92051 -1.76268,-3.76378 -1.76268,-4.09615 0,-0.39486 4.27655,-0.60431 12.33873,-0.60431 6.7863,0 12.33873,0.1388 12.33873,0.30845 0,0.16963 -0.92541,2.14605 -2.05646,4.39201 l -2.05646,4.08358 0,24.69213 0,24.69215 -8.51959,0 -8.5196,0 0,-24.98803 z M 33.940378,915.38586 c 0.05322,-0.65796 65.057225,-40.98219 66.064722,-40.98219 1.0075,0 66.01156,40.32423 66.06472,40.98219 0.0195,0.24237 -29.70954,0.44068 -66.06472,0.44068 -36.355175,0 -66.084307,-0.19831 -66.064722,-0.44068 z m 68.874492,-9.17832 c 6.07415,-2.58816 6.84176,-10.60211 1.3596,-14.19417 -1.8978,-1.24348 -6.440938,-1.24348 -8.33874,0 -5.421141,3.55208 -4.728505,11.52138 1.231578,14.17037 2.27028,1.00902 3.424122,1.0138 5.747562,0.0238 z"
       id="path4151"
       inkscape:connector-curvature="0" />
  </g>
</svg>
