<?xml version="1.0" encoding="UTF-8" standalone="no"?>
<!-- Created with Inkscape (http://www.inkscape.org/) -->

<svg
   xmlns:dc="http://purl.org/dc/elements/1.1/"
   xmlns:cc="http://creativecommons.org/ns#"
   xmlns:rdf="http://www.w3.org/1999/02/22-rdf-syntax-ns#"
   xmlns:svg="http://www.w3.org/2000/svg"
   xmlns="http://www.w3.org/2000/svg"
   xmlns:sodipodi="http://sodipodi.sourceforge.net/DTD/sodipodi-0.dtd"
   xmlns:inkscape="http://www.inkscape.org/namespaces/inkscape"
   width="200"
   height="200"
   viewBox="0 0 200 200"
   id="svg4128"
   version="1.1"
   inkscape:version="0.91 r13725"
   sodipodi:docname="nav-seal.svg">
  <defs
     id="defs4130">
    <circle
       r="44.120609"
       cy="694.68384"
       cx="477.32138"
       id="path4539"
       style="fill:none;fill-opacity:1;stroke:none;stroke-width:0.4696714" />
    <circle
       r="20.73921"
       cy="694.68311"
       cx="477.32108"
       id="path5269"
       style="fill:none;fill-opacity:1;stroke:none;stroke-width:0.45015338;stroke-opacity:1" />
    <filter
       style="color-interpolation-filters:sRGB"
       inkscape:label="Lightness-Contrast"
       id="filter7850">
      <feColorMatrix
         values="0.4921 0 0 -0.378695 0.25395 0 0.4921 0 -0.378695 0.25395 0 0 0.4921 -0.378695 0.25395 0 0 0 1 0"
         id="feColorMatrix7852" />
    </filter>
    <filter
       style="color-interpolation-filters:sRGB"
       inkscape:label="Lightness-Contrast"
       id="filter4148">
      <feColorMatrix
         values="0.4921 0 0 -0.378695 0.25395 0 0.4921 0 -0.378695 0.25395 0 0 0.4921 -0.378695 0.25395 0 0 0 1 0"
         id="feColorMatrix4150" />
    </filter>
    <filter
       style="color-interpolation-filters:sRGB"
       inkscape:label="Lightness-Contrast"
       id="filter4152">
      <feColorMatrix
         values="0.4921 0 0 -0.378695 0.25395 0 0.4921 0 -0.378695 0.25395 0 0 0.4921 -0.378695 0.25395 0 0 0 1 0"
         id="feColorMatrix4154" />
    </filter>
    <filter
       style="color-interpolation-filters:sRGB"
       inkscape:label="Lightness-Contrast"
       id="filter4156">
      <feColorMatrix
         values="0.4921 0 0 -0.378695 0.25395 0 0.4921 0 -0.378695 0.25395 0 0 0.4921 -0.378695 0.25395 0 0 0 1 0"
         id="feColorMatrix4158" />
    </filter>
    <filter
       style="color-interpolation-filters:sRGB"
       inkscape:label="Lightness-Contrast"
       id="filter4160">
      <feColorMatrix
         values="0.4921 0 0 -0.378695 0.25395 0 0.4921 0 -0.378695 0.25395 0 0 0.4921 -0.378695 0.25395 0 0 0 1 0"
         id="feColorMatrix4162" />
    </filter>
    <filter
       style="color-interpolation-filters:sRGB"
       inkscape:label="Lightness-Contrast"
       id="filter4164">
      <feColorMatrix
         values="0.4921 0 0 -0.378695 0.25395 0 0.4921 0 -0.378695 0.25395 0 0 0.4921 -0.378695 0.25395 0 0 0 1 0"
         id="feColorMatrix4166" />
    </filter>
    <filter
       style="color-interpolation-filters:sRGB"
       inkscape:label="Lightness-Contrast"
       id="filter4168">
      <feColorMatrix
         values="0.4921 0 0 -0.378695 0.25395 0 0.4921 0 -0.378695 0.25395 0 0 0.4921 -0.378695 0.25395 0 0 0 1 0"
         id="feColorMatrix4170" />
    </filter>
    <filter
       style="color-interpolation-filters:sRGB"
       inkscape:label="Lightness-Contrast"
       id="filter4172">
      <feColorMatrix
         values="0.4921 0 0 -0.378695 0.25395 0 0.4921 0 -0.378695 0.25395 0 0 0.4921 -0.378695 0.25395 0 0 0 1 0"
         id="feColorMatrix4174" />
    </filter>
    <filter
       style="color-interpolation-filters:sRGB"
       inkscape:label="Lightness-Contrast"
       id="filter4176">
      <feColorMatrix
         values="0.4921 0 0 -0.378695 0.25395 0 0.4921 0 -0.378695 0.25395 0 0 0.4921 -0.378695 0.25395 0 0 0 1 0"
         id="feColorMatrix4178" />
    </filter>
    <filter
       style="color-interpolation-filters:sRGB"
       inkscape:label="Lightness-Contrast"
       id="filter4180">
      <feColorMatrix
         values="0.4921 0 0 -0.378695 0.25395 0 0.4921 0 -0.378695 0.25395 0 0 0.4921 -0.378695 0.25395 0 0 0 1 0"
         id="feColorMatrix4182" />
    </filter>
    <filter
       style="color-interpolation-filters:sRGB"
       inkscape:label="Lightness-Contrast"
       id="filter4184">
      <feColorMatrix
         values="0.4921 0 0 -0.378695 0.25395 0 0.4921 0 -0.378695 0.25395 0 0 0.4921 -0.378695 0.25395 0 0 0 1 0"
         id="feColorMatrix4186" />
    </filter>
    <filter
       style="color-interpolation-filters:sRGB"
       inkscape:label="Lightness-Contrast"
       id="filter4188">
      <feColorMatrix
         values="0.4921 0 0 -0.378695 0.25395 0 0.4921 0 -0.378695 0.25395 0 0 0.4921 -0.378695 0.25395 0 0 0 1 0"
         id="feColorMatrix4190" />
    </filter>
    <filter
       style="color-interpolation-filters:sRGB"
       inkscape:label="Lightness-Contrast"
       id="filter4192">
      <feColorMatrix
         values="0.4921 0 0 -0.378695 0.25395 0 0.4921 0 -0.378695 0.25395 0 0 0.4921 -0.378695 0.25395 0 0 0 1 0"
         id="feColorMatrix4194" />
    </filter>
    <filter
       style="color-interpolation-filters:sRGB"
       inkscape:label="Lightness-Contrast"
       id="filter4196">
      <feColorMatrix
         values="0.4921 0 0 -0.378695 0.25395 0 0.4921 0 -0.378695 0.25395 0 0 0.4921 -0.378695 0.25395 0 0 0 1 0"
         id="feColorMatrix4198" />
    </filter>
    <filter
       style="color-interpolation-filters:sRGB"
       inkscape:label="Lightness-Contrast"
       id="filter4200">
      <feColorMatrix
         values="0.4921 0 0 -0.378695 0.25395 0 0.4921 0 -0.378695 0.25395 0 0 0.4921 -0.378695 0.25395 0 0 0 1 0"
         id="feColorMatrix4202" />
    </filter>
    <filter
       style="color-interpolation-filters:sRGB"
       inkscape:label="Lightness-Contrast"
       id="filter4204">
      <feColorMatrix
         values="0.4921 0 0 -0.378695 0.25395 0 0.4921 0 -0.378695 0.25395 0 0 0.4921 -0.378695 0.25395 0 0 0 1 0"
         id="feColorMatrix4206" />
    </filter>
    <filter
       style="color-interpolation-filters:sRGB"
       inkscape:label="Lightness-Contrast"
       id="filter4208">
      <feColorMatrix
         values="0.4921 0 0 -0.378695 0.25395 0 0.4921 0 -0.378695 0.25395 0 0 0.4921 -0.378695 0.25395 0 0 0 1 0"
         id="feColorMatrix4210" />
    </filter>
    <filter
       style="color-interpolation-filters:sRGB"
       inkscape:label="Lightness-Contrast"
       id="filter4212">
      <feColorMatrix
         values="0.4921 0 0 -0.378695 0.25395 0 0.4921 0 -0.378695 0.25395 0 0 0.4921 -0.378695 0.25395 0 0 0 1 0"
         id="feColorMatrix4214" />
    </filter>
    <filter
       style="color-interpolation-filters:sRGB"
       inkscape:label="Lightness-Contrast"
       id="filter4216">
      <feColorMatrix
         values="0.4921 0 0 -0.378695 0.25395 0 0.4921 0 -0.378695 0.25395 0 0 0.4921 -0.378695 0.25395 0 0 0 1 0"
         id="feColorMatrix4218" />
    </filter>
    <filter
       style="color-interpolation-filters:sRGB"
       inkscape:label="Lightness-Contrast"
       id="filter4220">
      <feColorMatrix
         values="0.4921 0 0 -0.378695 0.25395 0 0.4921 0 -0.378695 0.25395 0 0 0.4921 -0.378695 0.25395 0 0 0 1 0"
         id="feColorMatrix4222" />
    </filter>
    <filter
       style="color-interpolation-filters:sRGB"
       inkscape:label="Lightness-Contrast"
       id="filter4224">
      <feColorMatrix
         values="0.4921 0 0 -0.378695 0.25395 0 0.4921 0 -0.378695 0.25395 0 0 0.4921 -0.378695 0.25395 0 0 0 1 0"
         id="feColorMatrix4226" />
    </filter>
    <filter
       style="color-interpolation-filters:sRGB"
       inkscape:label="Lightness-Contrast"
       id="filter4228">
      <feColorMatrix
         values="0.4921 0 0 -0.378695 0.25395 0 0.4921 0 -0.378695 0.25395 0 0 0.4921 -0.378695 0.25395 0 0 0 1 0"
         id="feColorMatrix4230" />
    </filter>
    <filter
       style="color-interpolation-filters:sRGB"
       inkscape:label="Lightness-Contrast"
       id="filter4232">
      <feColorMatrix
         values="0.4921 0 0 -0.378695 0.25395 0 0.4921 0 -0.378695 0.25395 0 0 0.4921 -0.378695 0.25395 0 0 0 1 0"
         id="feColorMatrix4234" />
    </filter>
    <filter
       style="color-interpolation-filters:sRGB"
       inkscape:label="Lightness-Contrast"
       id="filter4236">
      <feColorMatrix
         values="0.4921 0 0 -0.378695 0.25395 0 0.4921 0 -0.378695 0.25395 0 0 0.4921 -0.378695 0.25395 0 0 0 1 0"
         id="feColorMatrix4238" />
    </filter>
    <filter
       style="color-interpolation-filters:sRGB"
       inkscape:label="Lightness-Contrast"
       id="filter4240">
      <feColorMatrix
         values="0.4921 0 0 -0.378695 0.25395 0 0.4921 0 -0.378695 0.25395 0 0 0.4921 -0.378695 0.25395 0 0 0 1 0"
         id="feColorMatrix4242" />
    </filter>
    <filter
       style="color-interpolation-filters:sRGB"
       inkscape:label="Lightness-Contrast"
       id="filter4244">
      <feColorMatrix
         values="0.4921 0 0 -0.378695 0.25395 0 0.4921 0 -0.378695 0.25395 0 0 0.4921 -0.378695 0.25395 0 0 0 1 0"
         id="feColorMatrix4246" />
    </filter>
    <filter
       style="color-interpolation-filters:sRGB"
       inkscape:label="Lightness-Contrast"
       id="filter4248">
      <feColorMatrix
         values="0.4921 0 0 -0.378695 0.25395 0 0.4921 0 -0.378695 0.25395 0 0 0.4921 -0.378695 0.25395 0 0 0 1 0"
         id="feColorMatrix4250" />
    </filter>
    <filter
       style="color-interpolation-filters:sRGB"
       inkscape:label="Lightness-Contrast"
       id="filter4252">
      <feColorMatrix
         values="0.4921 0 0 -0.378695 0.25395 0 0.4921 0 -0.378695 0.25395 0 0 0.4921 -0.378695 0.25395 0 0 0 1 0"
         id="feColorMatrix4254" />
    </filter>
    <filter
       style="color-interpolation-filters:sRGB"
       inkscape:label="Lightness-Contrast"
       id="filter4256">
      <feColorMatrix
         values="0.4921 0 0 -0.378695 0.25395 0 0.4921 0 -0.378695 0.25395 0 0 0.4921 -0.378695 0.25395 0 0 0 1 0"
         id="feColorMatrix4258" />
    </filter>
    <filter
       style="color-interpolation-filters:sRGB"
       inkscape:label="Lightness-Contrast"
       id="filter4260">
      <feColorMatrix
         values="0.4921 0 0 -0.378695 0.25395 0 0.4921 0 -0.378695 0.25395 0 0 0.4921 -0.378695 0.25395 0 0 0 1 0"
         id="feColorMatrix4262" />
    </filter>
    <filter
       style="color-interpolation-filters:sRGB"
       inkscape:label="Lightness-Contrast"
       id="filter4264">
      <feColorMatrix
         values="0.4921 0 0 -0.378695 0.25395 0 0.4921 0 -0.378695 0.25395 0 0 0.4921 -0.378695 0.25395 0 0 0 1 0"
         id="feColorMatrix4266" />
    </filter>
    <filter
       style="color-interpolation-filters:sRGB"
       inkscape:label="Lightness-Contrast"
       id="filter4268">
      <feColorMatrix
         values="0.4921 0 0 -0.378695 0.25395 0 0.4921 0 -0.378695 0.25395 0 0 0.4921 -0.378695 0.25395 0 0 0 1 0"
         id="feColorMatrix4270" />
    </filter>
    <filter
       style="color-interpolation-filters:sRGB"
       inkscape:label="Lightness-Contrast"
       id="filter4272">
      <feColorMatrix
         values="0.4921 0 0 -0.378695 0.25395 0 0.4921 0 -0.378695 0.25395 0 0 0.4921 -0.378695 0.25395 0 0 0 1 0"
         id="feColorMatrix4274" />
    </filter>
    <filter
       style="color-interpolation-filters:sRGB"
       inkscape:label="Lightness-Contrast"
       id="filter4276">
      <feColorMatrix
         values="0.4921 0 0 -0.378695 0.25395 0 0.4921 0 -0.378695 0.25395 0 0 0.4921 -0.378695 0.25395 0 0 0 1 0"
         id="feColorMatrix4278" />
    </filter>
    <filter
       style="color-interpolation-filters:sRGB"
       inkscape:label="Lightness-Contrast"
       id="filter4280">
      <feColorMatrix
         values="0.4921 0 0 -0.378695 0.25395 0 0.4921 0 -0.378695 0.25395 0 0 0.4921 -0.378695 0.25395 0 0 0 1 0"
         id="feColorMatrix4282" />
    </filter>
  </defs>
  <sodipodi:namedview
     id="base"
     pagecolor="#ffffff"
     bordercolor="#666666"
     borderopacity="1.0"
     inkscape:pageopacity="0"
     inkscape:pageshadow="2"
     inkscape:zoom="1.979899"
     inkscape:cx="206.9317"
     inkscape:cy="105.83315"
     inkscape:document-units="px"
     inkscape:current-layer="layer1"
     showgrid="false"
     units="px"
     inkscape:snap-bbox="true"
     inkscape:snap-object-midpoints="true"
     inkscape:snap-bbox-midpoints="true"
     inkscape:snap-bbox-edge-midpoints="true"
     inkscape:bbox-nodes="true"
     inkscape:bbox-paths="true"
     showguides="true"
     inkscape:guide-bbox="true"
     inkscape:window-width="1366"
     inkscape:window-height="720"
     inkscape:window-x="0"
     inkscape:window-y="23"
     inkscape:window-maximized="1">
    <sodipodi:guide
       position="-4.1071429,200"
       orientation="0,1"
       id="guide5122" />
    <sodipodi:guide
       position="0,205.35714"
       orientation="1,0"
       id="guide5124" />
    <sodipodi:guide
       position="200,200"
       orientation="1,0"
       id="guide5126" />
    <sodipodi:guide
       position="-1.3839286,0"
       orientation="0,1"
       id="guide5128" />
  </sodipodi:namedview>
  <metadata
     id="metadata4133">
    <rdf:RDF>
      <cc:Work
         rdf:about="">
        <dc:format>image/svg+xml</dc:format>
        <dc:type
           rdf:resource="http://purl.org/dc/dcmitype/StillImage" />
        <dc:title></dc:title>
      </cc:Work>
    </rdf:RDF>
  </metadata>
  <g
     inkscape:label="Layer 1"
     inkscape:groupmode="layer"
     id="layer1"
     transform="translate(0,-852.36216)">
    <g
       id="g9468"
       transform="matrix(1.9762386,0,0,1.9762386,-843.30471,-420.4984)"
       inkscape:export-filename="/home/rendier/JARVIS/scripts/Pharos/images/interface/nav_seal_over_200.png"
       inkscape:export-xdpi="177.86147"
       inkscape:export-ydpi="177.86147">
      <g
         id="g9505"
         transform="translate(2.0576172e-5,3.1761719e-5)">
        <path
           d="m 297.67385,639.79883 c 1.0536,3.1846 1.8668,5.5423 1.3242,8.8288 0.727,-0.4028 2.2763,-0.4446 3.973,0.4413 0.005,3.2166 -0.4415,6.1802 -2.2072,10.1532 1.829,-3.3242 3.5315,-6.6217 3.5315,-12.3603 -1.1015,1.0052 -2.4258,1.0052 -3.973,0 -0.4189,-3.6461 -1.5102,-5.3177 -2.6485,-7.063 z"
           style="fill:#009ee0;fill-rule:evenodd;stroke:#009ee0;stroke-width:0.21600001;stroke-linecap:butt;stroke-linejoin:miter;stroke-dasharray:none;filter:url(#filter7850)"
           id="path5790"
           inkscape:connector-curvature="0"
           transform="matrix(0.92868513,0,0,0.92868517,201.28591,60.336244)" />
        <path
           d="m 299.88095,660.54643 c 3.6298,-8.0673 3.0381,-15.6081 -2.6486,-22.5133 4.3639,5.9763 5.2469,13.4806 2.6486,22.5133 z"
           style="fill:#e30016;fill-rule:evenodd;stroke:#e30016;stroke-width:0.21600001;stroke-linecap:butt;stroke-linejoin:miter;stroke-dasharray:none;filter:url(#filter7850)"
           id="path5792"
           inkscape:connector-curvature="0"
           transform="matrix(0.92868513,0,0,0.92868517,201.28591,60.336244)" />
        <path
           d="m 281.08525,642.92283 c 2.1922,2.539 3.8457,4.4061 4.602,7.6499 0.5176,-0.6502 1.9328,-1.2818 3.8395,-1.1125 1.2351,2.97 1.9572,5.8787 1.8462,10.2248 0.4178,-3.771 0.7288,-7.4689 -1.4673,-12.7708 -0.633,1.3503 -1.8566,1.8571 -3.6706,1.5204 -1.7823,-3.2082 -3.4303,-4.3349 -5.1498,-5.5118 z"
           style="fill:#e30016;fill-rule:evenodd;stroke:#e30016;stroke-width:0.21600001;stroke-linecap:butt;stroke-linejoin:miter;stroke-dasharray:none;filter:url(#filter7850)"
           id="path5794"
           inkscape:connector-curvature="0"
           transform="matrix(0.92868513,0,0,0.92868517,201.28591,60.336244)" />
        <path
           d="m 291.06405,661.24643 c 0.2663,-8.8422 -3.1661,-15.5825 -11.0624,-19.786 6.3187,3.8513 10.0062,10.4467 11.0624,19.786 z"
           style="fill:#009ee0;fill-rule:evenodd;stroke:#009ee0;stroke-width:0.21600001;stroke-linecap:butt;stroke-linejoin:miter;stroke-dasharray:none;filter:url(#filter7850)"
           id="path5796"
           inkscape:connector-curvature="0"
           transform="matrix(0.92868513,0,0,0.92868517,201.28591,60.336244)" />
        <path
           d="m 266.95475,652.15753 c 2.9969,1.5068 5.2391,2.599 7.1794,5.3064 0.2292,-0.7989 1.2951,-1.9239 3.1214,-2.4971 2.2776,2.2713 4.0578,4.6822 5.6185,8.74 -1.0572,-3.6438 -2.1849,-7.1793 -6.2429,-11.2372 -0.068,1.4897 -1.0045,2.4261 -2.8093,2.8093 -2.8743,-2.282 -4.8281,-2.6922 -6.8671,-3.1214 z"
           style="fill:#009ee0;fill-rule:evenodd;stroke:#009ee0;stroke-width:0.21600001;stroke-linecap:butt;stroke-linejoin:miter;stroke-dasharray:none;filter:url(#filter7850)"
           id="path5798"
           inkscape:connector-curvature="0"
           transform="matrix(0.92868513,0,0,0.92868517,201.28591,60.336244)" />
        <path
           d="m 283.18615,665.26763 c -3.1377,-8.2711 -8.8882,-13.1848 -17.7922,-14.0465 7.3117,1.1401 13.2425,5.8222 17.7922,14.0465 z"
           style="fill:#e30016;fill-rule:evenodd;stroke:#e30016;stroke-width:0.21600001;stroke-linecap:butt;stroke-linejoin:miter;stroke-dasharray:none;filter:url(#filter7850)"
           id="path5800"
           inkscape:connector-curvature="0"
           transform="matrix(0.92868513,0,0,0.92868517,201.28591,60.336244)" />
        <path
           d="m 257.43365,666.09653 c 3.3455,0.2453 5.8349,0.3962 8.6634,2.1552 -0.0937,-0.8259 0.4604,-2.2732 1.9283,-3.5016 2.9734,1.2268 5.5407,2.7728 8.5355,5.9246 -2.3711,-2.9619 -4.766,-5.7967 -10.0679,-7.9928 0.5072,1.4024 4e-4,2.6259 -1.5204,3.6706 -3.5288,-1.0083 -5.4908,-0.6397 -7.5389,-0.256 z"
           style="fill:#e30016;fill-rule:evenodd;stroke:#e30016;stroke-width:0.21600001;stroke-linecap:butt;stroke-linejoin:miter;stroke-dasharray:none;filter:url(#filter7850)"
           id="path5802"
           inkscape:connector-curvature="0"
           transform="matrix(0.92868513,0,0,0.92868517,201.28591,60.336244)" />
        <path
           d="m 277.44645,671.99713 c -6.064,-6.4407 -13.2572,-8.7797 -21.8131,-6.1684 7.1914,-1.7448 14.4624,0.3113 21.8131,6.1684 z"
           style="fill:#009ee0;fill-rule:evenodd;stroke:#009ee0;stroke-width:0.21600001;stroke-linecap:butt;stroke-linejoin:miter;stroke-dasharray:none;filter:url(#filter7850)"
           id="path5804"
           inkscape:connector-curvature="0"
           transform="matrix(0.92868513,0,0,0.92868517,201.28591,60.336244)" />
        <path
           d="m 253.97175,682.61823 c 3.1847,-1.0537 5.5424,-1.8669 8.8288,-1.3243 -0.4028,-0.727 -0.4446,-2.2762 0.4414,-3.973 3.2166,-0.004 6.1801,0.4415 10.1531,2.2072 -3.3241,-1.829 -6.6216,-3.5315 -12.3603,-3.5315 1.0053,1.1015 1.0053,2.4259 0,3.973 -3.6461,0.4189 -5.3176,1.5103 -7.063,2.6486 z"
           style="fill:#009ee0;fill-rule:evenodd;stroke:#009ee0;stroke-width:0.21600001;stroke-linecap:butt;stroke-linejoin:miter;stroke-dasharray:none;filter:url(#filter7850)"
           id="path5806"
           inkscape:connector-curvature="0"
           transform="matrix(0.92868513,0,0,0.92868517,201.28591,60.336244)" />
        <path
           d="m 274.71925,680.41113 c -8.0671,-3.6298 -15.6079,-3.0381 -22.5132,2.6485 5.9763,-4.3639 13.4807,-5.2467 22.5132,-2.6485 z"
           style="fill:#e30016;fill-rule:evenodd;stroke:#e30016;stroke-width:0.21600001;stroke-linecap:butt;stroke-linejoin:miter;stroke-dasharray:none;filter:url(#filter7850)"
           id="path5808"
           inkscape:connector-curvature="0"
           transform="matrix(0.92868513,0,0,0.92868517,201.28591,60.336244)" />
        <path
           d="m 257.09585,699.20703 c 2.539,-2.1922 4.406,-3.8457 7.6499,-4.6021 -0.6502,-0.5175 -1.2818,-1.9328 -1.1125,-3.8395 2.97,-1.235 5.8787,-1.9572 10.2248,-1.8462 -3.771,-0.4177 -7.4689,-0.7287 -12.7708,1.4674 1.3503,0.633 1.8571,1.8565 1.5204,3.6705 -3.2082,1.7824 -4.3349,3.4303 -5.5118,5.1499 z"
           style="fill:#e30016;fill-rule:evenodd;stroke:#e30016;stroke-width:0.21600001;stroke-linecap:butt;stroke-linejoin:miter;stroke-dasharray:none;filter:url(#filter7850)"
           id="path5810"
           inkscape:connector-curvature="0"
           transform="matrix(0.92868513,0,0,0.92868517,201.28591,60.336244)" />
        <path
           d="m 275.41945,689.22813 c -8.8422,-0.2662 -15.5825,3.1662 -19.786,11.0625 3.8513,-6.3188 10.4467,-10.0062 19.786,-11.0625 z"
           style="fill:#009ee0;fill-rule:evenodd;stroke:#009ee0;stroke-width:0.21600001;stroke-linecap:butt;stroke-linejoin:miter;stroke-dasharray:none;filter:url(#filter7850)"
           id="path5812"
           inkscape:connector-curvature="0"
           transform="matrix(0.92868513,0,0,0.92868517,201.28591,60.336244)" />
        <path
           d="m 266.33055,713.33743 c 1.5068,-2.997 2.599,-5.2392 5.3064,-7.1793 -0.7989,-0.2293 -1.9239,-1.2952 -2.4971,-3.1214 2.2713,-2.2776 4.6821,-4.058 8.74,-5.6186 -3.6439,1.0571 -7.1794,2.185 -11.2372,6.2428 1.4897,0.0681 2.4261,1.0046 2.8093,2.8093 -2.282,2.8745 -2.6922,4.8281 -3.1214,6.8672 z"
           style="fill:#009ee0;fill-rule:evenodd;stroke:#009ee0;stroke-width:0.21600001;stroke-linecap:butt;stroke-linejoin:miter;stroke-dasharray:none;filter:url(#filter7850)"
           id="path5814"
           inkscape:connector-curvature="0"
           transform="matrix(0.92868513,0,0,0.92868517,201.28591,60.336244)" />
        <path
           d="m 279.44055,697.10593 c -8.271,3.1379 -13.1848,8.8884 -14.0464,17.7922 1.14,-7.3116 5.8222,-13.2423 14.0464,-17.7922 z"
           style="fill:#e30016;fill-rule:evenodd;stroke:#e30016;stroke-width:0.21600001;stroke-linecap:butt;stroke-linejoin:miter;stroke-dasharray:none;filter:url(#filter7850)"
           id="path5816"
           inkscape:connector-curvature="0"
           transform="matrix(0.92868513,0,0,0.92868517,201.28591,60.336244)" />
        <path
           d="m 280.26955,722.85853 c 0.2453,-3.3456 0.3962,-5.8349 2.1552,-8.6635 -0.8259,0.0938 -2.2732,-0.4603 -3.5017,-1.9282 1.2268,-2.9735 2.7729,-5.5408 5.9247,-8.5356 -2.9619,2.3712 -5.7967,4.766 -7.9928,10.068 1.4023,-0.5073 2.6259,-5e-4 3.6705,1.5203 -1.0082,3.5289 -0.6396,5.4908 -0.2559,7.539 z"
           style="fill:#e30016;fill-rule:evenodd;stroke:#e30016;stroke-width:0.21600001;stroke-linecap:butt;stroke-linejoin:miter;stroke-dasharray:none;filter:url(#filter7850)"
           id="path5818"
           inkscape:connector-curvature="0"
           transform="matrix(0.92868513,0,0,0.92868517,201.28591,60.336244)" />
        <path
           d="m 286.17015,702.84563 c -6.4407,6.0641 -8.7797,13.2572 -6.1684,21.8131 -1.7449,-7.1913 0.3113,-14.4623 6.1684,-21.8131 z"
           style="fill:#009ee0;fill-rule:evenodd;stroke:#009ee0;stroke-width:0.21600001;stroke-linecap:butt;stroke-linejoin:miter;stroke-dasharray:none;filter:url(#filter7850)"
           id="path5820"
           inkscape:connector-curvature="0"
           transform="matrix(0.92868513,0,0,0.92868517,201.28591,60.336244)" />
        <path
           d="m 296.79115,726.32033 c -1.0537,-3.1846 -1.8669,-5.5423 -1.3243,-8.8287 -0.7271,0.4028 -2.2763,0.4446 -3.973,-0.4415 -0.004,-3.2166 0.4415,-6.18 2.2072,-10.153 -1.829,3.3241 -3.5315,6.6215 -3.5315,12.3602 1.1015,-1.0052 2.4258,-1.0052 3.9729,0 0.419,3.6461 1.5103,5.3177 2.6487,7.063 z"
           style="fill:#009ee0;fill-rule:evenodd;stroke:#009ee0;stroke-width:0.21600001;stroke-linecap:butt;stroke-linejoin:miter;stroke-dasharray:none;filter:url(#filter7850)"
           id="path5822"
           inkscape:connector-curvature="0"
           transform="matrix(0.92868513,0,0,0.92868517,201.28591,60.336244)" />
        <path
           d="m 294.58385,705.57283 c -3.6297,8.0672 -3.0379,15.6079 2.6487,22.5133 -4.364,-5.9763 -5.2468,-13.4808 -2.6487,-22.5133 z"
           style="fill:#e30016;fill-rule:evenodd;stroke:#e30016;stroke-width:0.21600001;stroke-linecap:butt;stroke-linejoin:miter;stroke-dasharray:none;filter:url(#filter7850)"
           id="path5824"
           inkscape:connector-curvature="0"
           transform="matrix(0.92868513,0,0,0.92868517,201.28591,60.336244)" />
        <path
           d="m 313.37995,723.19643 c -2.1922,-2.539 -3.8457,-4.4061 -4.6021,-7.6499 -0.5175,0.6503 -1.9328,1.2817 -3.8395,1.1125 -1.2351,-2.9701 -1.9572,-5.8786 -1.8462,-10.2248 -0.4177,3.7709 -0.7287,7.4689 1.4674,12.7708 0.6329,-1.3504 1.8565,-1.8571 3.6705,-1.5204 1.7823,3.2081 3.4303,4.3349 5.1499,5.5118 z"
           style="fill:#e30016;fill-rule:evenodd;stroke:#e30016;stroke-width:0.21600001;stroke-linecap:butt;stroke-linejoin:miter;stroke-dasharray:none;filter:url(#filter7850)"
           id="path5826"
           inkscape:connector-curvature="0"
           transform="matrix(0.92868513,0,0,0.92868517,201.28591,60.336244)" />
        <path
           d="m 303.40105,704.87283 c -0.2663,8.8422 3.1661,15.5825 11.0625,19.786 -6.3188,-3.8514 -10.0064,-10.4468 -11.0625,-19.786 z"
           style="fill:#009ee0;fill-rule:evenodd;stroke:#009ee0;stroke-width:0.21600001;stroke-linecap:butt;stroke-linejoin:miter;stroke-dasharray:none;filter:url(#filter7850)"
           id="path5828"
           inkscape:connector-curvature="0"
           transform="matrix(0.92868513,0,0,0.92868517,201.28591,60.336244)" />
        <path
           d="m 327.51035,713.96173 c -2.997,-1.5068 -5.2392,-2.599 -7.1793,-5.3064 -0.2294,0.7988 -1.2952,1.9239 -3.1214,2.497 -2.2777,-2.2712 -4.058,-4.6821 -5.6186,-8.7399 1.0571,3.6438 2.185,7.1793 6.2428,11.2372 0.0681,-1.4897 1.0046,-2.4262 2.8093,-2.8093 2.8745,2.2819 4.8281,2.6921 6.8672,3.1214 z"
           style="fill:#009ee0;fill-rule:evenodd;stroke:#009ee0;stroke-width:0.21600001;stroke-linecap:butt;stroke-linejoin:miter;stroke-dasharray:none;filter:url(#filter7850)"
           id="path5830"
           inkscape:connector-curvature="0"
           transform="matrix(0.92868513,0,0,0.92868517,201.28591,60.336244)" />
        <path
           d="m 311.27885,700.85163 c 3.1378,8.2711 8.8883,13.1848 17.7922,14.0465 -7.3116,-1.1401 -13.2423,-5.8223 -17.7922,-14.0465 z"
           style="fill:#e30016;fill-rule:evenodd;stroke:#e30016;stroke-width:0.21600001;stroke-linecap:butt;stroke-linejoin:miter;stroke-dasharray:none;filter:url(#filter7850)"
           id="path5832"
           inkscape:connector-curvature="0"
           transform="matrix(0.92868513,0,0,0.92868517,201.28591,60.336244)" />
        <path
           d="m 337.03145,700.02263 c -3.3456,-0.2452 -5.835,-0.3962 -8.6635,-2.1551 0.0937,0.8258 -0.4604,2.2731 -1.9283,3.5016 -2.9734,-1.2268 -5.5407,-2.7729 -8.5355,-5.9246 2.3711,2.9619 4.766,5.7966 10.0679,7.9927 -0.5072,-1.4022 -4e-4,-2.6258 1.5204,-3.6704 3.5288,1.0082 5.4908,0.6396 7.539,0.2558 z"
           style="fill:#e30016;fill-rule:evenodd;stroke:#e30016;stroke-width:0.21600001;stroke-linecap:butt;stroke-linejoin:miter;stroke-dasharray:none;filter:url(#filter7850)"
           id="path5834"
           inkscape:connector-curvature="0"
           transform="matrix(0.92868513,0,0,0.92868517,201.28591,60.336244)" />
        <path
           d="m 317.01855,694.12213 c 6.064,6.4407 13.2572,8.7797 21.8131,6.1684 -7.1914,1.7448 -14.4624,-0.3114 -21.8131,-6.1684 z"
           style="fill:#009ee0;fill-rule:evenodd;stroke:#009ee0;stroke-width:0.21600001;stroke-linecap:butt;stroke-linejoin:miter;stroke-dasharray:none;filter:url(#filter7850)"
           id="path5836"
           inkscape:connector-curvature="0"
           transform="matrix(0.92868513,0,0,0.92868517,201.28591,60.336244)" />
        <path
           d="m 340.49335,683.50113 c -3.1847,1.0537 -5.5424,1.8668 -8.8287,1.3243 0.4027,0.7271 0.4446,2.2763 -0.4415,3.9729 -3.2166,0.005 -6.1801,-0.4414 -10.153,-2.2072 3.324,1.8291 6.6215,3.5315 12.3602,3.5315 -1.0053,-1.1015 -1.0053,-2.4258 0,-3.9728 3.6461,-0.419 5.3176,-1.5104 7.063,-2.6487 z"
           style="fill:#009ee0;fill-rule:evenodd;stroke:#009ee0;stroke-width:0.21600001;stroke-linecap:butt;stroke-linejoin:miter;stroke-dasharray:none;filter:url(#filter7850)"
           id="path5838"
           inkscape:connector-curvature="0"
           transform="matrix(0.92868513,0,0,0.92868517,201.28591,60.336244)" />
        <path
           d="m 319.74585,685.70833 c 8.0672,3.6297 15.6079,3.038 22.5133,-2.6487 -5.9763,4.3641 -13.4808,5.2469 -22.5133,2.6487 z"
           style="fill:#e30016;fill-rule:evenodd;stroke:#e30016;stroke-width:0.21600001;stroke-linecap:butt;stroke-linejoin:miter;stroke-dasharray:none;filter:url(#filter7850)"
           id="path5840"
           inkscape:connector-curvature="0"
           transform="matrix(0.92868513,0,0,0.92868517,201.28591,60.336244)" />
        <path
           d="m 337.36935,666.91233 c -2.539,2.1922 -4.4061,3.8457 -7.65,4.6021 0.6504,0.5175 1.2818,1.9328 1.1125,3.8395 -2.97,1.235 -5.8785,1.9571 -10.2248,1.8461 3.771,0.4178 7.469,0.7288 12.7708,-1.4673 -1.3503,-0.633 -1.857,-1.8565 -1.5204,-3.6706 3.2082,-1.7823 4.335,-3.4302 5.5119,-5.1498 z"
           style="fill:#e30016;fill-rule:evenodd;stroke:#e30016;stroke-width:0.21600001;stroke-linecap:butt;stroke-linejoin:miter;stroke-dasharray:none;filter:url(#filter7850)"
           id="path5842"
           inkscape:connector-curvature="0"
           transform="matrix(0.92868513,0,0,0.92868517,201.28591,60.336244)" />
        <path
           d="m 319.04565,676.89113 c 8.8422,0.2663 15.5826,-3.1661 19.7861,-11.0624 -3.8514,6.3188 -10.4468,10.0063 -19.7861,11.0624 z"
           style="fill:#009ee0;fill-rule:evenodd;stroke:#009ee0;stroke-width:0.21600001;stroke-linecap:butt;stroke-linejoin:miter;stroke-dasharray:none;filter:url(#filter7850)"
           id="path5844"
           inkscape:connector-curvature="0"
           transform="matrix(0.92868513,0,0,0.92868517,201.28591,60.336244)" />
        <path
           d="m 328.13455,652.78183 c -1.5068,2.9971 -2.5989,5.2392 -5.3063,7.1794 0.7988,0.2293 1.9239,1.2951 2.497,3.1214 -2.2712,2.2776 -4.6821,4.0579 -8.74,5.6186 3.6439,-1.0572 7.1794,-2.185 11.2372,-6.2428 -1.4897,-0.0681 -2.4261,-1.0047 -2.8093,-2.8093 2.282,-2.8745 2.6922,-4.8281 3.1214,-6.8673 z"
           style="fill:#009ee0;fill-rule:evenodd;stroke:#009ee0;stroke-width:0.21600001;stroke-linecap:butt;stroke-linejoin:miter;stroke-dasharray:none;filter:url(#filter7850)"
           id="path5846"
           inkscape:connector-curvature="0"
           transform="matrix(0.92868513,0,0,0.92868517,201.28591,60.336244)" />
        <path
           d="m 315.02455,669.01343 c 8.271,-3.1379 13.1848,-8.8884 14.0465,-17.7922 -1.1401,7.3116 -5.8223,13.2423 -14.0465,17.7922 z"
           style="fill:#e30016;fill-rule:evenodd;stroke:#e30016;stroke-width:0.21600001;stroke-linecap:butt;stroke-linejoin:miter;stroke-dasharray:none;filter:url(#filter7850)"
           id="path5848"
           inkscape:connector-curvature="0"
           transform="matrix(0.92868513,0,0,0.92868517,201.28591,60.336244)" />
        <path
           d="m 314.19555,643.26083 c -0.2452,3.3455 -0.3962,5.8349 -2.1551,8.6634 0.8258,-0.0937 2.2731,0.4604 3.5016,1.9283 -1.2268,2.9735 -2.7729,5.5408 -5.9245,8.5356 2.9617,-2.3712 5.7966,-4.7662 7.9927,-10.068 -1.4024,0.5072 -2.6259,4e-4 -3.6705,-1.5204 1.0082,-3.5288 0.6397,-5.4907 0.2558,-7.5389 z"
           style="fill:#e30016;fill-rule:evenodd;stroke:#e30016;stroke-width:0.21600001;stroke-linecap:butt;stroke-linejoin:miter;stroke-dasharray:none;filter:url(#filter7850)"
           id="path5850"
           inkscape:connector-curvature="0"
           transform="matrix(0.92868513,0,0,0.92868517,201.28591,60.336244)" />
        <path
           d="m 308.29495,663.27373 c 6.4407,-6.0641 8.7797,-13.2572 6.1685,-21.8131 1.7448,7.1913 -0.3114,14.4623 -6.1685,21.8131 z"
           style="fill:#009ee0;fill-rule:evenodd;stroke:#009ee0;stroke-width:0.21600001;stroke-linecap:butt;stroke-linejoin:miter;stroke-dasharray:none;filter:url(#filter7850)"
           id="path5852"
           inkscape:connector-curvature="0"
           transform="matrix(0.92868513,0,0,0.92868517,201.28591,60.336244)" />
        <path
           d="m 296.38905,661.74413 c -4.6288,14.7568 -18.7759,18.0361 -17.3775,33.1008 1.7454,-15.0647 15.8925,-19.9836 17.3775,-33.1008 z"
           style="fill:#009ee0;fill-rule:evenodd;stroke:#009ee0;stroke-width:0.21600001;stroke-linecap:butt;stroke-linejoin:miter;stroke-dasharray:none;filter:url(#filter7850)"
           id="path5854"
           inkscape:connector-curvature="0"
           transform="matrix(0.92868513,0,0,0.92868517,201.28591,60.336244)" />
        <path
           d="m 279.01155,694.84503 c 14.5661,-3.197 24.3622,7.9432 36.1703,-0.8525 -13.38,5.9557 -24.5374,-4.3647 -36.1703,0.8525 z"
           style="fill:#009ee0;fill-rule:evenodd;stroke:#009ee0;stroke-width:0.21600001;stroke-linecap:butt;stroke-linejoin:miter;stroke-dasharray:none;filter:url(#filter7850)"
           id="path5856"
           inkscape:connector-curvature="0"
           transform="matrix(0.92868513,0,0,0.92868517,201.28591,60.336244)" />
        <path
           d="m 315.26875,693.99253 c -9.9373,-11.5599 -5.5863,-25.9794 -18.7928,-32.2485 11.6346,9.1091 8.645,24.3484 18.7928,32.2485 z"
           style="fill:#009ee0;fill-rule:evenodd;stroke:#009ee0;stroke-width:0.21600001;stroke-linecap:butt;stroke-linejoin:miter;stroke-dasharray:none;filter:url(#filter7850)"
           id="path5858"
           inkscape:connector-curvature="0"
           transform="matrix(0.92868513,0,0,0.92868517,201.28591,60.336244)" />
      </g>
    </g>
    <path
       sodipodi:nodetypes="ccc"
       inkscape:connector-curvature="0"
       id="path9888"
       d="m 99.759466,969.29784 c 10.990434,-12.2208 9.445744,-23.36629 0.477494,-33.875 -9.260887,10.25174 -11.119104,21.34926 -0.477494,33.875 z"
       style="fill:#ff0000;fill-rule:evenodd;stroke:#ff0000;stroke-width:1.97623861px;stroke-linecap:butt;stroke-linejoin:miter;stroke-opacity:1"
       inkscape:export-filename="/home/rendier/JARVIS/scripts/Pharos/images/interface/nav_seal_over_200.png"
       inkscape:export-xdpi="177.86147"
       inkscape:export-ydpi="177.86147" />
  </g>
</svg>
