<?xml version="1.0" encoding="UTF-8" standalone="no"?>
<!-- Created with Inkscape (http://www.inkscape.org/) -->

<svg
   xmlns:dc="http://purl.org/dc/elements/1.1/"
   xmlns:cc="http://creativecommons.org/ns#"
   xmlns:rdf="http://www.w3.org/1999/02/22-rdf-syntax-ns#"
   xmlns:svg="http://www.w3.org/2000/svg"
   xmlns="http://www.w3.org/2000/svg"
   xmlns:sodipodi="http://sodipodi.sourceforge.net/DTD/sodipodi-0.dtd"
   xmlns:inkscape="http://www.inkscape.org/namespaces/inkscape"
   width="200"
   height="200"
   viewBox="0 0 200 200"
   id="svg3351"
   version="1.1"
   inkscape:version="0.91 r13725"
   sodipodi:docname="onscreenkeys.svg">
  <defs
     id="defs3353" />
  <sodipodi:namedview
     id="base"
     pagecolor="#ffffff"
     bordercolor="#666666"
     borderopacity="1.0"
     inkscape:pageopacity="0.0"
     inkscape:pageshadow="2"
     inkscape:zoom="1.979899"
     inkscape:cx="66.689234"
     inkscape:cy="94.434629"
     inkscape:document-units="px"
     inkscape:current-layer="g8857"
     showgrid="false"
     units="px"
     showguides="true"
     inkscape:guide-bbox="true"
     inkscape:snap-center="true"
     inkscape:snap-object-midpoints="true"
     inkscape:snap-smooth-nodes="true"
     inkscape:object-nodes="true"
     inkscape:snap-intersection-paths="true"
     inkscape:object-paths="true"
     inkscape:snap-bbox="true"
     inkscape:bbox-nodes="true"
     inkscape:snap-bbox-edge-midpoints="true"
     inkscape:snap-bbox-midpoints="true"
     inkscape:bbox-paths="true"
     inkscape:window-width="1366"
     inkscape:window-height="720"
     inkscape:window-x="0"
     inkscape:window-y="23"
     inkscape:window-maximized="1">
    <sodipodi:guide
       position="0,164.65486"
       orientation="1,0"
       id="guide3359" />
    <sodipodi:guide
       position="63.134534,200.0102"
       orientation="0,1"
       id="guide3361" />
    <sodipodi:guide
       position="111.62186,0"
       orientation="0,1"
       id="guide3363" />
    <sodipodi:guide
       position="200.0102,217.68787"
       orientation="1,0"
       id="guide3365" />
  </sodipodi:namedview>
  <metadata
     id="metadata3356">
    <rdf:RDF>
      <cc:Work
         rdf:about="">
        <dc:format>image/svg+xml</dc:format>
        <dc:type
           rdf:resource="http://purl.org/dc/dcmitype/StillImage" />
        <dc:title />
      </cc:Work>
    </rdf:RDF>
  </metadata>
  <g
     inkscape:label="Layer 1"
     inkscape:groupmode="layer"
     id="layer1"
     transform="translate(0,-852.36216)">
    <rect
       style="fill:none;fill-opacity:1;stroke:none;stroke-width:0.49875319;stroke-opacity:1"
       id="rect3367"
       width="199.51144"
       height="199.51144"
       x="0.2493766"
       y="852.60132" />
    <g
       id="g8857"
       transform="translate(135.28735,255.62456)">
      <path
         style="fill:#00ffff"
         sodipodi:nodetypes="ccccccccc"
         id="path8770"
         d="m -79.007795,680.99858 -16.184707,0 -5.992828,-5.99283 0,-11.08877 5.992828,-5.99283 16.184707,0 5.992825,5.99283 0,11.08877 z"
         inkscape:connector-curvature="0" />
      <path
         style="fill:#00ffff"
         sodipodi:nodetypes="ccccccccc"
         id="path8772"
         d="m -44.538863,680.99858 -16.184705,0 -5.992824,-5.99283 0,-11.08877 5.992824,-5.99283 16.184705,0 5.992825,5.99283 0,11.08877 z"
         inkscape:connector-curvature="0" />
      <path
         style="fill:#00ffff"
         sodipodi:nodetypes="ccccccccc"
         id="path8774"
         d="m -10.090312,680.99858 -16.184708,0 -5.992824,-5.99283 0,-11.08877 5.992824,-5.99283 16.184708,0 5.9928239,5.99283 0,11.08877 z"
         inkscape:connector-curvature="0" />
      <path
         style="fill:#00ffff"
         sodipodi:nodetypes="ccccccccc"
         id="path8776"
         d="m 24.358237,680.99858 -16.1847029,0 -5.9928244,-5.99283 0,-11.08877 5.9928244,-5.99283 16.1847029,0 5.992824,5.99283 0,11.08877 z"
         inkscape:connector-curvature="0" />
      <path
         style="fill:#00ffff"
         sodipodi:nodetypes="ccccccccc"
         id="path8778"
         d="m -75.155267,711.85958 -16.184702,0 -5.992826,-5.99282 0,-11.08878 5.992826,-5.99282 16.184702,0 5.992824,5.99282 0,11.08878 z"
         inkscape:connector-curvature="0" />
      <path
         style="fill:#00ffff"
         sodipodi:nodetypes="ccccccccc"
         id="path8780"
         d="m -43.254689,711.85958 -16.184702,0 -5.992825,-5.99282 0,-11.08878 5.992825,-5.99282 16.184702,0 5.992824,5.99282 0,11.08878 z"
         inkscape:connector-curvature="0" />
      <path
         style="fill:#00ffff"
         sodipodi:nodetypes="ccccccccc"
         id="path8782"
         d="m -11.374489,711.85958 -16.184704,0 -5.992824,-5.99282 0,-11.08878 5.992824,-5.99282 16.184704,0 5.992824,5.99282 0,11.08878 z"
         inkscape:connector-curvature="0" />
      <path
         style="fill:#00ffff"
         sodipodi:nodetypes="ccccccccc"
         id="path8784"
         d="m 20.526089,711.85958 -16.1847021,0 -5.9928243,-5.99282 0,-11.08878 5.9928243,-5.99282 16.1847021,0 5.992825,5.99282 0,11.08878 z"
         inkscape:connector-curvature="0" />
      <path
         style="fill:#00ffff"
         sodipodi:nodetypes="ccccccccc"
         id="path8786"
         d="m 13.738297,744.16783 -98.290476,0 -5.992824,-5.99282 0,-7.19547 5.992824,-5.99283 98.290476,0 5.992825,5.99283 0,7.19547 z"
         inkscape:connector-curvature="0" />
      <path
         style="fill:#ffffff;stroke:#ffffff;stroke-width:3"
         id="path8788"
         d="m -35.406941,603.90027 c 12.553013,0 24.722574,2.46216 36.18577694,7.30575 11.05956606,4.68217 21.00914306,11.38249 29.54599606,19.91934 8.536858,8.53684 15.237181,18.48642 19.919333,29.54602 4.843605,11.4632 7.305772,23.63276 7.305772,36.18577 0,12.55302 -2.462167,24.72258 -7.305772,36.18578 -4.682152,11.05954 -11.382475,21.00912 -19.919333,29.54597 -8.536853,8.53689 -18.48643,15.23719 -29.54599606,19.91933 -11.46320294,4.84363 -23.63276394,7.3058 -36.18577694,7.3058 -12.553011,0 -24.722572,-2.46217 -36.185776,-7.3058 -11.059567,-4.68214 -21.009142,-11.38244 -29.546003,-19.91933 -8.53685,-8.53685 -15.23718,-18.48643 -19.91933,-29.54597 -4.8436,-11.4632 -7.30577,-23.63276 -7.30577,-36.18578 0,-12.55301 2.46217,-24.72257 7.30577,-36.18577 4.68215,-11.0596 11.38248,-21.00918 19.91933,-29.54602 8.536861,-8.53685 18.486436,-15.23717 29.546003,-19.91934 11.463204,-4.84359 23.632765,-7.30575 36.185776,-7.30575 m 0,-5.93342 c -54.61166,0 -98.890289,44.27862 -98.890289,98.8903 0,54.61164 44.278629,98.8903 98.890289,98.8903 54.611661,0 98.890296,-44.27866 98.890296,-98.8903 0,-54.61168 -44.278635,-98.8903 -98.890296,-98.8903 l 0,0 z"
         inkscape:connector-curvature="0" />
    </g>
  </g>
</svg>
