<?xml version="1.0" encoding="UTF-8" standalone="no"?>
<!-- Created with Inkscape (http://www.inkscape.org/) -->

<svg
   xmlns:dc="http://purl.org/dc/elements/1.1/"
   xmlns:cc="http://creativecommons.org/ns#"
   xmlns:rdf="http://www.w3.org/1999/02/22-rdf-syntax-ns#"
   xmlns:svg="http://www.w3.org/2000/svg"
   xmlns="http://www.w3.org/2000/svg"
   xmlns:sodipodi="http://sodipodi.sourceforge.net/DTD/sodipodi-0.dtd"
   xmlns:inkscape="http://www.inkscape.org/namespaces/inkscape"
   width="200"
   height="200"
   viewBox="0 0 200 200"
   id="svg2"
   version="1.1"
   inkscape:version="0.91 r13725"
   sodipodi:docname="opticaltext.svg">
  <defs
     id="defs4" />
  <sodipodi:namedview
     id="base"
     pagecolor="#ffffff"
     bordercolor="#666666"
     borderopacity="1.0"
     inkscape:pageopacity="0.0"
     inkscape:pageshadow="2"
     inkscape:zoom="1.979899"
     inkscape:cx="7.7551923"
     inkscape:cy="92.902525"
     inkscape:document-units="px"
     inkscape:current-layer="layer1"
     showgrid="false"
     units="px"
     showguides="true"
     inkscape:guide-bbox="true"
     inkscape:snap-center="true"
     inkscape:snap-object-midpoints="true"
     inkscape:snap-smooth-nodes="true"
     inkscape:object-nodes="true"
     inkscape:snap-intersection-paths="true"
     inkscape:object-paths="true"
     inkscape:snap-bbox="true"
     inkscape:bbox-paths="true"
     inkscape:bbox-nodes="true"
     inkscape:snap-bbox-edge-midpoints="true"
     inkscape:snap-bbox-midpoints="true"
     inkscape:window-width="1366"
     inkscape:window-height="720"
     inkscape:window-x="0"
     inkscape:window-y="23"
     inkscape:window-maximized="1">
    <sodipodi:guide
       position="0,-12.626907"
       orientation="1,0"
       id="guide3336" />
    <sodipodi:guide
       position="244.45692,200.0102"
       orientation="0,1"
       id="guide3338" />
    <sodipodi:guide
       position="200.0102,58.083771"
       orientation="1,0"
       id="guide3340" />
    <sodipodi:guide
       position="-15.657364,0"
       orientation="0,1"
       id="guide3342" />
    <sodipodi:guide
       position="100.0051,185.36299"
       orientation="1,0"
       id="guide3350" />
    <sodipodi:guide
       position="86.368043,150.00765"
       orientation="0,1"
       id="guide3354" />
    <sodipodi:guide
       position="0,50.002551"
       orientation="0,1"
       id="guide3356" />
  </sodipodi:namedview>
  <metadata
     id="metadata7">
    <rdf:RDF>
      <cc:Work
         rdf:about="">
        <dc:format>image/svg+xml</dc:format>
        <dc:type
           rdf:resource="http://purl.org/dc/dcmitype/StillImage" />
        <dc:title />
      </cc:Work>
    </rdf:RDF>
  </metadata>
  <g
     inkscape:label="Layer 1"
     inkscape:groupmode="layer"
     id="layer1"
     transform="translate(0,-852.36216)">
    <rect
       style="fill:none;fill-opacity:1;stroke:none;stroke-width:0.5;stroke-opacity:1"
       id="rect3344"
       width="200.01019"
       height="200.01019"
       x="0"
       y="852.35199" />
    <circle
       style="fill:none;fill-opacity:1;stroke:#ffffff;stroke-width:9.79554081;stroke-opacity:1"
       id="path3348"
       cx="100.0051"
       cy="952.35706"
       r="95.107292" />
    <circle
       style="fill:none;fill-opacity:1;stroke:#ffffff;stroke-width:9.51024437;stroke-opacity:1"
       id="path3775"
       cx="100.0051"
       cy="952.35706"
       r="95.107292" />
    <path
       id="path3894"
       style="fill:#00ffff"
       d="m 148.97455,915.33348 c 0.96565,-0.8739 1.06435,-2.07747 1.06435,-12.97897 0,-8.56955 -0.20031,-12.21604 -0.69841,-12.71415 -0.38413,-0.38412 -1.54787,-0.69841 -2.58608,-0.69841 -3.402,0 -3.69971,1.11101 -3.69971,13.80688 0,10.44379 0.0806,11.30032 1.16404,12.38384 1.41534,1.41535 3.32467,1.49597 4.75581,0.20081 z m -27.85688,-6.66329 c -5.9849,-1.73133 -5.41711,-11.34509 0.73823,-12.49985 5.67983,-1.06554 10.02248,5.51943 6.55068,9.93312 -1.01176,1.28624 -4.52737,3.39309 -5.26723,3.15656 -0.0903,-0.0289 -1.00008,-0.29429 -2.02168,-0.58983 z m 8.37408,5.97056 c 4.61047,-2.35209 7.16869,-6.69987 7.148,-12.14824 -0.0296,-7.80368 -5.78683,-13.55056 -13.57483,-13.55056 -7.13672,0 -12.72683,4.97956 -13.56856,12.08659 -0.70188,5.92624 3.16925,12.30437 8.70711,14.34595 3.15946,1.16475 8.21047,0.83644 11.28828,-0.73374 z m -27.30769,0.74993 c 1.26473,-0.88585 1.29354,-1.17013 1.29354,-12.76279 0,-10.00284 -0.143,-11.99976 -0.9146,-12.77135 -1.19202,-1.19202 -3.660841,-1.16803 -5.005243,0.0487 -0.963015,0.87152 -1.064355,2.06294 -1.064355,12.51335 0,10.7741 0.0782,11.62833 1.164032,12.71416 1.39836,1.39835 2.785656,1.47743 4.526626,0.258 z m -12.804358,0 c 1.263801,-0.8852 1.293537,-1.17512 1.293537,-12.61303 0,-12.89008 -0.241998,-13.8357 -3.540731,-13.8357 -3.271136,0 -3.443465,0.68491 -3.443465,13.68594 0,11.59266 0.02881,11.87694 1.293537,12.76279 0.71144,0.49831 1.700797,0.90603 2.198561,0.90603 0.497763,0 1.487121,-0.40772 2.198561,-0.90603 z m -28.098286,-6.90857 c -3.974088,-1.72207 -5.408252,-5.78362 -3.26613,-9.24964 3.073261,-4.97265 9.731458,-3.98072 11.72824,1.74725 1.623441,4.65702 -3.843368,9.50382 -8.46211,7.50239 z m 8.668626,6.09838 c 10.133998,-4.90579 9.367022,-20.41334 -1.229224,-24.85372 -2.513437,-1.05327 -7.849439,-0.99353 -10.513682,0.11769 -4.993705,2.08282 -8.240635,7.01802 -8.262256,12.55829 -0.04132,10.58403 10.297096,16.87733 20.005162,12.17774 z m 28.159904,100.33501 c 1.290908,-0.9043 1.293539,-0.9439 1.293539,-19.54236 l 0,-18.6363 1.701275,-1.70123 1.70128,-1.7013 10.81207,0 10.81208,0 0,20.07955 c 0,19.30354 0.045,20.12454 1.16403,21.24364 1.43399,1.4339 2.97771,1.4828 4.59438,0.1454 1.20482,-0.9966 1.23429,-1.449 1.37401,-21.09807 l 0.14278,-20.07951 10.65331,-0.15877 10.65332,-0.15878 1.71453,1.71457 1.71453,1.7145 0,18.3783 c 0,17.60226 0.0492,18.42746 1.16404,19.54236 1.39835,1.3983 2.78565,1.4774 4.52662,0.258 1.29292,-0.9057 1.29353,-0.9153 1.29353,-20.39951 0,-20.9292 -0.0326,-21.18523 -3.12366,-24.58357 -2.3906,-2.62821 -4.38313,-3.25073 -11.42674,-3.56997 l -6.69318,-0.30335 -0.29102,-9.02125 c -0.31426,-9.74242 -0.68629,-11.09002 -3.87664,-14.04277 -3.29479,-3.04941 -3.62982,-3.10843 -19.40401,-3.41772 l -14.84141,-0.291 0,-4.94714 0,-4.94714 25.99594,-0.29101 25.99595,-0.291 2.51791,-1.77026 c 3.2774,-2.30421 5.12492,-5.58029 5.13729,-9.10955 0.008,-2.16944 -0.25662,-2.91804 -1.28396,-3.63761 -0.71144,-0.49831 -1.75907,-0.90602 -2.32807,-0.90602 -1.51661,0 -3.36259,2.10141 -3.36259,3.82787 0,0.88167 -0.70118,2.20099 -1.70128,3.20109 l -1.70128,1.70128 -52.45513,0 c -59.219886,0 -55.3574,0.30031 -56.539946,-4.39602 -1.017521,-4.04094 -3.980084,-5.5238 -6.333687,-3.17019 -2.994259,2.99426 0.337563,10.58938 5.887374,13.42066 2.091708,1.06713 3.61943,1.12975 27.555374,1.12975 l 25.340897,0 0,5.23815 0,5.23814 -13.755362,0 c -15.756648,0 -17.41473,0.30149 -20.922612,3.80407 -3.098678,3.09399 -3.735101,5.74956 -3.735101,15.58546 l 0,7.81572 -6.256676,0.2675 c -4.90152,0.20952 -6.785128,0.5397 -8.696527,1.52441 -3.153697,1.6247 -5.214319,4.37333 -6.075459,8.104 -0.900908,3.90292 0.213065,5.96803 3.219318,5.96803 2.319475,0 3.016078,-0.71285 3.564553,-3.64782 0.243679,-1.30395 1.004351,-2.66045 1.876619,-3.34659 1.374663,-1.08127 2.391557,-1.15379 16.182165,-1.15379 8.093431,0 15.139291,0.16267 15.657478,0.36154 1.078831,0.41399 2.645147,3.17124 2.645147,4.65637 0,2.50556 3.266439,3.91497 5.858425,2.52779 1.436632,-0.76885 1.541173,-5.03937 0.192921,-7.8806 -2.427724,-5.11604 -7.100471,-7.23132 -15.97427,-7.23132 l -4.627483,0 0,-8.6288 c 0,-8.52258 0.01851,-8.64614 1.501474,-10.03978 l 1.501474,-1.41098 30.072912,-0.17938 c 20.607552,-0.12292 30.758802,0.0216 32.252082,0.45886 3.43384,1.00567 3.99712,2.71022 3.80385,11.511 l -0.16286,7.41605 -17.26637,0.29101 -17.26637,0.29101 -2.477509,1.74605 c -1.362622,0.96033 -3.086892,2.90036 -3.831716,4.31117 -1.338055,2.53452 -1.354218,2.79322 -1.354218,21.68005 0,18.33901 0.04726,19.16221 1.164033,20.27911 1.398358,1.3983 2.785652,1.4774 4.526626,0.258 z"
       inkscape:connector-curvature="0" />
  </g>
</svg>
