<?xml version="1.0" encoding="UTF-8" standalone="no"?>
<!-- Created with Inkscape (http://www.inkscape.org/) -->

<svg
   xmlns:dc="http://purl.org/dc/elements/1.1/"
   xmlns:cc="http://creativecommons.org/ns#"
   xmlns:rdf="http://www.w3.org/1999/02/22-rdf-syntax-ns#"
   xmlns:svg="http://www.w3.org/2000/svg"
   xmlns="http://www.w3.org/2000/svg"
   xmlns:sodipodi="http://sodipodi.sourceforge.net/DTD/sodipodi-0.dtd"
   xmlns:inkscape="http://www.inkscape.org/namespaces/inkscape"
   width="200"
   height="200"
   viewBox="0 0 200 200"
   id="svg2"
   version="1.1"
   inkscape:version="0.91 r13725"
   sodipodi:docname="phaleronsymbol.svg">
  <defs
     id="defs4">
    <filter
       style="color-interpolation-filters:sRGB;"
       inkscape:label="Lightness-Contrast"
       id="filter4219">
      <feColorMatrix
         values="6.09947 0 0 0.167192 -2.54973 0 6.09947 0 0.167192 -2.54973 0 0 6.09947 0.167192 -2.54973 0 0 0 1 0"
         id="feColorMatrix4221" />
    </filter>
  </defs>
  <sodipodi:namedview
     id="base"
     pagecolor="#ffffff"
     bordercolor="#666666"
     borderopacity="1.0"
     inkscape:pageopacity="0.0"
     inkscape:pageshadow="2"
     inkscape:zoom="1.4"
     inkscape:cx="170.5762"
     inkscape:cy="154.93508"
     inkscape:document-units="px"
     inkscape:current-layer="layer1"
     showgrid="false"
     units="px"
     showguides="true"
     inkscape:guide-bbox="true"
     inkscape:snap-center="true"
     inkscape:snap-object-midpoints="true"
     inkscape:snap-smooth-nodes="true"
     inkscape:object-nodes="true"
     inkscape:snap-intersection-paths="true"
     inkscape:object-paths="true"
     inkscape:snap-bbox="true"
     inkscape:bbox-paths="true"
     inkscape:bbox-nodes="true"
     inkscape:snap-bbox-edge-midpoints="true"
     inkscape:snap-bbox-midpoints="true"
     inkscape:window-width="1366"
     inkscape:window-height="720"
     inkscape:window-x="0"
     inkscape:window-y="23"
     inkscape:window-maximized="1"
     inkscape:snap-nodes="false">
    <sodipodi:guide
       position="0,-12.626907"
       orientation="1,0"
       id="guide3336" />
    <sodipodi:guide
       position="244.45692,200.0102"
       orientation="0,1"
       id="guide3338" />
    <sodipodi:guide
       position="200.0102,58.083771"
       orientation="1,0"
       id="guide3340" />
    <sodipodi:guide
       position="-15.657364,0"
       orientation="0,1"
       id="guide3342" />
    <sodipodi:guide
       position="100.0051,185.36299"
       orientation="1,0"
       id="guide3350" />
    <sodipodi:guide
       position="86.368043,150.00765"
       orientation="0,1"
       id="guide3354" />
    <sodipodi:guide
       position="0,50.002551"
       orientation="0,1"
       id="guide3356" />
  </sodipodi:namedview>
  <metadata
     id="metadata7">
    <rdf:RDF>
      <cc:Work
         rdf:about="">
        <dc:format>image/svg+xml</dc:format>
        <dc:type
           rdf:resource="http://purl.org/dc/dcmitype/StillImage" />
        <dc:title />
      </cc:Work>
    </rdf:RDF>
  </metadata>
  <g
     inkscape:label="Layer 1"
     inkscape:groupmode="layer"
     id="layer1"
     transform="translate(0,-852.36216)">
    <rect
       style="fill:none;fill-opacity:1;stroke:none;stroke-width:0.5;stroke-opacity:1"
       id="rect3344"
       width="200.01019"
       height="200.01019"
       x="0"
       y="852.35199" />
    <circle
       style="fill:none;fill-opacity:1;stroke:#ffffff;stroke-width:9.79554081;stroke-opacity:1"
       id="path3348"
       cx="100.0051"
       cy="952.35706"
       r="95.107292" />
    <circle
       style="fill:none;fill-opacity:1;stroke:#ffffff;stroke-width:9.51024437;stroke-opacity:1"
       id="path3775"
       cx="100.0051"
       cy="952.35706"
       r="95.107292" />
    <path
       style="fill:#00ffff"
       d="m 82.303816,1027.5204 c -6.07642,-2.2396 -9.141532,-4.8393 -27.703236,-23.4968 -16.920168,-17.00735 -17.521295,-17.70923 -16.111279,-18.81158 5.48031,-4.2845 13.521801,-5.39511 19.406769,-2.68027 1.812519,0.83615 5.519944,3.74699 8.238722,6.46854 l 4.943234,4.94827 0,-25.62147 c 0,-25.48081 0.0092,-25.63512 1.675082,-28.10984 3.350663,-4.97749 9.104821,-5.5292 13.096838,-1.25573 l 2.071691,2.21775 0,14.1788 0,14.17881 16.131313,9.63007 c 8.87222,5.29654 16.5276,10.33305 17.01196,11.19225 0.5198,0.92207 0.88668,4.56289 0.89538,8.88548 0.0137,6.82482 -0.15605,7.68782 -2.49414,12.67692 -2.94298,6.28 -8.03023,11.3726 -14.51953,14.535 -3.61153,1.76 -5.249015,2.0802 -11.532502,2.2554 -5.76411,0.1607 -8.12959,-0.093 -11.110302,-1.1916 z m -61.024291,-75.1449 0,-48.70001 2.929323,0 2.929324,0 0,-4.97985 c 0,-2.89677 0.367601,-5.34745 0.878797,-5.85864 0.655831,-0.65583 8.744375,-0.8788 31.879916,-0.8788 33.138611,0 34.116046,0.0963 37.997495,3.74271 l 1.570923,1.47581 3.441177,-2.42618 3.44117,-2.42617 32.08939,-0.20508 c 37.07764,-0.23694 34.43498,-0.76251 34.43498,6.84836 l 0,4.70784 2.92933,0 2.92932,0 0,48.70001 0,48.7 -25.52536,0 -25.52537,0 -0.41942,-4.94323 c -0.23068,-2.71878 -0.64328,-5.51994 -0.9169,-6.22481 -0.46643,-1.20162 0.76396,-1.28158 19.71997,-1.28158 l 20.21746,0 0,-45.03835 0,-45.03835 -28.37783,0.0259 c -30.68268,0.0281 -30.51137,0.007 -33.17727,4.05125 -1.32946,2.01678 -1.416,3.66875 -1.42054,27.11645 -0.004,24.05242 -0.0587,25.01757 -1.47246,26.29703 -1.2044,1.08995 -1.79061,1.18102 -3.268363,0.50771 l -1.800728,-0.82045 -0.210209,-25.6071 c -0.202621,-24.68284 -0.265623,-25.68168 -1.745466,-27.67354 -2.871653,-3.86525 -2.953645,-3.87489 -33.067377,-3.8865 l -28.011657,-0.0108 0,46.30154 0,46.30156 4.923592,4.9616 4.923593,4.96157 -11.148405,0 -11.148405,0 0,-48.69995 z m 91.288705,9.27956 c -1.51314,-1.672 -1.5275,-2.63463 -0.0612,-4.10093 0.99113,-0.99111 3.98188,-1.15081 21.55148,-1.15081 17.5696,0 20.56034,0.1597 21.55145,1.15081 1.5088,1.5088 1.45384,2.74192 -0.18844,4.22817 -1.17788,1.06596 -3.76723,1.212 -21.49026,1.212 -18.59192,0 -20.24479,-0.10362 -21.36301,-1.33924 z M 44.877064,942.08134 c -2.016568,-1.41246 -2.132687,-4.39679 -0.211094,-5.42519 0.779083,-0.41695 5.341695,-0.7581 10.139128,-0.7581 7.680211,0 8.875126,0.16853 9.998807,1.41018 1.655559,1.82938 1.234798,3.80968 -1.055677,4.96853 -2.775688,1.40434 -16.794449,1.25917 -18.871164,-0.19542 z m 68.923646,0.42607 c -2.46141,-1.01958 -2.96214,-3.68676 -0.99172,-5.28232 1.49136,-1.20763 3.4107,-1.32704 21.33062,-1.32704 18.71537,0 19.76444,0.0726 21.15647,1.46467 1.7419,1.7419 1.79024,2.20373 0.42611,4.07093 -0.97828,1.33904 -2.17905,1.43049 -20.68835,1.57558 -10.80739,0.0847 -20.3623,-0.1411 -21.23313,-0.50182 z M 44.128248,921.8373 c -1.12962,-1.12962 -1.12962,-3.70376 0,-4.83338 1.253788,-1.25379 41.660804,-1.25379 42.914592,0 1.12962,1.12962 1.12962,3.70376 0,4.83338 -1.253788,1.25379 -41.660804,1.25379 -42.914592,0 z m 68.439982,-0.46044 c -1.51314,-1.672 -1.5275,-2.63463 -0.0612,-4.10093 1.7299,-1.72991 41.37299,-1.72991 43.1029,0 1.50881,1.5088 1.45384,2.74192 -0.18844,4.22817 -1.17785,1.06596 -3.7672,1.212 -21.49023,1.212 -18.59192,0 -20.24479,-0.10362 -21.36301,-1.33924 z"
       id="path4223"
       inkscape:connector-curvature="0" />
  </g>
</svg>
