<?xml version="1.0" encoding="UTF-8" standalone="no"?>
<!-- Created with Inkscape (http://www.inkscape.org/) -->

<svg
   xmlns:dc="http://purl.org/dc/elements/1.1/"
   xmlns:cc="http://creativecommons.org/ns#"
   xmlns:rdf="http://www.w3.org/1999/02/22-rdf-syntax-ns#"
   xmlns:svg="http://www.w3.org/2000/svg"
   xmlns="http://www.w3.org/2000/svg"
   xmlns:sodipodi="http://sodipodi.sourceforge.net/DTD/sodipodi-0.dtd"
   xmlns:inkscape="http://www.inkscape.org/namespaces/inkscape"
   width="200"
   height="200"
   viewBox="0 0 200 200"
   id="svg2"
   version="1.1"
   inkscape:version="0.91 r13725"
   sodipodi:docname="pharossymbol.svg">
  <defs
     id="defs4">
    <filter
       style="color-interpolation-filters:sRGB;"
       inkscape:label="Lightness-Contrast"
       id="filter4219">
      <feColorMatrix
         values="6.09947 0 0 0.167192 -2.54973 0 6.09947 0 0.167192 -2.54973 0 0 6.09947 0.167192 -2.54973 0 0 0 1 0"
         id="feColorMatrix4221" />
    </filter>
  </defs>
  <sodipodi:namedview
     id="base"
     pagecolor="#ffffff"
     bordercolor="#666666"
     borderopacity="1.0"
     inkscape:pageopacity="0.0"
     inkscape:pageshadow="2"
     inkscape:zoom="0.98994949"
     inkscape:cx="79.182555"
     inkscape:cy="170.71652"
     inkscape:document-units="px"
     inkscape:current-layer="layer1"
     showgrid="false"
     units="px"
     showguides="true"
     inkscape:guide-bbox="true"
     inkscape:snap-center="true"
     inkscape:snap-object-midpoints="true"
     inkscape:snap-smooth-nodes="true"
     inkscape:object-nodes="true"
     inkscape:snap-intersection-paths="true"
     inkscape:object-paths="true"
     inkscape:snap-bbox="true"
     inkscape:bbox-paths="true"
     inkscape:bbox-nodes="true"
     inkscape:snap-bbox-edge-midpoints="true"
     inkscape:snap-bbox-midpoints="true"
     inkscape:window-width="1366"
     inkscape:window-height="720"
     inkscape:window-x="0"
     inkscape:window-y="23"
     inkscape:window-maximized="1"
     inkscape:snap-nodes="false">
    <sodipodi:guide
       position="0,-12.626907"
       orientation="1,0"
       id="guide3336" />
    <sodipodi:guide
       position="244.45692,200.0102"
       orientation="0,1"
       id="guide3338" />
    <sodipodi:guide
       position="200.0102,58.083771"
       orientation="1,0"
       id="guide3340" />
    <sodipodi:guide
       position="-15.657364,0"
       orientation="0,1"
       id="guide3342" />
    <sodipodi:guide
       position="100.0051,185.36299"
       orientation="1,0"
       id="guide3350" />
    <sodipodi:guide
       position="86.368043,150.00765"
       orientation="0,1"
       id="guide3354" />
    <sodipodi:guide
       position="0,50.002551"
       orientation="0,1"
       id="guide3356" />
  </sodipodi:namedview>
  <metadata
     id="metadata7">
    <rdf:RDF>
      <cc:Work
         rdf:about="">
        <dc:format>image/svg+xml</dc:format>
        <dc:type
           rdf:resource="http://purl.org/dc/dcmitype/StillImage" />
        <dc:title></dc:title>
      </cc:Work>
    </rdf:RDF>
  </metadata>
  <g
     inkscape:label="Layer 1"
     inkscape:groupmode="layer"
     id="layer1"
     transform="translate(0,-852.36216)">
    <rect
       style="fill:none;fill-opacity:1;stroke:none;stroke-width:0.5;stroke-opacity:1"
       id="rect3344"
       width="200.01019"
       height="200.01019"
       x="0"
       y="852.35199" />
    <circle
       style="fill:none;fill-opacity:1;stroke:#ffffff;stroke-width:9.79554081;stroke-opacity:1"
       id="path3348"
       cx="100.0051"
       cy="952.35706"
       r="95.107292" />
    <circle
       style="fill:none;fill-opacity:1;stroke:#ffffff;stroke-width:9.51024437;stroke-opacity:1"
       id="path3775"
       cx="100.0051"
       cy="952.35706"
       r="95.107292" />
    <path
       style="fill:#00ffff"
       d="m 91.154604,1027.5612 c -10.880169,-1.27 -23.810799,-6.0623 -33.317183,-12.3477 -9.857328,-6.5175 -20.669461,-18.90545 -25.969889,-29.75457 -13.429727,-27.48894 -9.085827,-59.65331 11.27442,-83.48158 9.678524,-11.32712 25.38668,-20.48533 41.438443,-24.15945 6.738402,-1.54243 24.142905,-1.54243 30.881305,0 29.19406,6.68231 50.92361,27.70925 58.17459,56.29347 5.41373,21.34158 0.74783,45.05234 -12.31514,62.58195 -4.69007,6.29378 -13.42758,14.75868 -19.11648,18.52018 -15.06536,9.961 -33.43397,14.4038 -51.050066,12.3477 z m 2.209286,-40.6162 0,-28.03011 -27.924045,0 -27.924031,0 0.626543,4.02933 c 1.879911,12.08988 7.935611,23.64389 17.380854,33.16194 9.561884,9.63564 18.901587,14.82014 31.533899,17.50464 3.276022,0.6962 6.035238,1.288 6.131591,1.3151 0.09635,0.027 0.175189,-12.5643 0.175189,-27.9809 z m 29.28026,23.8347 c 8.55601,-3.3188 14.6902,-7.4336 21.87473,-14.67354 9.44522,-9.51805 15.50094,-21.07206 17.38087,-33.16194 l 0.62655,-4.02933 -27.92405,0 -27.92405,0 0,27.94595 0,27.94596 5.43084,-1.0236 c 2.98696,-0.563 7.72776,-1.9145 10.53511,-3.0035 z M 93.36389,917.52321 c 0,-26.4013 -0.0732,-28.05725 -1.226319,-27.74093 -0.674475,0.18507 -2.487674,0.53692 -4.029331,0.78197 -7.133718,1.13403 -16.951489,5.27842 -24.175989,10.20542 -4.404949,3.00413 -12.73521,11.44211 -15.894486,16.10002 -4.733519,6.97894 -8.95822,17.74594 -10.242281,26.10306 l -0.403774,2.62782 27.986104,0 27.986076,0 0,-28.07736 z m 68.88271,25.44954 c -1.28405,-8.35712 -5.50879,-19.12412 -10.2423,-26.10306 -3.15927,-4.65791 -11.48951,-13.09589 -15.89446,-16.10002 -7.22449,-4.927 -17.04227,-9.07139 -24.17599,-10.20542 -1.54165,-0.24505 -3.35485,-0.5969 -4.02933,-0.78197 -1.15311,-0.31632 -1.22632,1.33963 -1.22632,27.74093 l 0,28.07736 27.98608,0 27.98608,0 -0.40376,-2.62782 z"
       id="path4271"
       inkscape:connector-curvature="0" />
  </g>
</svg>
