<?xml version="1.0" encoding="UTF-8" standalone="no"?>
<!-- Created with Inkscape (http://www.inkscape.org/) -->

<svg
   xmlns:dc="http://purl.org/dc/elements/1.1/"
   xmlns:cc="http://creativecommons.org/ns#"
   xmlns:rdf="http://www.w3.org/1999/02/22-rdf-syntax-ns#"
   xmlns:svg="http://www.w3.org/2000/svg"
   xmlns="http://www.w3.org/2000/svg"
   xmlns:sodipodi="http://sodipodi.sourceforge.net/DTD/sodipodi-0.dtd"
   xmlns:inkscape="http://www.inkscape.org/namespaces/inkscape"
   width="200"
   height="200"
   viewBox="0 0 200 200"
   id="svg2"
   version="1.1"
   inkscape:version="0.91 r13725"
   sodipodi:docname="philadelphossymbol.svg">
  <defs
     id="defs4" />
  <sodipodi:namedview
     id="base"
     pagecolor="#ffffff"
     bordercolor="#666666"
     borderopacity="1.0"
     inkscape:pageopacity="0.0"
     inkscape:pageshadow="2"
     inkscape:zoom="1.979899"
     inkscape:cx="73.810402"
     inkscape:cy="75.566436"
     inkscape:document-units="px"
     inkscape:current-layer="layer1"
     showgrid="false"
     units="px"
     showguides="true"
     inkscape:guide-bbox="true"
     inkscape:snap-center="true"
     inkscape:snap-object-midpoints="true"
     inkscape:snap-smooth-nodes="true"
     inkscape:object-nodes="true"
     inkscape:snap-intersection-paths="true"
     inkscape:object-paths="true"
     inkscape:snap-bbox="true"
     inkscape:bbox-paths="true"
     inkscape:bbox-nodes="true"
     inkscape:snap-bbox-edge-midpoints="true"
     inkscape:snap-bbox-midpoints="true"
     inkscape:window-width="1366"
     inkscape:window-height="720"
     inkscape:window-x="0"
     inkscape:window-y="23"
     inkscape:window-maximized="1">
    <sodipodi:guide
       position="0,-12.626907"
       orientation="1,0"
       id="guide3336" />
    <sodipodi:guide
       position="244.45692,200.0102"
       orientation="0,1"
       id="guide3338" />
    <sodipodi:guide
       position="200.0102,58.083771"
       orientation="1,0"
       id="guide3340" />
    <sodipodi:guide
       position="-15.657364,0"
       orientation="0,1"
       id="guide3342" />
    <sodipodi:guide
       position="100.0051,185.36299"
       orientation="1,0"
       id="guide3350" />
    <sodipodi:guide
       position="86.368043,150.00765"
       orientation="0,1"
       id="guide3354" />
    <sodipodi:guide
       position="0,50.002551"
       orientation="0,1"
       id="guide3356" />
  </sodipodi:namedview>
  <metadata
     id="metadata7">
    <rdf:RDF>
      <cc:Work
         rdf:about="">
        <dc:format>image/svg+xml</dc:format>
        <dc:type
           rdf:resource="http://purl.org/dc/dcmitype/StillImage" />
        <dc:title></dc:title>
      </cc:Work>
    </rdf:RDF>
  </metadata>
  <g
     inkscape:label="Layer 1"
     inkscape:groupmode="layer"
     id="layer1"
     transform="translate(0,-852.36216)">
    <rect
       style="fill:none;fill-opacity:1;stroke:none;stroke-width:0.5;stroke-opacity:1"
       id="rect3344"
       width="200.01019"
       height="200.01019"
       x="0"
       y="852.35199" />
    <circle
       style="fill:none;fill-opacity:1;stroke:#ffffff;stroke-width:9.79554081;stroke-opacity:1"
       id="path3348"
       cx="100.0051"
       cy="952.35706"
       r="95.107292" />
    <circle
       style="fill:none;fill-opacity:1;stroke:#ffffff;stroke-width:9.51024437;stroke-opacity:1"
       id="path3775"
       cx="100.0051"
       cy="952.35706"
       r="95.107292" />
    <path
       style="fill:#00ffff"
       d="m 51.308941,1028.3506 c -4.6556,-0.6654 -8.01373,-1.6477 -11.37382,-3.327 -8.66207,-4.3292 -14.77071,-11.8718 -17.07489,-21.0831 -0.82517,-3.2988 -0.9695,-4.62814 -0.9695,-8.92941 0,-4.29744 0.14453,-5.63124 0.96615,-8.91615 1.96988,-7.87573 6.70531,-14.55986 13.52009,-19.08381 5.92257,-3.93167 13.12391,-5.85211 20.29792,-5.413 10.62386,0.65026 22.83253,6.6405 35.09206,17.21809 1.18389,1.02147 2.30994,1.97979 2.50233,2.12961 l 0.34981,0.2724 0,-18.3722 0,-18.37221 -16.00916,0.0634 c -13.59845,0.0539 -16.27763,0.0993 -17.79207,0.30183 -2.27499,0.30421 -3.67362,0.6001 -5.10178,1.07932 -2.68018,0.89935 -4.04557,2.00183 -5.52147,4.45833 -1.529,2.5449 -2.31359,3.1321 -4.3953,3.28954 l -1.10204,0.0834 0,-14.82629 0,-14.82628 1.10204,0.0833 c 2.05837,0.15568 2.93218,0.79767 4.33106,3.18207 1.62751,2.77408 3.4348,4.06181 6.94477,4.94826 3.63706,0.91855 4.08523,0.93936 21.60908,1.00316 l 15.93487,0.058 0,-10.18762 0,-10.18761 -8.20887,0.004 c -12.44322,0.006 -16.37371,0.22826 -19.71929,1.11751 -3.26175,0.86696 -5.05878,2.18154 -6.65322,4.867 -1.43648,2.4194 -2.44845,3.12818 -4.64291,3.25184 l -0.81717,0.0461 -0.0379,-14.75063 c -0.0342,-13.31672 -0.0151,-14.75938 0.19643,-14.84055 0.4153,-0.15936 2.32757,0.24755 3.07494,0.65432 0.83111,0.45235 1.24998,0.94834 2.27571,2.69477 0.95209,1.62101 1.63444,2.38253 2.85446,3.18561 1.70394,1.12162 3.75762,1.78013 7.14234,2.29016 1.31547,0.19822 3.50388,0.24794 13.05788,0.29667 l 11.47756,0.0585 -0.002,-2.49776 c -0.008,-8.31087 -1.1159,-13.29257 -3.51805,-15.81398 -0.53877,-0.56551 -1.39188,-1.21721 -2.27219,-1.73573 -0.77524,-0.45663 -1.68698,-1.08599 -2.0261,-1.39858 -0.78039,-0.71933 -1.26661,-1.83623 -1.36019,-3.12447 l -0.0729,-1.00289 14.824899,0 14.82491,0 -0.0868,1.03532 c -0.10147,1.21034 -0.52284,2.25614 -1.18966,2.95266 -0.2614,0.27303 -1.11044,0.87074 -1.88675,1.32825 -3.11538,1.83599 -4.48751,3.89313 -5.32366,7.9814 -0.47973,2.3456 -0.62607,4.02318 -0.72254,8.28315 l -0.09,3.97443 10.79832,0 c 11.6768,0 13.54017,-0.0901 16.75054,-0.80982 3.89106,-0.87235 5.87178,-2.19988 7.49939,-5.0263 0.95311,-1.6551 1.44051,-2.23085 2.27139,-2.68307 0.73007,-0.39735 2.64342,-0.80005 3.05354,-0.64267 0.21152,0.0812 0.23062,1.52382 0.19643,14.84054 l -0.0379,14.75064 -0.81717,-0.0461 c -2.19237,-0.12355 -3.18973,-0.82188 -4.63214,-3.24331 -1.52183,-2.55476 -3.19141,-3.85198 -6.0654,-4.71268 -3.38112,-1.01257 -5.26462,-1.14211 -18.01494,-1.23905 l -10.95754,-0.0833 0,10.20667 0,10.20667 16.15773,-0.0578 c 17.78126,-0.0636 18.17244,-0.0816 21.8582,-1.00748 3.46497,-0.87042 5.20392,-2.09228 6.8369,-4.80388 1.54632,-2.56772 2.34021,-3.1654 4.41268,-3.32215 l 1.10204,-0.0833 0,14.82628 0,14.82629 -1.10204,-0.0834 c -2.0474,-0.15484 -2.91427,-0.78473 -4.24954,-3.08778 -2.07296,-3.57543 -4.58576,-4.9111 -10.80664,-5.74423 -1.46945,-0.19679 -4.31073,-0.24373 -17.97731,-0.29697 l -16.23202,-0.0632 0,18.3741 0,18.3741 0.50326,-0.423 c 0.27679,-0.23264 1.49698,-1.26853 2.71153,-2.30196 7.61731,-6.48141 14.96872,-11.11705 22.07762,-13.92168 5.48586,-2.1643 9.6584,-3.01493 14.74905,-3.0068 9.89206,0.0158 18.9776,4.26095 25.30667,11.82434 3.18475,3.80583 5.52234,8.60711 6.62757,13.61267 0.37599,1.70284 0.38122,1.81264 0.38122,8.00525 0,6.21815 -0.004,6.29545 -0.38596,8.00525 -2.57962,11.5395 -10.97487,20.5345 -22.42059,24.0223 -3.6377,1.1084 -6.53141,1.4752 -10.69214,1.355 -3.88388,-0.1122 -6.56476,-0.5931 -10.5832,-1.8985 -10.04536,-3.2634 -20.81716,-10.4054 -31.6442,-20.9809 l -2.25484,-2.2024 -1.831019,1.8121 c -11.69405,11.5737 -24.02035,19.4514 -34.66199,22.1523 -3.48404,0.8843 -4.6336,1.0332 -8.3991,1.0876 -1.92036,0.028 -3.69214,0.022 -3.93729,-0.013 z m 6.47161,-11.2676 c 3.68189,-0.4902 6.94346,-1.5514 11.20903,-3.6469 6.84611,-3.3633 13.3641,-8.2148 20.78845,-15.47343 l 2.98385,-2.91721 -1.70864,-1.73779 c -10.8183,-11.0029 -21.83966,-18.07871 -31.29004,-20.08845 -1.72548,-0.36694 -2.221,-0.40828 -4.96271,-0.414 -2.37835,-0.005 -3.32257,0.052 -4.30872,0.25993 -10.7333,2.26316 -17.54706,10.81116 -17.52917,21.9907 0.0143,8.93155 4.30255,16.16005 11.80896,19.90575 2.21375,1.1047 4.94825,1.9278 7.42884,2.2361 1.10882,0.1379 4.15334,0.075 5.58015,-0.1147 z m 90.724029,0.056 c 1.57261,-0.2146 3.83666,-0.796 5.18425,-1.3313 7.14841,-2.8397 11.78488,-8.4352 13.31377,-16.06788 0.48463,-2.41941 0.48839,-7.02031 0.008,-9.41745 -0.8989,-4.48261 -2.7682,-8.13116 -5.67231,-11.07131 -3.03188,-3.06951 -6.51658,-5.00555 -10.854,-6.0303 -2.16419,-0.5113 -5.76195,-0.63623 -8.15744,-0.28326 -3.72052,0.54822 -7.39266,1.77197 -11.38042,3.79256 -6.66962,3.37949 -13.18072,8.29382 -20.39836,15.39592 l -2.9282,2.88133 2.82336,2.78766 c 9.1636,9.04773 18.18588,15.20983 26.22341,17.91013 4.11705,1.3831 8.40442,1.9025 11.83825,1.4339 z"
       id="path3996"
       inkscape:connector-curvature="0" />
  </g>
</svg>
