<?xml version="1.0" encoding="UTF-8" standalone="no"?>
<!-- Created with Inkscape (http://www.inkscape.org/) -->

<svg
   xmlns:dc="http://purl.org/dc/elements/1.1/"
   xmlns:cc="http://creativecommons.org/ns#"
   xmlns:rdf="http://www.w3.org/1999/02/22-rdf-syntax-ns#"
   xmlns:svg="http://www.w3.org/2000/svg"
   xmlns="http://www.w3.org/2000/svg"
   xmlns:sodipodi="http://sodipodi.sourceforge.net/DTD/sodipodi-0.dtd"
   xmlns:inkscape="http://www.inkscape.org/namespaces/inkscape"
   width="200"
   height="200"
   viewBox="0 0 200 200"
   id="svg2"
   version="1.1"
   inkscape:version="0.91 r13725"
   sodipodi:docname="pkgbrowser.svg">
  <defs
     id="defs4" />
  <sodipodi:namedview
     id="base"
     pagecolor="#ffffff"
     bordercolor="#666666"
     borderopacity="1.0"
     inkscape:pageopacity="0.0"
     inkscape:pageshadow="2"
     inkscape:zoom="1.979899"
     inkscape:cx="141.22993"
     inkscape:cy="125.51003"
     inkscape:document-units="px"
     inkscape:current-layer="layer1"
     showgrid="false"
     units="px"
     showguides="true"
     inkscape:guide-bbox="true"
     inkscape:snap-center="true"
     inkscape:snap-object-midpoints="true"
     inkscape:snap-smooth-nodes="true"
     inkscape:object-nodes="true"
     inkscape:snap-intersection-paths="true"
     inkscape:object-paths="true"
     inkscape:snap-bbox="true"
     inkscape:bbox-paths="true"
     inkscape:bbox-nodes="true"
     inkscape:snap-bbox-edge-midpoints="true"
     inkscape:snap-bbox-midpoints="true"
     inkscape:window-width="1366"
     inkscape:window-height="720"
     inkscape:window-x="0"
     inkscape:window-y="23"
     inkscape:window-maximized="1">
    <sodipodi:guide
       position="0,-12.626907"
       orientation="1,0"
       id="guide3336" />
    <sodipodi:guide
       position="244.45692,200.0102"
       orientation="0,1"
       id="guide3338" />
    <sodipodi:guide
       position="200.0102,58.083771"
       orientation="1,0"
       id="guide3340" />
    <sodipodi:guide
       position="-15.657364,0"
       orientation="0,1"
       id="guide3342" />
    <sodipodi:guide
       position="100.0051,185.36299"
       orientation="1,0"
       id="guide3350" />
    <sodipodi:guide
       position="86.368043,150.00765"
       orientation="0,1"
       id="guide3354" />
    <sodipodi:guide
       position="0,50.002551"
       orientation="0,1"
       id="guide3356" />
  </sodipodi:namedview>
  <metadata
     id="metadata7">
    <rdf:RDF>
      <cc:Work
         rdf:about="">
        <dc:format>image/svg+xml</dc:format>
        <dc:type
           rdf:resource="http://purl.org/dc/dcmitype/StillImage" />
        <dc:title></dc:title>
      </cc:Work>
    </rdf:RDF>
  </metadata>
  <g
     inkscape:label="Layer 1"
     inkscape:groupmode="layer"
     id="layer1"
     transform="translate(0,-852.36216)">
    <rect
       style="fill:none;fill-opacity:1;stroke:none;stroke-width:0.5;stroke-opacity:1"
       id="rect3344"
       width="200.01019"
       height="200.01019"
       x="0"
       y="852.35199" />
    <circle
       style="fill:none;fill-opacity:1;stroke:#ffffff;stroke-width:9.79554081;stroke-opacity:1"
       id="path3348"
       cx="100.0051"
       cy="952.35706"
       r="95.107292" />
    <circle
       style="fill:none;fill-opacity:1;stroke:#ffffff;stroke-width:9.51024437;stroke-opacity:1"
       id="path3775"
       cx="100.0051"
       cy="952.35706"
       r="95.107292" />
    <path
       style="fill:#00ffff"
       d="m 94.101053,1025.9238 c -12.330186,-1.7791 -19.912642,-4.7222 -24.749234,-9.6067 -1.013164,-1.0231 -2.253756,-2.6327 -2.756971,-3.5769 -1.816289,-3.4076 -1.83009,-3.6042 -1.737188,-24.78264 0.08303,-18.91571 0.092,-19.18246 0.731317,-21.05394 1.521092,-4.45482 4.842427,-8.4113 8.76605,-10.44256 3.893892,-2.01582 2.550973,-1.90613 25.724263,-2.10079 23.42539,-0.19676 22.37857,-0.11066 26.68299,-2.19493 5.7867,-2.80207 10.23935,-8.09844 12.13216,-14.43145 0.60273,-2.01645 0.6604,-2.89224 0.77227,-11.72963 l 0.12084,-9.55047 7.94239,0 c 8.5596,0 9.49165,0.12418 12.56839,1.67469 0.80188,0.40415 2.38413,1.67341 3.51599,2.8206 4.01238,4.06675 6.64728,11.26768 8.49218,23.20837 0.64066,4.14624 0.71718,13.63033 0.13654,16.91382 -1.07083,6.05573 -3.14125,12.38009 -5.6791,17.34803 -1.69746,3.32285 -4.64854,6.60099 -6.90309,7.66812 -3.276,1.55071 -2.64353,1.52109 -32.44264,1.52109 l -27.654209,0 0.08527,2.40579 0.08414,2.40589 17.570028,0.0752 17.56992,0.0752 0,7.21522 c -0.0115,7.71964 -0.27647,10.00134 -1.46792,12.36064 -3.36397,6.6606 -11.05581,10.8499 -24.33521,13.2539 -2.52023,0.4564 -13.098654,0.8215 -15.164139,0.5235 z m 28.751417,-11.8733 c 0.70685,-0.373 1.69959,-1.2204 2.20617,-1.8829 3.88188,-5.0779 -0.63696,-12.22835 -6.86359,-10.8607 -1.37198,0.3013 -1.88248,0.6089 -3.12981,1.8854 -1.14882,1.1758 -1.57259,1.8686 -1.84961,3.0231 -0.80897,3.372 0.82859,6.7566 3.92329,8.1085 1.46307,0.6392 4.2361,0.5065 5.71355,-0.2734 z M 44.963541,987.40712 C 38.80812,986.3779 33.777198,981.6746 30.896707,974.25644 c -1.060367,-2.73076 -2.421484,-8.5937 -3.159308,-13.60857 -0.631696,-4.29341 -0.752737,-11.60534 -0.258643,-15.62322 0.422633,-3.43684 1.913431,-10.74422 2.634325,-12.91264 2.489105,-7.48703 7.300666,-12.36803 14.676383,-14.88812 1.742809,-0.59546 2.307219,-0.60927 28.533888,-0.69754 l 26.755938,-0.0901 0,-2.46999 0,-2.47 -17.66765,0 -17.667526,0 0.126561,-9.25885 c 0.09873,-7.1915 0.226643,-9.59508 0.574911,-10.76466 1.842656,-6.18873 6.11724,-9.22424 15.7019,-11.15033 10.829403,-2.17623 26.610974,-2.18798 37.283184,-0.0278 8.17757,1.65528 14.70534,7.58737 16.20399,14.72521 0.65525,3.12095 0.63842,37.10221 -0.0202,40.32842 -1.27447,6.24487 -5.93929,11.4755 -12.08088,13.54635 -1.86364,0.62836 -2.25409,0.64173 -23.183604,0.79423 l -21.288103,0.15509 -2.332968,0.82019 c -6.082234,2.13836 -10.710135,6.18282 -13.40966,11.71935 -1.91581,3.92911 -1.996033,4.51164 -2.120575,15.38282 l -0.11265,9.84204 -7.196826,-0.0392 c -3.958271,-0.0213 -7.524919,-0.0943 -7.925887,-0.16157 z m 37.700884,-85.05259 c 2.503176,-1.04893 4.058713,-3.44826 4.058713,-6.26005 0,-4.02638 -2.73442,-6.86025 -6.619671,-6.86025 -3.877509,0 -6.68856,2.86149 -6.686653,6.80634 0,2.85774 1.456352,5.17677 3.916218,6.24227 1.277394,0.55329 4.091924,0.59113 5.331393,0.0717 z"
       id="path3862"
       inkscape:connector-curvature="0" />
  </g>
</svg>
