<?xml version="1.0" encoding="UTF-8" standalone="no"?>
<!-- Created with Inkscape (http://www.inkscape.org/) -->

<svg
   xmlns:dc="http://purl.org/dc/elements/1.1/"
   xmlns:cc="http://creativecommons.org/ns#"
   xmlns:rdf="http://www.w3.org/1999/02/22-rdf-syntax-ns#"
   xmlns:svg="http://www.w3.org/2000/svg"
   xmlns="http://www.w3.org/2000/svg"
   xmlns:sodipodi="http://sodipodi.sourceforge.net/DTD/sodipodi-0.dtd"
   xmlns:inkscape="http://www.inkscape.org/namespaces/inkscape"
   width="200"
   height="200"
   viewBox="0 0 200 200"
   id="svg2"
   version="1.1"
   inkscape:version="0.91 r13725"
   sodipodi:docname="ptolemysymbol.svg">
  <defs
     id="defs4" />
  <sodipodi:namedview
     id="base"
     pagecolor="#ffffff"
     bordercolor="#666666"
     borderopacity="1.0"
     inkscape:pageopacity="0.0"
     inkscape:pageshadow="2"
     inkscape:zoom="0.98994949"
     inkscape:cx="-112.26335"
     inkscape:cy="144.64622"
     inkscape:document-units="px"
     inkscape:current-layer="layer1"
     showgrid="false"
     units="px"
     showguides="true"
     inkscape:guide-bbox="true"
     inkscape:snap-center="true"
     inkscape:snap-object-midpoints="true"
     inkscape:snap-smooth-nodes="true"
     inkscape:object-nodes="true"
     inkscape:snap-intersection-paths="true"
     inkscape:object-paths="true"
     inkscape:snap-bbox="true"
     inkscape:bbox-paths="true"
     inkscape:bbox-nodes="true"
     inkscape:snap-bbox-edge-midpoints="true"
     inkscape:snap-bbox-midpoints="true"
     inkscape:window-width="1366"
     inkscape:window-height="720"
     inkscape:window-x="0"
     inkscape:window-y="23"
     inkscape:window-maximized="1">
    <sodipodi:guide
       position="0,-12.626907"
       orientation="1,0"
       id="guide3336" />
    <sodipodi:guide
       position="244.45692,200.0102"
       orientation="0,1"
       id="guide3338" />
    <sodipodi:guide
       position="200.0102,58.083771"
       orientation="1,0"
       id="guide3340" />
    <sodipodi:guide
       position="-15.657364,0"
       orientation="0,1"
       id="guide3342" />
    <sodipodi:guide
       position="100.0051,185.36299"
       orientation="1,0"
       id="guide3350" />
    <sodipodi:guide
       position="86.368043,150.00765"
       orientation="0,1"
       id="guide3354" />
    <sodipodi:guide
       position="0,50.002551"
       orientation="0,1"
       id="guide3356" />
  </sodipodi:namedview>
  <metadata
     id="metadata7">
    <rdf:RDF>
      <cc:Work
         rdf:about="">
        <dc:format>image/svg+xml</dc:format>
        <dc:type
           rdf:resource="http://purl.org/dc/dcmitype/StillImage" />
        <dc:title></dc:title>
      </cc:Work>
    </rdf:RDF>
  </metadata>
  <g
     inkscape:label="Layer 1"
     inkscape:groupmode="layer"
     id="layer1"
     transform="translate(0,-852.36216)">
    <rect
       style="fill:none;fill-opacity:1;stroke:none;stroke-width:0.5;stroke-opacity:1"
       id="rect3344"
       width="200.01019"
       height="200.01019"
       x="0"
       y="852.35199" />
    <circle
       style="fill:none;fill-opacity:1;stroke:#ffffff;stroke-width:9.79554081;stroke-opacity:1"
       id="path3348"
       cx="100.0051"
       cy="952.35706"
       r="95.107292" />
    <circle
       style="fill:none;fill-opacity:1;stroke:#ffffff;stroke-width:9.51024437;stroke-opacity:1"
       id="path3775"
       cx="100.0051"
       cy="952.35706"
       r="95.107292" />
    <path
       style="fill:#00ffff"
       d="m 96.208525,1023.0793 c -0.942714,-0.121 -1.07018,-0.2093 -1.143596,-0.7927 -0.248616,-1.9754 -0.407345,-10.6953 -0.47468,-26.07667 -0.08616,-19.68303 -0.251803,-23.57726 -1.00282,-23.57726 -0.564088,0 -8.171715,6.28245 -20.430531,16.87175 -10.515841,9.08358 -17.771884,15.06298 -18.50144,15.24608 -1.04563,0.2624 -8.156924,-7.59307 -8.156924,-9.01059 0,-0.54441 2.996437,-2.94864 10.047123,-8.06143 8.853821,-6.4204 27.441577,-20.64052 32.691951,-25.0102 1.736212,-1.44496 1.944119,-1.65983 1.934473,-1.99904 -0.01288,-0.45345 -0.498057,-1.07854 -1.917346,-2.47023 -2.230047,-2.18669 -5.986376,-5.42759 -17.482111,-15.08334 -5.422338,-4.55443 -8.36287,-7.05589 -10.788797,-9.1778 -4.458223,-3.89955 -7.896742,-7.16483 -8.71269,-8.27373 -0.49458,-0.67218 -0.493069,-0.74684 0.03639,-1.7935 0.73575,-1.45455 2.284624,-3.43829 4.193495,-5.37087 1.2168,-1.23189 1.5354,-1.44731 2.143385,-1.44919 0.502066,0 1.399034,0.4523 2.277289,1.15216 2.332583,1.85878 8.27371,7.17506 17.013189,15.22384 8.459786,7.79118 13.693939,12.47993 15.939958,14.27901 0.696719,0.55813 0.815917,0.62402 0.905848,0.50105 0.683794,-0.93514 0.74208,-18.8192 0.120648,-37.01774 -0.252381,-7.39079 -0.647962,-15.72459 -0.896593,-18.88855 -0.25597,-3.25742 -0.491183,-5.03257 -0.84298,-6.36197 -0.236926,-0.89531 -0.396569,-1.25134 -0.933833,-2.08257 -0.515468,-0.79753 -0.685319,-1.28576 -0.541061,-1.55532 0.383598,-0.71679 1.792821,-0.80027 12.325873,-0.73037 12.39771,0.0823 16.30363,0.27103 18.8206,0.90955 0.94825,0.24051 2.57039,0.98487 3.77077,1.73024 4.29372,2.6662 7.33569,7.33286 8.31731,12.75958 0.24008,1.32717 0.32873,4.04751 0.1755,5.38502 -0.37915,3.30923 -1.61685,6.2536 -3.60549,8.5771 -2.93223,3.42596 -9.75514,6.76754 -16.7502,8.20354 -0.71858,0.14755 -3.07481,0.53359 -5.23606,0.85789 -2.16125,0.32431 -3.93822,0.59797 -3.94884,0.60816 -0.0106,0.0101 -0.0875,4.47744 -0.1708,9.92728 -0.12484,8.16531 -0.13314,10.56869 -0.0472,13.65965 0.10045,3.61002 0.21408,5.38715 0.36128,5.65017 0.0528,0.0944 0.33403,-0.073 1.17104,-0.69732 2.43458,-1.8158 8.56435,-6.81305 17.23311,-14.0492 11.52384,-9.6194 19.11913,-15.79423 20.22447,-16.44218 l 0.29877,-0.17513 0.49316,0.38047 c 1.58868,1.22564 7.27934,7.50342 8.15288,8.99401 l 0.23854,0.40702 -0.21215,0.22764 c -0.59493,0.63827 -4.27418,3.28247 -9.58946,6.89167 -17.12546,11.62869 -35.32122,25.13967 -35.32122,26.22729 0,0.9945 23.39277,19.66464 37.13535,29.6383 4.74883,3.44646 7.07199,5.49305 7.07199,6.2301 0,1.57862 -7.06934,9.72373 -8.43943,9.72373 -0.27247,0 -1.22443,-0.6904 -2.59008,-1.8784 -0.63855,-0.5555 -3.71297,-3.5465 -6.83204,-6.64669 -7.0099,-6.96729 -10.07399,-9.8953 -15.9432,-15.23472 -6.98724,-6.35655 -11.2224,-9.90914 -11.81305,-9.90914 -0.21186,0 -0.42586,0.46921 -0.54988,1.20566 -0.41655,2.4734 -0.55218,8.2596 -0.76713,32.72629 -0.0744,8.4704 -0.14921,15.4145 -0.16622,15.4316 -0.017,0.017 -1.17131,0.089 -2.56513,0.1597 -2.76975,0.1407 -5.755959,0.1543 -6.721458,0.031 z M 111.52744,913.59598 c 3.95651,-0.40024 7.22298,-1.92366 9.85564,-4.5965 2.31229,-2.34763 3.45364,-5.00876 3.46586,-8.08097 0.008,-2.08465 -0.41729,-3.84034 -1.41386,-5.83279 -0.76637,-1.5322 -1.39124,-2.40951 -2.49268,-3.49987 -2.30387,-2.28056 -4.8959,-3.2193 -9.75357,-3.53235 -0.89139,-0.0574 -2.07803,-0.0899 -2.63697,-0.0722 -0.87321,0.0279 -1.07879,0.0641 -1.46041,0.25881 -0.39793,0.20296 -0.48233,0.30235 -0.81108,0.95492 -0.41837,0.83052 -0.5205,1.27055 -0.70066,3.01878 -0.29544,2.86687 -0.35954,4.8356 -0.36044,11.07137 -7.1e-4,7.64159 0.0905,8.91904 0.6815,9.51011 0.728,0.72798 3.06195,1.06009 5.62667,0.80067 z"
       id="path3945"
       inkscape:connector-curvature="0" />
  </g>
</svg>
