<?xml version="1.0" encoding="UTF-8" standalone="no"?>
<!-- Created with Inkscape (http://www.inkscape.org/) -->

<svg
   xmlns:dc="http://purl.org/dc/elements/1.1/"
   xmlns:cc="http://creativecommons.org/ns#"
   xmlns:rdf="http://www.w3.org/1999/02/22-rdf-syntax-ns#"
   xmlns:svg="http://www.w3.org/2000/svg"
   xmlns="http://www.w3.org/2000/svg"
   xmlns:sodipodi="http://sodipodi.sourceforge.net/DTD/sodipodi-0.dtd"
   xmlns:inkscape="http://www.inkscape.org/namespaces/inkscape"
   width="24.828691mm"
   height="25.3244mm"
   viewBox="0 0 24.828691 25.3244"
   version="1.1"
   id="svg8"
   inkscape:version="0.92.3 (2405546, 2018-03-11)"
   sodipodi:docname="ptolemy.svg">
  <defs
     id="defs2">
    <marker
       inkscape:stockid="TriangleInS"
       orient="auto"
       refY="0"
       refX="0"
       id="TriangleInS"
       style="overflow:visible"
       inkscape:isstock="true">
      <path
         id="path4825"
         d="M 5.77,0 -2.88,5 V -5 Z"
         style="fill:#000000;fill-opacity:1;fill-rule:evenodd;stroke:#000000;stroke-width:1.00000003pt;stroke-opacity:1"
         transform="scale(-0.2)"
         inkscape:connector-curvature="0" />
    </marker>
    <marker
       inkscape:stockid="TriangleInM"
       orient="auto"
       refY="0"
       refX="0"
       id="TriangleInM"
       style="overflow:visible"
       inkscape:isstock="true">
      <path
         id="path4822"
         d="M 5.77,0 -2.88,5 V -5 Z"
         style="fill:#000000;fill-opacity:1;fill-rule:evenodd;stroke:#000000;stroke-width:1.00000003pt;stroke-opacity:1"
         transform="scale(-0.4)"
         inkscape:connector-curvature="0" />
    </marker>
    <marker
       inkscape:stockid="Arrow2Mstart"
       orient="auto"
       refY="0"
       refX="0"
       id="Arrow2Mstart"
       style="overflow:visible"
       inkscape:isstock="true">
      <path
         id="path4710"
         style="fill:#000000;fill-opacity:1;fill-rule:evenodd;stroke:#000000;stroke-width:0.625;stroke-linejoin:round;stroke-opacity:1"
         d="M 8.7185878,4.0337352 -2.2072895,0.01601326 8.7185884,-4.0017078 c -1.7454984,2.3720609 -1.7354408,5.6174519 -6e-7,8.035443 z"
         transform="scale(0.6)"
         inkscape:connector-curvature="0" />
    </marker>
  </defs>
  <sodipodi:namedview
     id="base"
     pagecolor="#ffffff"
     bordercolor="#666666"
     borderopacity="1.0"
     inkscape:pageopacity="0.0"
     inkscape:pageshadow="2"
     inkscape:zoom="0.98994949"
     inkscape:cx="-279.09852"
     inkscape:cy="154.22805"
     inkscape:document-units="mm"
     inkscape:current-layer="layer1"
     showgrid="false"
     showguides="true"
     inkscape:guide-bbox="true"
     inkscape:snap-bbox="true"
     inkscape:snap-grids="false"
     inkscape:bbox-nodes="true"
     inkscape:window-width="1397"
     inkscape:window-height="905"
     inkscape:window-x="43"
     inkscape:window-y="27"
     inkscape:window-maximized="1"
     inkscape:snap-to-guides="true"
     inkscape:snap-page="true">
    <sodipodi:guide
       position="4.605136e-06,25.324401"
       orientation="1,0"
       id="guide3779"
       inkscape:locked="false" />
    <sodipodi:guide
       position="24.828696,25.324401"
       orientation="1,0"
       id="guide3781"
       inkscape:locked="false" />
    <sodipodi:guide
       position="4.605136e-06,25.324401"
       orientation="0,1"
       id="guide3783"
       inkscape:locked="false" />
    <sodipodi:guide
       position="4.605136e-06,5.9036543e-07"
       orientation="0,1"
       id="guide3785"
       inkscape:locked="false" />
    <sodipodi:guide
       position="-235.08606,18.198982"
       orientation="1,0"
       id="guide3789"
       inkscape:locked="false" />
    <sodipodi:guide
       position="-1.0356694,22.98518"
       orientation="0,1"
       id="guide5040"
       inkscape:locked="false" />
    <sodipodi:guide
       position="-0.86862599,2.9733736"
       orientation="0,1"
       id="guide5042"
       inkscape:locked="false" />
  </sodipodi:namedview>
  <metadata
     id="metadata5">
    <rdf:RDF>
      <cc:Work
         rdf:about="">
        <dc:format>image/svg+xml</dc:format>
        <dc:type
           rdf:resource="http://purl.org/dc/dcmitype/StillImage" />
        <dc:title></dc:title>
      </cc:Work>
    </rdf:RDF>
  </metadata>
  <g
     inkscape:label="Layer 1"
     inkscape:groupmode="layer"
     id="layer1"
     transform="translate(-100.33754,-22.078443)">
    <rect
       style="fill:#00ffff;stroke:#00ffff;stroke-width:0.49022451"
       y="-8.145175"
       x="100.33755"
       height="24.834175"
       width="24.338467"
       id="rect432" />
    <g
       id="g3837"
       transform="translate(-110.69749,-98.907311)">
      <rect
         style="fill:#00ffff;stroke:#00ffff;stroke-width:0.49022451"
         y="22.078033"
         x="100.33755"
         height="24.834175"
         width="24.338467"
         id="rect3833" />
      <path
         inkscape:connector-curvature="0"
         id="path3791"
         d="m 105.94142,47.100502 c -0.73048,-0.14975 -1.33944,-0.48274 -1.82893,-1.0001 -0.4963,-0.52456 -0.79326,-1.12549 -0.92492,-1.87173 -0.0292,-0.16574 -0.0423,-3.19109 -0.0423,-9.77384 v -9.533807 l 0.10384,-0.42064 c 0.34438,-1.395068 1.3692,-2.365709 2.76905,-2.622657 0.32848,-0.06029 12.64641,-0.06029 12.97488,0 1.48297,0.272204 2.51959,1.320415 2.82975,2.86139 0.0602,0.298938 0.0609,19.148684 8e-4,19.489554 -0.2683,1.52065 -1.33966,2.6134 -2.83055,2.88706 -0.35373,0.0649 -12.731,0.0505 -13.05157,-0.0152 z m 4.47882,-2.82579 c 0.19466,-0.31604 0.45042,-0.72936 0.56835,-0.91849 0.26089,-0.4184 1.253,-2.01906 1.4178,-2.28747 0.0654,-0.10659 0.19038,-0.30839 0.27764,-0.44846 0.0873,-0.14007 0.2369,-0.38278 0.33254,-0.53936 0.0956,-0.15658 0.19479,-0.28469 0.22035,-0.28469 0.0256,0 0.10695,0.0455 0.18087,0.10114 0.0739,0.0556 0.14878,0.10113 0.16635,0.10113 0.0176,0 0.032,-0.18204 0.032,-0.40454 v -0.40454 h 0.55528 0.55527 v 2.8318 2.8318 h 0.39662 0.39663 v -2.8318 -2.8318 h 0.555 0.55501 l 0.0102,2.82169 0.0102,2.82168 0.38644,0.0116 0.38644,0.0116 0.0102,-2.82315 0.0102,-2.82315 0.56519,-0.0112 0.56519,-0.0112 v 2.8373 2.8373 l 0.10907,-0.0279 c 0.41773,-0.10679 0.72581,-0.37178 0.853,-0.73369 0.0639,-0.18193 0.0695,-0.44158 0.0694,-3.22183 l -2e-4,-3.02396 h -7.09958 -7.09957 l -2e-4,3.02396 c -2e-4,2.76742 0.006,3.04056 0.0686,3.21966 0.0982,0.27958 0.30268,0.50334 0.58375,0.63897 l 0.24028,0.11594 1.88396,-0.002 1.88396,-0.002 0.35394,-0.57463 z m 3.19516,-1.21178 -6.9e-4,-1.79011 -0.28686,0.45197 c -0.15777,0.24859 -0.33416,0.53076 -0.39198,0.62705 -0.10088,0.16801 -0.32155,0.52392 -1.1302,1.82282 -0.20405,0.32776 -0.37101,0.61448 -0.37101,0.63715 0,0.027 0.37649,0.0412 1.09072,0.0412 h 1.09072 z m -7.14815,-8.81904 0.0102,-2.4576 h 0.55466 0.55466 l 0.0102,2.4576 0.0102,2.4576 h 0.3768 0.37679 l 0.0102,-2.4576 0.0102,-2.4576 h 0.55496 0.55497 v 2.46918 2.46917 l 0.38671,-0.0116 0.38671,-0.0116 0.0102,-2.45759 0.0102,-2.4576 h 0.55466 0.55466 l 0.0102,2.4576 0.0102,2.45759 2.05253,0.0105 2.05253,0.0105 v -2.46807 -2.46808 h 0.55497 0.55497 l 0.0102,2.4576 0.0102,2.4576 0.3864,0.0116 0.3864,0.0116 0.0102,-2.45906 0.0102,-2.45906 h 0.55527 0.55528 l 0.0102,2.4588 0.0102,2.45881 0.50538,-0.0113 0.50539,-0.0113 0.0102,-3.00373 0.0102,-3.00373 h -7.09983 -7.09983 v 3.01502 3.01502 l 0.52553,-0.0113 0.52553,-0.0113 z m 0,-7.16042 0.0102,-2.457594 h 0.55466 0.55466 l 0.0102,2.457594 0.0102,2.45761 2.91519,0.0111 c 1.60336,0.006 2.95535,0.001 3.00443,-0.0109 l 0.0892,-0.022 v -2.44672 -2.446715 h 0.55527 0.55528 v 2.447485 c 0,1.34612 0.005,2.4486 0.01,2.44996 0.0899,0.0225 0.6194,0.038 0.68899,0.0201 l 0.0943,-0.0241 v -2.44672 -2.446715 h 0.55527 0.55528 v 2.422305 c 0,2.02944 0.009,2.42995 0.0556,2.46941 0.0353,0.0299 0.17674,0.0428 0.3867,0.0353 l 0.33106,-0.0118 0.0198,-2.44748 0.0198,-2.44749 h 0.55528 0.55527 l 0.0198,2.44749 0.0198,2.44748 h 0.49578 0.49578 l 0.0102,-2.24082 0.0102,-2.240827 -0.10173,-0.226889 c -0.1339,-0.298603 -0.26484,-0.434849 -0.55337,-0.575799 l -0.23798,-0.11625 h -6.20717 -6.20717 l -0.24028,0.11594 c -0.28107,0.135627 -0.48549,0.359385 -0.58374,0.638971 -0.0621,0.176663 -0.0687,0.410514 -0.0686,2.403834 1.1e-4,1.21447 0.0126,2.22078 0.0278,2.23625 0.0152,0.0155 0.25165,0.023 0.52552,0.0169 l 0.49796,-0.0113 z"
         style="fill:#000000;stroke-width:0.04005642" />
    </g>
    <g
       id="g3829"
       transform="matrix(1.0000001,0,0,0.9997039,-135.52619,-98.905416)">
      <rect
         style="fill:#00ffff;stroke:#00ffff;stroke-width:0.49022451"
         y="22.082193"
         x="100.33755"
         height="24.834175"
         width="24.338467"
         id="rect3821" />
      <path
         inkscape:connector-curvature="0"
         id="path3787"
         d="m 122.9772,47.054825 c -0.21383,-0.12965 -2.52738,-2.46999 -2.72153,-2.75304 -0.18333,-0.26726 -0.23,-0.60577 -0.12041,-0.8733 0.0596,-0.14552 0.0652,-0.20797 0.0231,-0.25968 -0.0462,-0.0567 -0.0806,-0.0487 -0.20644,0.048 -0.84308,0.64794 -1.97949,1.02307 -3.09928,1.02307 -0.92246,0 -1.58692,-0.16645 -2.42012,-0.60625 -1.43049,-0.75508 -2.42605,-2.10821 -2.75637,-3.746381 -0.19062,-0.945382 -0.0814,-2.090211 0.28726,-3.01183 0.63476,-1.586707 2.02209,-2.807575 3.66703,-3.227035 0.24385,-0.06218 0.6311,-0.108725 1.04261,-0.125306 0.55106,-0.0222 0.73524,-0.0095 1.16384,0.08043 1.6061,0.336913 2.93275,1.352347 3.67305,2.811398 0.43119,0.849841 0.59438,1.527563 0.59438,2.468436 0,1.158134 -0.38213,2.345538 -1.02561,3.186848 -0.11859,0.15506 -0.12768,0.18804 -0.0661,0.24014 0.054,0.0457 0.10881,0.0471 0.22508,0.006 0.1935,-0.0688 0.35357,-0.0688 0.59995,1.5e-4 0.16047,0.0449 0.41869,0.28191 1.49501,1.37229 0.71558,0.72492 1.35543,1.41174 1.4219,1.52626 0.14739,0.25392 0.16434,0.66178 0.0379,0.91122 -0.11466,0.22616 -0.58269,0.7211 -0.84268,0.89114 -0.27739,0.18142 -0.70798,0.19811 -0.9725,0.0377 z m -5.14863,-4.44651 c 1.30953,-0.37623 2.30651,-1.399419 2.68515,-2.755734 0.0846,-0.30315 0.1075,-0.512869 0.10681,-0.979302 -0.001,-0.690488 -0.0769,-1.035993 -0.35951,-1.63608 -0.99872,-2.121086 -3.58071,-2.869741 -5.46837,-1.585568 -1.60985,1.09518 -2.17887,3.174628 -1.34393,4.911358 0.52815,1.098606 1.60549,1.922756 2.79939,2.141506 0.38014,0.0696 1.17074,0.0215 1.58046,-0.0962 z m -15.50962,2.54363 c -0.7729,-0.16992 -1.51678,-0.74498 -1.85721,-1.4357 -0.34973,-0.70959 -0.325,0.0662 -0.325,-10.193945 0,-10.179012 -0.0207,-9.478764 0.29996,-10.15527 0.20717,-0.437092 0.7748,-1.016062 1.20334,-1.227366 0.66326,-0.327043 -0.0233,-0.305947 9.95649,-0.305947 10.05928,0 9.2987,-0.02523 9.9944,0.331486 0.46314,0.237468 0.92744,0.719722 1.16303,1.208005 0.33102,0.68607 0.31846,0.4091 0.31929,7.042117 l 7.6e-4,5.984868 -0.31391,-0.643002 c -0.36781,-0.75342 -0.67155,-1.184487 -1.22406,-1.737225 l -0.4016,-0.40176 V 29.6797 25.741193 h -9.52953 -9.52952 l 0.0127,8.449219 0.0127,8.449223 0.1204,0.17921 c 0.0662,0.0986 0.20806,0.23048 0.31521,0.29314 l 0.1948,0.11392 4.48197,0.0136 4.48197,0.0136 0.41923,0.41221 c 0.58305,0.57328 1.09305,0.94703 1.74549,1.27916 l 0.55829,0.28419 -5.89197,-0.004 c -4.85974,-0.003 -5.94718,-0.0159 -6.20717,-0.073 z m 2.57016,-6.748552 v -0.989235 h 0.96987 0.96987 v 0.989235 0.989234 h -0.96987 -0.96987 z m 3.83099,0 v -0.989235 h 0.82439 c 0.46425,0 0.82439,0.01971 0.82439,0.04511 0,0.02481 -0.0328,0.219566 -0.073,0.43279 -0.0401,0.213224 -0.0871,0.638079 -0.10438,0.944124 l -0.0314,0.556444 h -0.72001 -0.72001 z m -3.83099,-3.907476 v -0.989234 h 0.96987 0.96987 v 0.989234 0.989234 h -0.96987 -0.96987 z m 3.83099,0 v -0.989234 h 1.96398 c 1.277,0 1.96399,0.0173 1.96399,0.04946 0,0.0272 -0.0172,0.04946 -0.0383,0.04946 -0.0746,0 -0.73346,0.648442 -0.96784,0.952575 -0.13084,0.169785 -0.31963,0.44781 -0.41954,0.617835 l -0.18165,0.309135 h -1.16033 -1.16033 z m -3.83099,-3.907476 v -0.989234 h 0.96987 0.96987 v 0.989234 0.989235 h -0.96987 -0.96987 z m 3.83099,0 v -0.989234 h 4.80086 4.80086 v 0.989234 0.989235 h -4.80086 -4.80086 z"
         style="fill:#000000;stroke-width:0.04897524" />
    </g>
    <g
       id="g3845"
       transform="translate(-86.113904,-98.785165)">
      <rect
         style="fill:#00ffff;stroke:#00ffff;stroke-width:0.49022451"
         y="21.955887"
         x="100.58266"
         height="24.834175"
         width="24.338467"
         id="rect3841" />
      <path
         inkscape:connector-curvature="0"
         id="path3793"
         d="m 111.27927,46.818072 -0.26028,-0.214971 0.47583,-4.427835 c 0.2617,-2.435308 0.503,-4.592443 0.53621,-4.793631 l 0.0604,-0.365797 h -2.64357 c -2.42091,0 -2.65896,-0.01734 -2.8262,-0.20583 -0.10045,-0.113207 -0.18263,-0.31596 -0.18263,-0.450564 0,-0.134603 1.565,-3.436902 3.47777,-7.338442 3.72795,-7.604011 3.69943,-7.556504 4.29737,-7.156899 0.20776,0.138849 0.28039,0.284882 0.28039,0.563752 0,0.206998 -0.22346,2.337026 -0.49657,4.733394 -0.27312,2.396368 -0.49658,4.479709 -0.49658,4.629647 v 0.272615 l 2.51046,0.0017 c 2.68184,0.0018 3.03084,0.0624 3.09777,0.538174 0.0431,0.306368 -6.71863,13.938524 -7.05963,14.232733 -0.29184,0.251793 -0.44849,0.248134 -0.77073,-0.01801 z m 3.86781,-2.91704 0.77004,-1.567841 0.74544,-0.417924 c 2.18873,-1.227095 3.65099,-3.145406 4.24679,-5.571263 0.32995,-1.343436 0.2574,-3.265255 -0.1722,-4.561875 -0.75379,-2.27502 -2.28144,-4.064169 -4.33855,-5.081189 -0.47065,-0.232689 -0.87195,-0.433608 -0.89177,-0.446486 -0.0948,-0.06157 0.25801,-2.632191 0.36099,-2.630517 0.064,10e-4 0.51852,0.16824 1.00995,0.371551 2.63774,1.091282 4.92225,3.381371 6.01188,6.026546 0.61501,1.492972 0.81294,2.589372 0.80542,4.461364 -0.007,1.866658 -0.15968,2.656612 -0.82662,4.290667 -0.93325,2.286502 -2.92633,4.455158 -5.1476,5.601038 -0.65109,0.335878 -2.29012,0.907049 -2.92642,1.019807 l -0.41739,0.07396 z m -6.23271,0.95295 c -1.53235,-0.581108 -2.92806,-1.542026 -4.13162,-2.84454 -4.10275,-4.440053 -3.9412,-11.417075 0.36235,-15.649762 1.58488,-1.55878 3.65651,-2.656691 5.67071,-3.005335 l 0.34904,-0.06041 -0.73526,1.563565 -0.73526,1.563565 -0.75331,0.397489 c -5.30407,2.798741 -6.06338,10.250579 -1.44268,14.158336 0.5396,0.456342 1.91947,1.272442 2.46514,1.457963 0.17606,0.05986 -0.082,2.688052 -0.26305,2.678934 -0.0641,-0.0032 -0.41778,-0.120136 -0.78606,-0.2598 z"
         style="fill:#000000;stroke-width:0.11144587" />
    </g>
    <g
       id="g3851"
       transform="translate(-160.35965,-99.153244)">
      <rect
         style="fill:#00ffff;stroke:#00ffff;stroke-width:0.49022451"
         y="22.323555"
         x="100.34233"
         height="24.834175"
         width="24.338467"
         id="rect3847" />
      <path
         inkscape:connector-curvature="0"
         id="path3795"
         d="m 115.80309,45.81879 c -0.74245,-0.239497 -1.30032,-0.5557 -1.94649,-1.103295 -0.31951,-0.27076 -0.70431,-0.492292 -0.85513,-0.492292 -0.15081,0 -0.51662,0.22792 -0.81292,0.506488 -0.60311,0.567029 -0.8455,0.625523 -1.0418,0.251412 -0.11515,-0.219463 -0.0439,-0.352055 0.51021,-0.949665 0.35464,-0.382462 0.75351,-0.694589 0.88762,-0.694589 0.18456,0 0.22108,-0.05368 0.15075,-0.221589 -0.15169,-0.362193 -0.43033,-1.462632 -0.43033,-1.69955 0,-0.183286 -0.13919,-0.226093 -0.83668,-0.257305 -0.68964,-0.03086 -0.84417,-0.07745 -0.87926,-0.265112 -0.0797,-0.426328 0.21128,-0.595372 1.02489,-0.595372 h 0.76826 l 0.15641,-0.622471 c 0.086,-0.342361 0.32005,-0.885648 0.52004,-1.207307 0.2,-0.321659 0.36363,-0.611346 0.36363,-0.643749 0,-0.0324 -0.2247,-0.05891 -0.49934,-0.05891 -0.41259,0 -0.59593,-0.0908 -1.05522,-0.522615 -0.57572,-0.541273 -0.72596,-1.029806 -0.36067,-1.172781 0.24827,-0.09717 0.51737,0.05301 0.97635,0.544901 l 0.36462,0.390763 h 1.96307 1.96307 v 4.495081 c 0,5.042073 0.0854,4.645857 -0.93108,4.31796 z m 1.55179,-4.303868 v -4.509173 h 2.01264 2.01263 l 0.51885,-0.519378 c 0.39802,-0.398429 0.5798,-0.499645 0.78059,-0.434644 0.41127,0.133137 0.31076,0.471131 -0.3322,1.117059 -0.52228,0.5247 -0.65833,0.596695 -1.12763,0.596695 -0.29353,0 -0.51303,0.04274 -0.48777,0.09497 0.0253,0.05223 0.24616,0.505364 0.4909,1.006961 0.24473,0.501598 0.47489,1.028662 0.51144,1.171253 0.0584,0.227571 0.16467,0.259259 0.86983,0.259259 0.58154,0 0.84841,0.05537 0.96653,0.200546 0.3029,0.372256 -0.013,0.615858 -0.88921,0.685808 l -0.79309,0.06331 -0.0944,0.67349 c -0.052,0.370418 -0.15022,0.779777 -0.21839,0.909685 -0.18249,0.347794 -0.15184,0.506088 0.098,0.506088 0.12206,0 0.49,0.277606 0.81765,0.616901 0.43786,0.453422 0.58467,0.696696 0.55398,0.91801 -0.0683,0.492644 -0.47972,0.43784 -1.03028,-0.137247 -0.63186,-0.659996 -1.02065,-0.673651 -1.72289,-0.06051 -0.6091,0.531811 -1.81524,1.150184 -2.47157,1.267137 l -0.46554,0.08295 z m -15.65162,3.351131 -0.36289,-0.370125 V 34.346687 24.197446 l 0.36289,-0.370126 0.36288,-0.370126 h 8.25817 8.25816 l 0.34832,0.305426 0.34832,0.305426 0.0365,3.619856 0.0365,3.619856 h -0.44394 c -0.24417,0 -0.63767,0.08256 -0.87446,0.183472 l -0.43051,0.183473 V 28.388991 25.10328 h -7.26239 -7.2624 v 9.180096 9.180095 h 3.46904 3.46904 l -0.25317,0.583746 c -0.13924,0.321062 -0.22764,0.719921 -0.19645,0.886354 l 0.0567,0.302608 h -3.77871 -3.77871 z m 3.05348,-5.325357 -0.60896,-0.630604 0.29511,-0.320401 0.29511,-0.320399 0.35157,0.343552 0.35157,0.343552 0.71842,-0.725111 0.71841,-0.725112 0.29751,0.323008 0.29751,0.323006 -0.98399,1.009556 c -0.5412,0.555255 -1.01533,1.009556 -1.05364,1.009556 -0.0383,0 -0.34369,-0.283771 -0.67862,-0.630603 z m 3.53567,-0.572306 v -0.569799 h 1.28831 c 0.93932,0 1.32654,0.04699 1.42944,0.173457 0.11409,0.140208 0.0516,0.188227 -0.32619,0.250515 -0.25703,0.04238 -0.67386,0.220735 -0.92629,0.396342 -0.30442,0.211782 -0.62836,0.319284 -0.96211,0.319284 h -0.50316 z m 6.14171,-3.070584 c 0.10536,-0.579628 0.46962,-1.205342 0.90505,-1.554697 l 0.32528,-0.260974 -0.33414,-0.316025 c -0.40045,-0.378731 -0.43231,-0.763423 -0.0729,-0.879787 0.19704,-0.06379 0.37385,0.02752 0.71906,0.371334 0.41154,0.409879 0.52566,0.45592 1.13008,0.45592 0.60557,0 0.71819,-0.04568 1.13434,-0.460152 0.29761,-0.29641 0.53239,-0.432605 0.6598,-0.382738 0.36161,0.141531 0.36298,0.462787 0.004,0.845372 l -0.34494,0.36723 0.37245,0.354869 c 0.42544,0.405352 0.71303,0.927546 0.83874,1.522959 l 0.0869,0.411522 h -2.75484 -2.75483 l 0.0863,-0.474833 z m -9.67738,-1.421991 -0.60896,-0.630603 0.29511,-0.3204 0.29511,-0.3204 0.35157,0.343552 0.35157,0.343552 0.71842,-0.725111 0.71841,-0.725111 0.29751,0.323006 0.29751,0.323007 -0.98399,1.009556 c -0.5412,0.555256 -1.01533,1.009556 -1.05364,1.009556 -0.0383,0 -0.34369,-0.283771 -0.67862,-0.630604 z m 3.53567,-0.572305 v -0.569799 h 2.59254 2.59254 l 0.0636,0.339397 c 0.035,0.186669 1.3e-4,0.443078 -0.0775,0.569799 -0.12886,0.210471 -0.35863,0.230402 -2.65615,0.230402 h -2.51508 z m -3.59983,-3.924929 -0.29457,-0.319808 0.39368,-0.414276 0.39367,-0.414275 -0.39573,-0.403632 -0.39573,-0.403632 0.29662,-0.322045 0.29662,-0.322044 0.4112,0.406508 0.4112,0.406509 0.4112,-0.406509 0.41121,-0.406508 0.29456,0.319808 0.29456,0.319808 -0.39367,0.414276 -0.39367,0.414275 0.39573,0.403632 0.39573,0.403632 -0.29662,0.322045 -0.29662,0.322044 -0.41121,-0.406508 -0.4112,-0.406509 -0.4112,0.406509 -0.4112,0.406508 z m 3.59983,-1.139952 V 28.26883 h 3.35188 3.35187 v 0.569799 0.569799 h -3.35187 -3.35188 z"
         style="fill:#000000;stroke-width:0.1253766" />
    </g>
    <g
       id="g5531"
       transform="translate(-74.039764,-98.918975)">
      <rect
         style="fill:#00ffff;stroke:#00ffff;stroke-width:0.49022451"
         y="22.085537"
         x="-10.806243"
         height="24.834175"
         width="24.338467"
         id="rect3853" />
      <path
         inkscape:connector-curvature="0"
         id="path3799"
         d="M 9.2502208,44.397753 C 9.1362829,44.370648 8.956798,44.293781 8.8513655,44.226929 8.745933,44.160079 7.7271586,43.149409 6.5874117,41.980998 l -2.0722575,-2.124383 -0.4381506,0.19546 c -0.6539988,0.291749 -1.1321317,0.403095 -1.8592153,0.432976 -0.6966712,0.02863 -1.1355088,-0.02582 -1.72281884,-0.213776 -0.79024054,-0.252891 -1.4836024,-0.685328 -2.06609376,-1.288579 -0.6575887,-0.681024 -1.1306706,-1.544319 -1.363849,-2.48878 -0.1345484,-0.544961 -0.1257333,-1.895586 0.015966,-2.446749 0.3000801,-1.167246 0.9679837,-2.199286 1.8889602,-2.918811 0.39391072,-0.307743 1.13405728,-0.680006 1.65154351,-0.830664 1.75986919,-0.512352 3.66181489,-0.0082 4.94424789,1.310606 0.5307233,0.545771 0.8742401,1.082698 1.1405694,1.782755 0.515222,1.354267 0.4734012,2.788123 -0.1202565,4.12332 l -0.1714536,0.385617 2.1153362,2.179398 c 1.4408618,1.484501 2.1479162,2.246734 2.2175172,2.390582 0.143499,0.296555 0.169857,0.651348 0.07364,0.991503 -0.185765,0.656964 -0.9158484,1.092101 -1.570902,0.93628 z M 2.5784127,38.999889 c 0.7590056,-0.126612 1.4323279,-0.489972 1.9989018,-1.078709 0.7133336,-0.741228 1.0541508,-1.584813 1.0541508,-2.609184 0,-1.011804 -0.3724198,-1.944215 -1.0581374,-2.64919 -0.7030962,-0.722846 -1.577975,-1.090412 -2.5916016,-1.088821 -1.03564979,0.0016 -1.91642135,0.400902 -2.64415327,1.198665 -1.75765333,1.926795 -1.03350163,5.092542 1.37796668,6.023998 0.63291429,0.244469 1.22710419,0.309296 1.86287299,0.203241 z m -12.28963,2.803771 c -0.4013327,-0.125509 -0.7152007,-0.407175 -0.8420077,-0.755633 -0.09521,-0.261734 -0.09618,-0.328102 -0.09618,-7.03177 0,-7.439597 -0.01693,-7.000259 0.283804,-7.375324 0.184497,-0.230113 0.5782336,-0.424504 0.9253693,-0.456865 l 0.2760056,-0.02572 0.054187,-0.208433 c 0.060186,-0.231369 0.2648198,-0.497485 0.4950083,-0.643744 0.2113197,-0.134273 1.2285362,-0.41337 2.1183261,-0.581213 1.2132865,-0.228866 1.9875515,-0.301018 3.2142687,-0.299533 1.4861472,0.0017 2.75950395,0.149159 4.02668721,0.465994 0.59694759,0.149257 0.65651469,0.149408 1.22024369,0.0031 1.6536626,-0.429133 4.0984753,-0.593109 5.8270322,-0.390822 1.3532535,0.158365 3.1889659,0.573375 3.5494929,0.802456 0.230189,0.146259 0.434822,0.412376 0.495009,0.643745 l 0.05419,0.208433 0.276005,0.02573 c 0.347136,0.03237 0.740873,0.226753 0.92537,0.456864 0.300709,0.375066 0.283804,-0.06428 0.283804,7.375325 0,6.703669 -9e-4,6.770036 -0.09618,7.03177 -0.103555,0.284567 -0.291758,0.487025 -0.620732,0.667746 -0.181149,0.09952 -0.260417,0.10884 -0.925427,0.10884 h -0.727316 l -1.3138614,-1.36819 -1.3138619,-1.368189 0.4223106,0.03471 c 0.2322688,0.01909 0.6651458,0.07298 0.9619363,0.119744 0.2967904,0.04677 0.5554564,0.0757 0.5748084,0.06429 0.01935,-0.01141 0.03522,-2.688096 0.03522,-5.948195 v -5.92745 l -0.258076,-0.05167 C 8.7794129,27.112473 8.2455157,27.064169 6.6184047,27.063388 c -0.9300237,-4.34e-4 -1.6607843,0.02247 -1.9707922,0.06181 -0.5727473,0.07268 -1.6284947,0.241576 -1.7478997,0.279625 -0.074701,0.0238 -0.082151,0.115191 -0.082151,1.010946 v 0.98478 l -0.2228926,-0.03526 c -0.1225885,-0.01939 -0.5712959,-0.03352 -0.9971286,-0.03139 -0.62664409,0.0031 -0.85320389,0.02383 -1.18852493,0.108543 -0.22785649,0.05757 -0.43372853,0.104669 -0.4575031,0.104669 -0.0250615,0 -0.0432529,-0.445317 -0.0432529,-1.058064 0,-0.965551 -0.006773,-1.060353 -0.0821514,-1.084232 -0.119405,-0.03805 -1.17516207,-0.206947 -1.74789967,-0.279625 -0.3100079,-0.03933 -1.0407782,-0.06225 -1.9707923,-0.06181 -1.6271109,7.81e-4 -2.1610178,0.04909 -3.495809,0.316282 l -0.2580755,0.05167 v 5.92745 c 0,3.260098 0.015869,5.937062 0.035222,5.948809 0.019353,0.01175 0.2146678,-0.0084 0.4340382,-0.04476 0.8599386,-0.142564 1.8121016,-0.221207 2.989915,-0.246946 l 1.2302877,-0.02689 0.4824291,0.503386 c 1.63514225,1.706183 3.8992896,2.241011 6.1509255,1.45295 l 0.3661302,-0.128143 0.5016849,0.515772 0.5016752,0.515773 -7.3198077,-0.0042 c -4.0258937,-0.0022 -7.3727271,-0.02069 -7.4374129,-0.04092 z"
         style="fill:#000000;stroke-width:0.04757804" />
    </g>
    <g
       id="g3863"
       transform="translate(-234.96352,-99.034438)">
      <rect
         style="fill:#00ffff;stroke:#00ffff;stroke-width:0.49022451"
         y="22.200998"
         x="100.46011"
         height="24.834175"
         width="24.338467"
         id="rect3859" />
      <path
         inkscape:connector-curvature="0"
         id="path3797"
         d="m 108.08801,45.611944 c -3.0684,-0.298434 -5.77555,-1.249206 -6.99567,-2.456932 -0.90862,-0.899396 -0.8517,-0.383431 -0.8517,-7.720666 v -6.528068 l 0.30804,-0.534511 c 0.7871,-1.36573 3.15709,-2.4637 6.42329,-2.975779 1.68755,-0.264576 4.99272,-0.260298 6.6076,0.0086 l 1.20047,0.199856 0.45895,-0.459426 c 0.25243,-0.252684 0.53157,-0.459296 0.62031,-0.459137 0.0887,1.58e-4 0.44937,0.17743 0.80139,0.393935 0.95223,0.585661 1.02779,0.54941 1.29095,-0.61933 0.0767,-0.340472 0.18862,-0.682352 0.24879,-0.759732 0.15641,-0.20113 1.78338,-0.190505 1.98285,0.01295 0.0828,0.0845 0.21927,0.489106 0.30316,0.899118 0.19423,0.949353 0.34342,1.008112 1.20467,0.474484 0.35659,-0.220943 0.7149,-0.401714 0.79623,-0.401714 0.19742,0 1.42332,1.244527 1.42332,1.444941 0,0.0867 -0.17724,0.455211 -0.39385,0.818921 -0.52319,0.878447 -0.46558,1.030608 0.46519,1.228719 0.40199,0.08556 0.79867,0.224705 0.88152,0.309208 0.19947,0.203455 0.20989,1.862905 0.0127,2.02244 -0.0759,0.06138 -0.41105,0.175569 -0.74486,0.253761 -1.14586,0.268407 -1.1814,0.345477 -0.60721,1.316726 0.21227,0.359048 0.38607,0.733741 0.38623,0.83265 3.3e-4,0.181588 -1.22996,1.455572 -1.39849,1.448208 -0.05,-0.0022 -0.40973,-0.201968 -0.79934,-0.44396 -0.51062,-0.317147 -0.75904,-0.412342 -0.88979,-0.34097 -0.35011,0.191114 -0.44329,1.140875 -0.44329,4.518172 0,2.120529 -0.0453,3.4467 -0.12947,3.790073 -0.0998,0.407068 -0.28324,0.685435 -0.80003,1.2139 -1.07396,1.098207 -2.81348,1.828582 -5.43504,2.282027 -1.58753,0.274591 -4.3678,0.383225 -5.92692,0.231583 z m 5.72893,-0.936335 c 2.85972,-0.49848 5.08464,-1.568596 5.61025,-2.698351 0.13105,-0.281693 0.17983,-0.710064 0.17983,-1.579457 0,-0.656114 -0.0244,-1.192933 -0.0542,-1.192933 -0.0298,0 -0.28193,0.177284 -0.56024,0.393964 -0.75675,0.589166 -1.26149,0.656456 -1.26149,0.168174 0,-0.13289 0.22923,-0.367639 0.61212,-0.626864 0.33668,-0.227931 0.74635,-0.593704 0.91039,-0.812832 0.27671,-0.369622 0.30094,-0.490587 0.33534,-1.673827 0.0265,-0.911722 7.2e-4,-1.275414 -0.0905,-1.275414 -0.0701,0 -0.33512,0.145133 -0.58883,0.322518 -1.09783,0.767577 -2.82945,1.414908 -4.70975,1.76064 -1.56181,0.287172 -5.20577,0.352519 -6.90909,0.123901 -2.51844,-0.338021 -4.90926,-1.180574 -5.921,-2.086634 l -0.41187,-0.368849 v 1.311607 c 0,1.503682 0.0786,1.737014 0.79714,2.366625 1.00891,0.884036 2.99384,1.604268 5.39145,1.956294 1.44895,0.21274 1.77345,0.385137 1.41435,0.751401 -0.14994,0.15294 -0.30392,0.160182 -1.1568,0.0544 -2.61307,-0.324081 -5.08114,-1.220438 -6.14268,-2.230914 l -0.30346,-0.288862 v 1.321005 c 0,0.927607 0.0472,1.414035 0.15838,1.633394 0.60619,1.19566 3.15193,2.349258 5.96603,2.7035 0.54623,0.06876 1.11729,0.146685 1.26902,0.173166 0.60789,0.106092 4.52207,-0.04119 5.4656,-0.205656 z m -3.73425,-3.011892 c -0.26336,-0.150322 -0.26822,-1.308382 -0.006,-1.411042 0.28183,-0.110311 0.53331,0.121067 0.57246,0.52672 0.0714,0.739965 -0.16712,1.112315 -0.56654,0.884322 z m 1.84529,-0.136793 c -0.0319,-0.08476 -0.0427,-0.426639 -0.0241,-0.759732 0.0314,-0.561756 0.0538,-0.605625 0.30973,-0.605625 0.25934,0 0.27789,0.03985 0.30948,0.664877 0.023,0.455722 -0.0117,0.694174 -0.11035,0.758009 -0.21589,0.139666 -0.41965,0.115484 -0.48474,-0.05753 z m 1.89977,-0.355497 c -0.0994,-0.264292 -0.0823,-0.983474 0.0277,-1.160398 0.0515,-0.0828 0.21208,-0.133445 0.35695,-0.112553 0.24422,0.03522 0.26339,0.08714 0.26339,0.713303 0,0.644998 -0.013,0.676853 -0.28936,0.709544 -0.18856,0.0223 -0.3135,-0.02992 -0.35864,-0.149896 z m 1.96214,-0.433258 c -0.0321,-0.08525 -0.0429,-0.4018 -0.0241,-0.703456 0.0312,-0.500694 0.0582,-0.548463 0.31006,-0.548463 0.26133,0 0.2776,0.03707 0.30873,0.703455 0.0322,0.689732 0.0273,0.703456 -0.25176,0.703456 -0.15653,0 -0.31084,-0.06975 -0.34291,-0.154992 z m -2.16262,-3.96246 c 2.05227,-0.308132 4.63239,-1.228636 4.49174,-1.602505 -0.0346,-0.09192 -0.14122,-0.48523 -0.23697,-0.874034 -0.0957,-0.388804 -0.24105,-0.733119 -0.32287,-0.765146 -0.0818,-0.03203 -0.50135,0.149971 -0.93227,0.404438 l -0.7835,0.462667 -0.5183,-0.515752 -0.5183,-0.515752 -0.8828,0.17743 c -1.35815,0.272968 -5.92319,0.265882 -7.39343,-0.01148 -2.23428,-0.421494 -4.00597,-1.091539 -5.0485,-1.909319 l -0.52416,-0.411161 v 1.248467 c 0,0.922232 0.0471,1.349768 0.18036,1.636138 0.50091,1.076667 2.66492,2.122666 5.44748,2.6331 1.92962,0.353972 4.85113,0.371774 7.04152,0.04291 z m 6.21348,-2.905349 c 0.20464,-0.829587 0.23464,-0.867212 0.8591,-1.077417 0.38338,-0.129053 0.44503,-0.11367 1.06078,0.264658 l 0.65375,0.401674 0.30674,-0.299742 c 0.1687,-0.164859 0.30674,-0.338379 0.30674,-0.385601 0,-0.04722 -0.17023,-0.374087 -0.37829,-0.726366 l -0.37828,-0.640507 0.19838,-0.515134 c 0.16407,-0.426005 0.26293,-0.531565 0.5714,-0.610095 1.29145,-0.328775 1.20063,-0.26832 1.20063,-0.799215 v -0.484239 l -0.63451,-0.14296 c -0.83663,-0.188498 -0.89536,-0.228278 -1.13157,-0.766409 -0.20105,-0.45802 -0.20083,-0.46117 0.0672,-0.946668 0.56101,-1.016224 0.55356,-0.974878 0.23424,-1.300569 -0.31931,-0.325691 -0.27877,-0.333287 -1.27511,0.238925 -0.47599,0.273373 -0.47908,0.273601 -0.92813,0.06854 -0.5276,-0.240928 -0.5666,-0.300834 -0.75141,-1.154169 l -0.14016,-0.647179 h -0.47476 c -0.52051,0 -0.46123,-0.09263 -0.78357,1.224605 -0.077,0.31463 -0.18049,0.415468 -0.59816,0.582804 l -0.50505,0.202347 -0.62797,-0.385837 c -0.34538,-0.21221 -0.66585,-0.385837 -0.71215,-0.385837 -0.0463,0 -0.21642,0.140789 -0.37805,0.312864 l -0.29387,0.312863 0.39381,0.666799 c 0.37092,0.628041 0.386,0.690929 0.25948,1.081962 -0.20609,0.636929 -0.24298,0.667529 -1.05633,0.876251 l -0.76093,0.195269 -0.0333,0.458229 -0.0333,0.45823 0.78252,0.195593 c 0.7232,0.180768 0.7989,0.228375 0.99884,0.628105 0.28573,0.571264 0.2803,0.613693 -0.17767,1.388369 l -0.39344,0.665508 0.32058,0.326975 0.32057,0.326976 0.65248,-0.401291 c 0.75952,-0.467118 0.80111,-0.472656 1.3612,-0.181219 0.3919,0.203927 0.43858,0.281145 0.61581,1.018786 l 0.19176,0.798134 0.44926,-0.03395 0.44926,-0.03395 z m -1.55211,-2.681897 c -1.57529,-0.860595 -1.17602,-3.285347 0.59683,-3.624576 0.89328,-0.170925 1.91716,0.49361 2.15632,1.399533 0.43848,1.660896 -1.26531,3.037865 -2.75315,2.225043 z m 1.69179,-0.836625 c 0.49755,-0.507484 0.51428,-1.181154 0.0422,-1.697081 -0.25138,-0.274702 -0.82133,-0.429951 -1.16728,-0.317959 -0.80968,0.262114 -1.0726,1.371062 -0.47063,1.985049 0.44452,0.453392 1.16732,0.466976 1.59575,0.02999 z m -6.88405,2.537553 c 1.38324,-0.166581 1.38133,-0.165629 1.81003,-0.899673 0.42671,-0.730619 0.42166,-0.944517 -0.0248,-1.052075 -0.16251,-0.03915 -0.55618,-0.146432 -0.87481,-0.238408 l -0.57934,-0.167228 v -1.005872 c 0,-1.147087 -0.0194,-1.121443 1.027,-1.357892 0.87026,-0.196647 0.92726,-0.352449 0.43832,-1.197993 l -0.39587,-0.684593 -1.05888,-0.152877 c -1.37426,-0.198409 -5.17524,-0.199683 -6.40605,-0.0021 -1.572,0.252292 -2.97565,0.666826 -4.03091,1.19043 -2.06119,1.022727 -2.58278,2.24363 -1.44175,3.374726 1.85593,1.83977 6.74936,2.770182 11.53709,2.193603 z m -7.58814,-4.912216 c -0.075,-0.02549 -0.13634,-0.17001 -0.13634,-0.321144 0,-0.347506 0.19089,-0.422722 1.67541,-0.660157 1.45267,-0.23234 2.22415,-0.200731 2.27895,0.09337 0.0621,0.333409 -0.0864,0.395981 -1.25299,0.527776 -0.60572,0.06843 -1.39996,0.18789 -1.76499,0.265463 -0.36503,0.07757 -0.72505,0.120182 -0.80004,0.09469 z m 4.93579,-0.651496 c -0.1099,-0.135069 -0.11774,-0.231836 -0.03,-0.370373 0.0961,-0.151703 0.26333,-0.1804 0.87546,-0.1502 0.74951,0.03698 0.95061,0.142371 0.89522,0.469155 -0.0438,0.258238 -1.53649,0.302332 -1.74066,0.05142 z"
         style="fill:#000000;stroke-width:0.11144587" />
    </g>
    <g
       id="g5047"
       transform="translate(-234.84095,-73.587483)">
      <rect
         style="fill:#00ffff;stroke:#00ffff;stroke-width:0.49022451"
         y="22.078444"
         x="100.33755"
         height="24.834175"
         width="24.338467"
         id="rect5036" />
      <text
         id="text3867"
         y="44.511883"
         x="106.29817"
         style="font-style:normal;font-weight:normal;font-size:31.31831551px;line-height:1.25;font-family:sans-serif;letter-spacing:0px;word-spacing:0px;fill:#000000;fill-opacity:1;stroke:none;stroke-width:0.78295791"
         xml:space="preserve"><tspan
           style="font-style:normal;font-variant:normal;font-weight:normal;font-stretch:normal;font-family:Ani;-inkscape-font-specification:Ani;stroke-width:0.78295791"
           y="44.511883"
           x="106.29817"
           id="tspan3865"
           sodipodi:role="line">&lt;</tspan></text>
    </g>
    <g
       id="g5054"
       transform="translate(-210.01226,-73.587483)">
      <rect
         style="fill:#00ffff;stroke:#00ffff;stroke-width:0.49022451"
         y="22.078444"
         x="100.33755"
         height="24.834175"
         width="24.338467"
         id="rect5049" />
      <text
         id="text3871"
         y="44.358959"
         x="100.64008"
         style="font-style:normal;font-weight:normal;font-size:31.31830215px;line-height:1.25;font-family:sans-serif;letter-spacing:0px;word-spacing:0px;fill:#000000;fill-opacity:1;stroke:none;stroke-width:0.78295755"
         xml:space="preserve"><tspan
           style="font-style:normal;font-variant:normal;font-weight:normal;font-stretch:normal;font-family:Ani;-inkscape-font-specification:Ani;stroke-width:0.78295755"
           y="44.358959"
           x="100.64008"
           id="tspan3869"
           sodipodi:role="line">&gt;</tspan></text>
    </g>
    <g
       id="g5061"
       transform="translate(-185.18357,-73.587483)">
      <rect
         style="fill:#00ffff;stroke:#00ffff;stroke-width:0.49022451"
         y="22.078444"
         x="100.33755"
         height="24.834175"
         width="24.338467"
         id="rect5056" />
      <text
         id="text3875"
         y="44.511879"
         x="103.11435"
         style="font-style:normal;font-weight:normal;font-size:27.47955132px;line-height:1.25;font-family:sans-serif;letter-spacing:0px;word-spacing:0px;fill:#000000;fill-opacity:1;stroke:none;stroke-width:0.68698877"
         xml:space="preserve"><tspan
           style="stroke-width:0.68698877"
           y="44.511879"
           x="103.11435"
           id="tspan3873"
           sodipodi:role="line">X</tspan></text>
    </g>
    <g
       id="g5445"
       transform="translate(-160.35488,-73.587483)">
      <rect
         style="fill:#00ffff;stroke:#00ffff;stroke-width:0.49022451"
         y="22.078444"
         x="100.33755"
         height="24.834175"
         width="24.338467"
         id="rect5063" />
      <path
         transform="scale(-1,1)"
         d="m -110.03004,26.815799 c 4.39225,1.349165 6.93554,6.147625 5.58638,10.539869 -1.34916,4.392245 -6.14762,6.93554 -10.53987,5.586376 -4.39224,-1.349165 -6.93554,-6.147625 -5.58637,-10.539869 0.78609,-2.55915 2.79501,-4.633983 5.32746,-5.502251"
         sodipodi:t0="0"
         sodipodi:argument="-7.5559602"
         sodipodi:radius="8.4349403"
         sodipodi:revolution="0.89999998"
         sodipodi:expansion="0"
         sodipodi:cy="34.878922"
         sodipodi:cx="-112.50678"
         id="path3879"
         style="fill:none;fill-rule:evenodd;stroke:#000000;stroke-width:2.41254735;stroke-miterlimit:4;stroke-dasharray:none;marker-start:url(#TriangleInS)"
         sodipodi:type="spiral" />
    </g>
    <g
       id="g5452"
       transform="translate(-135.52619,-73.587483)">
      <rect
         style="fill:#00ffff;stroke:#00ffff;stroke-width:0.49022451"
         y="22.078444"
         x="100.33755"
         height="24.834175"
         width="24.338467"
         id="rect5447" />
      <text
         id="text5034"
         y="44.511879"
         x="99.120438"
         style="font-style:normal;font-weight:normal;font-size:31.95247269px;line-height:1.25;font-family:sans-serif;letter-spacing:0px;word-spacing:0px;fill:#000000;fill-opacity:1;stroke:none;stroke-width:0.79881179"
         xml:space="preserve"><tspan
           style="stroke-width:0.79881179"
           y="44.511879"
           x="99.120438"
           id="tspan5032"
           sodipodi:role="line">+</tspan></text>
    </g>
    <g
       id="g5473"
       transform="translate(-110.94261,-73.832594)">
      <rect
         style="fill:#00ffff;stroke:#00ffff;stroke-width:0.49022451"
         y="22.323555"
         x="100.58266"
         height="24.834175"
         width="24.338467"
         id="rect5454" />
      <path
         inkscape:connector-curvature="0"
         id="path5467"
         d="M 102.63097,34.740642 V 24.417663 h 5.81467 5.81465 l 0.49409,0.479282 c 0.27174,0.263604 1.24021,1.197922 2.15216,2.076262 l 1.65807,1.596983 v 0.673019 0.673021 h -2.88266 -2.88267 l 0.006,-2.059329 0.006,-2.059329 h -4.36402 -4.36399 v 8.94307 8.94307 h 6.51528 6.51529 l 0.006,-2.059329 0.006,-2.059329 h 0.72011 0.72013 v 2.749284 2.749282 h -7.96676 -7.96683 z m 13.68132,-6.372258 c -0.0959,-0.09816 -0.59563,-0.58544 -1.11058,-1.082845 l -0.9363,-0.904374 v 1.082846 1.082844 h 1.11059 1.11058 z m -6.50121,13.980025 c 0,-0.02572 0.46059,-1.362092 1.05373,-3.05729 l 0.49757,-1.422103 2.15512,-2.04521 c 2.57643,-2.445031 4.90599,-4.63878 5.61049,-5.283403 0.508,-0.464821 0.51409,-0.469518 0.68926,-0.530771 0.15564,-0.05443 0.2045,-0.06161 0.40942,-0.06018 0.44424,0.0031 0.64117,0.08797 1.06809,0.460321 0.52633,0.459042 1.40277,1.344006 1.4887,1.503167 0.054,0.100144 0.0859,0.302319 0.0887,0.563053 0.002,0.245496 6.1e-4,0.256894 -0.0692,0.389745 -0.17811,0.338856 -0.50941,0.667442 -4.64581,4.60777 l -3.58761,3.417553 -1.29888,0.410469 c -1.86804,0.59033 -3.39812,1.065477 -3.4311,1.065477 -0.0156,0 -0.0284,-0.0084 -0.0284,-0.0186 z m 2.58599,-2.225919 c 0.14392,-0.04102 0.37005,-0.108536 0.5025,-0.150034 l 0.24081,-0.07545 -0.35136,-0.334515 c -0.19325,-0.183984 -0.35813,-0.334515 -0.36641,-0.334515 -0.0165,0 -0.13359,0.328525 -0.23937,0.671627 -0.0629,0.204056 -0.081,0.297469 -0.0576,0.297469 0.006,0 0.12755,-0.03356 0.27148,-0.07458 z m 3.31321,-2.272533 c 0.72278,-0.676802 1.90005,-1.788415 2.61615,-2.470252 l 1.30199,-1.239703 -0.56382,-0.535686 -0.56381,-0.535687 -1.72434,1.624417 c -2.73732,2.578705 -3.51569,3.326583 -3.49556,3.358629 0.0761,0.121111 1.04098,1.028831 1.09368,1.028831 0.0118,0 0.61291,-0.553746 1.33571,-1.230549 z m 5.33638,-5.058078 0.36519,-0.347649 -0.53165,-0.506906 c -0.2924,-0.278798 -0.55047,-0.516821 -0.57347,-0.528937 -0.0363,-0.01911 -0.0921,0.0257 -0.42106,0.338505 l -0.37923,0.360536 0.27681,0.247441 c 0.15225,0.136093 0.41012,0.368315 0.57306,0.516049 0.16294,0.147735 0.30275,0.268609 0.3107,0.268609 0.008,0 0.1788,-0.156442 0.37965,-0.347648 z m -15.51261,8.827237 v -0.684687 h 1.44044 1.44046 v 0.684687 0.684687 h -1.44046 -1.44044 z m 0,-2.749283 v -0.695221 h 2.17175 2.17177 v 0.695221 0.695221 h -2.17177 -2.17175 z m 0,-2.749283 v -0.684688 h 2.89198 2.89199 v 0.684688 0.684688 h -2.89199 -2.89198 z m 0,-2.759816 v -0.684688 h 4.34352 4.34352 v 0.684688 0.684687 h -4.34352 -4.34352 z"
         style="fill:#000000;stroke-width:0.02160715" />
    </g>
    <g
       aria-label="P"
       transform="scale(0.86464135,1.1565489)"
       style="font-style:normal;font-weight:normal;font-size:23.00613403px;line-height:1.25;font-family:sans-serif;letter-spacing:0px;word-spacing:0px;fill:#000000;fill-opacity:1;stroke:none;stroke-width:0.57515335"
       id="text5477" />
    <g
       aria-label="T"
       transform="matrix(0,1.0169223,-0.98335925,0,0,0)"
       style="font-style:normal;font-weight:normal;font-size:24.26874733px;line-height:1.25;font-family:sans-serif;letter-spacing:0px;word-spacing:0px;fill:#000000;fill-opacity:1;stroke:none;stroke-width:0.60671866"
       id="text5481" />
    <g
       aria-label="O"
       transform="scale(0.87105933,1.1480274)"
       style="font-style:normal;font-weight:normal;font-size:23.0468998px;line-height:1.25;font-family:sans-serif;letter-spacing:0px;word-spacing:0px;fill:#000000;fill-opacity:1;stroke:none;stroke-width:0.57617253"
       id="text5485" />
    <g
       id="g5527"
       transform="translate(-210.25737,-99.156994)">
      <rect
         style="fill:#00ffff;stroke:#00ffff;stroke-width:0.49022451"
         y="22.323555"
         x="100.58266"
         height="24.834175"
         width="24.338467"
         id="rect5491" />
      <g
         id="text5489"
         style="font-style:normal;font-weight:normal;font-size:23.48455048px;line-height:1.25;font-family:sans-serif;letter-spacing:0px;word-spacing:0px;fill:#000000;fill-opacity:1;stroke:none;stroke-width:0.58711374"
         transform="matrix(0.81926162,0,0,1.0516551,8.0940405,2.4711403)"
         aria-label="L">
        <path
           sodipodi:nodetypes="cccccccscscscscsscscscscscccccccccccsssssccscscscccc"
           inkscape:connector-curvature="0"
           d="m 131.15896,21.551561 h 2.31635 v 15.713456 h 8.33655 v 1.949401 h -10.6529 z m -7.6631,1.870052 c -1.62887,0 -2.92457,0.62335 -3.88709,1.87005 -0.95511,1.246701 -1.43266,2.94571 -1.43266,5.097028 0,2.143716 0.47755,3.838924 1.43266,5.085625 0.96252,1.2467 2.25822,1.87005 3.88709,1.87005 1.62887,0 2.91715,-0.62335 3.86486,-1.87005 0.95512,-1.246701 1.43268,-2.941909 1.43268,-5.085625 0,-2.151318 -0.47756,-3.850327 -1.43268,-5.097028 -0.94771,-1.2467 -2.23599,-1.87005 -3.86486,-1.87005 z m 0,-1.870051 c 2.32485,0 4.18324,0.801993 5.57518,2.40598 1.39195,1.596385 2.08793,3.740101 2.08793,6.431149 0,2.683447 -0.69598,4.827163 -2.08793,6.431149 -1.39194,1.596385 -3.25033,2.394577 -5.57518,2.394577 -2.33225,0 -4.19805,-0.798192 -5.5974,-2.394577 -1.39195,-1.596385 -2.08792,-3.740101 -2.08792,-6.431149 0,-2.691048 0.69597,-4.834764 2.08792,-6.431149 1.39935,-1.603987 3.26515,-2.40598 5.5974,-2.40598 z m 9.89666,2.515174 v 13.975843 h -2.24441 v -6.179628 h -17.46686 v -2.159116 h 17.46686 v -5.637099 z m -0.0106,-0.611641 v 6.433024 h 2.79518 c 1.03443,0 1.83409,-0.279032 2.399,-0.837095 0.56491,-0.558064 0.84736,-1.353114 0.84736,-2.38515 0,-1.024391 -0.28245,-1.815619 -0.84736,-2.373683 -0.56491,-0.558064 -1.36457,-0.837096 -2.399,-0.837096 z m -2.22293,-1.903533 h 5.01811 c 1.84143,0 3.23168,0.435748 4.17074,1.307245 0.94639,0.863853 1.41959,2.132876 1.41959,3.807067 0,1.689481 -0.4732,2.966148 -1.41959,3.83 -0.93906,0.863852 -2.32931,1.295778 -4.17074,1.295778 h -2.79518 v 7.422769 h -2.22293 z"
           style="stroke-width:0.58711374"
           id="path5520" />
      </g>
    </g>
    <g
       id="g118"
       transform="translate(-86.113907,-73.832594)">
      <rect
         id="rect3823"
         width="24.338467"
         height="24.834175"
         x="100.58265"
         y="22.323555"
         style="fill:#00ffff;stroke:#00ffff;stroke-width:0.49022451" />
      <path
         inkscape:connector-curvature="0"
         id="path114"
         d="m 102.63106,42.912406 v -2.151212 h 0.84224 0.84225 v 1.292147 1.292147 h 1.26684 1.26685 v 0.859065 0.859065 h -2.10908 -2.1091 z m 16.02356,1.292147 v -0.859065 h 1.26685 1.26685 v -1.292147 -1.292147 h 0.84224 0.84225 v 2.151212 2.151212 h -2.1091 -2.10909 z M 105.69377,38.16142 c -0.46558,-0.06112 -0.92282,-0.262345 -1.28756,-0.566629 -0.14413,-0.120238 -0.3631,-0.358885 -0.4696,-0.511812 -0.18781,-0.269651 -0.33354,-0.606602 -0.40582,-0.938253 -0.0609,-0.279718 -0.0673,-0.437098 -0.0611,-1.524779 0.007,-1.075096 0.007,-1.085128 0.0801,-1.37688 0.2129,-0.846248 0.85576,-1.544067 1.67404,-1.817137 0.29027,-0.09687 0.40952,-0.114446 0.77634,-0.114446 0.28756,0 0.34569,0.0039 0.48029,0.03262 0.95101,0.202602 1.71404,0.927394 1.96129,1.862999 0.0825,0.312325 0.0829,0.318203 0.0887,1.427041 0.007,1.26304 -0.002,1.377298 -0.13447,1.781385 -0.18713,0.570851 -0.57917,1.067865 -1.10125,1.396125 -0.28124,0.176824 -0.64974,0.30567 -1.00186,0.350294 -0.13571,0.0172 -0.46618,0.0169 -0.59899,-5.27e-4 z m 0.58439,-1.749841 c 0.12635,-0.0454 0.27184,-0.144249 0.35655,-0.24223 0.0346,-0.03996 0.0878,-0.123852 0.11842,-0.186418 0.0961,-0.196595 0.0982,-0.226666 0.0928,-1.309648 -0.004,-0.868566 -0.007,-0.954435 -0.0298,-1.025995 -0.0789,-0.244616 -0.23785,-0.437664 -0.44229,-0.53723 -0.13776,-0.0671 -0.22508,-0.08754 -0.37374,-0.08754 -0.14884,0 -0.23599,0.02045 -0.37447,0.08791 -0.23649,0.115179 -0.40894,0.352225 -0.45521,0.625714 -0.032,0.189284 -0.0216,1.969302 0.0121,2.08302 0.094,0.316186 0.31859,0.539502 0.62265,0.618959 0.12218,0.03193 0.34511,0.01942 0.47301,-0.02654 z m 6.1675,1.750723 c -0.53343,-0.07523 -1.00902,-0.300912 -1.3991,-0.663899 -0.19208,-0.178735 -0.39429,-0.442358 -0.52572,-0.685391 -0.13766,-0.254577 -0.24643,-0.609686 -0.28217,-0.921271 -0.025,-0.218074 -0.0297,-2.020036 -0.007,-2.260699 0.1118,-1.129828 0.92222,-2.04174 2.03191,-2.286349 0.12859,-0.02835 0.18633,-0.03228 0.48028,-0.03272 0.29953,-4.44e-4 0.34997,0.0029 0.48725,0.03298 0.68954,0.150714 1.26496,0.550511 1.64014,1.13957 0.24276,0.381146 0.37252,0.790758 0.40551,1.280018 l 0.007,0.110156 -0.84555,-0.0037 -0.84556,-0.0037 -0.009,-0.0923 c -0.0342,-0.343751 -0.29318,-0.644018 -0.63066,-0.731148 -0.10516,-0.02715 -0.31168,-0.02732 -0.41123,-3.29e-4 -0.19483,0.05281 -0.38756,0.192238 -0.49593,0.358766 -0.0288,0.0442 -0.0715,0.134964 -0.0949,0.20169 l -0.0426,0.121322 v 1.00816 c 0,0.938535 0.002,1.014042 0.0256,1.093354 0.1097,0.364918 0.40429,0.607298 0.76396,0.628579 0.16012,0.0095 0.26864,-0.01333 0.42195,-0.08868 0.25926,-0.127414 0.43804,-0.38418 0.46491,-0.667695 l 0.008,-0.0852 0.84583,-0.0037 0.84584,-0.0037 -0.008,0.103056 c -0.0527,0.689016 -0.27416,1.211389 -0.7082,1.669918 -0.37391,0.394998 -0.82734,0.648277 -1.35224,0.755323 -0.1712,0.03492 -0.60857,0.05046 -0.77188,0.02742 z m 4.52446,-3.422043 v -3.436644 l 1.43042,0.0041 1.43043,0.0041 0.15145,0.03275 c 0.40457,0.08748 0.78266,0.267669 1.08757,0.518308 0.1292,0.106213 0.34748,0.33293 0.4425,0.459633 0.22803,0.303994 0.39493,0.682821 0.47218,1.071753 0.0279,0.140343 0.032,0.202717 0.0319,0.48752 -1.4e-4,0.255943 -0.006,0.353457 -0.0248,0.450807 -0.10889,0.548409 -0.33056,0.975933 -0.70635,1.362347 l -0.17526,0.180222 0.44977,1.126124 c 0.24737,0.619369 0.45334,1.137307 0.4577,1.150974 0.007,0.02349 -0.0384,0.02485 -0.83385,0.02485 H 120.342 l -0.34141,-0.869715 c -0.29231,-0.744664 -0.34507,-0.868887 -0.36683,-0.863962 -0.014,0.0032 -0.24001,0.0083 -0.50225,0.0115 l -0.47681,0.0057 v 0.858216 0.858216 h -0.84225 -0.84224 z m 2.70514,-0.02061 c 0.30454,-0.06582 0.56384,-0.320663 0.64324,-0.632178 0.0328,-0.12836 0.0222,-0.368849 -0.0217,-0.496065 -0.0686,-0.198552 -0.23729,-0.391228 -0.42401,-0.484121 -0.16017,-0.07969 -0.20417,-0.08477 -0.7338,-0.08477 h -0.48432 v 0.859065 0.859065 l 0.46288,-2.48e-4 c 0.34961,-1.86e-4 0.48611,-0.0053 0.55776,-0.02075 z m -17.0442,-8.150663 v -2.151323 h 2.1092 2.1092 l -0.003,0.855516 -0.003,0.855515 -1.2633,0.0036 -1.26329,0.0036 -0.003,1.288522 -0.003,1.288522 -0.83876,0.0037 -0.83877,0.0037 z m 18.55726,0.858954 v -1.292147 h -1.26685 -1.26685 v -0.859065 -0.859065 h 2.10909 2.1091 v 2.151212 2.151212 h -0.84225 -0.84224 z"
         style="fill:#000000;stroke-width:0.01405973" />
    </g>
    <rect
       id="rect87"
       width="24.338467"
       height="24.834175"
       x="159.64143"
       y="-6.4026351"
       style="fill:#00ffff;stroke:#00ffff;stroke-width:0.49022451" />
    <text
       xml:space="preserve"
       style="font-style:normal;font-weight:normal;font-size:19.38554001px;line-height:1.25;font-family:sans-serif;letter-spacing:0px;word-spacing:0px;fill:#000000;fill-opacity:1;stroke:none;stroke-width:0.48463851"
       x="-149.88168"
       y="-70.461578"
       id="text81"
       transform="scale(0.91059155,1.0981872)"><tspan
         sodipodi:role="line"
         id="tspan79"
         x="-149.88168"
         y="-70.461578"
         style="stroke-width:0.48463851">Phaleron</tspan></text>
    <g
       id="g124"
       transform="translate(-61.285213,-73.828434)">
      <rect
         id="rect120"
         width="24.338467"
         height="24.834175"
         x="100.58266"
         y="22.323555"
         style="fill:#00ffff;stroke:#00ffff;stroke-width:0.49022451" />
      <path
         inkscape:connector-curvature="0"
         id="path105"
         d="m 104.16827,44.149963 c -0.93655,-0.49525 -0.94526,-0.551131 -0.90266,-5.786309 l 0.0371,-4.561553 0.31686,-0.37154 c 0.42194,-0.494754 0.99068,-0.685579 2.04336,-0.685579 h 0.87172 l 0.002,-1.641315 c 0.002,-0.993868 0.0739,-1.938475 0.18403,-2.39463 0.63115,-2.615022 3.46131,-4.485767 6.46776,-4.275222 2.22551,0.155856 4.09371,1.26921 5.1177,3.049891 0.47713,0.829722 0.64522,1.752395 0.64721,3.552904 l 0.002,1.685535 1.04563,0.03923 c 0.83159,0.03121 1.12673,0.09003 1.44191,0.287417 0.80341,0.503141 0.80777,0.533014 0.80777,5.538153 0,4.996943 4.7e-4,4.992779 -0.79696,5.518167 l -0.4071,0.268168 -8.1749,0.02809 -8.17489,0.02809 z m 9.68928,-2.787429 c 0.33047,-0.203229 0.3473,-0.496151 0.0986,-1.717493 l -0.16973,-0.833597 0.35438,-0.354351 c 1.21384,-1.213778 -0.0333,-3.070459 -1.82182,-2.712251 -1.3705,0.274485 -1.87669,1.681749 -0.96692,2.68816 l 0.36379,0.402425 -0.17806,0.877244 c -0.0979,0.482483 -0.18006,1.012105 -0.1825,1.176942 -0.007,0.452514 0.40979,0.646143 1.38976,0.646143 0.5468,0 0.92708,-0.05922 1.11248,-0.173222 z m 2.66686,-10.537057 c -0.0533,-2.127588 -0.1435,-2.410599 -1.04976,-3.291306 -0.72025,-0.699939 -1.47192,-0.965247 -2.72958,-0.963424 -0.92007,0.0013 -1.17148,0.04495 -1.72244,0.298861 -0.75418,0.347561 -1.37545,0.93064 -1.74872,1.641248 -0.22939,0.436672 -0.27196,0.763013 -0.30925,2.37026 l -0.0432,1.863866 h 3.82549 3.82551 z"
         style="fill:#000000;stroke-width:0.11875758" />
    </g>
    <g
       id="g168"
       transform="translate(-61.285223,-99.156994)">
      <rect
         id="rect145"
         width="24.338467"
         height="24.834175"
         x="100.58266"
         y="22.323555"
         style="fill:#00ffff;stroke:#00ffff;stroke-width:0.49022451" />
      <path
         inkscape:connector-curvature="0"
         id="path118"
         d="m 103.57986,44.352816 c -0.063,-0.03852 -0.1623,-0.155939 -0.22079,-0.260921 l -0.10634,-0.190879 0.0122,-5.206952 0.0123,-5.20695 0.17307,-0.19184 0.17307,-0.19184 h 5.81208 5.81208 l 0.14171,0.144244 c 0.078,0.07933 0.16396,0.23696 0.19113,0.350279 0.0338,0.141085 0.0451,1.808131 0.0356,5.288025 -0.0138,5.059295 -0.0142,5.082696 -0.11095,5.240204 -0.0534,0.08702 -0.14725,0.189371 -0.2085,0.227448 -0.16354,0.101651 -11.55059,0.100856 -11.71672,-8.69e-4 z m 6.76341,-4.019728 v -1.008957 l 0.18489,-0.202041 c 0.22325,-0.243962 0.44694,-0.784959 0.48776,-1.179652 0.0404,-0.390325 -0.0761,-0.923732 -0.28055,-1.28506 -0.69617,-1.230277 -2.22278,-1.062301 -2.74595,0.302145 -0.0996,0.259834 -0.12267,0.402937 -0.12372,0.768798 -0.002,0.395959 0.0167,0.493767 0.14973,0.820632 0.0831,0.204102 0.23423,0.462013 0.33592,0.573137 l 0.18489,0.202041 v 1.008957 1.008955 h 0.90352 0.90351 z m 10.47726,-3.530797 c -0.34155,-0.09754 -0.69455,-0.518862 -0.79265,-0.946061 -0.0283,-0.12321 -0.0467,-1.293076 -0.0468,-2.982023 -1.8e-4,-2.583703 -0.007,-2.80973 -0.0918,-3.212156 -0.1326,-0.627114 -0.34103,-1.061985 -0.74202,-1.548172 -0.55993,-0.678871 -1.17463,-0.981714 -1.96968,-0.970383 -1.2666,0.01805 -2.3805,1.125386 -2.64085,2.625264 -0.043,0.247784 -0.0684,0.717508 -0.0689,1.275023 l -7.7e-4,0.882707 h -1.13518 -1.1352 l 3.5e-4,-0.826663 c 7.1e-4,-1.448736 0.12584,-2.271288 0.48598,-3.193639 0.6834,-1.750239 1.98096,-2.996961 3.52156,-3.383594 0.52611,-0.132034 1.43738,-0.140754 1.96871,-0.01884 1.0204,0.234133 1.91419,0.82513 2.65055,1.752611 0.45236,0.569771 0.66652,0.945813 0.94074,1.65184 0.23574,0.606948 0.37179,1.175218 0.4384,1.831062 0.0273,0.268867 0.0482,1.644361 0.0482,3.170377 0,3.088985 -0.002,3.114051 -0.34628,3.52994 -0.28907,0.349638 -0.67643,0.479206 -1.08437,0.362705 z"
         style="fill:#000000;stroke-width:0.05095883" />
    </g>
    <g
       id="g91"
       transform="translate(-235.08606,-48.508195)">
      <rect
         id="rect88"
         width="24.338467"
         height="24.834175"
         x="100.58266"
         y="22.323555"
         style="fill:#00ffff;stroke:#00ffff;stroke-width:0.49022451" />
      <path
         inkscape:connector-curvature="0"
         id="path101"
         d="m 107.64059,44.247609 c -0.13572,-0.160259 -0.15161,-0.422902 -0.12962,-2.143295 l 0.0251,-1.960653 0.50741,-0.324091 0.50741,-0.32409 0.0461,1.851234 0.0461,1.851236 3.5136,0.02579 3.51359,0.02579 0.31306,-0.225433 c 0.50549,-0.364014 0.65417,-0.93443 0.72126,-2.767184 0.0688,-1.879454 0.0438,-1.84032 1.17518,-1.84032 1.64466,0 2.68483,-0.292971 3.04251,-0.856932 0.16764,-0.264328 0.17554,-0.538575 0.17554,-6.093254 v -5.816436 h -6.22736 -6.22738 l -0.0253,3.49974 -0.0253,3.49974 -0.48211,0.295195 c -0.26516,0.162356 -0.51323,0.310232 -0.55129,0.328614 -0.038,0.01838 -0.0692,-1.893189 -0.0692,-4.24793 0,-4.022502 0.0103,-4.291214 0.16872,-4.444505 0.1539,-0.148825 0.78872,-0.163156 7.2279,-0.163156 6.72165,0 7.06649,0.0086 7.21186,0.180284 0.13871,0.163771 0.15269,0.753376 0.15269,6.436554 0,6.734485 -0.0129,6.939314 -0.48893,7.797221 -0.22266,0.401237 -1.81978,2.239613 -3.47813,4.003521 -0.70341,0.748177 -1.21642,1.206779 -1.52225,1.36079 l -0.46128,0.232299 -4.2526,0.0011 c -4.02333,7.44e-4 -4.26095,-0.0089 -4.40729,-0.181677 z m -3.10792,-4.042588 c -0.72276,-0.496681 -1.14418,-1.17264 -1.25119,-2.006876 -0.084,-0.655018 0.006,-0.916287 0.40265,-1.167584 0.19037,-0.120632 0.59522,-0.383492 0.89967,-0.584135 0.87356,-0.575705 2.53076,-1.671307 3.13675,-2.073751 0.30444,-0.202188 1.28007,-0.846056 2.16804,-1.430816 0.88798,-0.584759 2.09194,-1.38368 2.67546,-1.775379 l 1.06097,-0.712179 0.058,0.471443 c 0.0731,0.594696 0.10618,0.648307 0.54796,0.889141 0.29425,0.160408 0.36277,0.250921 0.36277,0.479188 0,0.630767 0.10014,0.842468 0.53321,1.127193 l 0.42421,0.278908 -0.31726,0.204337 c -0.31891,0.205394 -1.04278,0.681518 -2.07015,1.361628 -0.30445,0.201542 -1.28007,0.84552 -2.16805,1.43106 -2.62782,1.732817 -5.00369,3.305447 -5.37201,3.555834 -0.4429,0.301094 -0.59258,0.294506 -1.091,-0.04801 z m 11.49192,-8.311836 c -0.26139,-0.219706 -0.69031,-1.080101 -0.69192,-1.387954 -6.9e-4,-0.152869 0.1042,-0.172522 0.92168,-0.172522 0.55249,0 0.92257,0.03948 0.92257,0.09842 0,0.136666 -0.77111,1.671849 -0.84094,1.674194 -0.0312,0.001 -0.17134,-0.09441 -0.31139,-0.212133 z"
         style="fill:#000000;stroke-width:0.09536831" />
    </g>
    <g
       id="g269"
       transform="translate(-210.25738,-48.508176)">
      <rect
         id="rect93"
         width="24.338467"
         height="24.834175"
         x="100.58267"
         y="22.323536"
         style="fill:#00ffff;stroke:#00ffff;stroke-width:0.49022451" />
      <path
         inkscape:connector-curvature="0"
         id="path144"
         d="m 111.04804,44.296068 c -3.36186,-0.564913 -6.34545,-2.941843 -7.63987,-6.086417 -0.63235,-1.536206 -0.88856,-3.250545 -0.72712,-4.865392 0.30772,-3.078019 1.52175,-5.290801 3.79841,-6.92321 0.8704,-0.624103 1.91969,-1.245565 2.25174,-1.33363 0.21793,-0.0578 0.21717,-0.05504 -0.0226,0.08169 -0.30021,0.171222 -0.3232,0.261038 -0.0451,0.176235 0.18627,-0.05681 0.18115,-0.03871 -0.062,0.219489 -0.14575,0.15477 -0.35095,0.281399 -0.45599,0.281399 -0.19812,0 -0.84146,0.587964 -0.74686,0.682567 0.0295,0.02952 0.1587,-0.01514 0.28707,-0.09925 0.28109,-0.184181 0.2879,-0.141581 0.0514,0.321994 -0.12119,0.237559 -0.28808,0.401074 -0.4995,0.489411 -0.36437,0.152241 -0.60856,0.616431 -0.56417,1.072401 0.0371,0.381136 0.28704,0.417687 0.62727,0.09173 0.2226,-0.213265 0.27984,-0.233039 0.35061,-0.121119 0.13111,0.207364 0.1025,0.658435 -0.0562,0.884926 -0.12547,0.179131 -0.19334,0.197362 -0.5408,0.145257 l -0.39734,-0.05959 -0.22525,0.483857 c -0.23183,0.498016 -0.30442,1.160565 -0.12715,1.160565 0.0549,0 0.46345,-0.06652 0.90784,-0.147823 0.94808,-0.173455 1.1063,-0.109533 0.75683,0.305785 -0.41395,0.49195 -0.2667,0.650362 0.60686,0.652857 0.503,0.0015 0.99911,-0.182052 1.1326,-0.418896 0.075,-0.133011 0.0451,-0.217427 -0.14869,-0.421181 -0.2387,-0.250899 -0.23967,-0.256858 -0.0632,-0.386414 0.28941,-0.212546 1.29186,-0.486606 1.77989,-0.486606 0.38817,0 0.44303,-0.02152 0.39226,-0.153819 -0.10818,-0.281907 -0.16427,-0.913106 -0.10288,-1.157711 0.0578,-0.230104 0.0801,-0.238669 0.47054,-0.180123 0.32271,0.0484 0.44659,0.02827 0.58235,-0.09459 0.22558,-0.204143 0.21928,-0.585568 -0.0146,-0.882857 -0.22398,-0.284747 -0.38455,-0.298064 -0.69065,-0.05728 -0.43504,0.342207 -0.66061,0.209078 -0.78143,-0.461201 -0.0742,-0.412149 0.0384,-0.511146 0.62376,-0.54809 0.44883,-0.02833 0.44885,-0.02834 0.47711,-0.371087 0.0325,-0.394516 0.27761,-0.542148 0.82381,-0.496255 0.26003,0.02185 0.32666,0.0678 0.35133,0.242286 0.0295,0.208381 0.0493,0.213558 0.6166,0.160589 0.34806,-0.0325 0.70651,-0.129126 0.88248,-0.237881 0.17052,-0.105384 0.45202,-0.183145 0.66301,-0.183145 0.30443,0 0.39939,0.04595 0.55942,0.270684 0.18823,0.264349 0.38103,0.326544 0.66933,0.215916 0.23015,-0.08832 0.16481,-0.290087 -0.14599,-0.450809 l -0.28871,-0.149298 0.20847,-0.168816 c 0.27359,-0.221533 0.37608,-0.213924 0.93587,0.06948 1.88076,0.952166 3.39699,2.500538 4.31693,4.408435 2.44991,5.080967 0.4491,11.062924 -4.54494,13.58833 -1.86115,0.941148 -4.15468,1.285792 -6.23281,0.936592 z m 1.82875,-4.100987 c 0.0954,-0.05108 0.36234,-0.587212 0.6401,-1.285747 0.68212,-1.715515 0.77987,-1.896481 0.96959,-1.794948 0.0857,0.04584 0.65778,0.472942 1.2714,0.949114 0.61362,0.476174 1.16673,0.86577 1.22914,0.86577 0.0624,0 0.15848,-0.111657 0.21348,-0.248126 0.18762,-0.465493 0.72169,-2.534402 1.09321,-4.234934 0.46479,-2.127397 0.40305,-1.944906 0.82167,-2.428587 0.53066,-0.613136 0.31846,-0.750816 -0.56067,-0.363775 -0.26672,0.11742 -0.72032,0.281523 -1.00802,0.364676 -0.48001,0.138739 -0.71349,0.335684 -0.56911,0.480062 0.0319,0.03187 0.22974,0.08166 0.43973,0.110663 l 0.38178,0.05272 -0.0228,0.510664 c -0.0219,0.490458 -0.70718,4.035441 -0.79755,4.125808 -0.0691,0.06909 -0.5586,-0.222907 -1.37734,-0.821576 -0.72245,-0.528282 -0.75204,-0.563741 -0.70616,-0.846447 0.0263,-0.162287 0.22352,-0.714663 0.43818,-1.227502 0.32027,-0.765111 0.47725,-1.017204 0.87484,-1.404831 0.38319,-0.373603 0.45399,-0.484117 0.3385,-0.528432 -0.15407,-0.05912 -2.40588,0.646617 -2.65958,0.833539 -0.17134,0.126246 -0.11191,0.159562 0.45077,0.252711 0.22845,0.03782 0.34313,0.110667 0.37678,0.239324 0.0784,0.299845 -0.30307,1.615153 -0.46845,1.615153 -0.10869,0 -1.0875,-0.736177 -1.31917,-0.992166 l -0.17922,-0.198032 0.33759,-0.270816 c 0.58336,-0.467994 0.38134,-0.563619 -0.52801,-0.249933 -0.29312,0.10111 -0.85776,0.266347 -1.25477,0.367192 -0.74538,0.189343 -1.16819,0.393429 -1.08705,0.524721 0.0256,0.04142 0.28427,0.09251 0.57482,0.113526 0.44105,0.0319 0.62377,0.103134 1.10673,0.43145 0.94234,0.640602 1.88686,1.447484 1.88547,1.610715 -6.8e-4,0.08366 -0.20373,0.573087 -0.45117,1.087623 l -0.44987,0.935522 -0.33832,-0.25296 c -0.56255,-0.420611 -2.56516,-2.077653 -3.0226,-2.501026 -0.23572,-0.218164 -0.42859,-0.448412 -0.42859,-0.511662 0,-0.06325 0.16241,-0.263458 0.36092,-0.444906 0.19849,-0.181447 0.3609,-0.359469 0.3609,-0.395601 0,-0.11872 -0.31946,-0.06905 -0.96249,0.149665 -0.34825,0.11845 -1.0967,0.323149 -1.6632,0.454886 -1.15863,0.269435 -1.3038,0.33328 -1.22497,0.538722 0.044,0.114627 0.19474,0.144448 0.7302,0.144448 0.67262,0 0.67671,0.0015 1.28858,0.464383 0.70488,0.533286 1.71927,1.388977 3.14019,2.648926 0.84105,0.745774 1.44443,1.215892 1.56236,1.217289 0.0156,1.8e-4 0.10215,-0.03909 0.19219,-0.08727 z"
         style="fill:#000000;stroke-width:0.09022782" />
    </g>
    <g
       id="g4102"
       transform="translate(0.24511101,0.24511262)">
      <g
         transform="translate(-235.33117,25.079287)"
         id="g3826">
        <rect
           style="fill:#00ffff;stroke:#00ffff;stroke-width:0.49022451"
           y="22.323555"
           x="100.58266"
           height="24.834175"
           width="24.338467"
           id="rect3822" />
        <path
           style="fill:#000000;stroke-width:0.03955423"
           d="m 103.28064,44.630999 c -0.1297,-0.129695 -0.15101,-0.290903 -0.0563,-0.426074 0.0365,-0.0522 0.18441,-0.125838 0.38565,-0.192084 2.52918,-0.832571 6.4776,-2.356537 8.22536,-3.174724 0.73053,-0.341992 1.05749,-0.617614 1.12336,-0.946986 0.0392,-0.196283 -0.13669,-0.515674 -0.43151,-0.783286 -0.33463,-0.303757 -0.72351,-0.556232 -1.76774,-1.147679 -2.36617,-1.340191 -3.11678,-1.866374 -3.69166,-2.587899 -0.7843,-0.984374 -0.75591,-1.840909 0.0894,-2.694483 0.87811,-0.886781 2.49267,-1.651605 5.46628,-2.589415 l 0.96418,-0.304077 0.6922,-0.01584 0.69219,-0.01584 -0.61309,0.231652 c -0.33719,0.127409 -0.80888,0.301615 -1.04818,0.387126 l -0.4351,0.155473 0.34779,0.01145 0.34779,0.01145 0.75973,-0.299424 c 0.41785,-0.164683 0.79977,-0.3163 0.84872,-0.336928 l 0.089,-0.03751 v -2.530927 c 0,-2.461771 0.002,-2.532046 0.0765,-2.571873 0.11353,-0.06077 0.19114,-0.05017 0.27947,0.03816 0.0774,0.07739 0.0791,0.131847 0.0791,2.511694 v 2.432584 h 0.75153 c 0.69879,0 0.75708,0.0056 0.83063,0.07911 0.10615,0.106142 0.10154,0.260673 -0.01,0.332118 -0.049,0.03138 -0.38269,0.167441 -0.74164,0.302347 -2.61223,0.981761 -4.31966,1.968475 -4.70152,2.716981 -0.16844,0.330174 -0.0896,0.689256 0.20735,0.944392 0.34253,0.294301 0.76865,0.450554 2.3664,0.867739 4.0096,1.046932 5.89666,1.834639 7.04338,2.940074 1.36229,1.313258 1.15719,2.848307 -0.61495,4.602415 -0.70934,0.702124 -1.95996,1.623069 -2.64743,1.949546 -0.55862,0.265288 -0.19322,0.25343 -7.8564,0.254955 l -6.93492,0.0013 z m 11.55595,-1.468382 c 0.50955,-0.349086 0.93238,-0.651676 0.93964,-0.672422 0.008,-0.02262 -0.18489,-0.03772 -0.48148,-0.03772 h -0.49466 l -0.99082,0.622978 c -0.54495,0.34264 -0.99131,0.645229 -0.99192,0.672423 -9e-4,0.03722 0.13407,0.04944 0.54584,0.04944 h 0.54695 z m 2.3941,-1.786148 c 0.53736,-0.495318 0.91254,-1.128655 0.95275,-1.608338 l 0.0236,-0.282223 h -0.27752 -0.2775 l -0.0258,0.227436 c -0.0436,0.385692 -0.17802,0.608961 -0.64784,1.076409 -0.23341,0.232232 -0.49203,0.479102 -0.57471,0.548599 -0.0827,0.0695 -0.13947,0.143912 -0.12621,0.165367 0.0132,0.02145 0.19254,0.03901 0.39842,0.03901 h 0.37431 z m 0.0933,-3.093159 c -0.10057,-0.09641 -0.74077,-0.445889 -1.17885,-0.643523 l -0.42168,-0.19023 -0.52386,-2.99e-4 c -0.31123,-1.49e-4 -0.52558,0.0153 -0.52809,0.03821 -0.003,0.02121 0.40252,0.221135 0.89963,0.444284 l 0.90385,0.405725 0.45346,7.48e-4 c 0.39038,5.98e-4 0.4454,-0.007 0.39554,-0.05482 z m -3.40025,-1.559405 c 0,-0.01802 -0.16464,-0.09956 -0.36588,-0.181215 -0.20122,-0.08165 -0.60003,-0.245463 -0.88621,-0.36403 l -0.52035,-0.215575 -0.48829,0.01114 -0.48828,0.01114 0.13843,0.06615 c 0.0761,0.03638 0.44993,0.208762 0.83064,0.383071 l 0.6922,0.316926 0.54387,0.0026 c 0.29913,0.0015 0.54387,-0.01215 0.54387,-0.03017 z m -3.32255,-1.485568 c 0,-0.0084 -0.15999,-0.109174 -0.35552,-0.223947 -0.69721,-0.409241 -1.14754,-0.932398 -1.14754,-1.333112 v -0.172394 l -0.18788,0.01206 -0.18789,0.01205 0.004,0.239821 c 0.005,0.402582 0.27261,0.800174 0.83962,1.250769 l 0.28946,0.230019 h 0.37318 c 0.20524,0 0.37317,-0.0069 0.37317,-0.01527 z m -0.38528,-2.884095 c 0.42175,-0.308773 0.7742,-0.522475 1.39391,-0.845158 l 0.55376,-0.288342 -0.31317,-8.95e-4 c -0.30747,-7.48e-4 -0.32149,0.0036 -0.77131,0.240263 -0.47846,0.251795 -1.66454,1.015174 -1.66454,1.071329 0,0.01783 0.11586,0.03241 0.25749,0.03241 0.24854,0 0.26742,-0.0073 0.54386,-0.209673 z m 6.34814,-4.775524 c -0.1033,-0.01739 -0.2546,-0.06424 -0.33621,-0.104122 l -0.14839,-0.0725 -0.0105,-1.235631 -0.0105,-1.23563 0.24777,0.135638 c 0.49063,0.268586 0.95541,0.274827 1.59339,0.0214 0.52355,-0.207977 0.96334,-0.226088 1.20002,-0.04942 l 0.1045,0.078 0.0105,1.193213 0.0105,1.193213 -0.14891,-0.09791 c -0.1905,-0.125256 -0.49613,-0.193423 -0.71909,-0.160382 -0.0961,0.01424 -0.31854,0.0795 -0.49443,0.145031 -0.31792,0.118453 -0.82301,0.230253 -1.01199,0.223999 -0.0543,-0.0018 -0.1834,-0.0175 -0.2867,-0.03488 z"
           id="path3820"
           inkscape:connector-curvature="0" />
      </g>
    </g>
    <g
       id="g3865"
       transform="translate(-210.25737,25.3244)">
      <rect
         id="rect3848"
         width="24.338467"
         height="24.834175"
         x="100.58266"
         y="22.323555"
         style="fill:#00ffff;stroke:#00ffff;stroke-width:0.49022451" />
      <path
         inkscape:connector-curvature="0"
         id="path3861"
         d="m 109.93845,44.620886 c -1.50684,-0.146921 -3.0553,-0.452007 -4.39719,-0.86635 -5.705923,-1.761869 -5.40143,-5.112095 0.6144,-6.760104 1.30953,-0.358735 3.37709,-0.696555 4.27424,-0.698369 0.41426,-9.08e-4 0.54319,0.0439 0.54319,0.188462 0,0.142059 -0.12393,0.189559 -0.49454,0.189559 -0.64598,0 -2.86499,0.337266 -3.85092,0.585301 -1.17198,0.294838 -2.58235,0.879137 -3.11162,1.289115 -2.34553,1.816872 -0.0826,3.724888 5.43954,4.586348 1.6055,0.25046 6.31022,0.214836 7.96667,-0.06032 2.7478,-0.45645 5.16966,-1.432952 5.73636,-2.31293 0.32979,-0.512089 0.28329,-1.17123 -0.11801,-1.672561 -0.91167,-1.138966 -3.78909,-2.11572 -6.97348,-2.367184 -0.85835,-0.06779 -1.07626,-0.123487 -1.07626,-0.275139 0,-0.368795 3.08835,0.02082 5.23226,0.660075 5.74767,1.713808 5.78518,4.946275 0.0777,6.693545 -2.70464,0.827991 -6.5256,1.145897 -9.86231,0.820557 z M 109.62806,41.7216 c -3.34674,-0.504408 -5.02969,-1.430709 -4.55746,-2.508448 0.15315,-0.349515 0.95062,-0.832987 1.88715,-1.144087 1.32348,-0.439641 4.22226,-0.893932 4.22226,-0.661706 0,0.0642 -0.45394,0.156758 -1.00876,0.205704 -2.6859,0.236946 -4.66702,1.082343 -4.41514,1.884059 0.46892,1.492566 7.72972,2.199604 11.84694,1.153623 2.16866,-0.55095 2.73275,-1.423444 1.38942,-2.149074 -0.68147,-0.368115 -2.40055,-0.782116 -3.7169,-0.895135 -0.54541,-0.04683 -0.99166,-0.137061 -0.99166,-0.200516 0,-0.276944 3.60136,0.366681 4.7713,0.852713 1.02174,0.424467 1.45783,0.844836 1.41646,1.365397 -0.0615,0.773646 -1.28875,1.443144 -3.54945,1.936302 -1.00624,0.219504 -6.15262,0.333215 -7.29416,0.161168 z m 2.20054,-5.280044 c -0.30537,-2.640054 -0.33827,-2.806181 -0.75706,-3.822793 l -0.43781,-1.0628 0.0619,-1.587171 c 0.0341,-0.872945 0.0909,-1.67934 0.12624,-1.791989 0.0983,-0.312808 0.62535,-0.492985 1.65761,-0.56664 0.69794,-0.04979 1.08736,-0.01362 1.52474,0.141693 0.71214,0.252865 0.72082,0.281232 0.73504,2.403883 0.0102,1.522376 0.009,1.529177 -0.37572,2.458603 -0.35723,0.862623 -0.41052,1.142502 -0.71589,3.759607 l -0.32992,2.827603 h -0.58495 -0.58494 z m 0.54124,-9.360159 c -0.65934,-0.344858 -0.83369,-1.388741 -0.3339,-1.999196 0.5431,-0.663363 1.51804,-0.325014 1.65901,0.575757 0.0589,0.376669 -0.1248,1.01287 -0.36191,1.253035 -0.21109,0.213809 -0.71109,0.302267 -0.9632,0.170404 z"
         style="fill:#000000;stroke-width:0.11434595" />
    </g>
    <g
       id="g481"
       transform="translate(-235.08605,81.784475)">
      <path
         style="fill:#00ffff;stroke-width:0.02009406"
         d="m 112.22873,44.731848 c -0.65696,-0.03498 -1.40412,-0.164406 -2.12042,-0.36732 l -0.26174,-0.07415 0.0112,-0.08366 c 0.0328,-0.244651 0.0708,-0.448105 0.11121,-0.594161 l 0.0452,-0.163361 2.75387,-0.0052 2.75387,-0.0052 0.0211,0.05623 c 0.034,0.09043 0.11351,0.472306 0.13185,0.632992 l 0.0169,0.14794 -0.15954,0.04993 c -1.0113,0.316483 -2.21202,0.46402 -3.30347,0.40591 z m -3.65803,-0.963446 c -0.47488,-0.234678 -1.03353,-0.578315 -1.47309,-0.906141 -0.42735,-0.318708 -0.74774,-0.603363 -1.17777,-1.046401 -0.43079,-0.443811 -0.61801,-0.66345 -0.92276,-1.082544 -2.18269,-3.001613 -2.54516,-7.042602 -0.93415,-10.414307 0.89478,-1.872701 2.32269,-3.39761 4.11899,-4.398787 0.26161,-0.145812 0.67896,-0.352136 0.68975,-0.340993 0.003,0.0032 0.0317,0.101498 0.0636,0.218459 0.33006,1.211484 1.13768,2.269173 2.5959,3.399685 0.1553,0.120401 0.28382,0.224459 0.28559,0.231239 0.002,0.0068 -0.1172,0.104219 -0.2644,0.21653 -1.80002,1.37339 -2.64212,2.696891 -2.79344,4.390345 -0.0662,0.740761 0.0347,1.578674 0.26907,2.233946 0.3996,1.117373 1.16735,2.064076 2.51861,3.105654 0.13594,0.104786 0.25435,0.196947 0.26313,0.204803 0.009,0.0079 -0.12024,0.120433 -0.28671,0.25017 -1.61265,1.256793 -2.41793,2.399955 -2.6897,3.818241 -0.0231,0.120734 -0.0472,0.219134 -0.0534,0.218667 -0.006,-4.68e-4 -0.10037,-0.04482 -0.20913,-0.09857 z m 8.17619,0.06911 c 0,-0.0054 -0.023,-0.122598 -0.0512,-0.260358 -0.15352,-0.751028 -0.50408,-1.495585 -1.01687,-2.159762 -0.21339,-0.276375 -0.76845,-0.848551 -1.09708,-1.130887 -0.14138,-0.121464 -0.39325,-0.326928 -0.55973,-0.456588 -0.16647,-0.129659 -0.29549,-0.242172 -0.28671,-0.250028 0.009,-0.0079 0.12719,-0.100017 0.26313,-0.204803 1.74953,-1.348576 2.57704,-2.604327 2.77183,-4.206278 0.0337,-0.27703 0.0331,-1.072367 -9e-4,-1.327314 -0.0767,-0.574069 -0.22656,-1.087731 -0.458,-1.569478 -0.43952,-0.914862 -1.12372,-1.695284 -2.27971,-2.600318 -0.17205,-0.134698 -0.30997,-0.24755 -0.30649,-0.250781 0.003,-0.0032 0.11311,-0.08802 0.24361,-0.188412 1.16733,-0.898017 1.90753,-1.735255 2.34376,-2.650997 0.12353,-0.259313 0.33471,-0.846628 0.33528,-0.932417 1.1e-4,-0.01899 0.01,-0.04052 0.0211,-0.04783 0.0291,-0.01858 0.68233,0.320397 1.02714,0.533011 1.04732,0.645801 1.97158,1.492489 2.73519,2.505626 1.54887,2.055001 2.25218,4.73929 1.92999,7.36614 -0.36131,2.94587 -1.98041,5.577155 -4.41866,7.180996 -0.28732,0.188998 -0.72079,0.438986 -0.974,0.561726 -0.20699,0.100334 -0.22163,0.106198 -0.22163,0.08875 z m -6.3455,-1.251063 c 0.0846,-0.145826 0.30149,-0.444976 0.45889,-0.633027 l 0.1581,-0.188887 h 1.75487 1.75487 l 0.1751,0.211646 c 0.17112,0.206831 0.35158,0.456862 0.44045,0.610268 l 0.0444,0.07658 h -2.41555 -2.41555 z m 1.48131,-1.606397 c 0,-0.02979 0.85042,-0.673359 0.88979,-0.673359 0.0394,0 0.88979,0.643566 0.88979,0.673359 0,0.0047 -0.4004,0.0085 -0.88979,0.0085 -0.48938,0 -0.88979,-0.0038 -0.88979,-0.0085 z m 0.57016,-2.314921 c -0.15948,-0.120383 -0.32409,-0.24826 -0.3658,-0.28417 l -0.0758,-0.06529 h 0.76126 0.76127 l -0.0758,0.06529 c -0.16235,0.139774 -0.65733,0.50305 -0.68543,0.50305 -0.0163,0 -0.16014,-0.0985 -0.31963,-0.21888 z m -1.51409,-1.338517 c -0.18141,-0.20624 -0.43959,-0.540797 -0.43998,-0.570135 -1.2e-4,-0.0084 1.02407,-0.01531 2.27597,-0.01531 h 2.27619 l -0.0347,0.05616 c -0.0844,0.136686 -0.27029,0.373276 -0.43153,0.549274 l -0.17495,0.190958 -1.64418,-0.0016 -1.64417,-0.0016 z m -0.92214,-1.583585 c -0.0628,-0.204794 -0.10944,-0.412605 -0.14149,-0.630377 l -0.0128,-0.08679 h 2.91012 2.91012 l -0.0128,0.08679 c -0.0334,0.226707 -0.0794,0.432273 -0.1419,0.633027 l -0.0683,0.219517 h -2.68745 -2.68745 z m -0.1622,-1.650558 c 0.0169,-0.19243 0.0593,-0.433328 0.11349,-0.644066 l 0.0407,-0.158256 h 2.7639 2.7639 l 0.0407,0.158256 c 0.0542,0.210738 0.0966,0.451636 0.11349,0.644066 l 0.0138,0.157427 h -2.93188 -2.93188 z m 0.50574,-1.590934 c 0,-0.05716 0.32752,-0.519145 0.552,-0.778628 l 0.1104,-0.127615 1.74992,-2.04e-4 1.74992,-2.04e-4 0.0494,0.05894 c 0.30001,0.35769 0.56564,0.721572 0.60597,0.830105 0.01,0.02662 -0.2792,0.03025 -2.4032,0.03025 -1.32794,0 -2.41444,-0.0057 -2.41444,-0.01264 z m 1.52253,-1.690757 c 0,-0.0099 0.46346,-0.373077 0.71638,-0.5614 l 0.17262,-0.128532 0.13386,0.09801 c 0.21754,0.159264 0.75672,0.580168 0.75672,0.590717 0,0.0054 -0.4004,0.0097 -0.88979,0.0097 -0.48938,0 -0.88979,-0.0038 -0.88979,-0.0085 z m 0.78104,-2.153896 c -0.0544,-0.04245 -0.23901,-0.184274 -0.41029,-0.315157 -0.17129,-0.130882 -0.31143,-0.24264 -0.31143,-0.24835 0,-0.0057 0.37952,-0.01038 0.84337,-0.01038 h 0.84338 l -0.16615,0.129359 c -0.24314,0.18931 -0.688,0.524277 -0.69445,0.522903 -0.003,-6.52e-4 -0.0501,-0.03592 -0.10443,-0.07837 z m -1.71252,-1.4817 c -0.0664,-0.07251 -0.16945,-0.194269 -0.22899,-0.270567 -0.11781,-0.150999 -0.42138,-0.613375 -0.42138,-0.641825 0,-0.0098 1.09944,-0.01762 2.47164,-0.01762 1.3594,0 2.47164,0.0049 2.47164,0.01094 0,0.006 -0.0542,0.100601 -0.12042,0.210188 -0.13329,0.220551 -0.37038,0.535445 -0.54237,0.720362 l -0.11195,0.120361 h -1.69871 -1.69872 z m -0.97614,-1.73143 c -0.0242,-0.07531 -0.0497,-0.194242 -0.0498,-0.231928 -1.2e-4,-0.048 0.0813,-0.07754 0.52388,-0.190185 1.35615,-0.345128 2.81277,-0.377011 4.20179,-0.09197 0.43796,0.08987 0.94991,0.232058 0.96307,0.267473 0.006,0.01489 -0.002,0.0799 -0.0177,0.144464 l -0.0277,0.11739 -2.79264,0.0052 c -2.22422,0.0041 -2.79432,-3.5e-5 -2.80086,-0.02042 z"
         id="path473"
         inkscape:connector-curvature="0" />
      <rect
         style="fill:none;fill-opacity:1;stroke:none;stroke-width:0.06206857;stroke-opacity:1"
         id="rect475"
         width="24.828691"
         height="24.828691"
         x="100.33754"
         y="22.326294" />
      <circle
         style="fill:none;fill-opacity:1;stroke:#ffffff;stroke-width:1.2159903;stroke-opacity:1"
         id="circle477"
         cx="112.75188"
         cy="34.740635"
         r="11.806346" />
      <circle
         style="fill:none;fill-opacity:1;stroke:#ffffff;stroke-width:1.18057442;stroke-opacity:1"
         id="circle479"
         cx="112.75188"
         cy="34.740635"
         r="11.806346" />
    </g>
    <g
       id="g556">
      <path
         inkscape:connector-curvature="0"
         id="path550"
         d="m 111.79104,42.77316 v -0.319961 h 0.67991 0.67992 v 0.319961 0.319961 h -0.67992 -0.67991 z m -5.15939,-1.055469 c -0.32555,-0.184607 -0.37785,-0.526457 -0.11999,-0.784314 0.15698,-0.156977 0.26663,-0.159979 5.84328,-0.159979 6.2552,0 6.15671,-0.0074 6.15407,0.462 -0.002,0.302989 -0.087,0.408488 -0.40382,0.499348 -0.40752,0.116875 -11.26583,0.100734 -11.47354,-0.01705 z m 5.15939,-1.864184 V 39.56707 l 0.65991,0.02322 0.65993,0.02322 v 0.239971 0.239972 l -0.65993,0.02322 -0.65991,0.02325 z m -3.91954,-0.975403 c -0.33386,-0.119322 -0.42019,-0.564174 -0.15998,-0.824387 0.15613,-0.156125 0.26664,-0.159979 4.58752,-0.159979 3.01355,0 4.50813,0.02809 4.67993,0.08798 0.44218,0.154148 0.43977,0.710603 -0.004,0.865216 -0.25536,0.08902 -8.85944,0.118473 -9.10372,0.03117 z m 9.15891,-3.885519 c -0.70391,-1.62964 -1.30332,-3.022992 -1.332,-3.096341 -0.0448,-0.114441 0.14816,-0.182348 1.35983,-0.478655 0.7766,-0.189912 1.45234,-0.367286 1.50164,-0.394165 0.0561,-0.03063 -0.39903,-0.884986 -1.21935,-2.288606 -0.71995,-1.231854 -1.30922,-2.27136 -1.3095,-2.310014 -2.4e-4,-0.03866 0.24247,-0.04829 0.53944,-0.0214 0.29696,0.02688 0.73938,0.04951 0.98313,0.05028 l 0.4432,0.0014 1.02426,2.685383 c 0.56334,1.47696 1.01183,2.696526 0.99664,2.710147 -0.0153,0.01362 -0.63956,0.160679 -1.38747,0.326796 -0.74791,0.166118 -1.38804,0.326396 -1.42251,0.356172 -0.0345,0.02978 0.20904,1.253448 0.54114,2.719265 0.33211,1.465818 0.59428,2.673582 0.58262,2.683918 -0.0116,0.01035 -0.59715,-1.314545 -1.30107,-2.944182 z m -5.23937,1.981261 V 36.68741 l 0.65991,0.02322 0.65993,0.02322 v 0.239972 0.239971 l -0.65993,0.02322 -0.65991,0.02322 z m -2.79967,-1.079873 c -0.19219,-0.192186 -0.20306,-0.382852 -0.0355,-0.622125 l 0.12453,-0.17778 h 3.29727 c 3.68206,0 3.68673,6.05e-4 3.63733,0.505801 -0.0434,0.444623 -0.0997,0.451609 -3.64407,0.452906 -3.11379,0.0012 -3.22488,-0.0041 -3.37959,-0.158802 z m -1.41465,-0.919889 c 0.0248,-0.08799 0.24722,-0.95189 0.49428,-1.919775 0.24709,-0.967887 0.46587,-1.817071 0.48618,-1.887077 0.0288,-0.09913 -0.30389,-0.273889 -1.50423,-0.790182 -0.84764,-0.364593 -1.55252,-0.672626 -1.5664,-0.684516 -0.0347,-0.02965 0.94956,-3.105024 1.01369,-3.16768 0.0283,-0.02762 0.60291,-0.07333 1.27697,-0.10157 0.97981,-0.04105 1.21332,-0.03098 1.16455,0.05022 -0.0335,0.05586 -0.42465,0.659503 -0.86908,1.341423 -0.44445,0.681919 -0.8364,1.28609 -0.87101,1.342599 -0.0459,0.07484 0.30822,0.279922 1.30332,0.754942 0.75145,0.358709 1.36628,0.684099 1.36628,0.723091 0,0.06741 -2.22425,4.374688 -2.30234,4.458509 -0.0205,0.02201 -0.017,-0.03199 0.008,-0.119985 z m 4.21432,-0.799908 c 0,-0.197622 0.008,-0.199977 0.67991,-0.199977 0.67192,0 0.67992,0.0024 0.67992,0.199977 0,0.197625 -0.008,0.199977 -0.67992,0.199977 -0.67191,0 -0.67991,-0.0024 -0.67991,-0.199977 z m -1.48347,-1.116233 c -0.10798,-0.107987 -0.19633,-0.235607 -0.19633,-0.283602 0,-0.04799 0.0884,-0.175615 0.19633,-0.283603 l 0.19634,-0.19634 h 1.991 c 1.82727,0 2.00189,0.01203 2.12339,0.146281 0.17483,0.193191 0.16823,0.516388 -0.0139,0.681222 -0.12781,0.115667 -0.39592,0.132382 -2.12339,0.132382 h -1.97709 z m 1.48347,-1.703434 v -0.219974 h 0.67991 0.67992 v 0.219974 0.219974 h -0.67992 -0.67991 z m 0.0952,-0.934315 c -0.90521,-0.2928 -1.44332,-1.003127 -1.45153,-1.916067 -0.005,-0.56224 0.1413,-0.969403 0.49142,-1.367154 0.41885,-0.475844 0.86988,-0.681885 1.49266,-0.681885 0.8368,0 1.42324,0.340245 1.81023,1.050255 0.56106,1.029392 0.10003,2.392302 -0.95891,2.834757 -0.40399,0.168798 -1.00254,0.203441 -1.38387,0.0801 z"
         style="fill:#00ffff;stroke-width:0.07999054" />
      <rect
         y="22.326296"
         x="100.33752"
         height="24.828691"
         width="24.828691"
         id="rect3344"
         style="fill:none;fill-opacity:1;stroke:none;stroke-width:0.06206857;stroke-opacity:1" />
      <circle
         r="11.806346"
         cy="34.740643"
         cx="112.75186"
         id="path3348"
         style="fill:none;fill-opacity:1;stroke:#ffffff;stroke-width:1.2159903;stroke-opacity:1" />
      <circle
         r="11.806346"
         cy="34.740643"
         cx="112.75186"
         id="path3775"
         style="fill:none;fill-opacity:1;stroke:#ffffff;stroke-width:1.18057442;stroke-opacity:1" />
    </g>
    <g
       id="g533"
       transform="translate(-235.06832,106.71938)">
      <rect
         style="fill:none;fill-opacity:1;stroke:none;stroke-width:0.06206857;stroke-opacity:1"
         id="rect525"
         width="24.828691"
         height="24.828691"
         x="100.33752"
         y="22.202368" />
      <circle
         style="fill:none;fill-opacity:1;stroke:#ffffff;stroke-width:1.2159903;stroke-opacity:1"
         id="circle527"
         cx="112.75186"
         cy="34.616714"
         r="11.806346" />
      <path
         style="fill:#00ffff;stroke-width:0.07512627"
         d="m 107.0042,40.649854 c -1.05364,-0.579686 -1.94056,-1.09276 -1.97091,-1.140163 -0.0304,-0.0474 -0.0557,-2.712253 -0.0564,-5.921888 -10e-4,-5.206011 0.0116,-5.848441 0.1169,-5.953757 0.0649,-0.06493 0.15517,-0.118056 0.20052,-0.118056 0.0453,0 0.8875,0.439488 1.87144,0.976641 0.98394,0.537153 1.82401,0.976642 1.86681,0.976642 0.0428,0 0.8934,-0.445237 1.89021,-0.989416 l 1.81239,-0.989416 1.9805,0.989416 c 1.08929,0.544179 2.01741,0.989416 2.0625,0.989416 0.0451,0 0.79225,-0.426685 1.66035,-0.948189 0.8681,-0.521503 1.63737,-0.963616 1.70948,-0.982474 0.0721,-0.01886 0.18687,0.02146 0.25501,0.0896 0.11297,0.11298 0.12388,0.638955 0.12388,5.973006 0,4.820553 -0.0179,5.867016 -0.10178,5.950902 -0.056,0.05598 -0.8875,0.571829 -1.84782,1.146326 l -1.74602,1.044542 -2.01735,-1.006457 -2.01734,-1.006457 -0.27127,0.129359 c -0.14919,0.07115 -0.98083,0.517723 -1.84808,0.99239 -0.86725,0.474667 -1.61743,0.860551 -1.66708,0.857519 -0.0496,-0.0031 -0.95234,-0.479802 -2.00598,-1.059488 z m 3.91862,-0.675677 1.81239,-0.989416 1.9805,0.989416 c 1.08929,0.544178 2.02262,0.988159 2.07406,0.986625 0.0515,-0.0015 0.75277,-0.400812 1.5585,-0.887281 l 1.46496,-0.884489 0.0192,-5.3482 c 0.0106,-2.941511 -5.7e-4,-5.348201 -0.0248,-5.348201 -0.0242,0 -0.70363,0.395218 -1.50976,0.878262 l -1.46569,0.878262 -2.01782,-1.0067 -2.01783,-1.006701 -0.27127,0.129359 c -0.1492,0.07115 -0.98083,0.517724 -1.84808,0.992391 -0.86725,0.474667 -1.60736,0.863032 -1.64469,0.863032 -0.0373,0 -0.73719,-0.366262 -1.55523,-0.813914 -0.81805,-0.447653 -1.56364,-0.854644 -1.65688,-0.904425 l -0.16954,-0.09051 0.0192,5.383072 0.0192,5.383073 1.61522,0.889129 c 0.88836,0.489021 1.65808,0.890817 1.71046,0.89288 0.0524,0.0021 0.91084,-0.441485 1.90765,-0.985663 z m -1.29094,-1.861756 c -0.25953,-0.137258 -0.26792,-0.156542 -0.43099,-0.990121 -0.16014,-0.818699 -0.17859,-0.862438 -0.49888,-1.182724 l -0.33258,-0.332585 0.15933,-0.327965 0.15934,-0.327966 -0.49826,-0.505887 c -0.4781,-0.485416 -0.50533,-0.533247 -0.67292,-1.182024 l -0.17465,-0.676136 -0.31929,-0.0231 c -0.26969,-0.01952 -0.31928,-0.04824 -0.31928,-0.184972 0,-0.08907 0.14219,-0.306752 0.31615,-0.484001 0.2888,-0.294273 0.34889,-0.322265 0.69491,-0.323688 0.20832,-8.15e-4 0.78446,-0.06846 1.28029,-0.150235 0.49583,-0.08177 0.92687,-0.148685 0.95786,-0.148695 0.11938,-3.7e-5 0.0489,0.359083 -0.0963,0.490451 -0.15205,0.137605 -0.15135,0.139423 0.18731,0.483251 l 0.33994,0.345127 -0.67564,0.672502 c -0.65739,0.654351 -0.67563,0.681926 -0.67563,1.021693 v 0.349192 l 0.65735,0.16387 c 0.58096,0.144825 0.69833,0.204001 1.00981,0.509167 l 0.35245,0.345297 -0.15596,0.307665 c -0.0858,0.169215 -0.24596,0.410875 -0.35594,0.537022 -0.15601,0.178934 -0.23088,0.397772 -0.34053,0.995422 -0.0773,0.421337 -0.17716,0.764573 -0.22189,0.762746 -0.0447,-0.0019 -0.20044,-0.06631 -0.34602,-0.143305 z m 3.77225,-0.176982 c -0.30026,-0.305942 -0.32645,-0.368832 -0.47965,-1.152029 l -0.16206,-0.828422 -0.51236,-0.331715 c -0.2818,-0.182442 -0.49992,-0.365521 -0.48473,-0.40684 0.0152,-0.04132 0.0879,-0.26634 0.16148,-0.500047 0.12646,-0.401489 0.17243,-0.453272 0.83368,-0.939079 0.51834,-0.380823 0.70045,-0.557992 0.7022,-0.683192 0.001,-0.09297 -0.013,-0.169034 -0.0316,-0.169034 -0.0187,0 -0.25532,0.154744 -0.52588,0.343877 l -0.49192,0.343877 10e-4,-0.512911 0.002,-0.512911 0.50554,-0.332339 c 0.49659,-0.326455 0.52682,-0.335301 1.70756,-0.499625 l 1.20202,-0.167286 1.49584,0.163635 1.49584,0.163634 -0.50414,0.328457 c -0.27728,0.180652 -0.48991,0.365655 -0.47252,0.411118 0.0173,0.04546 0.0931,0.277822 0.16824,0.516355 l 0.13661,0.433698 -0.34425,0.355128 c -0.18934,0.195322 -0.40289,0.473453 -0.47457,0.618071 -0.0717,0.144618 -0.14363,0.277736 -0.15991,0.29582 -0.0163,0.01807 -0.17815,-0.112934 -0.35974,-0.291148 l -0.33016,-0.324026 -0.15811,0.30993 c -0.087,0.170461 -0.17364,0.30993 -0.19263,0.30993 -0.0189,0 -0.10358,-0.135415 -0.18803,-0.300922 l -0.15351,-0.300921 -0.50351,0.337775 -0.5035,0.337774 -0.3425,-0.337358 c -0.30493,-0.300336 -0.37934,-0.336975 -0.678,-0.333861 l -0.33549,0.0035 0.34506,0.179765 c 0.25184,0.131206 0.42942,0.30925 0.65735,0.659095 0.46566,0.714709 0.44632,0.987084 -0.15585,2.195993 -0.25748,0.516914 -0.48709,0.939843 -0.51024,0.939843 -0.0232,0 -0.18501,-0.145623 -0.35969,-0.323608 z m 4.42012,-0.31306 c -0.29303,-0.298576 -0.37291,-0.339974 -0.65608,-0.339974 h -0.32242 v -0.321326 -0.321326 l 0.64731,-0.321032 c 0.35601,-0.176568 0.65544,-0.310878 0.66539,-0.298466 0.01,0.01241 0.0883,0.233852 0.17415,0.492091 l 0.15606,0.469524 -0.16537,0.490242 -0.16538,0.490243 z m -7.26336,-5.391122 -0.15549,-0.32038 0.15479,-0.319287 0.1548,-0.319286 h 0.51108 0.51109 l -5.7e-4,0.319286 c -5.6e-4,0.308246 -0.0167,0.329677 -0.46289,0.619792 -0.25422,0.165277 -0.4836,0.309449 -0.50972,0.32038 -0.0261,0.01093 -0.11747,-0.124297 -0.20299,-0.300505 z"
         id="path529"
         inkscape:connector-curvature="0" />
      <circle
         style="fill:none;fill-opacity:1;stroke:#ffffff;stroke-width:1.18057442;stroke-opacity:1"
         id="circle531"
         cx="112.75186"
         cy="34.616714"
         r="11.806346" />
    </g>
  </g>
</svg>
