<?xml version="1.0" encoding="UTF-8" standalone="no"?>
<!-- Created with Inkscape (http://www.inkscape.org/) -->

<svg
   xmlns:dc="http://purl.org/dc/elements/1.1/"
   xmlns:cc="http://creativecommons.org/ns#"
   xmlns:rdf="http://www.w3.org/1999/02/22-rdf-syntax-ns#"
   xmlns:svg="http://www.w3.org/2000/svg"
   xmlns="http://www.w3.org/2000/svg"
   xmlns:sodipodi="http://sodipodi.sourceforge.net/DTD/sodipodi-0.dtd"
   xmlns:inkscape="http://www.inkscape.org/namespaces/inkscape"
   width="200"
   height="200"
   viewBox="0 0 200 200"
   id="svg2"
   version="1.1"
   inkscape:version="0.91 r13725"
   sodipodi:docname="volume-icon.svg">
  <defs
     id="defs4" />
  <sodipodi:namedview
     id="base"
     pagecolor="#ffffff"
     bordercolor="#666666"
     borderopacity="1.0"
     inkscape:pageopacity="0.0"
     inkscape:pageshadow="2"
     inkscape:zoom="1.979899"
     inkscape:cx="34.957581"
     inkscape:cy="105.97954"
     inkscape:document-units="px"
     inkscape:current-layer="layer1"
     showgrid="false"
     units="px"
     showguides="true"
     inkscape:guide-bbox="true"
     inkscape:snap-center="true"
     inkscape:snap-object-midpoints="true"
     inkscape:snap-smooth-nodes="true"
     inkscape:object-nodes="true"
     inkscape:snap-intersection-paths="true"
     inkscape:object-paths="true"
     inkscape:snap-bbox="true"
     inkscape:bbox-paths="true"
     inkscape:bbox-nodes="true"
     inkscape:snap-bbox-edge-midpoints="true"
     inkscape:snap-bbox-midpoints="true"
     inkscape:window-width="1366"
     inkscape:window-height="720"
     inkscape:window-x="0"
     inkscape:window-y="23"
     inkscape:window-maximized="1">
    <sodipodi:guide
       position="0,-12.626907"
       orientation="1,0"
       id="guide3336" />
    <sodipodi:guide
       position="244.45692,200.0102"
       orientation="0,1"
       id="guide3338" />
    <sodipodi:guide
       position="200.0102,58.083771"
       orientation="1,0"
       id="guide3340" />
    <sodipodi:guide
       position="-15.657364,0"
       orientation="0,1"
       id="guide3342" />
    <sodipodi:guide
       position="100.0051,185.36299"
       orientation="1,0"
       id="guide3350" />
    <sodipodi:guide
       position="86.368043,150.00765"
       orientation="0,1"
       id="guide3354" />
    <sodipodi:guide
       position="0,50.002551"
       orientation="0,1"
       id="guide3356" />
  </sodipodi:namedview>
  <metadata
     id="metadata7">
    <rdf:RDF>
      <cc:Work
         rdf:about="">
        <dc:format>image/svg+xml</dc:format>
        <dc:type
           rdf:resource="http://purl.org/dc/dcmitype/StillImage" />
        <dc:title></dc:title>
      </cc:Work>
    </rdf:RDF>
  </metadata>
  <g
     inkscape:label="Layer 1"
     inkscape:groupmode="layer"
     id="layer1"
     transform="translate(0,-852.36216)">
    <rect
       style="fill:none;fill-opacity:1;stroke:none;stroke-width:0.5;stroke-opacity:1"
       id="rect3344"
       width="200.01019"
       height="200.01019"
       x="0"
       y="852.35199" />
    <circle
       style="fill:none;fill-opacity:1;stroke:#ffffff;stroke-width:9.79554081;stroke-opacity:1"
       id="path3348"
       cx="100.0051"
       cy="952.35706"
       r="95.107292" />
    <g
       id="g3524"
       transform="matrix(0.81987048,0,0,0.81987048,21.49512,873.84655)"
       style="fill:#00ffff">
      <g
         id="g3478"
         style="fill:#00ffff">
        <path
           id="path3480"
           d="m 115.347,70.679 c -2.929,-2.929 -7.678,-2.93 -10.606,-0.001 -2.929,2.929 -2.929,7.678 0,10.606 7.98,7.981 7.98,20.968 0,28.949 -2.929,2.929 -2.929,7.678 0,10.606 1.464,1.464 3.384,2.196 5.303,2.196 1.919,0 3.839,-0.732 5.303,-2.197 13.829,-13.828 13.829,-36.33 0,-50.159 z"
           style="fill:#00ffff"
           inkscape:connector-curvature="0" />
        <path
           id="path3482"
           d="m 137.33,48.696 c -2.929,-2.928 -7.678,-2.928 -10.606,0 -2.929,2.93 -2.929,7.678 0,10.607 20.102,20.102 20.102,52.811 0,72.912 -2.929,2.93 -2.929,7.678 0,10.607 1.464,1.464 3.384,2.196 5.303,2.196 1.919,0 3.839,-0.732 5.303,-2.196 25.95,-25.95 25.95,-68.175 0,-94.126 z"
           style="fill:#00ffff"
           inkscape:connector-curvature="0" />
        <path
           id="path3484"
           d="m 161.862,24.163 c -2.928,-2.927 -7.677,-2.929 -10.606,0 -2.929,2.93 -2.929,7.678 0,10.607 16.291,16.291 25.263,37.951 25.263,60.989 0,23.039 -8.972,44.699 -25.263,60.989 -2.929,2.93 -2.929,7.678 0,10.607 1.464,1.464 3.384,2.196 5.303,2.196 1.919,0 3.839,-0.732 5.303,-2.196 19.124,-19.124 29.656,-44.551 29.656,-71.597 0.001,-27.044 -10.532,-52.47 -29.656,-71.595 z"
           style="fill:#00ffff"
           inkscape:connector-curvature="0" />
        <path
           id="path3486"
           d="m 84.962,19.612 c -2.664,-1.225 -5.796,-0.784 -8.018,1.127 l -47.657,40.954 -21.787,0 c -4.142,0 -7.5,3.357 -7.5,7.5 l 0,53.134 c 0,4.143 3.358,7.5 7.5,7.5 l 21.787,0 47.657,40.954 c 1.388,1.192 3.129,1.812 4.89,1.812 1.06,0 2.127,-0.225 3.128,-0.685 2.664,-1.223 4.371,-3.885 4.371,-6.815 l 0,-138.666 c 0,-2.93 -1.708,-5.593 -4.371,-6.815 z M 15,76.693 l 9.567,0 0,38.134 -9.567,0 0,-38.134 z m 59.333,72.065 -34.766,-29.876 0,-46.245 34.766,-29.876 0,105.997 z"
           style="fill:#00ffff"
           inkscape:connector-curvature="0" />
      </g>
      <g
         id="g3488"
         style="fill:#00ffff" />
      <g
         id="g3490"
         style="fill:#00ffff" />
      <g
         id="g3492"
         style="fill:#00ffff" />
      <g
         id="g3494"
         style="fill:#00ffff" />
      <g
         id="g3496"
         style="fill:#00ffff" />
      <g
         id="g3498"
         style="fill:#00ffff" />
      <g
         id="g3500"
         style="fill:#00ffff" />
      <g
         id="g3502"
         style="fill:#00ffff" />
      <g
         id="g3504"
         style="fill:#00ffff" />
      <g
         id="g3506"
         style="fill:#00ffff" />
      <g
         id="g3508"
         style="fill:#00ffff" />
      <g
         id="g3510"
         style="fill:#00ffff" />
      <g
         id="g3512"
         style="fill:#00ffff" />
      <g
         id="g3514"
         style="fill:#00ffff" />
      <g
         id="g3516"
         style="fill:#00ffff" />
    </g>
  </g>
</svg>
