<?xml version="1.0" encoding="UTF-8" standalone="no"?>
<!--
  ptol.svg — Ptolemy Icon Sprite Sheet
  Grid: 6 columns × 2 rows, each tile 24×24px, 2px gap
  Row 0: P-glyph, search, lightning, kryptos, compass, database
  Row 1: <, >, X, spiral, +, code-editor
  Standalone tiles extracted to images/Pharos/ptol_button.svg (P glyph only)
-->
<svg
   xmlns="http://www.w3.org/2000/svg"
   width="160" height="56"
   viewBox="0 0 160 56"
   version="1.1"
   id="ptol-sprite">

  <defs id="defs">
    <!-- Source paths, each reused via <use> at clean grid coords -->
    <!-- Tile size: 24x24, gap: 4px, origin: 0,0 -->
  </defs>

  <!-- ═══════════════════════════════════════════
       ROW 0  — Face symbols
       col 0: P glyph    x=0
       col 1: search     x=28
       col 2: lightning  x=56
       col 3: kryptos    x=84
       col 4: compass    x=112
       col 5: database   x=140
  ═══════════════════════════════════════════ -->

  <!-- col 0: P glyph (Ptolemy control button) -->
  <g id="tile-p" transform="translate(0,0)">
    <rect x="0" y="0" width="24" height="24" fill="#00ffff"/>
    <g transform="translate(310.30586, 22.07094) scale(0.9858)">
      <path fill="#000000" stroke-width="0.04005642"
        d="m 105.94142,47.100502 c -0.73048,-0.14975 -1.33944,-0.48274 -1.82893,-1.0001 -0.4963,-0.52456 -0.79326,-1.12549 -0.92492,-1.87173 -0.0292,-0.16574 -0.0423,-3.19109 -0.0423,-9.77384 v -9.533807 l 0.10384,-0.42064 c 0.34438,-1.395068 1.3692,-2.365709 2.76905,-2.622657 0.32848,-0.06029 12.64641,-0.06029 12.97488,0 1.48297,0.272204 2.51959,1.320415 2.82975,2.86139 0.0602,0.298938 0.0609,19.148684 8e-4,19.489554 -0.2683,1.52065 -1.33966,2.6134 -2.83055,2.88706 -0.35373,0.0649 -12.731,0.0505 -13.05157,-0.0152 z m 4.47882,-2.82579 c 0.19466,-0.31604 0.45042,-0.72936 0.56835,-0.91849 0.26089,-0.4184 1.253,-2.01906 1.4178,-2.28747 0.0654,-0.10659 0.19038,-0.30839 0.27764,-0.44846 0.0873,-0.14007 0.2369,-0.38278 0.33254,-0.53936 0.0956,-0.15658 0.19479,-0.28469 0.22035,-0.28469 0.0256,0 0.10695,0.0455 0.18087,0.10114 0.0739,0.0556 0.14878,0.10113 0.16635,0.10113 0.0176,0 0.032,-0.18204 0.032,-0.40454 v -0.40454 h 0.55528 0.55527 v 2.8318 2.8318 h 0.39662 0.39663 v -2.8318 -2.8318 h 0.555 0.55501 l 0.0102,2.82169 0.0102,2.82168 0.38644,0.0116 0.38644,0.0116 0.0102,-2.82315 0.0102,-2.82315 0.56519,-0.0112 0.56519,-0.0112 v 2.8373 2.8373 l 0.10907,-0.0279 c 0.41773,-0.10679 0.72581,-0.37178 0.853,-0.73369 0.0639,-0.18193 0.0695,-0.44158 0.0694,-3.22183 l -2e-4,-3.02396 h -7.09958 -7.09957 l -2e-4,3.02396 c -2e-4,2.76742 0.006,3.04056 0.0686,3.21966 0.0982,0.27958 0.30268,0.50334 0.58375,0.63897 l 0.24028,0.11594 1.88396,-0.002 1.88396,-0.002 0.35394,-0.57463 z m 3.19516,-1.21178 -6.9e-4,-1.79011 -0.28686,0.45197 c -0.15777,0.24859 -0.33416,0.53076 -0.39198,0.62705 -0.10088,0.16801 -0.32155,0.52392 -1.1302,1.82282 -0.20405,0.32776 -0.37101,0.61448 -0.37101,0.63715 0,0.027 0.37649,0.0412 1.09072,0.0412 h 1.09072 z m -7.14815,-8.81904 0.0102,-2.4576 h 0.55466 0.55466 l 0.0102,2.4576 0.0102,2.4576 h 0.3768 0.37679 l 0.0102,-2.4576 0.0102,-2.4576 h 0.55496 0.55497 v 2.46918 2.46917 l 0.38671,-0.0116 0.38671,-0.0116 0.0102,-2.45759 0.0102,-2.4576 h 0.55466 0.55466 l 0.0102,2.4576 0.0102,2.45759 2.05253,0.0105 2.05253,0.0105 v -2.46807 -2.46808 h 0.55497 0.55497 l 0.0102,2.4576 0.0102,2.4576 0.3864,0.0116 0.3864,0.0116 0.0102,-2.45906 0.0102,-2.45906 h 0.55527 0.55528 l 0.0102,2.4588 0.0102,2.45881 0.50538,-0.0113 0.50539,-0.0113 0.0102,-3.00373 0.0102,-3.00373 h -7.09983 -7.09983 v 3.01502 3.01502 l 0.52553,-0.0113 0.52553,-0.0113 z m 0,-7.16042 0.0102,-2.457594 h 0.55466 0.55466 l 0.0102,2.457594 0.0102,2.45761 2.91519,0.0111 c 1.60336,0.006 2.95535,0.001 3.00443,-0.0109 l 0.0892,-0.022 v -2.44672 -2.446715 h 0.55527 0.55528 v 2.447485 c 0,1.34612 0.005,2.4486 0.01,2.44996 0.0899,0.0225 0.6194,0.038 0.68899,0.0201 l 0.0943,-0.0241 v -2.44672 -2.446715 h 0.55527 0.55528 v 2.422305 c 0,2.02944 0.009,2.42995 0.0556,2.46941 0.0353,0.0299 0.17674,0.0428 0.3867,0.0353 l 0.33106,-0.0118 0.0198,-2.44748 0.0198,-2.44749 h 0.55528 0.55527 l 0.0198,2.44749 0.0198,2.44748 h 0.49578 0.49578 l 0.0102,-2.24082 0.0102,-2.240827 -0.10173,-0.226889 c -0.1339,-0.298603 -0.26484,-0.434849 -0.55337,-0.575799 l -0.23798,-0.11625 h -6.20717 -6.20717 l -0.24028,0.11594 c -0.28107,0.135627 -0.48549,0.359385 -0.58374,0.638971 -0.0621,0.176663 -0.0687,0.410514 -0.0686,2.403834 1.1e-4,1.21447 0.0126,2.22078 0.0278,2.23625 0.0152,0.0155 0.25165,0.023 0.52552,0.0169 l 0.49796,-0.0113 z"/>
    </g>
  </g>

  <!-- col 1: search/magnifier -->
  <g id="tile-search" transform="translate(28,0)">
    <rect x="0" y="0" width="24" height="24" fill="#00ffff"/>
    <g transform="translate(234.84095, 22.07094) scale(0.9858)">
      <path fill="#000000" stroke-width="0.04897524"
        d="m 122.9772,47.054825 c -0.21383,-0.12965 -2.52738,-2.46999 -2.72153,-2.75304 -0.18333,-0.26726 -0.23,-0.60577 -0.12041,-0.8733 0.0596,-0.14552 0.0652,-0.20797 0.0231,-0.25968 -0.0462,-0.0567 -0.0806,-0.0487 -0.20644,0.048 -0.84308,0.64794 -1.97949,1.02307 -3.09928,1.02307 -0.92246,0 -1.58692,-0.16645 -2.42012,-0.60625 -1.43049,-0.75508 -2.42605,-2.10821 -2.75637,-3.746381 -0.19062,-0.945382 -0.0814,-2.090211 0.28726,-3.01183 0.63476,-1.586707 2.02209,-2.807575 3.66703,-3.227035 0.24385,-0.06218 0.6311,-0.108725 1.04261,-0.125306 0.55106,-0.0222 0.73524,-0.0095 1.16384,0.08043 1.6061,0.336913 2.93275,1.352347 3.67305,2.811398 0.43119,0.849841 0.59438,1.527563 0.59438,2.468436 0,1.158134 -0.38213,2.345538 -1.02561,3.186848 -0.11859,0.15506 -0.12768,0.18804 -0.0661,0.24014 0.054,0.0457 0.10881,0.0471 0.22508,0.006 0.1935,-0.0688 0.35357,-0.0688 0.59995,1.5e-4 0.16047,0.0449 0.41869,0.28191 1.49501,1.37229 0.71558,0.72492 1.35543,1.41174 1.4219,1.52626 0.14739,0.25392 0.16434,0.66178 0.0379,0.91122 -0.11466,0.22616 -0.58269,0.7211 -0.84268,0.89114 -0.27739,0.18142 -0.70798,0.19811 -0.9725,0.0377 z m -5.14863,-4.44651 c 1.30953,-0.37623 2.30651,-1.399419 2.68515,-2.755734 0.0846,-0.30315 0.1075,-0.512869 0.10681,-0.979302 -0.001,-0.690488 -0.0769,-1.035993 -0.35951,-1.63608 -0.99872,-2.121086 -3.58071,-2.869741 -5.46837,-1.585568 -1.60985,1.09518 -2.17887,3.174628 -1.34393,4.911358 0.52815,1.098606 1.60549,1.922756 2.79939,2.141506 0.38014,0.0696 1.17074,0.0215 1.58046,-0.0962 z m -15.50962,2.54363 c -0.7729,-0.16992 -1.51678,-0.74498 -1.85721,-1.4357 -0.34973,-0.70959 -0.325,0.0662 -0.325,-10.193945 0,-10.179012 -0.0207,-9.478764 0.29996,-10.15527 0.20717,-0.437092 0.7748,-1.016062 1.20334,-1.227366 0.66326,-0.327043 -0.0233,-0.305947 9.95649,-0.305947 10.05928,0 9.2987,-0.02523 9.9944,0.331486 0.46314,0.237468 0.92744,0.719722 1.16303,1.208005 0.33102,0.68607 0.31846,0.4091 0.31929,7.042117 l 7.6e-4,5.984868 -0.31391,-0.643002 c -0.36781,-0.75342 -0.67155,-1.184487 -1.22406,-1.737225 l -0.4016,-0.40176 V 29.6797 25.741193 h -9.52953 -9.52952 l 0.0127,8.449219 0.0127,8.449223 0.1204,0.17921 c 0.0662,0.0986 0.20806,0.23048 0.31521,0.29314 l 0.1948,0.11392 4.48197,0.0136 4.48197,0.0136 0.41923,0.41221 c 0.58305,0.57328 1.09305,0.94703 1.74549,1.27916 l 0.55829,0.28419 -5.89197,-0.004 c -4.85974,-0.003 -5.94718,-0.0159 -6.20717,-0.073 z"/>
    </g>
  </g>

  <!-- col 2: lightning (Archimedes/energy) -->
  <g id="tile-lightning" transform="translate(56,0)">
    <rect x="0" y="0" width="24" height="24" fill="#00ffff"/>
    <g transform="translate(185.38474, 21.94829) scale(0.9858)">
      <path fill="#000000" stroke-width="0.11144587"
        d="m 111.27927,46.818072 -0.26028,-0.214971 0.47583,-4.427835 c 0.2617,-2.435308 0.503,-4.592443 0.53621,-4.793631 l 0.0604,-0.365797 h -2.64357 c -2.42091,0 -2.65896,-0.01734 -2.8262,-0.20583 -0.10045,-0.113207 -0.18263,-0.31596 -0.18263,-0.450564 0,-0.134603 1.565,-3.436902 3.47777,-7.338442 3.72795,-7.604011 3.69943,-7.556504 4.29737,-7.156899 0.20776,0.138849 0.28039,0.284882 0.28039,0.563752 0,0.206998 -0.22346,2.337026 -0.49657,4.733394 -0.27312,2.396368 -0.49658,4.479709 -0.49658,4.629647 v 0.272615 l 2.51046,0.0017 c 2.68184,0.0018 3.03084,0.0624 3.09777,0.538174 0.0431,0.306368 -6.71863,13.938524 -7.05963,14.232733 -0.29184,0.251793 -0.44849,0.248134 -0.77073,-0.01801 z"/>
    </g>
  </g>

  <!-- col 3: kryptos symbol -->
  <g id="tile-kryptos" transform="translate(84,0)">
    <rect x="0" y="0" width="24" height="24" fill="#00ffff"/>
    <g transform="translate(160.31572, 22.31608) scale(0.9858)">
      <path fill="#000000" stroke-width="0.1253766"
        d="m 115.80309,45.81879 c -0.74245,-0.239497 -1.30032,-0.5557 -1.94649,-1.103295 -0.31951,-0.27076 -0.70431,-0.492292 -0.85513,-0.492292 -0.15081,0 -0.51662,0.22792 -0.81292,0.506488 -0.60311,0.567029 -0.8455,0.625523 -1.0418,0.251412 -0.11515,-0.219463 -0.0439,-0.352055 0.51021,-0.949665 0.35464,-0.382462 0.75351,-0.694589 0.88762,-0.694589 0.18456,0 0.22108,-0.05368 0.15075,-0.221589 -0.15169,-0.362193 -0.43033,-1.462632 -0.43033,-1.69955 0,-0.183286 -0.13919,-0.226093 -0.83668,-0.257305 -0.68964,-0.03086 -0.84417,-0.07745 -0.87926,-0.265112 -0.0797,-0.426328 0.21128,-0.595372 1.02489,-0.595372 h 0.76826 l 0.15641,-0.622471 c 0.086,-0.342361 0.32005,-0.885648 0.52004,-1.207307 0.2,-0.321659 0.36363,-0.611346 0.36363,-0.643749 0,-0.0324 -0.2247,-0.05891 -0.49934,-0.05891 -0.41259,0 -0.59593,-0.0908 -1.05522,-0.522615 -0.57572,-0.541273 -0.72596,-1.029806 -0.36067,-1.172781 0.24827,-0.09717 0.51737,0.05301 0.97635,0.544901 l 0.36462,0.390763 h 1.96307 1.96307 v 4.495081 c 0,5.042073 0.0854,4.645857 -0.93108,4.31796 z m 1.55179,-4.303868 v -4.509173 h 2.01264 2.01263 l 0.51885,-0.519378 c 0.39802,-0.398429 0.5798,-0.499645 0.78059,-0.434644 0.41127,0.133137 0.31076,0.471131 -0.3322,1.117059 -0.52228,0.5247 -0.65833,0.596695 -1.12763,0.596695 -0.29353,0 -0.51303,0.04274 -0.48777,0.09497 0.0253,0.05223 0.24616,0.505364 0.4909,1.006961 0.24473,0.501598 0.47489,1.028662 0.51144,1.171253 0.0584,0.227571 0.16467,0.259259 0.86983,0.259259 0.58154,0 0.84841,0.05537 0.96653,0.200546 0.3029,0.372256 -0.013,0.615858 -0.88921,0.685808 l -0.79309,0.06331 -0.0944,0.67349 c -0.052,0.370418 -0.15022,0.779777 -0.21839,0.909685 -0.18249,0.347794 -0.15184,0.506088 0.098,0.506088 0.12206,0 0.49,0.277606 0.81765,0.616901 0.43786,0.453422 0.58467,0.696696 0.55398,0.91801 -0.0683,0.492644 -0.47972,0.43784 -1.03028,-0.137247 -0.63186,-0.659996 -1.02065,-0.673651 -1.72289,-0.06051 -0.6091,0.531811 -1.81524,1.150184 -2.47157,1.267137 l -0.46554,0.08295 z m -15.65162,3.351131 -0.36289,-0.370125 V 34.346687 24.197446 l 0.36289,-0.370126 0.36288,-0.370126 h 8.25817 8.25816 l 0.34832,0.305426 0.34832,0.305426 0.0365,3.619856 0.0365,3.619856 h -0.44394 c -0.24417,0 -0.63767,0.08256 -0.87446,0.183472 l -0.43051,0.183473 V 28.388991 25.10328 h -7.26239 -7.2624 v 9.180096 9.180095 h 3.46904 3.46904 l -0.25317,0.583746 c -0.13924,0.321062 -0.22764,0.719921 -0.19645,0.886354 l 0.0567,0.302608 h -3.77871 -3.77871 z"/>
    </g>
  </g>

  <!-- col 4: compass/anaximander -->
  <g id="tile-compass" transform="translate(112,0)">
    <rect x="0" y="0" width="24" height="24" fill="#00ffff"/>
    <g transform="translate(100.33754, 22.07094) scale(0.9858)">
      <path fill="#000000" stroke-width="0.04757804"
        d="M 9.2502208,44.397753 C 9.1362829,44.370648 8.956798,44.293781 8.8513655,44.226929 8.745933,44.160079 7.7271586,43.149409 6.5874117,41.980998 l -2.0722575,-2.124383 -0.4381506,0.19546 c -0.6539988,0.291749 -1.1321317,0.403095 -1.8592153,0.432976 -0.6966712,0.02863 -1.1355088,-0.02582 -1.72281884,-0.213776 -0.79024054,-0.252891 -1.4836024,-0.685328 -2.06609376,-1.288579 -0.6575887,-0.681024 -1.1306706,-1.544319 -1.363849,-2.48878 -0.1345484,-0.544961 -0.1257333,-1.895586 0.015966,-2.446749 0.3000801,-1.167246 0.9679837,-2.199286 1.8889602,-2.918811 0.39391072,-0.307743 1.13405728,-0.680006 1.65154351,-0.830664 1.75986919,-0.512352 3.66181489,-0.0082 4.94424789,1.310606 0.5307233,0.545771 0.8742401,1.082698 1.1405694,1.782755 0.515222,1.354267 0.4734012,2.788123 -0.1202565,4.12332 l -0.1714536,0.385617 2.1153362,2.179398 c 1.4408618,1.484501 2.1479162,2.246734 2.2175172,2.390582 0.143499,0.296555 0.169857,0.651348 0.07364,0.991503 -0.185765,0.656964 -0.9158484,1.092101 -1.570902,0.93628 z M 2.5784127,38.999889 c 0.7590056,-0.126612 1.4323279,-0.489972 1.9989018,-1.078709 0.7133336,-0.741228 1.0541508,-1.584813 1.0541508,-2.609184 0,-1.011804 -0.3724198,-1.944215 -1.0581374,-2.64919 -0.7030962,-0.722846 -1.577975,-1.090412 -2.5916016,-1.088821 -1.03564979,0.0016 -1.91642135,0.400902 -2.64415327,1.198665 -1.75765333,1.926795 -1.03350163,5.092542 1.37796668,6.023998 0.63291429,0.244469 1.22710419,0.309296 1.86287299,0.203241 z"/>
    </g>
  </g>

  <!-- col 5: database/callimachus -->
  <g id="tile-database" transform="translate(140,0)">
    <rect x="0" y="0" width="24" height="24" fill="#00ffff"/>
    <g transform="translate(135.60481, 22.18646) scale(0.9858)">
      <path fill="#000000" stroke-width="0.11144587"
        d="m 108.08801,45.611944 c -3.0684,-0.298434 -5.77555,-1.249206 -6.99567,-2.456932 -0.90862,-0.899396 -0.8517,-0.383431 -0.8517,-7.720666 v -6.528068 l 0.30804,-0.534511 c 0.7871,-1.36573 3.15709,-2.4637 6.42329,-2.975779 1.68755,-0.264576 4.99272,-0.260298 6.6076,0.0086 l 1.20047,0.199856 0.45895,-0.459426 c 0.25243,-0.252684 0.53157,-0.459296 0.62031,-0.459137 0.0887,1.58e-4 0.44937,0.17743 0.80139,0.393935 0.95223,0.585661 1.02779,0.54941 1.29095,-0.61933 0.0767,-0.340472 0.18862,-0.682352 0.24879,-0.759732 0.15641,-0.20113 1.78338,-0.190505 1.98285,0.01295 0.0828,0.0845 0.21927,0.489106 0.30316,0.899118 0.19423,0.949353 0.34342,1.008112 1.20467,0.474484 0.35659,-0.220943 0.7149,-0.401714 0.79623,-0.401714 0.19742,0 1.42332,1.244527 1.42332,1.444941 0,0.0867 -0.17724,0.455211 -0.39385,0.818921 -0.52319,0.878447 -0.46558,1.030608 0.46519,1.228719 0.40199,0.08556 0.79867,0.224705 0.88152,0.309208 0.19947,0.203455 0.20989,1.862905 0.0127,2.02244 -0.0759,0.06138 -0.41105,0.175569 -0.74486,0.253761 -1.14586,0.268407 -1.1814,0.345477 -0.60721,1.316726 0.21227,0.359048 0.38607,0.733741 0.38623,0.83265 3.3e-4,0.181588 -1.22996,1.455572 -1.39849,1.448208 -0.05,-0.0022 -0.40973,-0.201968 -0.79934,-0.44396 -0.51062,-0.317147 -0.75904,-0.412342 -0.88979,-0.34097 -0.35011,0.191114 -0.44329,1.140875 -0.44329,4.518172 0,2.120529 -0.0453,3.4467 -0.12947,3.790073 -0.0998,0.407068 -0.28324,0.685435 -0.80003,1.2139 -1.07396,1.098207 -2.81348,1.828582 -5.43504,2.282027 -1.58753,0.274591 -4.3678,0.383225 -5.92692,0.231583 z"/>
    </g>
  </g>

  <!-- ═══════════════════════════════════════════
       ROW 1  — Control symbols
       col 0: <      x=0
       col 1: >      x=28
       col 2: X      x=56
       col 3: spiral x=84
       col 4: +      x=112
       col 5: editor x=140
  ═══════════════════════════════════════════ -->

  <!-- col 0: < -->
  <g id="tile-lt" transform="translate(0,28)">
    <rect x="0" y="0" width="24" height="24" fill="#00ffff"/>
    <text x="12" y="18" text-anchor="middle"
          font-family="Ani,sans-serif" font-size="18" fill="#000000">&lt;</text>
  </g>

  <!-- col 1: > -->
  <g id="tile-gt" transform="translate(28,28)">
    <rect x="0" y="0" width="24" height="24" fill="#00ffff"/>
    <text x="12" y="18" text-anchor="middle"
          font-family="Ani,sans-serif" font-size="18" fill="#000000">&gt;</text>
  </g>

  <!-- col 2: X close -->
  <g id="tile-x" transform="translate(56,28)">
    <rect x="0" y="0" width="24" height="24" fill="#00ffff"/>
    <text x="12" y="18" text-anchor="middle"
          font-family="sans-serif" font-size="16" fill="#000000">X</text>
  </g>

  <!-- col 3: spiral/refresh -->
  <g id="tile-spiral" transform="translate(84,28)">
    <rect x="0" y="0" width="24" height="24" fill="#00ffff"/>
    <g transform="translate(172.81094, -3.253051) scale(0.9858)">
      <path transform="scale(-1,1)"
            fill="none" stroke="#000000" stroke-width="2.41254735"
            stroke-miterlimit="4" stroke-dasharray="none"
            style="marker-start:url(#TriangleInS)"
            d="m -110.03004,26.815799 c 4.39225,1.349165 6.93554,6.147625 5.58638,10.539869 -1.34916,4.392245 -6.14762,6.93554 -10.53987,5.586376 -4.39224,-1.349165 -6.93554,-6.147625 -5.58637,-10.539869 0.78609,-2.55915 2.79501,-4.633983 5.32746,-5.502251"/>
    </g>
  </g>

  <!-- col 4: + add -->
  <g id="tile-plus" transform="translate(112,28)">
    <rect x="0" y="0" width="24" height="24" fill="#00ffff"/>
    <text x="12" y="19" text-anchor="middle"
          font-family="sans-serif" font-size="20" fill="#000000">+</text>
  </g>

  <!-- col 5: code editor/pencil -->
  <g id="tile-editor" transform="translate(140,28)">
    <rect x="0" y="0" width="24" height="24" fill="#00ffff"/>
    <g transform="translate(111.3889, 21.16294) scale(0.9858)">
      <path fill="#000000" stroke-width="0.02160715"
        d="M 102.63097,34.740642 V 24.417663 h 5.81467 5.81465 l 0.49409,0.479282 c 0.27174,0.263604 1.24021,1.197922 2.15216,2.076262 l 1.65807,1.596983 v 0.673019 0.673021 h -2.88266 -2.88267 l 0.006,-2.059329 0.006,-2.059329 h -4.36402 -4.36399 v 8.94307 8.94307 h 6.51528 6.51529 l 0.006,-2.059329 0.006,-2.059329 h 0.72011 0.72013 v 2.749284 2.749282 h -7.96676 -7.96683 z m 13.68132,-6.372258 c -0.0959,-0.09816 -0.59563,-0.58544 -1.11058,-1.082845 l -0.9363,-0.904374 v 1.082846 1.082844 h 1.11059 1.11058 z m -6.50121,13.980025 c 0,-0.02572 0.46059,-1.362092 1.05373,-3.05729 l 0.49757,-1.422103 2.15512,-2.04521 c 2.57643,-2.445031 4.90599,-4.63878 5.61049,-5.283403 0.508,-0.464821 0.51409,-0.469518 0.68926,-0.530771 0.15564,-0.05443 0.2045,-0.06161 0.40942,-0.06018 0.44424,0.0031 0.64117,0.08797 1.06809,0.460321 0.52633,0.459042 1.40277,1.344006 1.4887,1.503167 0.054,0.100144 0.0859,0.302319 0.0887,0.563053 0.002,0.245496 6.1e-4,0.256894 -0.0692,0.389745 -0.17811,0.338856 -0.50941,0.667442 -4.64581,4.60777 l -3.58761,3.417553 -1.29888,0.410469 c -1.86804,0.59033 -3.39812,1.065477 -3.4311,1.065477 -0.0156,0 -0.0284,-0.0084 -0.0284,-0.0186 z"/>
    </g>
  </g>

</svg>
