<?xml version="1.0" encoding="UTF-8" standalone="no"?>
<!-- Created with Inkscape (http://www.inkscape.org/) -->

<svg
   xmlns:dc="http://purl.org/dc/elements/1.1/"
   xmlns:cc="http://creativecommons.org/ns#"
   xmlns:rdf="http://www.w3.org/1999/02/22-rdf-syntax-ns#"
   xmlns:svg="http://www.w3.org/2000/svg"
   xmlns="http://www.w3.org/2000/svg"
   xmlns:sodipodi="http://sodipodi.sourceforge.net/DTD/sodipodi-0.dtd"
   xmlns:inkscape="http://www.inkscape.org/namespaces/inkscape"
   width="24.828691mm"
   height="25.3244mm"
   viewBox="0 0 24.828691 25.3244"
   version="1.1"
   id="svg8"
   inkscape:version="0.92.3 (2405546, 2018-03-11)"
   sodipodi:docname="ptolemy.svg">
  <defs
     id="defs2">
    <marker
       inkscape:stockid="TriangleInS"
       orient="auto"
       refY="0"
       refX="0"
       id="TriangleInS"
       style="overflow:visible"
       inkscape:isstock="true">
      <path
         id="path4825"
         d="M 5.77,0 -2.88,5 V -5 Z"
         style="fill:#000000;fill-opacity:1;fill-rule:evenodd;stroke:#000000;stroke-width:1.00000003pt;stroke-opacity:1"
         transform="scale(-0.2)"
         inkscape:connector-curvature="0" />
    </marker>
    <marker
       inkscape:stockid="TriangleInM"
       orient="auto"
       refY="0"
       refX="0"
       id="TriangleInM"
       style="overflow:visible"
       inkscape:isstock="true">
      <path
         id="path4822"
         d="M 5.77,0 -2.88,5 V -5 Z"
         style="fill:#000000;fill-opacity:1;fill-rule:evenodd;stroke:#000000;stroke-width:1.00000003pt;stroke-opacity:1"
         transform="scale(-0.4)"
         inkscape:connector-curvature="0" />
    </marker>
    <marker
       inkscape:stockid="Arrow2Mstart"
       orient="auto"
       refY="0"
       refX="0"
       id="Arrow2Mstart"
       style="overflow:visible"
       inkscape:isstock="true">
      <path
         id="path4710"
         style="fill:#000000;fill-opacity:1;fill-rule:evenodd;stroke:#000000;stroke-width:0.625;stroke-linejoin:round;stroke-opacity:1"
         d="M 8.7185878,4.0337352 -2.2072895,0.01601326 8.7185884,-4.0017078 c -1.7454984,2.3720609 -1.7354408,5.6174519 -6e-7,8.035443 z"
         transform="scale(0.6)"
         inkscape:connector-curvature="0" />
    </marker>
  </defs>
  <sodipodi:namedview
     id="base"
     pagecolor="#ffffff"
     bordercolor="#666666"
     borderopacity="1.0"
     inkscape:pageopacity="0.0"
     inkscape:pageshadow="2"
     inkscape:zoom="3.959798"
     inkscape:cx="-15.737717"
     inkscape:cy="-0.071615056"
     inkscape:document-units="mm"
     inkscape:current-layer="layer1"
     showgrid="false"
     showguides="true"
     inkscape:guide-bbox="true"
     inkscape:snap-bbox="true"
     inkscape:snap-grids="false"
     inkscape:bbox-nodes="true"
     inkscape:window-width="2650"
     inkscape:window-height="1713"
     inkscape:window-x="86"
     inkscape:window-y="55"
     inkscape:window-maximized="1"
     inkscape:snap-to-guides="true"
     inkscape:snap-page="true">
    <sodipodi:guide
       position="4.605136e-06,25.324401"
       orientation="1,0"
       id="guide3779"
       inkscape:locked="false" />
    <sodipodi:guide
       position="24.828696,25.324401"
       orientation="1,0"
       id="guide3781"
       inkscape:locked="false" />
    <sodipodi:guide
       position="4.605136e-06,25.324401"
       orientation="0,1"
       id="guide3783"
       inkscape:locked="false" />
    <sodipodi:guide
       position="4.605136e-06,5.9036543e-07"
       orientation="0,1"
       id="guide3785"
       inkscape:locked="false" />
    <sodipodi:guide
       position="-235.08606,18.198982"
       orientation="1,0"
       id="guide3789"
       inkscape:locked="false" />
    <sodipodi:guide
       position="-1.0356694,22.98518"
       orientation="0,1"
       id="guide5040"
       inkscape:locked="false" />
    <sodipodi:guide
       position="-0.86862599,2.9733736"
       orientation="0,1"
       id="guide5042"
       inkscape:locked="false" />
  </sodipodi:namedview>
  <metadata
     id="metadata5">
    <rdf:RDF>
      <cc:Work
         rdf:about="">
        <dc:format>image/svg+xml</dc:format>
        <dc:type
           rdf:resource="http://purl.org/dc/dcmitype/StillImage" />
        <dc:title></dc:title>
      </cc:Work>
    </rdf:RDF>
  </metadata>
  <g
     inkscape:label="Layer 1"
     inkscape:groupmode="layer"
     id="layer1"
     transform="translate(-100.33754,-22.078443)">
    <g
       id="g3837"
       transform="translate(-110.69749,-98.907311)">
      <rect
         style="fill:#00ffff;stroke:#00ffff;stroke-width:0.49022451"
         y="22.078033"
         x="100.33755"
         height="24.834175"
         width="24.338467"
         id="rect3833" />
      <path
         inkscape:connector-curvature="0"
         id="path3791"
         d="m 105.94142,47.100502 c -0.73048,-0.14975 -1.33944,-0.48274 -1.82893,-1.0001 -0.4963,-0.52456 -0.79326,-1.12549 -0.92492,-1.87173 -0.0292,-0.16574 -0.0423,-3.19109 -0.0423,-9.77384 v -9.533807 l 0.10384,-0.42064 c 0.34438,-1.395068 1.3692,-2.365709 2.76905,-2.622657 0.32848,-0.06029 12.64641,-0.06029 12.97488,0 1.48297,0.272204 2.51959,1.320415 2.82975,2.86139 0.0602,0.298938 0.0609,19.148684 8e-4,19.489554 -0.2683,1.52065 -1.33966,2.6134 -2.83055,2.88706 -0.35373,0.0649 -12.731,0.0505 -13.05157,-0.0152 z m 4.47882,-2.82579 c 0.19466,-0.31604 0.45042,-0.72936 0.56835,-0.91849 0.26089,-0.4184 1.253,-2.01906 1.4178,-2.28747 0.0654,-0.10659 0.19038,-0.30839 0.27764,-0.44846 0.0873,-0.14007 0.2369,-0.38278 0.33254,-0.53936 0.0956,-0.15658 0.19479,-0.28469 0.22035,-0.28469 0.0256,0 0.10695,0.0455 0.18087,0.10114 0.0739,0.0556 0.14878,0.10113 0.16635,0.10113 0.0176,0 0.032,-0.18204 0.032,-0.40454 v -0.40454 h 0.55528 0.55527 v 2.8318 2.8318 h 0.39662 0.39663 v -2.8318 -2.8318 h 0.555 0.55501 l 0.0102,2.82169 0.0102,2.82168 0.38644,0.0116 0.38644,0.0116 0.0102,-2.82315 0.0102,-2.82315 0.56519,-0.0112 0.56519,-0.0112 v 2.8373 2.8373 l 0.10907,-0.0279 c 0.41773,-0.10679 0.72581,-0.37178 0.853,-0.73369 0.0639,-0.18193 0.0695,-0.44158 0.0694,-3.22183 l -2e-4,-3.02396 h -7.09958 -7.09957 l -2e-4,3.02396 c -2e-4,2.76742 0.006,3.04056 0.0686,3.21966 0.0982,0.27958 0.30268,0.50334 0.58375,0.63897 l 0.24028,0.11594 1.88396,-0.002 1.88396,-0.002 0.35394,-0.57463 z m 3.19516,-1.21178 -6.9e-4,-1.79011 -0.28686,0.45197 c -0.15777,0.24859 -0.33416,0.53076 -0.39198,0.62705 -0.10088,0.16801 -0.32155,0.52392 -1.1302,1.82282 -0.20405,0.32776 -0.37101,0.61448 -0.37101,0.63715 0,0.027 0.37649,0.0412 1.09072,0.0412 h 1.09072 z m -7.14815,-8.81904 0.0102,-2.4576 h 0.55466 0.55466 l 0.0102,2.4576 0.0102,2.4576 h 0.3768 0.37679 l 0.0102,-2.4576 0.0102,-2.4576 h 0.55496 0.55497 v 2.46918 2.46917 l 0.38671,-0.0116 0.38671,-0.0116 0.0102,-2.45759 0.0102,-2.4576 h 0.55466 0.55466 l 0.0102,2.4576 0.0102,2.45759 2.05253,0.0105 2.05253,0.0105 v -2.46807 -2.46808 h 0.55497 0.55497 l 0.0102,2.4576 0.0102,2.4576 0.3864,0.0116 0.3864,0.0116 0.0102,-2.45906 0.0102,-2.45906 h 0.55527 0.55528 l 0.0102,2.4588 0.0102,2.45881 0.50538,-0.0113 0.50539,-0.0113 0.0102,-3.00373 0.0102,-3.00373 h -7.09983 -7.09983 v 3.01502 3.01502 l 0.52553,-0.0113 0.52553,-0.0113 z m 0,-7.16042 0.0102,-2.457594 h 0.55466 0.55466 l 0.0102,2.457594 0.0102,2.45761 2.91519,0.0111 c 1.60336,0.006 2.95535,0.001 3.00443,-0.0109 l 0.0892,-0.022 v -2.44672 -2.446715 h 0.55527 0.55528 v 2.447485 c 0,1.34612 0.005,2.4486 0.01,2.44996 0.0899,0.0225 0.6194,0.038 0.68899,0.0201 l 0.0943,-0.0241 v -2.44672 -2.446715 h 0.55527 0.55528 v 2.422305 c 0,2.02944 0.009,2.42995 0.0556,2.46941 0.0353,0.0299 0.17674,0.0428 0.3867,0.0353 l 0.33106,-0.0118 0.0198,-2.44748 0.0198,-2.44749 h 0.55528 0.55527 l 0.0198,2.44749 0.0198,2.44748 h 0.49578 0.49578 l 0.0102,-2.24082 0.0102,-2.240827 -0.10173,-0.226889 c -0.1339,-0.298603 -0.26484,-0.434849 -0.55337,-0.575799 l -0.23798,-0.11625 h -6.20717 -6.20717 l -0.24028,0.11594 c -0.28107,0.135627 -0.48549,0.359385 -0.58374,0.638971 -0.0621,0.176663 -0.0687,0.410514 -0.0686,2.403834 1.1e-4,1.21447 0.0126,2.22078 0.0278,2.23625 0.0152,0.0155 0.25165,0.023 0.52552,0.0169 l 0.49796,-0.0113 z"
         style="fill:#000000;stroke-width:0.04005642" />
    </g>
    <g
       id="g3829"
       transform="matrix(1.0000001,0,0,0.9997039,-135.52619,-98.905416)">
      <rect
         style="fill:#00ffff;stroke:#00ffff;stroke-width:0.49022451"
         y="22.082193"
         x="100.33755"
         height="24.834175"
         width="24.338467"
         id="rect3821" />
      <path
         inkscape:connector-curvature="0"
         id="path3787"
         d="m 122.9772,47.054825 c -0.21383,-0.12965 -2.52738,-2.46999 -2.72153,-2.75304 -0.18333,-0.26726 -0.23,-0.60577 -0.12041,-0.8733 0.0596,-0.14552 0.0652,-0.20797 0.0231,-0.25968 -0.0462,-0.0567 -0.0806,-0.0487 -0.20644,0.048 -0.84308,0.64794 -1.97949,1.02307 -3.09928,1.02307 -0.92246,0 -1.58692,-0.16645 -2.42012,-0.60625 -1.43049,-0.75508 -2.42605,-2.10821 -2.75637,-3.746381 -0.19062,-0.945382 -0.0814,-2.090211 0.28726,-3.01183 0.63476,-1.586707 2.02209,-2.807575 3.66703,-3.227035 0.24385,-0.06218 0.6311,-0.108725 1.04261,-0.125306 0.55106,-0.0222 0.73524,-0.0095 1.16384,0.08043 1.6061,0.336913 2.93275,1.352347 3.67305,2.811398 0.43119,0.849841 0.59438,1.527563 0.59438,2.468436 0,1.158134 -0.38213,2.345538 -1.02561,3.186848 -0.11859,0.15506 -0.12768,0.18804 -0.0661,0.24014 0.054,0.0457 0.10881,0.0471 0.22508,0.006 0.1935,-0.0688 0.35357,-0.0688 0.59995,1.5e-4 0.16047,0.0449 0.41869,0.28191 1.49501,1.37229 0.71558,0.72492 1.35543,1.41174 1.4219,1.52626 0.14739,0.25392 0.16434,0.66178 0.0379,0.91122 -0.11466,0.22616 -0.58269,0.7211 -0.84268,0.89114 -0.27739,0.18142 -0.70798,0.19811 -0.9725,0.0377 z m -5.14863,-4.44651 c 1.30953,-0.37623 2.30651,-1.399419 2.68515,-2.755734 0.0846,-0.30315 0.1075,-0.512869 0.10681,-0.979302 -0.001,-0.690488 -0.0769,-1.035993 -0.35951,-1.63608 -0.99872,-2.121086 -3.58071,-2.869741 -5.46837,-1.585568 -1.60985,1.09518 -2.17887,3.174628 -1.34393,4.911358 0.52815,1.098606 1.60549,1.922756 2.79939,2.141506 0.38014,0.0696 1.17074,0.0215 1.58046,-0.0962 z m -15.50962,2.54363 c -0.7729,-0.16992 -1.51678,-0.74498 -1.85721,-1.4357 -0.34973,-0.70959 -0.325,0.0662 -0.325,-10.193945 0,-10.179012 -0.0207,-9.478764 0.29996,-10.15527 0.20717,-0.437092 0.7748,-1.016062 1.20334,-1.227366 0.66326,-0.327043 -0.0233,-0.305947 9.95649,-0.305947 10.05928,0 9.2987,-0.02523 9.9944,0.331486 0.46314,0.237468 0.92744,0.719722 1.16303,1.208005 0.33102,0.68607 0.31846,0.4091 0.31929,7.042117 l 7.6e-4,5.984868 -0.31391,-0.643002 c -0.36781,-0.75342 -0.67155,-1.184487 -1.22406,-1.737225 l -0.4016,-0.40176 V 29.6797 25.741193 h -9.52953 -9.52952 l 0.0127,8.449219 0.0127,8.449223 0.1204,0.17921 c 0.0662,0.0986 0.20806,0.23048 0.31521,0.29314 l 0.1948,0.11392 4.48197,0.0136 4.48197,0.0136 0.41923,0.41221 c 0.58305,0.57328 1.09305,0.94703 1.74549,1.27916 l 0.55829,0.28419 -5.89197,-0.004 c -4.85974,-0.003 -5.94718,-0.0159 -6.20717,-0.073 z m 2.57016,-6.748552 v -0.989235 h 0.96987 0.96987 v 0.989235 0.989234 h -0.96987 -0.96987 z m 3.83099,0 v -0.989235 h 0.82439 c 0.46425,0 0.82439,0.01971 0.82439,0.04511 0,0.02481 -0.0328,0.219566 -0.073,0.43279 -0.0401,0.213224 -0.0871,0.638079 -0.10438,0.944124 l -0.0314,0.556444 h -0.72001 -0.72001 z m -3.83099,-3.907476 v -0.989234 h 0.96987 0.96987 v 0.989234 0.989234 h -0.96987 -0.96987 z m 3.83099,0 v -0.989234 h 1.96398 c 1.277,0 1.96399,0.0173 1.96399,0.04946 0,0.0272 -0.0172,0.04946 -0.0383,0.04946 -0.0746,0 -0.73346,0.648442 -0.96784,0.952575 -0.13084,0.169785 -0.31963,0.44781 -0.41954,0.617835 l -0.18165,0.309135 h -1.16033 -1.16033 z m -3.83099,-3.907476 v -0.989234 h 0.96987 0.96987 v 0.989234 0.989235 h -0.96987 -0.96987 z m 3.83099,0 v -0.989234 h 4.80086 4.80086 v 0.989234 0.989235 h -4.80086 -4.80086 z"
         style="fill:#000000;stroke-width:0.04897524" />
    </g>
    <g
       id="g3845"
       transform="translate(-86.113904,-98.785165)">
      <rect
         style="fill:#00ffff;stroke:#00ffff;stroke-width:0.49022451"
         y="21.955887"
         x="100.58266"
         height="24.834175"
         width="24.338467"
         id="rect3841" />
      <path
         inkscape:connector-curvature="0"
         id="path3793"
         d="m 111.27927,46.818072 -0.26028,-0.214971 0.47583,-4.427835 c 0.2617,-2.435308 0.503,-4.592443 0.53621,-4.793631 l 0.0604,-0.365797 h -2.64357 c -2.42091,0 -2.65896,-0.01734 -2.8262,-0.20583 -0.10045,-0.113207 -0.18263,-0.31596 -0.18263,-0.450564 0,-0.134603 1.565,-3.436902 3.47777,-7.338442 3.72795,-7.604011 3.69943,-7.556504 4.29737,-7.156899 0.20776,0.138849 0.28039,0.284882 0.28039,0.563752 0,0.206998 -0.22346,2.337026 -0.49657,4.733394 -0.27312,2.396368 -0.49658,4.479709 -0.49658,4.629647 v 0.272615 l 2.51046,0.0017 c 2.68184,0.0018 3.03084,0.0624 3.09777,0.538174 0.0431,0.306368 -6.71863,13.938524 -7.05963,14.232733 -0.29184,0.251793 -0.44849,0.248134 -0.77073,-0.01801 z m 3.86781,-2.91704 0.77004,-1.567841 0.74544,-0.417924 c 2.18873,-1.227095 3.65099,-3.145406 4.24679,-5.571263 0.32995,-1.343436 0.2574,-3.265255 -0.1722,-4.561875 -0.75379,-2.27502 -2.28144,-4.064169 -4.33855,-5.081189 -0.47065,-0.232689 -0.87195,-0.433608 -0.89177,-0.446486 -0.0948,-0.06157 0.25801,-2.632191 0.36099,-2.630517 0.064,10e-4 0.51852,0.16824 1.00995,0.371551 2.63774,1.091282 4.92225,3.381371 6.01188,6.026546 0.61501,1.492972 0.81294,2.589372 0.80542,4.461364 -0.007,1.866658 -0.15968,2.656612 -0.82662,4.290667 -0.93325,2.286502 -2.92633,4.455158 -5.1476,5.601038 -0.65109,0.335878 -2.29012,0.907049 -2.92642,1.019807 l -0.41739,0.07396 z m -6.23271,0.95295 c -1.53235,-0.581108 -2.92806,-1.542026 -4.13162,-2.84454 -4.10275,-4.440053 -3.9412,-11.417075 0.36235,-15.649762 1.58488,-1.55878 3.65651,-2.656691 5.67071,-3.005335 l 0.34904,-0.06041 -0.73526,1.563565 -0.73526,1.563565 -0.75331,0.397489 c -5.30407,2.798741 -6.06338,10.250579 -1.44268,14.158336 0.5396,0.456342 1.91947,1.272442 2.46514,1.457963 0.17606,0.05986 -0.082,2.688052 -0.26305,2.678934 -0.0641,-0.0032 -0.41778,-0.120136 -0.78606,-0.2598 z"
         style="fill:#000000;stroke-width:0.11144587" />
    </g>
    <g
       id="g3851"
       transform="translate(-160.35965,-99.153244)">
      <rect
         style="fill:#00ffff;stroke:#00ffff;stroke-width:0.49022451"
         y="22.323555"
         x="100.34233"
         height="24.834175"
         width="24.338467"
         id="rect3847" />
      <path
         inkscape:connector-curvature="0"
         id="path3795"
         d="m 115.80309,45.81879 c -0.74245,-0.239497 -1.30032,-0.5557 -1.94649,-1.103295 -0.31951,-0.27076 -0.70431,-0.492292 -0.85513,-0.492292 -0.15081,0 -0.51662,0.22792 -0.81292,0.506488 -0.60311,0.567029 -0.8455,0.625523 -1.0418,0.251412 -0.11515,-0.219463 -0.0439,-0.352055 0.51021,-0.949665 0.35464,-0.382462 0.75351,-0.694589 0.88762,-0.694589 0.18456,0 0.22108,-0.05368 0.15075,-0.221589 -0.15169,-0.362193 -0.43033,-1.462632 -0.43033,-1.69955 0,-0.183286 -0.13919,-0.226093 -0.83668,-0.257305 -0.68964,-0.03086 -0.84417,-0.07745 -0.87926,-0.265112 -0.0797,-0.426328 0.21128,-0.595372 1.02489,-0.595372 h 0.76826 l 0.15641,-0.622471 c 0.086,-0.342361 0.32005,-0.885648 0.52004,-1.207307 0.2,-0.321659 0.36363,-0.611346 0.36363,-0.643749 0,-0.0324 -0.2247,-0.05891 -0.49934,-0.05891 -0.41259,0 -0.59593,-0.0908 -1.05522,-0.522615 -0.57572,-0.541273 -0.72596,-1.029806 -0.36067,-1.172781 0.24827,-0.09717 0.51737,0.05301 0.97635,0.544901 l 0.36462,0.390763 h 1.96307 1.96307 v 4.495081 c 0,5.042073 0.0854,4.645857 -0.93108,4.31796 z m 1.55179,-4.303868 v -4.509173 h 2.01264 2.01263 l 0.51885,-0.519378 c 0.39802,-0.398429 0.5798,-0.499645 0.78059,-0.434644 0.41127,0.133137 0.31076,0.471131 -0.3322,1.117059 -0.52228,0.5247 -0.65833,0.596695 -1.12763,0.596695 -0.29353,0 -0.51303,0.04274 -0.48777,0.09497 0.0253,0.05223 0.24616,0.505364 0.4909,1.006961 0.24473,0.501598 0.47489,1.028662 0.51144,1.171253 0.0584,0.227571 0.16467,0.259259 0.86983,0.259259 0.58154,0 0.84841,0.05537 0.96653,0.200546 0.3029,0.372256 -0.013,0.615858 -0.88921,0.685808 l -0.79309,0.06331 -0.0944,0.67349 c -0.052,0.370418 -0.15022,0.779777 -0.21839,0.909685 -0.18249,0.347794 -0.15184,0.506088 0.098,0.506088 0.12206,0 0.49,0.277606 0.81765,0.616901 0.43786,0.453422 0.58467,0.696696 0.55398,0.91801 -0.0683,0.492644 -0.47972,0.43784 -1.03028,-0.137247 -0.63186,-0.659996 -1.02065,-0.673651 -1.72289,-0.06051 -0.6091,0.531811 -1.81524,1.150184 -2.47157,1.267137 l -0.46554,0.08295 z m -15.65162,3.351131 -0.36289,-0.370125 V 34.346687 24.197446 l 0.36289,-0.370126 0.36288,-0.370126 h 8.25817 8.25816 l 0.34832,0.305426 0.34832,0.305426 0.0365,3.619856 0.0365,3.619856 h -0.44394 c -0.24417,0 -0.63767,0.08256 -0.87446,0.183472 l -0.43051,0.183473 V 28.388991 25.10328 h -7.26239 -7.2624 v 9.180096 9.180095 h 3.46904 3.46904 l -0.25317,0.583746 c -0.13924,0.321062 -0.22764,0.719921 -0.19645,0.886354 l 0.0567,0.302608 h -3.77871 -3.77871 z m 3.05348,-5.325357 -0.60896,-0.630604 0.29511,-0.320401 0.29511,-0.320399 0.35157,0.343552 0.35157,0.343552 0.71842,-0.725111 0.71841,-0.725112 0.29751,0.323008 0.29751,0.323006 -0.98399,1.009556 c -0.5412,0.555255 -1.01533,1.009556 -1.05364,1.009556 -0.0383,0 -0.34369,-0.283771 -0.67862,-0.630603 z m 3.53567,-0.572306 v -0.569799 h 1.28831 c 0.93932,0 1.32654,0.04699 1.42944,0.173457 0.11409,0.140208 0.0516,0.188227 -0.32619,0.250515 -0.25703,0.04238 -0.67386,0.220735 -0.92629,0.396342 -0.30442,0.211782 -0.62836,0.319284 -0.96211,0.319284 h -0.50316 z m 6.14171,-3.070584 c 0.10536,-0.579628 0.46962,-1.205342 0.90505,-1.554697 l 0.32528,-0.260974 -0.33414,-0.316025 c -0.40045,-0.378731 -0.43231,-0.763423 -0.0729,-0.879787 0.19704,-0.06379 0.37385,0.02752 0.71906,0.371334 0.41154,0.409879 0.52566,0.45592 1.13008,0.45592 0.60557,0 0.71819,-0.04568 1.13434,-0.460152 0.29761,-0.29641 0.53239,-0.432605 0.6598,-0.382738 0.36161,0.141531 0.36298,0.462787 0.004,0.845372 l -0.34494,0.36723 0.37245,0.354869 c 0.42544,0.405352 0.71303,0.927546 0.83874,1.522959 l 0.0869,0.411522 h -2.75484 -2.75483 l 0.0863,-0.474833 z m -9.67738,-1.421991 -0.60896,-0.630603 0.29511,-0.3204 0.29511,-0.3204 0.35157,0.343552 0.35157,0.343552 0.71842,-0.725111 0.71841,-0.725111 0.29751,0.323006 0.29751,0.323007 -0.98399,1.009556 c -0.5412,0.555256 -1.01533,1.009556 -1.05364,1.009556 -0.0383,0 -0.34369,-0.283771 -0.67862,-0.630604 z m 3.53567,-0.572305 v -0.569799 h 2.59254 2.59254 l 0.0636,0.339397 c 0.035,0.186669 1.3e-4,0.443078 -0.0775,0.569799 -0.12886,0.210471 -0.35863,0.230402 -2.65615,0.230402 h -2.51508 z m -3.59983,-3.924929 -0.29457,-0.319808 0.39368,-0.414276 0.39367,-0.414275 -0.39573,-0.403632 -0.39573,-0.403632 0.29662,-0.322045 0.29662,-0.322044 0.4112,0.406508 0.4112,0.406509 0.4112,-0.406509 0.41121,-0.406508 0.29456,0.319808 0.29456,0.319808 -0.39367,0.414276 -0.39367,0.414275 0.39573,0.403632 0.39573,0.403632 -0.29662,0.322045 -0.29662,0.322044 -0.41121,-0.406508 -0.4112,-0.406509 -0.4112,0.406509 -0.4112,0.406508 z m 3.59983,-1.139952 V 28.26883 h 3.35188 3.35187 v 0.569799 0.569799 h -3.35187 -3.35188 z"
         style="fill:#000000;stroke-width:0.1253766" />
    </g>
    <g
       id="g5531"
       transform="translate(-74.039764,-98.918975)">
      <rect
         style="fill:#00ffff;stroke:#00ffff;stroke-width:0.49022451"
         y="22.085537"
         x="-10.806243"
         height="24.834175"
         width="24.338467"
         id="rect3853" />
      <path
         inkscape:connector-curvature="0"
         id="path3799"
         d="M 9.2502208,44.397753 C 9.1362829,44.370648 8.956798,44.293781 8.8513655,44.226929 8.745933,44.160079 7.7271586,43.149409 6.5874117,41.980998 l -2.0722575,-2.124383 -0.4381506,0.19546 c -0.6539988,0.291749 -1.1321317,0.403095 -1.8592153,0.432976 -0.6966712,0.02863 -1.1355088,-0.02582 -1.72281884,-0.213776 -0.79024054,-0.252891 -1.4836024,-0.685328 -2.06609376,-1.288579 -0.6575887,-0.681024 -1.1306706,-1.544319 -1.363849,-2.48878 -0.1345484,-0.544961 -0.1257333,-1.895586 0.015966,-2.446749 0.3000801,-1.167246 0.9679837,-2.199286 1.8889602,-2.918811 0.39391072,-0.307743 1.13405728,-0.680006 1.65154351,-0.830664 1.75986919,-0.512352 3.66181489,-0.0082 4.94424789,1.310606 0.5307233,0.545771 0.8742401,1.082698 1.1405694,1.782755 0.515222,1.354267 0.4734012,2.788123 -0.1202565,4.12332 l -0.1714536,0.385617 2.1153362,2.179398 c 1.4408618,1.484501 2.1479162,2.246734 2.2175172,2.390582 0.143499,0.296555 0.169857,0.651348 0.07364,0.991503 -0.185765,0.656964 -0.9158484,1.092101 -1.570902,0.93628 z M 2.5784127,38.999889 c 0.7590056,-0.126612 1.4323279,-0.489972 1.9989018,-1.078709 0.7133336,-0.741228 1.0541508,-1.584813 1.0541508,-2.609184 0,-1.011804 -0.3724198,-1.944215 -1.0581374,-2.64919 -0.7030962,-0.722846 -1.577975,-1.090412 -2.5916016,-1.088821 -1.03564979,0.0016 -1.91642135,0.400902 -2.64415327,1.198665 -1.75765333,1.926795 -1.03350163,5.092542 1.37796668,6.023998 0.63291429,0.244469 1.22710419,0.309296 1.86287299,0.203241 z m -12.28963,2.803771 c -0.4013327,-0.125509 -0.7152007,-0.407175 -0.8420077,-0.755633 -0.09521,-0.261734 -0.09618,-0.328102 -0.09618,-7.03177 0,-7.439597 -0.01693,-7.000259 0.283804,-7.375324 0.184497,-0.230113 0.5782336,-0.424504 0.9253693,-0.456865 l 0.2760056,-0.02572 0.054187,-0.208433 c 0.060186,-0.231369 0.2648198,-0.497485 0.4950083,-0.643744 0.2113197,-0.134273 1.2285362,-0.41337 2.1183261,-0.581213 1.2132865,-0.228866 1.9875515,-0.301018 3.2142687,-0.299533 1.4861472,0.0017 2.75950395,0.149159 4.02668721,0.465994 0.59694759,0.149257 0.65651469,0.149408 1.22024369,0.0031 1.6536626,-0.429133 4.0984753,-0.593109 5.8270322,-0.390822 1.3532535,0.158365 3.1889659,0.573375 3.5494929,0.802456 0.230189,0.146259 0.434822,0.412376 0.495009,0.643745 l 0.05419,0.208433 0.276005,0.02573 c 0.347136,0.03237 0.740873,0.226753 0.92537,0.456864 0.300709,0.375066 0.283804,-0.06428 0.283804,7.375325 0,6.703669 -9e-4,6.770036 -0.09618,7.03177 -0.103555,0.284567 -0.291758,0.487025 -0.620732,0.667746 -0.181149,0.09952 -0.260417,0.10884 -0.925427,0.10884 h -0.727316 l -1.3138614,-1.36819 -1.3138619,-1.368189 0.4223106,0.03471 c 0.2322688,0.01909 0.6651458,0.07298 0.9619363,0.119744 0.2967904,0.04677 0.5554564,0.0757 0.5748084,0.06429 0.01935,-0.01141 0.03522,-2.688096 0.03522,-5.948195 v -5.92745 l -0.258076,-0.05167 C 8.7794129,27.112473 8.2455157,27.064169 6.6184047,27.063388 c -0.9300237,-4.34e-4 -1.6607843,0.02247 -1.9707922,0.06181 -0.5727473,0.07268 -1.6284947,0.241576 -1.7478997,0.279625 -0.074701,0.0238 -0.082151,0.115191 -0.082151,1.010946 v 0.98478 l -0.2228926,-0.03526 c -0.1225885,-0.01939 -0.5712959,-0.03352 -0.9971286,-0.03139 -0.62664409,0.0031 -0.85320389,0.02383 -1.18852493,0.108543 -0.22785649,0.05757 -0.43372853,0.104669 -0.4575031,0.104669 -0.0250615,0 -0.0432529,-0.445317 -0.0432529,-1.058064 0,-0.965551 -0.006773,-1.060353 -0.0821514,-1.084232 -0.119405,-0.03805 -1.17516207,-0.206947 -1.74789967,-0.279625 -0.3100079,-0.03933 -1.0407782,-0.06225 -1.9707923,-0.06181 -1.6271109,7.81e-4 -2.1610178,0.04909 -3.495809,0.316282 l -0.2580755,0.05167 v 5.92745 c 0,3.260098 0.015869,5.937062 0.035222,5.948809 0.019353,0.01175 0.2146678,-0.0084 0.4340382,-0.04476 0.8599386,-0.142564 1.8121016,-0.221207 2.989915,-0.246946 l 1.2302877,-0.02689 0.4824291,0.503386 c 1.63514225,1.706183 3.8992896,2.241011 6.1509255,1.45295 l 0.3661302,-0.128143 0.5016849,0.515772 0.5016752,0.515773 -7.3198077,-0.0042 c -4.0258937,-0.0022 -7.3727271,-0.02069 -7.4374129,-0.04092 z"
         style="fill:#000000;stroke-width:0.04757804" />
    </g>
    <g
       id="g3863"
       transform="translate(-234.96352,-99.034438)">
      <rect
         style="fill:#00ffff;stroke:#00ffff;stroke-width:0.49022451"
         y="22.200998"
         x="100.46011"
         height="24.834175"
         width="24.338467"
         id="rect3859" />
      <path
         inkscape:connector-curvature="0"
         id="path3797"
         d="m 108.08801,45.611944 c -3.0684,-0.298434 -5.77555,-1.249206 -6.99567,-2.456932 -0.90862,-0.899396 -0.8517,-0.383431 -0.8517,-7.720666 v -6.528068 l 0.30804,-0.534511 c 0.7871,-1.36573 3.15709,-2.4637 6.42329,-2.975779 1.68755,-0.264576 4.99272,-0.260298 6.6076,0.0086 l 1.20047,0.199856 0.45895,-0.459426 c 0.25243,-0.252684 0.53157,-0.459296 0.62031,-0.459137 0.0887,1.58e-4 0.44937,0.17743 0.80139,0.393935 0.95223,0.585661 1.02779,0.54941 1.29095,-0.61933 0.0767,-0.340472 0.18862,-0.682352 0.24879,-0.759732 0.15641,-0.20113 1.78338,-0.190505 1.98285,0.01295 0.0828,0.0845 0.21927,0.489106 0.30316,0.899118 0.19423,0.949353 0.34342,1.008112 1.20467,0.474484 0.35659,-0.220943 0.7149,-0.401714 0.79623,-0.401714 0.19742,0 1.42332,1.244527 1.42332,1.444941 0,0.0867 -0.17724,0.455211 -0.39385,0.818921 -0.52319,0.878447 -0.46558,1.030608 0.46519,1.228719 0.40199,0.08556 0.79867,0.224705 0.88152,0.309208 0.19947,0.203455 0.20989,1.862905 0.0127,2.02244 -0.0759,0.06138 -0.41105,0.175569 -0.74486,0.253761 -1.14586,0.268407 -1.1814,0.345477 -0.60721,1.316726 0.21227,0.359048 0.38607,0.733741 0.38623,0.83265 3.3e-4,0.181588 -1.22996,1.455572 -1.39849,1.448208 -0.05,-0.0022 -0.40973,-0.201968 -0.79934,-0.44396 -0.51062,-0.317147 -0.75904,-0.412342 -0.88979,-0.34097 -0.35011,0.191114 -0.44329,1.140875 -0.44329,4.518172 0,2.120529 -0.0453,3.4467 -0.12947,3.790073 -0.0998,0.407068 -0.28324,0.685435 -0.80003,1.2139 -1.07396,1.098207 -2.81348,1.828582 -5.43504,2.282027 -1.58753,0.274591 -4.3678,0.383225 -5.92692,0.231583 z m 5.72893,-0.936335 c 2.85972,-0.49848 5.08464,-1.568596 5.61025,-2.698351 0.13105,-0.281693 0.17983,-0.710064 0.17983,-1.579457 0,-0.656114 -0.0244,-1.192933 -0.0542,-1.192933 -0.0298,0 -0.28193,0.177284 -0.56024,0.393964 -0.75675,0.589166 -1.26149,0.656456 -1.26149,0.168174 0,-0.13289 0.22923,-0.367639 0.61212,-0.626864 0.33668,-0.227931 0.74635,-0.593704 0.91039,-0.812832 0.27671,-0.369622 0.30094,-0.490587 0.33534,-1.673827 0.0265,-0.911722 7.2e-4,-1.275414 -0.0905,-1.275414 -0.0701,0 -0.33512,0.145133 -0.58883,0.322518 -1.09783,0.767577 -2.82945,1.414908 -4.70975,1.76064 -1.56181,0.287172 -5.20577,0.352519 -6.90909,0.123901 -2.51844,-0.338021 -4.90926,-1.180574 -5.921,-2.086634 l -0.41187,-0.368849 v 1.311607 c 0,1.503682 0.0786,1.737014 0.79714,2.366625 1.00891,0.884036 2.99384,1.604268 5.39145,1.956294 1.44895,0.21274 1.77345,0.385137 1.41435,0.751401 -0.14994,0.15294 -0.30392,0.160182 -1.1568,0.0544 -2.61307,-0.324081 -5.08114,-1.220438 -6.14268,-2.230914 l -0.30346,-0.288862 v 1.321005 c 0,0.927607 0.0472,1.414035 0.15838,1.633394 0.60619,1.19566 3.15193,2.349258 5.96603,2.7035 0.54623,0.06876 1.11729,0.146685 1.26902,0.173166 0.60789,0.106092 4.52207,-0.04119 5.4656,-0.205656 z m -3.73425,-3.011892 c -0.26336,-0.150322 -0.26822,-1.308382 -0.006,-1.411042 0.28183,-0.110311 0.53331,0.121067 0.57246,0.52672 0.0714,0.739965 -0.16712,1.112315 -0.56654,0.884322 z m 1.84529,-0.136793 c -0.0319,-0.08476 -0.0427,-0.426639 -0.0241,-0.759732 0.0314,-0.561756 0.0538,-0.605625 0.30973,-0.605625 0.25934,0 0.27789,0.03985 0.30948,0.664877 0.023,0.455722 -0.0117,0.694174 -0.11035,0.758009 -0.21589,0.139666 -0.41965,0.115484 -0.48474,-0.05753 z m 1.89977,-0.355497 c -0.0994,-0.264292 -0.0823,-0.983474 0.0277,-1.160398 0.0515,-0.0828 0.21208,-0.133445 0.35695,-0.112553 0.24422,0.03522 0.26339,0.08714 0.26339,0.713303 0,0.644998 -0.013,0.676853 -0.28936,0.709544 -0.18856,0.0223 -0.3135,-0.02992 -0.35864,-0.149896 z m 1.96214,-0.433258 c -0.0321,-0.08525 -0.0429,-0.4018 -0.0241,-0.703456 0.0312,-0.500694 0.0582,-0.548463 0.31006,-0.548463 0.26133,0 0.2776,0.03707 0.30873,0.703455 0.0322,0.689732 0.0273,0.703456 -0.25176,0.703456 -0.15653,0 -0.31084,-0.06975 -0.34291,-0.154992 z m -2.16262,-3.96246 c 2.05227,-0.308132 4.63239,-1.228636 4.49174,-1.602505 -0.0346,-0.09192 -0.14122,-0.48523 -0.23697,-0.874034 -0.0957,-0.388804 -0.24105,-0.733119 -0.32287,-0.765146 -0.0818,-0.03203 -0.50135,0.149971 -0.93227,0.404438 l -0.7835,0.462667 -0.5183,-0.515752 -0.5183,-0.515752 -0.8828,0.17743 c -1.35815,0.272968 -5.92319,0.265882 -7.39343,-0.01148 -2.23428,-0.421494 -4.00597,-1.091539 -5.0485,-1.909319 l -0.52416,-0.411161 v 1.248467 c 0,0.922232 0.0471,1.349768 0.18036,1.636138 0.50091,1.076667 2.66492,2.122666 5.44748,2.6331 1.92962,0.353972 4.85113,0.371774 7.04152,0.04291 z m 6.21348,-2.905349 c 0.20464,-0.829587 0.23464,-0.867212 0.8591,-1.077417 0.38338,-0.129053 0.44503,-0.11367 1.06078,0.264658 l 0.65375,0.401674 0.30674,-0.299742 c 0.1687,-0.164859 0.30674,-0.338379 0.30674,-0.385601 0,-0.04722 -0.17023,-0.374087 -0.37829,-0.726366 l -0.37828,-0.640507 0.19838,-0.515134 c 0.16407,-0.426005 0.26293,-0.531565 0.5714,-0.610095 1.29145,-0.328775 1.20063,-0.26832 1.20063,-0.799215 v -0.484239 l -0.63451,-0.14296 c -0.83663,-0.188498 -0.89536,-0.228278 -1.13157,-0.766409 -0.20105,-0.45802 -0.20083,-0.46117 0.0672,-0.946668 0.56101,-1.016224 0.55356,-0.974878 0.23424,-1.300569 -0.31931,-0.325691 -0.27877,-0.333287 -1.27511,0.238925 -0.47599,0.273373 -0.47908,0.273601 -0.92813,0.06854 -0.5276,-0.240928 -0.5666,-0.300834 -0.75141,-1.154169 l -0.14016,-0.647179 h -0.47476 c -0.52051,0 -0.46123,-0.09263 -0.78357,1.224605 -0.077,0.31463 -0.18049,0.415468 -0.59816,0.582804 l -0.50505,0.202347 -0.62797,-0.385837 c -0.34538,-0.21221 -0.66585,-0.385837 -0.71215,-0.385837 -0.0463,0 -0.21642,0.140789 -0.37805,0.312864 l -0.29387,0.312863 0.39381,0.666799 c 0.37092,0.628041 0.386,0.690929 0.25948,1.081962 -0.20609,0.636929 -0.24298,0.667529 -1.05633,0.876251 l -0.76093,0.195269 -0.0333,0.458229 -0.0333,0.45823 0.78252,0.195593 c 0.7232,0.180768 0.7989,0.228375 0.99884,0.628105 0.28573,0.571264 0.2803,0.613693 -0.17767,1.388369 l -0.39344,0.665508 0.32058,0.326975 0.32057,0.326976 0.65248,-0.401291 c 0.75952,-0.467118 0.80111,-0.472656 1.3612,-0.181219 0.3919,0.203927 0.43858,0.281145 0.61581,1.018786 l 0.19176,0.798134 0.44926,-0.03395 0.44926,-0.03395 z m -1.55211,-2.681897 c -1.57529,-0.860595 -1.17602,-3.285347 0.59683,-3.624576 0.89328,-0.170925 1.91716,0.49361 2.15632,1.399533 0.43848,1.660896 -1.26531,3.037865 -2.75315,2.225043 z m 1.69179,-0.836625 c 0.49755,-0.507484 0.51428,-1.181154 0.0422,-1.697081 -0.25138,-0.274702 -0.82133,-0.429951 -1.16728,-0.317959 -0.80968,0.262114 -1.0726,1.371062 -0.47063,1.985049 0.44452,0.453392 1.16732,0.466976 1.59575,0.02999 z m -6.88405,2.537553 c 1.38324,-0.166581 1.38133,-0.165629 1.81003,-0.899673 0.42671,-0.730619 0.42166,-0.944517 -0.0248,-1.052075 -0.16251,-0.03915 -0.55618,-0.146432 -0.87481,-0.238408 l -0.57934,-0.167228 v -1.005872 c 0,-1.147087 -0.0194,-1.121443 1.027,-1.357892 0.87026,-0.196647 0.92726,-0.352449 0.43832,-1.197993 l -0.39587,-0.684593 -1.05888,-0.152877 c -1.37426,-0.198409 -5.17524,-0.199683 -6.40605,-0.0021 -1.572,0.252292 -2.97565,0.666826 -4.03091,1.19043 -2.06119,1.022727 -2.58278,2.24363 -1.44175,3.374726 1.85593,1.83977 6.74936,2.770182 11.53709,2.193603 z m -7.58814,-4.912216 c -0.075,-0.02549 -0.13634,-0.17001 -0.13634,-0.321144 0,-0.347506 0.19089,-0.422722 1.67541,-0.660157 1.45267,-0.23234 2.22415,-0.200731 2.27895,0.09337 0.0621,0.333409 -0.0864,0.395981 -1.25299,0.527776 -0.60572,0.06843 -1.39996,0.18789 -1.76499,0.265463 -0.36503,0.07757 -0.72505,0.120182 -0.80004,0.09469 z m 4.93579,-0.651496 c -0.1099,-0.135069 -0.11774,-0.231836 -0.03,-0.370373 0.0961,-0.151703 0.26333,-0.1804 0.87546,-0.1502 0.74951,0.03698 0.95061,0.142371 0.89522,0.469155 -0.0438,0.258238 -1.53649,0.302332 -1.74066,0.05142 z"
         style="fill:#000000;stroke-width:0.11144587" />
    </g>
    <g
       id="g5047"
       transform="translate(-234.84095,-73.587483)">
      <rect
         style="fill:#00ffff;stroke:#00ffff;stroke-width:0.49022451"
         y="22.078444"
         x="100.33755"
         height="24.834175"
         width="24.338467"
         id="rect5036" />
      <text
         id="text3867"
         y="44.511883"
         x="106.29817"
         style="font-style:normal;font-weight:normal;font-size:31.31831551px;line-height:1.25;font-family:sans-serif;letter-spacing:0px;word-spacing:0px;fill:#000000;fill-opacity:1;stroke:none;stroke-width:0.78295791"
         xml:space="preserve"><tspan
           style="font-style:normal;font-variant:normal;font-weight:normal;font-stretch:normal;font-family:Ani;-inkscape-font-specification:Ani;stroke-width:0.78295791"
           y="44.511883"
           x="106.29817"
           id="tspan3865"
           sodipodi:role="line">&lt;</tspan></text>
    </g>
    <g
       id="g5054"
       transform="translate(-210.01226,-73.587483)">
      <rect
         style="fill:#00ffff;stroke:#00ffff;stroke-width:0.49022451"
         y="22.078444"
         x="100.33755"
         height="24.834175"
         width="24.338467"
         id="rect5049" />
      <text
         id="text3871"
         y="44.358959"
         x="100.64008"
         style="font-style:normal;font-weight:normal;font-size:31.31830215px;line-height:1.25;font-family:sans-serif;letter-spacing:0px;word-spacing:0px;fill:#000000;fill-opacity:1;stroke:none;stroke-width:0.78295755"
         xml:space="preserve"><tspan
           style="font-style:normal;font-variant:normal;font-weight:normal;font-stretch:normal;font-family:Ani;-inkscape-font-specification:Ani;stroke-width:0.78295755"
           y="44.358959"
           x="100.64008"
           id="tspan3869"
           sodipodi:role="line">&gt;</tspan></text>
    </g>
    <g
       id="g5061"
       transform="translate(-185.18357,-73.587483)">
      <rect
         style="fill:#00ffff;stroke:#00ffff;stroke-width:0.49022451"
         y="22.078444"
         x="100.33755"
         height="24.834175"
         width="24.338467"
         id="rect5056" />
      <text
         id="text3875"
         y="44.511879"
         x="103.11435"
         style="font-style:normal;font-weight:normal;font-size:27.47955132px;line-height:1.25;font-family:sans-serif;letter-spacing:0px;word-spacing:0px;fill:#000000;fill-opacity:1;stroke:none;stroke-width:0.68698877"
         xml:space="preserve"><tspan
           style="stroke-width:0.68698877"
           y="44.511879"
           x="103.11435"
           id="tspan3873"
           sodipodi:role="line">X</tspan></text>
    </g>
    <g
       id="g5445"
       transform="translate(-160.35488,-73.587483)">
      <rect
         style="fill:#00ffff;stroke:#00ffff;stroke-width:0.49022451"
         y="22.078444"
         x="100.33755"
         height="24.834175"
         width="24.338467"
         id="rect5063" />
      <path
         transform="scale(-1,1)"
         d="m -110.03004,26.815799 c 4.39225,1.349165 6.93554,6.147625 5.58638,10.539869 -1.34916,4.392245 -6.14762,6.93554 -10.53987,5.586376 -4.39224,-1.349165 -6.93554,-6.147625 -5.58637,-10.539869 0.78609,-2.55915 2.79501,-4.633983 5.32746,-5.502251"
         sodipodi:t0="0"
         sodipodi:argument="-7.5559602"
         sodipodi:radius="8.4349403"
         sodipodi:revolution="0.89999998"
         sodipodi:expansion="0"
         sodipodi:cy="34.878922"
         sodipodi:cx="-112.50678"
         id="path3879"
         style="fill:none;fill-rule:evenodd;stroke:#000000;stroke-width:2.41254735;stroke-miterlimit:4;stroke-dasharray:none;marker-start:url(#TriangleInS)"
         sodipodi:type="spiral" />
    </g>
    <g
       id="g5452"
       transform="translate(-135.52619,-73.587483)">
      <rect
         style="fill:#00ffff;stroke:#00ffff;stroke-width:0.49022451"
         y="22.078444"
         x="100.33755"
         height="24.834175"
         width="24.338467"
         id="rect5447" />
      <text
         id="text5034"
         y="44.511879"
         x="99.120438"
         style="font-style:normal;font-weight:normal;font-size:31.95247269px;line-height:1.25;font-family:sans-serif;letter-spacing:0px;word-spacing:0px;fill:#000000;fill-opacity:1;stroke:none;stroke-width:0.79881179"
         xml:space="preserve"><tspan
           style="stroke-width:0.79881179"
           y="44.511879"
           x="99.120438"
           id="tspan5032"
           sodipodi:role="line">+</tspan></text>
    </g>
    <g
       id="g5473"
       transform="translate(-110.94261,-73.832594)">
      <rect
         style="fill:#00ffff;stroke:#00ffff;stroke-width:0.49022451"
         y="22.323555"
         x="100.58266"
         height="24.834175"
         width="24.338467"
         id="rect5454" />
      <path
         inkscape:connector-curvature="0"
         id="path5467"
         d="M 102.63097,34.740642 V 24.417663 h 5.81467 5.81465 l 0.49409,0.479282 c 0.27174,0.263604 1.24021,1.197922 2.15216,2.076262 l 1.65807,1.596983 v 0.673019 0.673021 h -2.88266 -2.88267 l 0.006,-2.059329 0.006,-2.059329 h -4.36402 -4.36399 v 8.94307 8.94307 h 6.51528 6.51529 l 0.006,-2.059329 0.006,-2.059329 h 0.72011 0.72013 v 2.749284 2.749282 h -7.96676 -7.96683 z m 13.68132,-6.372258 c -0.0959,-0.09816 -0.59563,-0.58544 -1.11058,-1.082845 l -0.9363,-0.904374 v 1.082846 1.082844 h 1.11059 1.11058 z m -6.50121,13.980025 c 0,-0.02572 0.46059,-1.362092 1.05373,-3.05729 l 0.49757,-1.422103 2.15512,-2.04521 c 2.57643,-2.445031 4.90599,-4.63878 5.61049,-5.283403 0.508,-0.464821 0.51409,-0.469518 0.68926,-0.530771 0.15564,-0.05443 0.2045,-0.06161 0.40942,-0.06018 0.44424,0.0031 0.64117,0.08797 1.06809,0.460321 0.52633,0.459042 1.40277,1.344006 1.4887,1.503167 0.054,0.100144 0.0859,0.302319 0.0887,0.563053 0.002,0.245496 6.1e-4,0.256894 -0.0692,0.389745 -0.17811,0.338856 -0.50941,0.667442 -4.64581,4.60777 l -3.58761,3.417553 -1.29888,0.410469 c -1.86804,0.59033 -3.39812,1.065477 -3.4311,1.065477 -0.0156,0 -0.0284,-0.0084 -0.0284,-0.0186 z m 2.58599,-2.225919 c 0.14392,-0.04102 0.37005,-0.108536 0.5025,-0.150034 l 0.24081,-0.07545 -0.35136,-0.334515 c -0.19325,-0.183984 -0.35813,-0.334515 -0.36641,-0.334515 -0.0165,0 -0.13359,0.328525 -0.23937,0.671627 -0.0629,0.204056 -0.081,0.297469 -0.0576,0.297469 0.006,0 0.12755,-0.03356 0.27148,-0.07458 z m 3.31321,-2.272533 c 0.72278,-0.676802 1.90005,-1.788415 2.61615,-2.470252 l 1.30199,-1.239703 -0.56382,-0.535686 -0.56381,-0.535687 -1.72434,1.624417 c -2.73732,2.578705 -3.51569,3.326583 -3.49556,3.358629 0.0761,0.121111 1.04098,1.028831 1.09368,1.028831 0.0118,0 0.61291,-0.553746 1.33571,-1.230549 z m 5.33638,-5.058078 0.36519,-0.347649 -0.53165,-0.506906 c -0.2924,-0.278798 -0.55047,-0.516821 -0.57347,-0.528937 -0.0363,-0.01911 -0.0921,0.0257 -0.42106,0.338505 l -0.37923,0.360536 0.27681,0.247441 c 0.15225,0.136093 0.41012,0.368315 0.57306,0.516049 0.16294,0.147735 0.30275,0.268609 0.3107,0.268609 0.008,0 0.1788,-0.156442 0.37965,-0.347648 z m -15.51261,8.827237 v -0.684687 h 1.44044 1.44046 v 0.684687 0.684687 h -1.44046 -1.44044 z m 0,-2.749283 v -0.695221 h 2.17175 2.17177 v 0.695221 0.695221 h -2.17177 -2.17175 z m 0,-2.749283 v -0.684688 h 2.89198 2.89199 v 0.684688 0.684688 h -2.89199 -2.89198 z m 0,-2.759816 v -0.684688 h 4.34352 4.34352 v 0.684688 0.684687 h -4.34352 -4.34352 z"
         style="fill:#000000;stroke-width:0.02160715" />
    </g>
    <g
       aria-label="P"
       transform="scale(0.86464135,1.1565489)"
       style="font-style:normal;font-weight:normal;font-size:23.00613403px;line-height:1.25;font-family:sans-serif;letter-spacing:0px;word-spacing:0px;fill:#000000;fill-opacity:1;stroke:none;stroke-width:0.57515335"
       id="text5477" />
    <g
       aria-label="T"
       transform="matrix(0,1.0169223,-0.98335925,0,0,0)"
       style="font-style:normal;font-weight:normal;font-size:24.26874733px;line-height:1.25;font-family:sans-serif;letter-spacing:0px;word-spacing:0px;fill:#000000;fill-opacity:1;stroke:none;stroke-width:0.60671866"
       id="text5481" />
    <g
       aria-label="O"
       transform="scale(0.87105933,1.1480274)"
       style="font-style:normal;font-weight:normal;font-size:23.0468998px;line-height:1.25;font-family:sans-serif;letter-spacing:0px;word-spacing:0px;fill:#000000;fill-opacity:1;stroke:none;stroke-width:0.57617253"
       id="text5485" />
    <g
       id="g5527"
       transform="translate(-210.25737,-99.156994)">
      <rect
         style="fill:#00ffff;stroke:#00ffff;stroke-width:0.49022451"
         y="22.323555"
         x="100.58266"
         height="24.834175"
         width="24.338467"
         id="rect5491" />
      <g
         id="text5489"
         style="font-style:normal;font-weight:normal;font-size:23.48455048px;line-height:1.25;font-family:sans-serif;letter-spacing:0px;word-spacing:0px;fill:#000000;fill-opacity:1;stroke:none;stroke-width:0.58711374"
         transform="matrix(0.81926162,0,0,1.0516551,8.0940405,2.4711403)"
         aria-label="L">
        <path
           sodipodi:nodetypes="cccccccscscscscsscscscscscccccccccccsssssccscscscccc"
           inkscape:connector-curvature="0"
           d="m 131.15896,21.551561 h 2.31635 v 15.713456 h 8.33655 v 1.949401 h -10.6529 z m -7.6631,1.870052 c -1.62887,0 -2.92457,0.62335 -3.88709,1.87005 -0.95511,1.246701 -1.43266,2.94571 -1.43266,5.097028 0,2.143716 0.47755,3.838924 1.43266,5.085625 0.96252,1.2467 2.25822,1.87005 3.88709,1.87005 1.62887,0 2.91715,-0.62335 3.86486,-1.87005 0.95512,-1.246701 1.43268,-2.941909 1.43268,-5.085625 0,-2.151318 -0.47756,-3.850327 -1.43268,-5.097028 -0.94771,-1.2467 -2.23599,-1.87005 -3.86486,-1.87005 z m 0,-1.870051 c 2.32485,0 4.18324,0.801993 5.57518,2.40598 1.39195,1.596385 2.08793,3.740101 2.08793,6.431149 0,2.683447 -0.69598,4.827163 -2.08793,6.431149 -1.39194,1.596385 -3.25033,2.394577 -5.57518,2.394577 -2.33225,0 -4.19805,-0.798192 -5.5974,-2.394577 -1.39195,-1.596385 -2.08792,-3.740101 -2.08792,-6.431149 0,-2.691048 0.69597,-4.834764 2.08792,-6.431149 1.39935,-1.603987 3.26515,-2.40598 5.5974,-2.40598 z m 9.89666,2.515174 v 13.975843 h -2.24441 v -6.179628 h -17.46686 v -2.159116 h 17.46686 v -5.637099 z m -0.0106,-0.611641 v 6.433024 h 2.79518 c 1.03443,0 1.83409,-0.279032 2.399,-0.837095 0.56491,-0.558064 0.84736,-1.353114 0.84736,-2.38515 0,-1.024391 -0.28245,-1.815619 -0.84736,-2.373683 -0.56491,-0.558064 -1.36457,-0.837096 -2.399,-0.837096 z m -2.22293,-1.903533 h 5.01811 c 1.84143,0 3.23168,0.435748 4.17074,1.307245 0.94639,0.863853 1.41959,2.132876 1.41959,3.807067 0,1.689481 -0.4732,2.966148 -1.41959,3.83 -0.93906,0.863852 -2.32931,1.295778 -4.17074,1.295778 h -2.79518 v 7.422769 h -2.22293 z"
           style="stroke-width:0.58711374"
           id="path5520" />
      </g>
    </g>
    <g
       id="g118"
       transform="translate(-86.113907,-73.832594)">
      <rect
         id="rect3823"
         width="24.338467"
         height="24.834175"
         x="100.58265"
         y="22.323555"
         style="fill:#00ffff;stroke:#00ffff;stroke-width:0.49022451" />
      <path
         inkscape:connector-curvature="0"
         id="path114"
         d="m 102.63106,42.912406 v -2.151212 h 0.84224 0.84225 v 1.292147 1.292147 h 1.26684 1.26685 v 0.859065 0.859065 h -2.10908 -2.1091 z m 16.02356,1.292147 v -0.859065 h 1.26685 1.26685 v -1.292147 -1.292147 h 0.84224 0.84225 v 2.151212 2.151212 h -2.1091 -2.10909 z M 105.69377,38.16142 c -0.46558,-0.06112 -0.92282,-0.262345 -1.28756,-0.566629 -0.14413,-0.120238 -0.3631,-0.358885 -0.4696,-0.511812 -0.18781,-0.269651 -0.33354,-0.606602 -0.40582,-0.938253 -0.0609,-0.279718 -0.0673,-0.437098 -0.0611,-1.524779 0.007,-1.075096 0.007,-1.085128 0.0801,-1.37688 0.2129,-0.846248 0.85576,-1.544067 1.67404,-1.817137 0.29027,-0.09687 0.40952,-0.114446 0.77634,-0.114446 0.28756,0 0.34569,0.0039 0.48029,0.03262 0.95101,0.202602 1.71404,0.927394 1.96129,1.862999 0.0825,0.312325 0.0829,0.318203 0.0887,1.427041 0.007,1.26304 -0.002,1.377298 -0.13447,1.781385 -0.18713,0.570851 -0.57917,1.067865 -1.10125,1.396125 -0.28124,0.176824 -0.64974,0.30567 -1.00186,0.350294 -0.13571,0.0172 -0.46618,0.0169 -0.59899,-5.27e-4 z m 0.58439,-1.749841 c 0.12635,-0.0454 0.27184,-0.144249 0.35655,-0.24223 0.0346,-0.03996 0.0878,-0.123852 0.11842,-0.186418 0.0961,-0.196595 0.0982,-0.226666 0.0928,-1.309648 -0.004,-0.868566 -0.007,-0.954435 -0.0298,-1.025995 -0.0789,-0.244616 -0.23785,-0.437664 -0.44229,-0.53723 -0.13776,-0.0671 -0.22508,-0.08754 -0.37374,-0.08754 -0.14884,0 -0.23599,0.02045 -0.37447,0.08791 -0.23649,0.115179 -0.40894,0.352225 -0.45521,0.625714 -0.032,0.189284 -0.0216,1.969302 0.0121,2.08302 0.094,0.316186 0.31859,0.539502 0.62265,0.618959 0.12218,0.03193 0.34511,0.01942 0.47301,-0.02654 z m 6.1675,1.750723 c -0.53343,-0.07523 -1.00902,-0.300912 -1.3991,-0.663899 -0.19208,-0.178735 -0.39429,-0.442358 -0.52572,-0.685391 -0.13766,-0.254577 -0.24643,-0.609686 -0.28217,-0.921271 -0.025,-0.218074 -0.0297,-2.020036 -0.007,-2.260699 0.1118,-1.129828 0.92222,-2.04174 2.03191,-2.286349 0.12859,-0.02835 0.18633,-0.03228 0.48028,-0.03272 0.29953,-4.44e-4 0.34997,0.0029 0.48725,0.03298 0.68954,0.150714 1.26496,0.550511 1.64014,1.13957 0.24276,0.381146 0.37252,0.790758 0.40551,1.280018 l 0.007,0.110156 -0.84555,-0.0037 -0.84556,-0.0037 -0.009,-0.0923 c -0.0342,-0.343751 -0.29318,-0.644018 -0.63066,-0.731148 -0.10516,-0.02715 -0.31168,-0.02732 -0.41123,-3.29e-4 -0.19483,0.05281 -0.38756,0.192238 -0.49593,0.358766 -0.0288,0.0442 -0.0715,0.134964 -0.0949,0.20169 l -0.0426,0.121322 v 1.00816 c 0,0.938535 0.002,1.014042 0.0256,1.093354 0.1097,0.364918 0.40429,0.607298 0.76396,0.628579 0.16012,0.0095 0.26864,-0.01333 0.42195,-0.08868 0.25926,-0.127414 0.43804,-0.38418 0.46491,-0.667695 l 0.008,-0.0852 0.84583,-0.0037 0.84584,-0.0037 -0.008,0.103056 c -0.0527,0.689016 -0.27416,1.211389 -0.7082,1.669918 -0.37391,0.394998 -0.82734,0.648277 -1.35224,0.755323 -0.1712,0.03492 -0.60857,0.05046 -0.77188,0.02742 z m 4.52446,-3.422043 v -3.436644 l 1.43042,0.0041 1.43043,0.0041 0.15145,0.03275 c 0.40457,0.08748 0.78266,0.267669 1.08757,0.518308 0.1292,0.106213 0.34748,0.33293 0.4425,0.459633 0.22803,0.303994 0.39493,0.682821 0.47218,1.071753 0.0279,0.140343 0.032,0.202717 0.0319,0.48752 -1.4e-4,0.255943 -0.006,0.353457 -0.0248,0.450807 -0.10889,0.548409 -0.33056,0.975933 -0.70635,1.362347 l -0.17526,0.180222 0.44977,1.126124 c 0.24737,0.619369 0.45334,1.137307 0.4577,1.150974 0.007,0.02349 -0.0384,0.02485 -0.83385,0.02485 H 120.342 l -0.34141,-0.869715 c -0.29231,-0.744664 -0.34507,-0.868887 -0.36683,-0.863962 -0.014,0.0032 -0.24001,0.0083 -0.50225,0.0115 l -0.47681,0.0057 v 0.858216 0.858216 h -0.84225 -0.84224 z m 2.70514,-0.02061 c 0.30454,-0.06582 0.56384,-0.320663 0.64324,-0.632178 0.0328,-0.12836 0.0222,-0.368849 -0.0217,-0.496065 -0.0686,-0.198552 -0.23729,-0.391228 -0.42401,-0.484121 -0.16017,-0.07969 -0.20417,-0.08477 -0.7338,-0.08477 h -0.48432 v 0.859065 0.859065 l 0.46288,-2.48e-4 c 0.34961,-1.86e-4 0.48611,-0.0053 0.55776,-0.02075 z m -17.0442,-8.150663 v -2.151323 h 2.1092 2.1092 l -0.003,0.855516 -0.003,0.855515 -1.2633,0.0036 -1.26329,0.0036 -0.003,1.288522 -0.003,1.288522 -0.83876,0.0037 -0.83877,0.0037 z m 18.55726,0.858954 v -1.292147 h -1.26685 -1.26685 v -0.859065 -0.859065 h 2.10909 2.1091 v 2.151212 2.151212 h -0.84225 -0.84224 z"
         style="fill:#000000;stroke-width:0.01405973" />
    </g>
    <rect
       id="rect87"
       width="24.338467"
       height="24.834175"
       x="159.64143"
       y="-6.4026351"
       style="fill:#00ffff;stroke:#00ffff;stroke-width:0.49022451" />
    <text
       xml:space="preserve"
       style="font-style:normal;font-weight:normal;font-size:19.38554001px;line-height:1.25;font-family:sans-serif;letter-spacing:0px;word-spacing:0px;fill:#000000;fill-opacity:1;stroke:none;stroke-width:0.48463851"
       x="-149.88168"
       y="-70.461578"
       id="text81"
       transform="scale(0.91059155,1.0981872)"><tspan
         sodipodi:role="line"
         id="tspan79"
         x="-149.88168"
         y="-70.461578"
         style="stroke-width:0.48463851">Phaleron</tspan></text>
    <g
       id="g124"
       transform="translate(30.602361,39.088168)">
      <rect
         id="rect120"
         width="24.338467"
         height="24.834175"
         x="100.58266"
         y="22.323555"
         style="fill:#00ffff;stroke:#00ffff;stroke-width:0.49022451" />
      <path
         inkscape:connector-curvature="0"
         id="path105"
         d="m 104.16827,44.149963 c -0.93655,-0.49525 -0.94526,-0.551131 -0.90266,-5.786309 l 0.0371,-4.561553 0.31686,-0.37154 c 0.42194,-0.494754 0.99068,-0.685579 2.04336,-0.685579 h 0.87172 l 0.002,-1.641315 c 0.002,-0.993868 0.0739,-1.938475 0.18403,-2.39463 0.63115,-2.615022 3.46131,-4.485767 6.46776,-4.275222 2.22551,0.155856 4.09371,1.26921 5.1177,3.049891 0.47713,0.829722 0.64522,1.752395 0.64721,3.552904 l 0.002,1.685535 1.04563,0.03923 c 0.83159,0.03121 1.12673,0.09003 1.44191,0.287417 0.80341,0.503141 0.80777,0.533014 0.80777,5.538153 0,4.996943 4.7e-4,4.992779 -0.79696,5.518167 l -0.4071,0.268168 -8.1749,0.02809 -8.17489,0.02809 z m 9.68928,-2.787429 c 0.33047,-0.203229 0.3473,-0.496151 0.0986,-1.717493 l -0.16973,-0.833597 0.35438,-0.354351 c 1.21384,-1.213778 -0.0333,-3.070459 -1.82182,-2.712251 -1.3705,0.274485 -1.87669,1.681749 -0.96692,2.68816 l 0.36379,0.402425 -0.17806,0.877244 c -0.0979,0.482483 -0.18006,1.012105 -0.1825,1.176942 -0.007,0.452514 0.40979,0.646143 1.38976,0.646143 0.5468,0 0.92708,-0.05922 1.11248,-0.173222 z m 2.66686,-10.537057 c -0.0533,-2.127588 -0.1435,-2.410599 -1.04976,-3.291306 -0.72025,-0.699939 -1.47192,-0.965247 -2.72958,-0.963424 -0.92007,0.0013 -1.17148,0.04495 -1.72244,0.298861 -0.75418,0.347561 -1.37545,0.93064 -1.74872,1.641248 -0.22939,0.436672 -0.27196,0.763013 -0.30925,2.37026 l -0.0432,1.863866 h 3.82549 3.82551 z"
         style="fill:#000000;stroke-width:0.11875758" />
    </g>
    <rect
       style="fill:#00ffff;stroke:#00ffff;stroke-width:0.49022451"
       y="22.323555"
       x="100.58266"
       height="24.834175"
       width="24.338467"
       id="rect145" />
    <path
       style="fill:#000000;stroke-width:0.05095883"
       d="m 103.57986,44.352816 c -0.063,-0.03852 -0.1623,-0.155939 -0.22079,-0.260921 l -0.10634,-0.190879 0.0122,-5.206952 0.0123,-5.20695 0.17307,-0.19184 0.17307,-0.19184 h 5.81208 5.81208 l 0.14171,0.144244 c 0.078,0.07933 0.16396,0.23696 0.19113,0.350279 0.0338,0.141085 0.0451,1.808131 0.0356,5.288025 -0.0138,5.059295 -0.0142,5.082696 -0.11095,5.240204 -0.0534,0.08702 -0.14725,0.189371 -0.2085,0.227448 -0.16354,0.101651 -11.55059,0.100856 -11.71672,-8.69e-4 z m 6.76341,-4.019728 v -1.008957 l 0.18489,-0.202041 c 0.22325,-0.243962 0.44694,-0.784959 0.48776,-1.179652 0.0404,-0.390325 -0.0761,-0.923732 -0.28055,-1.28506 -0.69617,-1.230277 -2.22278,-1.062301 -2.74595,0.302145 -0.0996,0.259834 -0.12267,0.402937 -0.12372,0.768798 -0.002,0.395959 0.0167,0.493767 0.14973,0.820632 0.0831,0.204102 0.23423,0.462013 0.33592,0.573137 l 0.18489,0.202041 v 1.008957 1.008955 h 0.90352 0.90351 z m 10.47726,-3.530797 c -0.34155,-0.09754 -0.69455,-0.518862 -0.79265,-0.946061 -0.0283,-0.12321 -0.0467,-1.293076 -0.0468,-2.982023 -1.8e-4,-2.583703 -0.007,-2.80973 -0.0918,-3.212156 -0.1326,-0.627114 -0.34103,-1.061985 -0.74202,-1.548172 -0.55993,-0.678871 -1.17463,-0.981714 -1.96968,-0.970383 -1.2666,0.01805 -2.3805,1.125386 -2.64085,2.625264 -0.043,0.247784 -0.0684,0.717508 -0.0689,1.275023 l -7.7e-4,0.882707 h -1.13518 -1.1352 l 3.5e-4,-0.826663 c 7.1e-4,-1.448736 0.12584,-2.271288 0.48598,-3.193639 0.6834,-1.750239 1.98096,-2.996961 3.52156,-3.383594 0.52611,-0.132034 1.43738,-0.140754 1.96871,-0.01884 1.0204,0.234133 1.91419,0.82513 2.65055,1.752611 0.45236,0.569771 0.66652,0.945813 0.94074,1.65184 0.23574,0.606948 0.37179,1.175218 0.4384,1.831062 0.0273,0.268867 0.0482,1.644361 0.0482,3.170377 0,3.088985 -0.002,3.114051 -0.34628,3.52994 -0.28907,0.349638 -0.67643,0.479206 -1.08437,0.362705 z"
       id="path118"
       inkscape:connector-curvature="0" />
  </g>
</svg>
