<?xml version="1.0" encoding="UTF-8" standalone="no"?>
<!-- Created with Inkscape (http://www.inkscape.org/) -->
<svg
   xmlns:dc="http://purl.org/dc/elements/1.1/"
   xmlns:cc="http://web.resource.org/cc/"
   xmlns:rdf="http://www.w3.org/1999/02/22-rdf-syntax-ns#"
   xmlns:svg="http://www.w3.org/2000/svg"
   xmlns="http://www.w3.org/2000/svg"
   xmlns:sodipodi="http://sodipodi.sourceforge.net/DTD/sodipodi-0.dtd"
   xmlns:inkscape="http://www.inkscape.org/namespaces/inkscape"
   id="svg2"
   sodipodi:version="0.32"
   inkscape:version="0.45.1"
   width="1242.71"
   height="1204.4"
   version="1.0"
   sodipodi:docbase="K:\Businesses and Nonprofit Files\pre-2008 Website parts\Our public domain vector images (includes PNG &amp; GIF conversions too)"
   sodipodi:docname="Fleur-de-leis.svg"
   inkscape:output_extension="org.inkscape.output.svg.inkscape"
   inkscape:export-filename="K:\Businesses and Nonprofit Files\pre-2008 Website parts\Our public domain vector images (includes PNG &amp; GIF conversions too)\Fleur-de-leis500bw.png"
   inkscape:export-xdpi="37.487503"
   inkscape:export-ydpi="37.487503">
  <metadata
     id="metadata7">
    <rdf:RDF>
      <cc:Work
         rdf:about="">
        <dc:format>image/svg+xml</dc:format>
        <dc:type
           rdf:resource="http://purl.org/dc/dcmitype/StillImage" />
      </cc:Work>
    </rdf:RDF>
  </metadata>
  <defs
     id="defs5" />
  <sodipodi:namedview
     inkscape:window-height="968"
     inkscape:window-width="1280"
     inkscape:pageshadow="2"
     inkscape:pageopacity="0.0"
     guidetolerance="10.0"
     gridtolerance="10.0"
     objecttolerance="10.0"
     borderopacity="1.0"
     bordercolor="#666666"
     pagecolor="#ffffff"
     id="base"
     inkscape:zoom="0.75047619"
     inkscape:cx="962.77892"
     inkscape:cy="923.69749"
     inkscape:window-x="-4"
     inkscape:window-y="-4"
     inkscape:current-layer="svg2"
     width="1242.71px"
     height="1204.4px" />
  <path
     sodipodi:type="arc"
     style="opacity:1;fill:#008000;fill-opacity:1;stroke:#000000;stroke-width:14.48600006;stroke-linecap:round;stroke-linejoin:round;stroke-miterlimit:4;stroke-dasharray:none;stroke-opacity:1"
     id="path2163"
     sodipodi:cx="1184.5812"
     sodipodi:cy="1288.5153"
     sodipodi:rx="611.61163"
     sodipodi:ry="592.95685"
     d="M 1796.1928 1288.5153 A 611.61163 592.95685 0 1 1  572.96954,1288.5153 A 611.61163 592.95685 0 1 1  1796.1928 1288.5153 z"
     transform="matrix(0.9696791,0,0,1.0001858,-524.46355,-684.5549)" />
  <path
     style="fill:#ffffff;fill-rule:evenodd;stroke:#000000;stroke-width:14.48600006;stroke-linecap:butt;stroke-linejoin:miter;stroke-miterlimit:4;stroke-dasharray:none;stroke-opacity:1"
     d="M 672.13359,803.30631 L 770.65826,798.97263 C 771.70803,796.56981 794.1004,756.86972 795.19535,754.49261 C 866.21252,600.31648 1031.3541,502.24607 1170.7866,722.56329 C 1239.6145,516.94409 990.17896,301.37334 780.67186,545.68499 C 730.07724,610.11055 715.67224,674.87463 690.69192,739.53973 C 689.00074,743.91758 673.93622,798.9295 672.13359,803.30631 z "
     id="path2169"
     sodipodi:nodetypes="ccsccsc" />
  <path
     style="fill:#ffffff;fill-rule:evenodd;stroke:#000000;stroke-width:14.48600006;stroke-linecap:butt;stroke-linejoin:miter;stroke-miterlimit:4;stroke-dasharray:none;stroke-opacity:1"
     d="M 454.98506,889.10179 L 573.49712,868.75327 C 575.13145,872.6948 561.06782,906.59583 560.72601,911.68302 C 556.57932,973.39816 414.74637,1108.8308 322.78753,1061.0968 C 245.01148,1020.7248 262.66458,926.36319 305.753,887.70649 C 316.54202,981.30479 408.26661,1023.1927 454.98506,889.10179 z "
     id="path2173"
     sodipodi:nodetypes="ccsscc" />
  <path
     style="fill:#ffffff;fill-rule:evenodd;stroke:#000000;stroke-width:14.48600006;stroke-linecap:square;stroke-linejoin:miter;stroke-miterlimit:4;stroke-dasharray:none;stroke-opacity:1"
     d="M 666.06426,886.29829 C 688.83706,979.86249 795.54226,1077.9912 879.34436,1055.1842 C 1018.5023,1017.312 930.58016,919.15529 910.05696,857.39739 C 925.61027,1002.9125 822.83083,985.23405 778.38949,885.83869 L 666.06426,886.29829 z "
     id="path2175"
     sodipodi:nodetypes="csccc" />
  <path
     style="fill:#ffffff;fill-opacity:1;fill-rule:evenodd;stroke:#000000;stroke-width:14.48600006;stroke-linecap:butt;stroke-linejoin:miter;stroke-miterlimit:4;stroke-dasharray:none;stroke-opacity:1"
     d="M 561.47991,851.40596 L 664.12665,845.74037 C 664.94763,849.17037 664.43398,903.30436 665.25493,906.86623 C 682.20027,980.38709 700.04965,1080.496 756.41196,1145.1036 C 718.45026,1177.7502 665.27116,1188.6255 604.09146,1188.9861 C 542.81306,1189.3473 469.39866,1151.7468 460.61266,1142.3381 C 515.74343,1069.2837 545.2177,992.31904 554.88542,912.33568 C 555.35305,908.46681 561.10429,855.28885 561.47991,851.40596 z "
     id="path2177"
     sodipodi:nodetypes="ccsczcsc" />
  <path
     style="fill:#ffffff;fill-rule:evenodd;stroke:#000000;stroke-width:14.48600006;stroke-linecap:butt;stroke-linejoin:miter;stroke-miterlimit:4;stroke-dasharray:none;stroke-opacity:1"
     d="M 576.34343,801.46695 L 473.6718,799.13753 C 477.84911,804.11913 452.72546,753.30204 450.80778,749.10047 C 381.28185,596.77173 220.16667,500.55729 78.338249,715.65229 C 13.366959,508.78209 266.78936,297.91285 471.69186,546.09899 C 521.56549,612.11118 534.52418,677.77825 558.74581,743.55057 C 560.13027,747.30997 574.87639,797.70677 576.34343,801.46695 z "
     id="path7054"
     sodipodi:nodetypes="ccsccsc" />
  <path
     style="fill:#ffffff;fill-rule:evenodd;stroke:#000000;stroke-width:14.48600006;stroke-linecap:butt;stroke-linejoin:miter;stroke-miterlimit:4;stroke-dasharray:none;stroke-opacity:1"
     d="M 620.28406,27.157727 C 690.46096,184.88785 917.98736,299.24791 810.35896,505.98619 C 747.79069,577.59093 715.12534,661.10087 690.57149,734.59467 C 688.83755,739.78463 675.15168,790.22921 673.49097,795.31156 L 562.85031,782.12302 C 579.95618,816.74037 554.4203,746.09262 552.86534,742.07175 C 519.80441,656.58186 484.99864,572.2319 431.97406,499.78329 C 357.8592,277.54697 523.99526,261.26287 620.28406,27.157727 z "
     id="path2165"
     sodipodi:nodetypes="ccsccscc" />
  <path
     style="fill:#d4aa00;fill-rule:evenodd;stroke:#000000;stroke-width:14.48600006;stroke-linecap:butt;stroke-linejoin:miter;stroke-miterlimit:4;stroke-dasharray:none;stroke-opacity:1"
     d="M 494.95796,889.47549 C 374.10264,889.84789 390.58916,764.30659 504.12346,764.30189 L 752.00516,761.28929 C 882.70306,776.24509 841.13236,890.99689 745.45456,891.81749 L 494.95796,889.47549 z "
     id="path2171"
     sodipodi:nodetypes="ccccc" />
</svg>
